<svg fill="currentColor" fill-rule="evenodd" height="1em" style="flex:none;line-height:1" viewBox="0 0 78 24" xmlns="http://www.w3.org/2000/svg"><title>Adobe</title><path d="M13.541 17.383H7.113l-1.336 4.116c-.055.166-.166.222-.333.222H2.216c-.196 0-.251-.083-.196-.278l5.568-16.05c.11-.278.222-.612.25-1.67 0-.138.083-.194.194-.194h4.425c.139 0 .194.028.222.14l6.345 17.802c.057.167.029.25-.167.25H15.24c-.139 0-.222-.056-.305-.167l-1.392-4.173v.002zm-1.057-3.45c-.528-1.836-1.64-5.203-2.197-7.205h-.03c-.444 1.893-1.418 4.951-2.142 7.205h4.37zm6.687 1.028c0-4.005 2.978-7.314 8.071-7.314.222 0 .473 0 .89.027v-5.48c0-.138.083-.194.194-.194h3.535c.111 0 .139.056.139.167v16.438c0 .67.056 1.502.112 2.032 0 .166-.027.222-.167.278A14.056 14.056 0 0126.435 22c-4.119-.002-7.264-2.31-7.264-7.039zm8.961-3.977c-.278-.083-.64-.111-1.029-.111-2.116 0-3.951 1.28-3.951 3.894 0 2.753 1.585 3.95 3.673 3.95.473 0 .918-.056 1.307-.167v-7.566zm19.39 3.754c0 4.368-2.81 7.262-6.845 7.262-4.732 0-6.846-3.561-6.846-7.15 0-3.95 2.615-7.205 6.93-7.205 4.451.002 6.762 3.367 6.762 7.093zm-6.929-3.865c-1.64 0-2.865 1.418-2.865 3.922 0 2.42 1.14 3.977 3.032 3.977 1.615 0 2.839-1.363 2.839-3.922 0-2.197-.919-3.977-3.006-3.977zM52.914 2c.223 0 .278.056.278.25l.028 5.703c.695-.223 1.502-.306 2.338-.306 4.09 0 6.678 2.892 6.678 6.62 0 5.172-4.118 7.731-8.376 7.731-1.447 0-2.95-.166-4.342-.64a.268.268 0 01-.194-.25V2.223c0-.166.083-.222.222-.222h3.368zm5.37 12.628c0-2.531-1.474-3.727-3.45-3.727-.863 0-1.252.139-1.614.25v7.538c.334.055.669.083 1.03.083 2.087 0 4.035-1.28 4.035-4.144zm9.034 1.224c.14 1.585 1.28 2.892 3.978 2.892a9.04 9.04 0 003.424-.64c.111-.055.194-.027.194.112v2.643c0 .222-.055.278-.194.36-1.114.502-2.338.78-4.286.78-5.204 0-7.04-3.588-7.04-7.01 0-3.866 2.338-7.344 6.707-7.344 4.229 0 5.899 3.228 5.899 6.01 0 .834-.056 1.557-.139 1.835-.028.139-.083.194-.223.223-.39.084-1.447.14-2.866.14h-5.454zm3.617-2.725c.89 0 1.308-.03 1.391-.057.028-.028.028-.139.028-.167 0-.695-.555-2.226-2.393-2.226-1.753 0-2.477 1.309-2.644 2.448l3.618.002z"></path></svg>