<svg fill="currentColor" fill-rule="evenodd" height="1em" style="flex:none;line-height:1" viewBox="0 0 135 24" width="1em" xmlns="http://www.w3.org/2000/svg"><title>AgentVoice</title><g transform="matrix(0.322801,0,0,0.322801,25.9259,9.43646)"><path d="M-11.093,-16.888L-2.493,-16.888L13.772,26.734L6.044,26.734L1.994,15.953L-15.892,15.953L-19.942,26.734L-27.42,26.734L-11.093,-16.888ZM0,9.846L-6.98,-9.161L-13.897,9.846L0,9.846ZM14.265,28.542L21.121,28.542C21.994,32.094 25.047,34.088 29.782,34.088C35.703,34.088 38.944,31.221 38.944,25.177L38.944,21.811C36.825,24.615 33.522,26.859 28.661,26.859C19.812,26.859 13.455,20.752 13.455,10.719C13.455,1.122 19.874,-5.546 28.537,-5.546C33.46,-5.546 36.95,-3.552 39.006,-0.499L39.753,-5.172L45.612,-5.172L45.612,25.426C45.612,34.399 40.315,39.572 29.284,39.572C20.684,39.572 14.889,35.583 14.265,28.542ZM38.944,10.781C38.944,4.487 35.204,0.187 29.658,0.187C24.049,0.187 20.373,4.425 20.373,10.719C20.373,16.95 24.049,21.188 29.658,21.188C35.204,21.188 38.944,16.95 38.944,10.781ZM49.721,10.843C49.721,0.997 56.016,-5.546 65.426,-5.546C74.587,-5.546 80.88,0.374 80.88,9.971L80.88,12.276L56.763,12.276L56.763,12.65C56.763,18.009 60.378,21.624 65.675,21.624C69.85,21.624 72.904,19.568 73.838,16.078L80.569,16.078C79.447,22.309 73.963,27.108 66.048,27.108C56.016,27.108 49.721,20.627 49.721,10.843ZM74.025,7.291C73.464,2.555 70.224,-0.125 65.488,-0.125C61.251,-0.125 57.511,2.617 56.95,7.291L74.025,7.291ZM84.928,-5.173L90.848,-5.173L91.533,-0.998C93.465,-3.428 96.581,-5.547 101.753,-5.547C108.858,-5.547 114.591,-1.683 114.591,8.973L114.591,26.734L107.86,26.734L107.86,9.472C107.86,3.427 105.244,0.249 100.258,0.249C94.587,0.249 91.72,3.801 91.72,9.908L91.72,26.734L84.928,26.734L84.928,-5.173ZM122.002,18.072L122.002,0.748L116.455,0.748L116.455,-5.173L122.002,-5.173L122.002,-14.084L128.732,-14.084L128.732,-5.173L136.958,-5.173L136.958,0.748L128.732,0.748L128.732,17.387C128.732,19.879 129.667,20.814 132.222,20.814L136.958,20.814L136.958,26.734L130.664,26.734C124.557,26.734 122.002,23.868 122.002,18.072ZM137.205,-16.889L144.808,-16.889L156.897,18.134L168.987,-16.889L176.465,-16.889L161.135,26.734L152.535,26.734L137.205,-16.889ZM173.346,10.781C173.346,1.059 179.89,-5.546 189.612,-5.546C199.333,-5.546 205.876,1.059 205.876,10.781C205.876,20.565 199.333,27.108 189.612,27.108C179.89,27.108 173.346,20.565 173.346,10.781ZM199.022,10.781C199.022,4.612 195.282,0.187 189.612,0.187C183.941,0.187 180.264,4.612 180.264,10.781C180.264,16.95 183.941,21.375 189.612,21.375C195.282,21.375 199.022,16.95 199.022,10.781ZM209.922,-5.173L216.715,-5.173L216.715,26.734L209.922,26.734L209.922,-5.173ZM209.362,-13.773C209.362,-16.016 211.107,-17.636 213.288,-17.636C215.531,-17.636 217.214,-16.016 217.214,-13.773C217.214,-11.529 215.531,-9.847 213.288,-9.847C211.107,-9.847 209.362,-11.529 209.362,-13.773ZM220.763,10.843C220.763,0.997 227.12,-5.546 236.779,-5.546C245.005,-5.546 250.115,-0.997 251.424,6.232L244.382,6.232C243.509,2.493 240.83,0.187 236.655,0.187C231.233,0.187 227.681,4.549 227.681,10.843C227.681,17.075 231.17,21.375 236.655,21.375C240.83,21.375 243.509,19.007 244.382,15.268L251.424,15.268C250.177,22.559 244.756,27.108 236.592,27.108C226.808,27.108 220.763,20.814 220.763,10.843ZM253.852,10.843C253.852,0.997 260.147,-5.546 269.557,-5.546C278.718,-5.546 285.011,0.374 285.011,9.971L285.011,12.276L260.894,12.276L260.894,12.65C260.894,18.009 264.509,21.624 269.805,21.624C273.981,21.624 277.035,19.568 277.969,16.078L284.7,16.078C283.578,22.309 278.094,27.108 270.179,27.108C260.147,27.108 253.852,20.627 253.852,10.843ZM278.156,7.291C277.595,2.555 274.355,-0.125 269.619,-0.125C265.382,-0.125 261.642,2.617 261.081,7.291L278.156,7.291Z"></path></g></svg>