<svg fill="currentColor" fill-rule="evenodd" height="1em" style="flex:none;line-height:1" viewBox="0 0 24 24" width="1em" xmlns="http://www.w3.org/2000/svg"><title>AG-UI</title><path clip-rule="evenodd" d="M7.675.281A.609.609 0 018.32.014l10.047 2.222 2.511.555.628.139.157.034.04.01.01.001a.04.04 0 01.002.001l.06.016a.609.609 0 01.408.688l-3.63 19.82a.609.609 0 01-.989.358L1.718 10.605a.609.609 0 01-.123-.794l6.08-9.53zM3.34 10.374l13.118 10.971-5.76-13.394-7.358 2.423zm8.519-2.805l5.874 13.659L20.77 4.635l-8.912 2.934zM3.539 9.026l6.675-2.197-2.123-4.937L3.54 9.026zm7.836-2.58l8.195-2.698-1.466-.324-8.872-1.962 2.143 4.984z"></path></svg>