<svg fill="currentColor" fill-rule="evenodd" height="1em" style="flex:none;line-height:1" viewBox="0 0 49 24" xmlns="http://www.w3.org/2000/svg"><title>Ai2</title><path d="M26.764 4.477H22.73V1.574h4.035v2.903zm-3.143 2.412h-2.427v3.049h2.116c.353 0 .643.292.643.647V23h3.195V10.355c0-2.244-1.442-3.466-3.516-3.466h-.01zm-9.76-5.315l7.904 21.416h-3.36l-2.096-5.691H6.425l-2.096 5.69H1L8.903 1.575h4.958zm1.463 13.063L11.372 3.924 7.42 14.637h7.904zm19.364 5.69l6.493-5.158c3.776-2.997 5.435-5.085 5.435-7.956C46.616 4.34 44.728 1 39.034 1s-9.148 4.657-9.148 8.938h3.454c0-3.863 1.701-6.202 5.694-6.202 3.994 0 4.128 1.722 4.128 3.508 0 1.785-.477 2.704-2.333 4.218l-10.88 8.855v2.673H47v-2.673H34.678l.01.01z"></path></svg>