<svg fill="currentColor" fill-rule="evenodd" height="1em" style="flex:none;line-height:1" viewBox="0 0 24 24" width="1em" xmlns="http://www.w3.org/2000/svg"><title>302.AI</title><path d="M19.04 4.818a10.171 10.171 0 014.21 8.25c0 5.623-4.55 10.182-10.163 10.182a10.142 10.142 0 01-8.129-4.07 10.102 10.102 0 005.956 1.934c5.613 0 10.163-4.56 10.163-10.182 0-2.295-.759-4.411-2.037-6.114z" fill-opacity=".5"></path><path d="M10.887 5.2c1.156 0 2.097.944 2.097 2.1 0 .354-.09.7-.258 1.006a.591.591 0 00.233.797c.215.117.47.084.647-.062.375-.232.811-.338 1.251-.305a2.098 2.098 0 011.931 2.248 2.097 2.097 0 01-2.244 1.939 2.082 2.082 0 01-1.246-.533c-.019-.024-.036-.047-.056-.07a.617.617 0 00-.111-.102 2.113 2.113 0 01-.137-.173.58.58 0 10-.947.675c.118.167.247.323.39.462.22.291.36.637.405 1.005a2.08 2.08 0 01-.425 1.546 2.088 2.088 0 01-1.398.792 2.094 2.094 0 01-2.335-1.827 2.083 2.083 0 01.263-1.304v.005a3.273 3.273 0 001.216-2.546c0-.92-.383-1.745-.993-2.34l-.03-.055A2.101 2.101 0 0110.887 5.2z"></path><path d="M6.901 8.752a2.1 2.1 0 010 4.201 2.097 2.097 0 01-2.091-2.1c0-1.159.937-2.101 2.091-2.101z"></path><path clip-rule="evenodd" d="M10.914.75c5.613 0 10.163 4.559 10.163 10.182s-4.55 10.182-10.163 10.182S.75 16.555.75 10.932C.75 5.308 5.301.75 10.914.75zm-.021 3.283A3.27 3.27 0 007.65 7.671a3.27 3.27 0 00-4.006 3.182c0 1.8 1.464 3.262 3.262 3.262.211 0 .417-.016.618-.055-.03.258-.028.516.005.78a3.25 3.25 0 001.23 2.178 3.234 3.234 0 002.407.665 3.236 3.236 0 002.173-1.234c.535-.689.77-1.545.663-2.41 0-.006-.005-.013-.005-.02.151.033.309.055.466.066a3.228 3.228 0 002.365-.781 3.27 3.27 0 00-1.884-5.734 3.31 3.31 0 00-.81.04 3.266 3.266 0 00-3.241-3.577z"></path></svg>