<svg fill="currentColor" fill-rule="evenodd" height="1em" style="flex:none;line-height:1" viewBox="0 0 80 24" xmlns="http://www.w3.org/2000/svg"><title>302.AI</title><path clip-rule="evenodd" d="M2 18.092c0-.626.54-1.082 1.271-1.082.54 0 .955.285 1.272.826.666 1.167 1.78 1.937 3.654 1.937 2.352 0 3.718-1.423 3.718-3.446 0-2.137-1.557-3.56-3.973-3.56h-.221c-.826 0-1.303-.455-1.303-1.11 0-.654.477-1.11 1.303-1.11h.19c2.098 0 3.592-1.224 3.592-3.247 0-1.852-1.302-3.076-3.463-3.076-1.781 0-2.767.797-3.307 1.852-.286.541-.7.826-1.24.826-.731 0-1.24-.427-1.24-1.053 0-.171.064-.427.126-.598.666-1.738 2.606-3.247 5.754-3.247 3.782 0 6.103 2.165 6.103 5.185 0 2.051-1.27 3.446-2.67 4.214v.057c1.4.512 3.082 2.222 3.082 4.843 0 3.361-2.67 5.697-6.451 5.697-3.307 0-5.276-1.48-6.102-3.36A1.6 1.6 0 012 18.098v-.007zM17.51 11.997c0-4.556.221-5.583.476-6.323C18.846 3.309 20.91 2 23.897 2c2.988 0 5.054 1.31 5.911 3.674.255.74.476 1.767.476 6.323 0 4.556-.221 5.583-.476 6.323-.857 2.364-2.923 3.674-5.91 3.674-2.988 0-5.055-1.31-5.912-3.674-.255-.74-.476-1.767-.476-6.323zm6.39 7.777c1.59 0 2.766-.655 3.273-1.938.221-.598.35-1.423.35-5.84 0-4.415-.127-5.24-.35-5.838-.51-1.281-1.686-1.938-3.274-1.938s-2.766.655-3.273 1.938c-.221.597-.35 1.423-.35 5.839s.126 5.241.35 5.839c.51 1.28 1.685 1.938 3.273 1.938zM33.974 19.031l7.375-8.43c.985-1.14 1.495-2.138 1.495-3.333 0-1.767-1.303-3.048-3.402-3.048-1.907 0-2.957.91-3.433 2.336-.221.626-.7.94-1.24.94-.795 0-1.336-.428-1.336-1.11 0-.114.032-.314.065-.428C34.008 3.964 35.945 2 39.538 2c3.592 0 6.039 2.25 6.039 5.27 0 1.738-.762 3.19-2.13 4.7l-6.612 7.434v.056h7.661c.826 0 1.302.456 1.302 1.11 0 .655-.476 1.11-1.302 1.11H34.483c-.826 0-1.302-.455-1.302-1.053 0-.512.221-.91.795-1.596h-.002zM50.312 18.372c.986 0 1.812.784 1.812 1.721s-.826 1.721-1.812 1.721c-.985 0-1.811-.784-1.811-1.72 0-.938.826-1.722 1.811-1.722zM55.237 20.085l6.645-16.491c.35-.91.89-1.423 1.842-1.423.953 0 1.557.512 1.907 1.423l6.547 16.49c.064.171.126.37.126.57 0 .712-.605 1.167-1.335 1.167-.636 0-1.145-.313-1.367-.91l-1.462-3.732h-8.867L57.81 20.91c-.222.598-.731.91-1.367.91-.73 0-1.335-.454-1.335-1.166 0-.2.064-.399.126-.57h.002zm11.984-5.242l-3.433-8.801h-.095l-3.497 8.801h7.025zM75.33 3.935c0-1.127.571-1.813 1.335-1.813s1.336.686 1.336 1.813V20.01c0 1.127-.572 1.813-1.336 1.813-.764 0-1.335-.686-1.335-1.813V3.935z"></path></svg>