<svg height="1em" style="flex:none;line-height:1" viewBox="0 0 24 24" width="1em" xmlns="http://www.w3.org/2000/svg"><title>AiHubMix</title><path d="M12 24c6.627 0 12-5.373 12-12S18.627 0 12 0 0 5.373 0 12s5.373 12 12 12z" fill="#006FFB"></path><path clip-rule="evenodd" d="M11.24 8.393c.095-.644.302-1.47.624-2.48L12 5.496l.136.417c.322 1.01.53 1.836.624 2.48.071.472.071 1.072 0 1.8-.072.731-.072 1.336 0 1.814.106.7.426 1.281.96 1.744a2.795 2.795 0 001.89.708 2.78 2.78 0 002.034-.84c.56-.559.842-1.234.848-2.024.003-.7.075-1.472.216-2.316.069-.422.14-.775.21-1.06l.095-.384.168.356a7.862 7.862 0 01.76 3.244v.16a7.84 7.84 0 01-.624 3.089 7.952 7.952 0 01-4.228 4.228 7.841 7.841 0 01-3.089.623 7.84 7.84 0 01-3.089-.623 7.952 7.952 0 01-4.228-4.228 7.84 7.84 0 01-.623-3.09v-.159a7.862 7.862 0 01.759-3.244l.169-.356.093.385c.072.284.143.637.211 1.059.141.844.213 1.616.216 2.316.006.79.29 1.465.848 2.024.563.56 1.241.84 2.035.84.715 0 1.345-.236 1.889-.708a2.79 2.79 0 00.96-1.744c.073-.478.073-1.083 0-1.814-.071-.728-.071-1.328 0-1.8zm.76 9.694c1.097 0 2.125-.26 3.085-.778a6.379 6.379 0 001.77-1.399c.063-.07-.01-.178-.101-.153-.37.1-.75.15-1.144.15a4.236 4.236 0 01-2.18-.59 4.253 4.253 0 01-1.35-1.233.099.099 0 00-.16 0 4.253 4.253 0 01-1.35 1.232 4.236 4.236 0 01-2.18.591c-.393 0-.774-.05-1.143-.15-.091-.025-.165.083-.102.153a6.38 6.38 0 001.77 1.399c.96.518 1.988.778 3.085.778z" fill="#fff" fill-rule="evenodd"></path></svg>