<svg width="12" height="12" viewBox="0 0 12 12" fill="none" xmlns="http://www.w3.org/2000/svg">
<path fill-rule="evenodd" clip-rule="evenodd" d="M6 12C9.31371 12 12 9.31371 12 6C12 2.68629 9.31371 0 6 0C2.68629 0 0 2.68629 0 6C0 9.31371 2.68629 12 6 12ZM5.93213 2.95664C5.77119 3.46133 5.66728 3.87461 5.62041 4.19648C5.58447 4.43242 5.58447 4.73242 5.62041 5.09648C5.65635 5.46211 5.65635 5.76445 5.62041 6.00352C5.56729 6.35352 5.40713 6.64414 5.13994 6.87539C4.86807 7.11133 4.55322 7.2293 4.19541 7.2293C3.79854 7.2293 3.45947 7.08945 3.17822 6.80977C2.89854 6.53008 2.75713 6.19258 2.754 5.79727C2.75244 5.44727 2.7165 5.06133 2.64619 4.63945C2.61182 4.42852 2.57666 4.25195 2.54072 4.10977L2.49385 3.91758L2.40947 4.0957C2.16729 4.6082 2.04072 5.14883 2.02979 5.71758V5.79727C2.02979 6.33633 2.13369 6.85117 2.3415 7.3418C2.54307 7.81836 2.82666 8.23945 3.19229 8.60508C3.55947 8.9707 3.98057 9.2543 4.45557 9.45586C4.94619 9.66367 5.46103 9.76758 6.0001 9.76758C6.53916 9.76758 7.054 9.66367 7.54463 9.45586C8.01963 9.2543 8.44072 8.9707 8.80791 8.60508C9.17354 8.23945 9.45713 7.81836 9.65869 7.3418C9.8665 6.85117 9.97041 6.33633 9.97041 5.79727V5.71758C9.95947 5.14883 9.83291 4.6082 9.59072 4.0957L9.50635 3.91758L9.45947 4.10977C9.42354 4.25195 9.38838 4.42852 9.354 4.63945C9.28369 5.06133 9.24775 5.44727 9.24619 5.79727C9.24307 6.19258 9.10166 6.53008 8.82197 6.80977C8.54072 7.08945 8.20166 7.2293 7.80478 7.2293C7.44697 7.2293 7.13213 7.11133 6.86025 6.87539C6.59307 6.64414 6.43291 6.35352 6.37979 6.00352C6.34385 5.76445 6.34385 5.46211 6.37979 5.09648C6.41572 4.73242 6.41572 4.43242 6.37979 4.19648C6.33291 3.87461 6.229 3.46133 6.06807 2.95664L6.0001 2.74805L5.93213 2.95664ZM7.54228 8.6543C7.0626 8.91367 6.54853 9.04336 6.0001 9.04336C5.45166 9.04336 4.9376 8.91367 4.45791 8.6543C4.11797 8.47135 3.82275 8.23831 3.57228 7.95517C3.54102 7.91984 3.57786 7.86606 3.62338 7.87842C3.80792 7.92848 3.99859 7.95352 4.19541 7.95352C4.58604 7.95352 4.94932 7.85508 5.28525 7.6582C5.5567 7.49998 5.78162 7.29456 5.96001 7.04194C5.97943 7.01445 6.02076 7.01445 6.04018 7.04194C6.21858 7.29456 6.4435 7.49998 6.71494 7.6582C7.05088 7.85508 7.41416 7.95352 7.80478 7.95352C8.0016 7.95352 8.19228 7.92848 8.37681 7.87842C8.42234 7.86606 8.45918 7.91984 8.42792 7.95517C8.17744 8.23831 7.88223 8.47135 7.54228 8.6543Z" fill="url(#paint0_linear_347_5013)"/>
<defs>
<linearGradient id="paint0_linear_347_5013" x1="6" y1="0" x2="6" y2="12" gradientUnits="userSpaceOnUse">
<stop stop-color="#2563EB"/>
<stop offset="1" stop-color="#0049DF"/>
</linearGradient>
</defs>
</svg>
