<svg fill="currentColor" fill-rule="evenodd" height="1em" style="flex:none;line-height:1" viewBox="0 0 144 24" xmlns="http://www.w3.org/2000/svg"><title>AiHubMix</title><path clip-rule="evenodd" d="M2 22.569L8.27 1h5.957l6.238 21.569h-3.48l-1.442-5.084h-8.59l-1.442 5.084H2zm5.8-8.166h6.897L11.499 3.064h-.502L7.8 14.404zM23.532 22.569V7.379h3.23v15.19h-3.23zm1.63-17.255c-.627 0-1.16-.195-1.598-.586-.418-.41-.627-.934-.627-1.571 0-.637.209-1.15.627-1.54.439-.412.971-.617 1.599-.617.647 0 1.18.205 1.598.616.418.39.627.904.627 1.54 0 .638-.209 1.161-.627 1.572-.418.39-.95.586-1.598.586zM31.46 22.569V1h3.385v9.244h9.217V1h3.386v21.569h-3.386v-9.306h-9.217v9.306H31.46zM58.052 22.846c-1.17 0-2.215-.257-3.135-.77a5.497 5.497 0 01-2.163-2.188c-.523-.945-.784-2.075-.784-3.39v-9.12h3.23v8.905c0 1.314.333 2.29 1.002 2.927.67.616 1.6.924 2.79.924 1.317 0 2.373-.431 3.167-1.294.815-.883 1.223-2.146 1.223-3.79V7.378h3.229v15.19h-3.167v-2.28h-.502c-.292.616-.815 1.202-1.567 1.757-.752.534-1.86.8-3.323.8zM80.319 23c-1.505 0-2.665-.267-3.48-.801-.794-.534-1.39-1.13-1.787-1.787h-.502v2.157h-3.166V1h3.23v8.443h.5c.251-.411.586-.802 1.004-1.171.418-.39.972-.709 1.661-.955.69-.247 1.536-.37 2.54-.37 1.296 0 2.487.308 3.574.924 1.086.616 1.954 1.51 2.602 2.68.647 1.172.971 2.569.971 4.191v.462c0 1.644-.334 3.05-1.003 4.222-.648 1.15-1.515 2.033-2.602 2.65-1.066.616-2.246.924-3.542.924zm-.94-2.773c1.4 0 2.549-.442 3.448-1.325.92-.883 1.38-2.147 1.38-3.79v-.277c0-1.623-.45-2.876-1.349-3.76-.899-.883-2.059-1.324-3.48-1.324-1.38 0-2.529.441-3.448 1.325-.9.883-1.349 2.136-1.349 3.759v.277c0 1.643.45 2.907 1.349 3.79.92.883 2.069 1.325 3.448 1.325zM91.374 22.569V1h6.364l4.796 19.35h.502L107.832 1h6.364v21.569h-3.292V3.342h-.501l-4.765 19.227h-5.706L95.167 3.342h-.502v19.227h-3.291zM118.868 22.569V7.379h3.229v15.19h-3.229zm1.63-17.255c-.627 0-1.16-.195-1.599-.586-.418-.41-.627-.934-.627-1.571 0-.637.209-1.15.627-1.54.439-.412.972-.617 1.599-.617.648 0 1.181.205 1.599.616.418.39.627.904.627 1.54 0 .638-.209 1.161-.627 1.572-.418.39-.951.586-1.599.586zM125.573 22.568l5.894-7.672-5.769-7.518h3.793l4.044 5.454h.502l4.044-5.454h3.825l-5.8 7.518L142 22.568h-3.856l-4.107-5.577h-.502l-4.106 5.577h-3.856z"></path></svg>