<svg fill="currentColor" fill-rule="evenodd" height="1em" style="flex:none;line-height:1" viewBox="0 0 85 24" xmlns="http://www.w3.org/2000/svg"><title>AiMass</title><path d="M22.843 4.53h5.492c.462-.837.88-1.68 1.255-2.53l3.293.361a33.006 33.006 0 01-1.094 2.17H42.08v2.63H30.233a63.053 63.053 0 01-2.65 3.875h4.276V8.145h3.033v2.891h6.526v2.63h-6.526v4.64c0 .99-.218 1.756-.653 2.298-.435.543-1.04.867-1.817.974-.777.107-2.035.161-3.775.161a59.253 59.253 0 00-.683-3.012c1.09.107 2.001.16 2.73.16.777 0 1.165-.408 1.165-1.224v-3.996h-7.81v-2.771a46.257 46.257 0 002.72-3.735h-3.926V4.53z"></path><path d="M27.06 14.129c1.513 1.204 2.303 1.813 2.37 1.827a68.168 68.168 0 01-5.04 5 26.022 26.022 0 00-2.089-2.129 74.242 74.242 0 004.76-4.699zM37.763 14.49l4.9 3.896-2.048 2.269a83.452 83.452 0 00-4.7-4.177l1.848-1.988zM69.892 4.912c-.884-1.165-1.68-2.136-2.39-2.912l-2.169 1.386c.79.977 1.453 1.854 1.988 2.63h-3.453v2.59h3.875c-1.138 2.196-2.497 3.936-4.076 5.221.294.964.562 1.968.803 3.012a29.13 29.13 0 001.827-1.917V22h2.53v-7.41a63.278 63.278 0 012.129 1.948l1.446-1.747a58.297 58.297 0 00-1.386-1.144c.716-.864 1.372-1.7 1.968-2.51l-1.847-1.165a30.83 30.83 0 01-1.637 2.51 34.808 34.808 0 00-.673-.512v-.362a34.102 34.102 0 001.908-3.243V6.016h-2.5l1.657-1.104z"></path><path d="M75.253 18.406c.294 1.11.529 2.128.703 3.052 1.606-.034 2.834-.087 3.685-.16.856-.074 1.519-.416 1.987-1.025.476-.609.713-1.486.713-2.63l.1-2.701.242-11.617H71.357v2.53h2.35c-.06 3.414-.184 5.757-.372 7.028a12.246 12.246 0 01-1.184 3.745c-.61 1.225-1.476 2.32-2.6 3.284.95.776 1.72 1.466 2.308 2.068 1.346-1.312 2.363-2.795 3.053-4.448.696-1.653 1.114-3.19 1.255-4.608.14-1.42.26-3.775.361-7.069h3.263c-.08 6.466-.157 10.198-.23 11.195-.074.997-.586 1.496-1.537 1.496-.877 0-1.8-.047-2.771-.14zM51.377 6.719h-7.891V9.49h7.51c-.63 3.842-3.273 7.115-7.932 9.82.59.588 1.366 1.485 2.33 2.69 4.23-3.333 6.834-6.707 7.81-10.12 1.507 4.457 4.044 7.79 7.611 10a63.48 63.48 0 012.39-2.952c-4.19-1.707-6.981-4.853-8.374-9.438h7.892V6.719H54.47c.1-1.553.16-3.052.18-4.498h-3.092a45.95 45.95 0 01-.18 4.498z"></path><path d="M52.361 16.317l-1.887 1.567a85.846 85.846 0 012.69 3.413l2.21-1.807a139.506 139.506 0 01-3.013-3.173z"></path><path clip-rule="evenodd" d="M15.795 6.84a47.97 47.97 0 005.02-2.39L19.35 2.602A29.062 29.062 0 0115.795 4.5V2.08h-2.45v5.462c0 1.72.707 2.66 2.119 2.822-.81.475-1.71.95-2.7 1.425l-4.298.15c1.593-.521 2.965-.997 4.116-1.425L10.906 9.37l1.496-.2c.013-.844.053-1.613.12-2.31l-2.61.342V5.755h2.63V3.606h-2.63V2.141h-2.41v5.361l-1.566.19V3.186h-2.41v4.799L2 8.164l.402 2.43 7.55-1.084c-1.593.944-3.427 1.7-5.502 2.27l.642 1.967a76.252 76.252 0 013.886-.291 40.34 40.34 0 01-5.552 1.797l.783 2.27a90.76 90.76 0 012.871-.242 26.332 26.332 0 01-4.88 2.43c.63.91 1.072 1.593 1.326 2.048a36.647 36.647 0 004.327-2.249 17 17 0 01.492 2.35c1.111 0 2.082-.024 2.912-.07.83-.041 1.426-.245 1.787-.613.362-.368.542-.877.542-1.526V16.94l4.649-.17c.415.36.806.712 1.175 1.053l1.747-1.626a87.341 87.341 0 00-4.74-3.514l-1.525 1.285 1.335 1.084-7.982.402c2.838-.977 6.064-2.196 9.679-3.655l-1.607-1.405h2.35c.756 0 1.372-.144 1.847-.432.475-.288.793-.706.954-1.255.167-.556.331-1.386.492-2.49-.562-.188-1.346-.502-2.35-.944-.073 1.42-.214 2.27-.421 2.55-.201.281-.583.422-1.145.422H16.86c-.71 0-1.064-.361-1.064-1.084v-.322zM7.954 17.22l3.002-.16v1.506c0 .348-.084.593-.251.733-.168.14-.492.211-.974.211-.536 0-1.115-.027-1.737-.08.408-.248.82-.509 1.235-.783L7.954 17.22z"></path><path d="M21.598 19.751A68.556 68.556 0 0015.916 17l-1.265 1.888a63.801 63.801 0 015.642 2.891l1.305-2.028z"></path></svg>