<svg fill="currentColor" fill-rule="nonzero" height="1em" style="flex:none;line-height:1" viewBox="0 0 135 24" xmlns="http://www.w3.org/2000/svg"><title>AionLabs</title><path d="M131.939 10.694l-3.909.241a2.018 2.018 0 00-.431-.902 2.283 2.283 0 00-.872-.652c-.354-.167-.778-.25-1.273-.25-.661 0-1.219.14-1.673.42-.455.275-.682.642-.682 1.103 0 .368.147.678.441.932.294.254.799.458 1.513.612l2.787.561c1.497.307 2.612.802 3.347 1.483.735.682 1.103 1.577 1.103 2.687 0 1.009-.297 1.894-.892 2.656-.588.761-1.397 1.356-2.426 1.784-1.022.42-2.201.631-3.538.631-2.038 0-3.661-.424-4.871-1.273-1.202-.855-1.907-2.018-2.115-3.488l4.2-.22c.127.621.434 1.096.922 1.423.488.32 1.113.481 1.874.481.749 0 1.35-.144 1.804-.43.461-.295.695-.672.702-1.133a1.178 1.178 0 00-.491-.953c-.321-.253-.815-.447-1.483-.58l-2.666-.532c-1.504-.3-2.623-.822-3.358-1.564-.728-.741-1.093-1.687-1.093-2.836 0-.989.268-1.841.802-2.556.541-.715 1.3-1.266 2.275-1.654.983-.387 2.132-.581 3.448-.581 1.945 0 3.475.41 4.591 1.233 1.122.822 1.777 1.94 1.964 3.357zM101.831 21.7V1.174h4.27V8.89h.13a5.65 5.65 0 01.812-1.263c.361-.434.829-.795 1.403-1.082.582-.294 1.303-.441 2.165-.441 1.123 0 2.159.294 3.107.882.949.581 1.708 1.46 2.276 2.636.568 1.17.851 2.636.851 4.4 0 1.717-.277 3.167-.831 4.35-.548 1.176-1.297 2.068-2.245 2.676-.943.601-1.998.902-3.168.902-.828 0-1.533-.137-2.114-.411-.575-.274-1.046-.618-1.414-1.032a5.266 5.266 0 01-.842-1.273h-.19V21.7h-4.21zm4.18-7.697c0 .915.127 1.714.381 2.395.254.682.621 1.213 1.102 1.594.481.374 1.066.561 1.754.561.695 0 1.283-.19 1.764-.571.481-.388.845-.922 1.093-1.604.254-.688.381-1.48.381-2.375 0-.889-.124-1.67-.371-2.345-.247-.675-.612-1.203-1.093-1.584-.481-.38-1.072-.571-1.774-.571-.695 0-1.283.183-1.764.551-.474.367-.838.889-1.092 1.563-.254.675-.381 1.47-.381 2.386zM90.334 21.99c-.983 0-1.858-.17-2.626-.511a4.228 4.228 0 01-1.824-1.534c-.441-.681-.662-1.53-.662-2.545 0-.856.157-1.574.471-2.155a3.814 3.814 0 011.283-1.403 6.222 6.222 0 011.844-.802 14.06 14.06 0 012.185-.381 55.38 55.38 0 002.165-.26c.548-.088.946-.214 1.193-.382.247-.167.37-.414.37-.741v-.06c0-.635-.2-1.126-.6-1.474-.395-.347-.956-.52-1.684-.52-.769 0-1.38.17-1.835.51a2.352 2.352 0 00-.902 1.263l-3.949-.32c.2-.936.595-1.745 1.183-2.426.588-.688 1.347-1.216 2.275-1.584.936-.374 2.018-.561 3.248-.561.855 0 1.673.1 2.455.3.789.201 1.487.512 2.095.933.615.42 1.1.962 1.453 1.623.354.655.531 1.44.531 2.356v10.383h-4.049v-2.135h-.12a4.346 4.346 0 01-.992 1.273c-.415.361-.912.645-1.494.852-.581.2-1.252.301-2.014.301zm1.222-2.947c.629 0 1.183-.123 1.664-.37a2.948 2.948 0 001.133-1.023c.274-.427.41-.912.41-1.453v-1.634a2.286 2.286 0 01-.55.24c-.228.068-.485.131-.772.191-.288.054-.575.104-.862.15l-.782.11a5.28 5.28 0 00-1.313.352c-.374.16-.665.377-.872.651-.207.267-.31.601-.31 1.002 0 .582.21 1.026.63 1.333.428.301.97.451 1.624.451zM70.574 21.7V1.174h4.34v16.948h8.8V21.7h-13.14zM51.803 12.8v8.9h-4.27V6.303h4.07v2.717h.18a4.295 4.295 0 011.714-2.125c.802-.528 1.774-.792 2.917-.792 1.069 0 2 .234 2.796.702.795.467 1.413 1.135 1.854 2.004.441.862.662 1.891.662 3.087V21.7h-4.27v-9.04c.007-.942-.234-1.677-.722-2.205-.487-.535-1.159-.802-2.014-.802-.575 0-1.083.124-1.524.37a2.584 2.584 0 00-1.022 1.083c-.24.468-.364 1.033-.37 1.694zM37.745 22c-1.557 0-2.904-.33-4.04-.992a6.79 6.79 0 01-2.615-2.787c-.615-1.196-.922-2.582-.922-4.159 0-1.59.307-2.98.922-4.17.614-1.195 1.486-2.124 2.616-2.786 1.135-.668 2.482-1.002 4.039-1.002 1.556 0 2.9.334 4.029 1.002A6.691 6.691 0 0144.4 9.893c.614 1.189.922 2.579.922 4.17 0 1.576-.308 2.962-.922 4.158a6.771 6.771 0 01-2.626 2.787c-1.13.661-2.473.992-4.03.992zm.02-3.307c.708 0 1.3-.2 1.774-.602.474-.407.832-.962 1.072-1.664.247-.701.371-1.5.371-2.395s-.124-1.694-.37-2.395c-.241-.702-.599-1.257-1.073-1.664-.475-.408-1.066-.612-1.774-.612-.715 0-1.317.204-1.804.612-.481.407-.846.962-1.093 1.664-.24.701-.36 1.5-.36 2.395s.12 1.694.36 2.395c.247.702.611 1.257 1.093 1.664.487.401 1.089.602 1.804.602zM23.663 21.7V6.303h4.27V21.7h-4.27zm2.145-17.38a2.32 2.32 0 01-1.633-.632c-.448-.427-.672-.938-.672-1.533 0-.588.224-1.093.672-1.514A2.3 2.3 0 0125.808 0c.635 0 1.176.214 1.624.641.454.421.681.926.681 1.514 0 .595-.227 1.106-.681 1.533a2.285 2.285 0 01-1.624.632zM6.65 21.7H2L9.086 1.174h5.593L21.755 21.7h-4.65L11.962 5.864h-.16L6.65 21.7zm-.29-8.068h10.985v3.388H6.36v-3.388z"></path></svg>