<svg height="1em" style="flex:none;line-height:1" viewBox="0 0 24 24" width="1em" xmlns="http://www.w3.org/2000/svg"><title>AionLabs</title><path d="M12.038 0c.656.037 1.24.24 1.754.658.026.021.108.095.249.222a.043.043 0 00.02.01c.035.01.063.008.084-.004.204-.117.42-.163.648-.14.185.018.402.024.506.038.231.03.437.095.617.193.077.042.192.116.346.22a.044.044 0 00.021.008c.048.004.085-.027.128-.028.043-.002.078-.022.127-.027.302-.034.598-.029.889.016.142.022.28.073.41.134.403.19.733.444 1.036.762.295.31.513.665.653 1.063.066.187.102.433.127.562a.112.112 0 00.007.023c.052.113.108.235.17.365.133.281.18.553.227.9.004.03.015.069.033.115a.084.084 0 00.02.032l.098.09c.203.184.365.402.486.652.114.238.129.477.124.734-.005.212-.065.366-.14.583a.087.087 0 00-.004.041c.015.102.022.168.02.196-.004.085-.014.22-.03.404a.913.913 0 01-.054.245c-.228.599-.712.911-1.328.995a.357.357 0 00-.083.04.027.027 0 00-.005.01c-.008.029.01.072.008.112-.006.09-.022.209-.05.354a1.495 1.495 0 01-.797 1.09c-.187.1-.388.159-.602.176a.045.045 0 00-.041.046c.003.088-.027.154-.027.239a.555.555 0 01-.017.149c-.013.046-.01.099-.017.147a12.685 12.685 0 01-1.58 4.786c-.108.189-.231.381-.37.577a.067.067 0 00-.012.05c.072.427.162.844.27 1.251.1.375.232.788.582 1.001.67.408 1.4.74 2.133 1.051.003 0 .005.002.006.004a.016.016 0 01.004.013 21.907 21.907 0 01-.837.946 12.565 12.565 0 01-1.826 1.567 7.999 7.999 0 01-2.835 1.24.05.05 0 01-.02.004.348.348 0 00-.129.022 3.537 3.537 0 01-.513.04c-.164.004-.33.012-.494.023h-.039c-.012-.005-.018-.005-.02 0h-.404c-.01-.005-.016-.005-.018 0h-.05a17.276 17.276 0 01-.373-.025 3.11 3.11 0 01-.37-.049c-.754-.153-1.466-.4-2.129-.801a4.34 4.34 0 01-1.277-1.172 1.223 1.223 0 01-.23-.537 2.325 2.325 0 00-.035-.199l-.03-.233v-.006c.005-.09-.026-.197-.03-.283a18.36 18.36 0 00-.184-1.215c-.014-.07-.014-.152-.037-.225a.107.107 0 01-.004-.037.3.3 0 00-.025-.136.066.066 0 01-.005-.027c.002-.097-.033-.196-.038-.282a.15.15 0 00-.016-.062.034.034 0 01-.004-.022.235.235 0 00-.008-.101c-.022-.081-.018-.155-.043-.228a.097.097 0 01-.005-.035.355.355 0 00-.02-.131.113.113 0 01-.006-.036.512.512 0 00-.026-.154.085.085 0 01-.004-.032.242.242 0 00-.023-.122.03.03 0 01-.003-.01l-.012-.126a.072.072 0 00-.005-.02c-.02-.052-.01-.103-.025-.153a.537.537 0 01-.019-.129.135.135 0 00-.008-.042c-.023-.06-.023-.13-.037-.204l-.062-.333a.384.384 0 00-.042-.117.026.026 0 00-.015-.012 2.23 2.23 0 01-.748-.41c-.358-.297-.522-.673-.602-1.12-.028-.159-.165-.329-.223-.436-.08-.151-.13-.312-.147-.484a.03.03 0 00-.004-.011l-.008-.013a.02.02 0 01.002-.024c.035-.042.03-.144-.04-.151a.032.032 0 01-.02-.011c-.198-.228-.403-.482-.495-.74-.06-.166-.1-.342-.123-.527a7.032 7.032 0 01-.032-.4c0-.007 0-.014.003-.02.05-.135.07-.292-.019-.416a.146.146 0 01-.024-.055l-.076-.388a1.661 1.661 0 01.276-.89.022.022 0 00-.004-.028C3.42 10.05 3.008 9.254 3 8.414a3.12 3.12 0 01.083-.809c.1-.388.293-.728.577-1.02.19-.197.388-.337.604-.481a.082.082 0 00.034-.088l-.028-.112a16.806 16.806 0 01.006-1.152c.012-.194.086-.42.161-.626.27-.738.767-1.38 1.473-1.74.163-.083.27-.123.356-.24.125-.17.29-.353.493-.55A2.224 2.224 0 017.912 1c.118-.022.261-.022.392-.035.036.016.06.01.07-.018a.137.137 0 00.024-.014c.163-.121.303-.225.42-.31a2.794 2.794 0 011.433-.537c.151-.012.255.004.42.015.011 0 .022.002.032.005.082.023.15.017.234.035a.278.278 0 00.114.01 4.76 4.76 0 01.836-.15h.151zm-7.43 6.65c.16-.21.318-.398.487-.53a1.78 1.78 0 011.467-.355 7.966 7.966 0 01.501.11.011.011 0 00.007-.017 1.536 1.536 0 01-.136-.62l.018-.112c.043.401.188.752.434 1.052.225.276.51.45.85.521.276.058.57.072.884.043a.239.239 0 01.098-.008 1.728 1.728 0 001.265-.679.014.014 0 00-.013-.016l-.439-.048a2.548 2.548 0 00-.426-.157c-.13-.034-.279-.037-.408-.06a1.03 1.03 0 01-.85-.833c-.03-.299.029-.63.235-.853.088-.095.167-.174.238-.237.053-.046.027-.096.039-.15.02-.097.042-.195.064-.292l.17-.32a.01.01 0 00-.011-.016 1.23 1.23 0 00-.853.562c-.202.31-.294.708-.18 1.064v.003a.005.005 0 01-.005.003.004.004 0 01-.003-.003 1.297 1.297 0 01-.103-1.041c.146-.414.576-.746.985-.884.11-.038.243-.054.399-.048a.029.029 0 00.021-.009l.206-.214c.197-.207.444-.375.744-.504a.462.462 0 00.083-.048.01.01 0 00.001-.005v-.005a.718.718 0 00-.265-.128c-.442-.1-.854-.08-1.235.06a3.034 3.034 0 00-.87.49.014.014 0 01-.014-.005.014.014 0 01-.002-.007c-.001-.01.003-.02.013-.034.155-.22.327-.397.515-.532.485-.347 1.094-.411 1.667-.26.094.025.182.062.265.11.077.046.158.098.243.156a.145.145 0 00.077.025c.202.01.407-.106.451-.318a.256.256 0 00-.002-.141.052.052 0 00-.014-.02.257.257 0 01-.079-.12c-.027-.104.022-.238.148-.233a.37.37 0 01.145.038c.155.074.192.323.177.474v.003l.003.003.003.001h.004c.218-.082.442-.086.647-.09a.018.018 0 01.013.006.017.017 0 01.004.006.018.018 0 01.001.007v.208a.012.012 0 01-.003.008.013.013 0 01-.007.004c-.2.023-.384.04-.563.113a1.725 1.725 0 00-.796.633 1.682 1.682 0 00-.168 1.596 1.74 1.74 0 001.146 1.015c.306.08.625.087.957.021a1.137 1.137 0 00.324-.12l-.002-.002h-.001a1.242 1.242 0 01-.953-.4 2.157 2.157 0 01-.119-.136v-.002h.001a.857.857 0 00.884.071.587.587 0 00.256-.22.023.023 0 00-.005-.018.022.022 0 00-.007-.006c-.49-.246-.702-.724-.656-1.261a.092.092 0 01.024-.054c.013-.012.022-.013.028-.004a.541.541 0 00.029.158c.15.382.41.647.781.793.385.152.788.15 1.21-.005.085-.031.17-.076.252-.134a.738.738 0 00.258-.31.421.421 0 00-.016-.396c-.137-.201-.314-.24-.53-.113a1.6 1.6 0 00-.093.057.57.57 0 01-.383.09.788.788 0 01-.62-.421.672.672 0 01-.064-.478.46.46 0 01.232-.297c.085-.049.162-.065.23-.049.002 0 .002.001.003.002l.002.003v.006a.984.984 0 00-.17.316c-.06.224.007.402.204.533a.366.366 0 00.367-.012c.082-.05.13-.137.187-.203a.419.419 0 01.325-.145c.473-.008.833.362 1.01.765.06.196.09.396.088.601l-.037.321c-.08.13-.142.268-.185.412a.713.713 0 00-.037.263.696.696 0 00.27.456h.004a.006.006 0 00.003-.004v-.003a.978.978 0 01.003-.507c.011-.04.053-.132.127-.278.254-.321.56-.41.958-.421a.01.01 0 00.008-.004.01.01 0 00.002-.004V3.87c-.03-.233-.04-.439.05-.647.315-.737 1.163-.68 1.74-.34a10.893 10.893 0 01.38.234.013.013 0 00.008-.003.013.013 0 00.004-.006v-.008l-.05-.156a1.989 1.989 0 00-.982-1.05 1.77 1.77 0 00-.687-.161.009.009 0 01-.003-.004.008.008 0 010-.004v-.005a.296.296 0 01.263-.145.01.01 0 00.01-.01.01.01 0 00-.002-.006 1.726 1.726 0 00-1.252-.128.032.032 0 00-.025.033c0 .005.002.01.004.014l.092.159a.035.035 0 00.036.017c.238-.036.437-.05.648.075l.001.001v.004l-.003.001a1.802 1.802 0 00-1.33.792.355.355 0 00-.066-.115.035.035 0 01-.008-.02c-.006-.106.071-.21.139-.293.097-.12.208-.22.333-.302a.025.025 0 00.009-.032.786.786 0 00-.197-.265 1.4 1.4 0 00-.684-.416c-.481-.13-.921-.074-1.319.167-.143.088-.31.245-.42.328a.123.123 0 01-.115.023c-.301-.092-.606.003-.838.213a.829.829 0 00-.284.616.024.024 0 01-.018.023c-.282.082-.615.27-.714.562a.846.846 0 00.043.656l-.056.206a1.238 1.238 0 01-.186-.265.989.989 0 01-.008-.84c.099-.22.31-.424.571-.334a.047.047 0 01.02.013l.05.057a.021.021 0 00.035-.005.198.198 0 00.016-.058c.02-.14.043-.248.07-.324.166-.474.579-.832 1.09-.841.033 0 .065-.01.093-.028l.286-.184a.015.015 0 00.005-.005.016.016 0 00-.002-.02c-.715-.757-1.754-.97-2.726-.611a.137.137 0 01-.083.004 2.267 2.267 0 00-1.77.228 2.006 2.006 0 00-.297.198l-.48.411a.035.035 0 01-.028.008c-.119-.023-.198-.049-.302-.043-.179.008-.335.04-.47.097-.416.174-.769.45-1.057.83a2.2 2.2 0 00-.45 1.08c-.006.07-.015.154-.026.25a.052.052 0 01-.022.037 2.019 2.019 0 00-.419.359c-.208.255-.377.535-.421.836-.016.109-.03.218-.04.328a.21.21 0 000 .04l.027.347c0 .004-.001.007-.004.01a.015.015 0 01-.01.005.3.3 0 00-.142.051 1.658 1.658 0 00-.57.725c-.045.105-.198.49-.126.582a.038.038 0 00.027.014.054.054 0 00.032-.008.523.523 0 00.188-.17zM8.98 3.668a.36.36 0 00-.107.111.052.052 0 00-.008.02c-.048.263-.041.514.02.753.146.579.706.929 1.278.982.293.027.576-.01.85-.11.13-.048.24-.12.355-.174a.007.007 0 00.003-.003l.001-.004c0-.002 0-.003-.002-.004a1.379 1.379 0 01-1.182-1.36 2.047 2.047 0 01.193-1.147c.089-.174.194-.337.315-.489a.103.103 0 00.018-.034.01.01 0 00-.001-.008.009.009 0 00-.008-.003c-.642.08-1.233.63-1.331 1.272a.02.02 0 01-.015.016 1.15 1.15 0 00-.379.183zm-4.4 1.847c.084-.114.18-.219.285-.314a.123.123 0 00.039-.085c.013-.143.02-.248.024-.315.074-.429.26-.8.561-1.115.109-.113.224-.194.356-.267a.037.037 0 00.02-.033 1.79 1.79 0 01.119-.705.019.019 0 00-.026-.024 2.57 2.57 0 00-.842.719 3.172 3.172 0 00-.43.783A3.024 3.024 0 004.5 5.611a.008.008 0 00.012 0l.067-.097zm11.885-1.111c-.176.137-.252.305-.228.505a.724.724 0 00.13.31c.198.267.46.426.785.478.436.07.812-.028 1.129-.294.178-.15.305-.338.38-.567.049-.147.063-.313.08-.494a.076.076 0 01.063-.068.276.276 0 01.123.014c.426.135.667.582.762 1.007l-.408.037a.011.011 0 00-.007.003.012.012 0 00-.003.005v.007l.005.005c.154.094.282.28.263.467l-.048.458c-.018.148-.01.266-.013.445 0 .008.001.016.004.024.051.164.162.275.33.14a.504.504 0 00.186-.32c.117-.352.089-.677-.083-.975a4.19 4.19 0 01-.148-.275.061.061 0 01-.005-.036c.04-.239.034-.475-.019-.708a1.937 1.937 0 00-.3-.66c-.207-.297-.518-.546-.871-.578-.38-.035-.763.162-.9.535-.088.246-.041.47.043.697a.019.019 0 01-.01.024 1.078 1.078 0 01-.604.096.68.68 0 01-.528-.353.012.012 0 00-.01-.002.012.012 0 00-.005.002l-.093.071zm-1.349.67c-.393.525-.99.84-1.648.84-.157 0-.347-.017-.486.073-.106.069-.222.142-.348.22a2.5 2.5 0 01-1.256.382 6.572 6.572 0 01-.444-.005c-.12-.005-.206.01-.283.097l-.383.43a.175.175 0 01-.034.03c-.124.082-.28.198-.413.26-.091.043-.256.12-.362.191a1.33 1.33 0 00-.524.665c-.01.029-.052.146-.123.353a1.437 1.437 0 01-.375.573l-.326.19a.024.024 0 00-.01.033c.014.028.041.09.08.184.153.37.1.81-.166 1.115a.83.83 0 01-.374.209c-.455.108-.84-.228-1.022-.611a.006.006 0 00-.004-.003h-.004a.006.006 0 00-.005.007c.018.092.041.199.07.322.028.12.059.212.092.275.079.149.154.295.225.44-.042.242-.223.288-.424.205a8.751 8.751 0 01-.565-.258.41.41 0 01-.15-.186 4.892 4.892 0 00-.142-.428 1.055 1.055 0 00-.622-.593c-.038-.014-.078-.02-.119-.028l-.002-.01-.029-.476a2.415 2.415 0 01-.002-.182c.001-.178.052-.355.185-.475a.482.482 0 01.2-.108c.466-.028.491.45.768.719a.02.02 0 00.032-.007s0-.007-.003-.02c-.049-.324-.103-.597-.328-.834-.105-.11-.246-.157-.423-.141-.397.049-.572.345-.623.714a2.57 2.57 0 00-.016.564c.006.12.02.242.039.367.032.203.075.433.13.691.041.193.088.365.14.517.083.24.2.469.353.689.127.182.288.341.484.476a1.28 1.28 0 001.191.165c-.002-.003 0-.004.004-.002a.008.008 0 01.006.007c.046.336.118.703.217 1.101.045.18.093.326.144.441.167.457.41.864.727 1.22.267.299.57.567.907.806a.17.17 0 00.09.055c.032.04.058.068.08.083.458.314.933.58 1.426.8.392.175.644.282.757.32.275.097.521.174.74.234.298.083.63.13.994.145.513.02 1.077-.093 1.382-.554.324-.492.08-1.097-.374-1.393a1.532 1.532 0 00-.519-.255 1.788 1.788 0 00-.638-.06c.064-.117.112-.192.144-.224.252-.262.62-.159.936-.094.23.048.447.013.417-.288-.017-.153-.101-.249-.241-.318a2.22 2.22 0 00-.663-.203.877.877 0 00-.255-.001c-.093.014-.221.029-.385.046a.687.687 0 00-.2.047.523.523 0 00-.168.116c-.088-.025-.154-.047-.19-.121a.126.126 0 01-.008-.096c.075-.155.19-.23.348-.225.014 0 .028.006.038.016.173.167.38.097.583.028.188-.063.384-.075.572-.027.123.031.263.1.393.135.08.021.145.026.194.014.12-.027.18-.113.177-.256a.648.648 0 00-.174-.145.095.095 0 01-.034-.033 7.996 7.996 0 01-.13-.212c-.079-.137-.21-.191-.356-.226a.543.543 0 01-.286-.157.012.012 0 01-.003-.007v-.009c.128-.247.402-.369.67-.346.067.006.18.043.34.113.093.041.231.094.413.16.263.095.587.109.763-.153.1-.15.123-.258.13-.457.058-1.624.1-2.745.124-3.365.008-.212.032-.394.148-.554.154-.214.386-.262.634-.27.112-.003.185-.007.219-.01.309-.038.42-.286.404-.568a1.228 1.228 0 00-.606-1.003 1.726 1.726 0 00-.404-.187 3.697 3.697 0 01-.537-.2 2.442 2.442 0 01-.358-.264v-.005a.007.007 0 01.005-.003h.006l.198.09a.828.828 0 00.492.051.387.387 0 00.3-.274.373.373 0 00-.084-.328c-.158-.199-.362-.32-.616-.495a2.037 2.037 0 01-.313-.31 1.848 1.848 0 01-.28-.49.006.006 0 00-.004-.001l-.004.001a1.674 1.674 0 01-.243.53zm3.913.447a.309.309 0 01-.06.12 2.166 2.166 0 01-.246.252 7.216 7.216 0 01-.271.204.868.868 0 00-.305.353l.002.004c0 .002.002.003.003.004a.01.01 0 00.005.002c.367.03.761-.09.862-.488a1.19 1.19 0 00.022-.455.007.007 0 00-.009 0 .007.007 0 00-.003.004zM3.285 8.786A2.5 2.5 0 003.92 10.1c.065.068.137.125.215.173.021.02.04.026.056.017a2.18 2.18 0 00.346-.223.033.033 0 00.013-.025v-.091a.068.068 0 00-.062-.068c-.372-.032-.685-.313-.798-.654A2.554 2.554 0 003.605 9l.019-.163a.008.008 0 01.015 0c.037.239.139.432.306.578.115.1.315.134.418.004a.753.753 0 00.152-.332.064.064 0 00-.025-.063 1.915 1.915 0 01-.114-.093.493.493 0 01-.042-.725c.366-.41.997-.45 1.438-.136.12.086.198.13.3.228.064.061.142.127.233.198.231.178.484.237.78.224.432-.019.793-.256 1.009-.633.074-.13.152-.344.248-.474a.915.915 0 01.507-.347.007.007 0 000-.008.97.97 0 00-1.392.08c-.134.102-.264.2-.422.232a.49.49 0 01-.54-.22.315.315 0 01-.051-.186.008.008 0 01.012 0c.205.277.51.103.554-.183a.66.66 0 00-.105-.471.978.978 0 00-.407-.357c-.48-.22-1.095-.012-1.445.366-.049.053-.141.161-.276.326-.091.11-.24.231-.385.243-.152.012-.305-.067-.337-.227a.555.555 0 01.012-.266.01.01 0 00-.01-.007.713.713 0 00-.175.124c-.559.525-.751 1.319-.597 2.074zm3.225.788c.02.07.048.133.086.19.076.113.161.211.256.293.138.31.512.505.808.256.16-.135.206-.403.154-.593a.637.637 0 00-.544-.46 2.678 2.678 0 00-.519.016c-.003 0-.007 0-.01-.002L6.39 9.07a.01.01 0 00-.015.004 1.6 1.6 0 00.135.498zm-2.281 1.288c-.19.273-.248.65-.095.952.076.149.178.24.306.273.146.037.277-.03.393-.203a.74.74 0 00-.034-.48l-.027-.07a2.8 2.8 0 01-.159-.758.02.02 0 00-.01-.016.021.021 0 00-.01-.002.02.02 0 00-.01.003c-.132.081-.25.181-.354.3zm.112 2.45a1.767 1.767 0 00.334.456.023.023 0 00.026-.007l.084-.099c.216-.088.439-.122.668-.1a.589.589 0 01.177.084c.22.144.378.255.526.428l.003.002h.004a.007.007 0 00.003-.003 1.064 1.064 0 00-.756-1.222c-.07-.07-.143-.144-.217-.222a.94.94 0 00-.196-.17.49.49 0 00-.252-.057 1.956 1.956 0 01-.168.023.785.785 0 01-.381-.085.008.008 0 00-.007.004 1.758 1.758 0 00.151.968zm2.146 1.906l-.004.039c.022.303.057.598.107.884.039.408.08.75.126 1.026.252 1.516.412 2.487.481 2.913.03.186.071.528.122 1.027.03.284.075.477.22.685.533.757 1.37 1.296 2.238 1.593.911.342 1.859.455 2.844.34.345-.033.69-.097 1.031-.194.279-.079.556-.178.832-.298a.523.523 0 01.08-.036 1.05 1.05 0 00.08-.034c.306-.147.602-.302.89-.464a2.335 2.335 0 00.271-.185v-.006a.01.01 0 00-.004-.005 4.242 4.242 0 01-2.835-.888 7.214 7.214 0 01-.744-.69 28.211 28.211 0 01-1.274-1.44.04.04 0 00-.02-.013.064.064 0 00-.014-.028l-2.395-2.897a9.254 9.254 0 01-.589-.805 4.565 4.565 0 01-.616-1.382l-.158-.647a.021.021 0 00-.024-.018.67.67 0 00-.48.313c-.135.208-.203.44-.204.697 0 .21.008.377.026.5 0 .004.002.007.004.01.005.006.007.007.009.003zm-1.488-1.204c-.184.263-.064.57.165.755.052.042.083.057.152.037.299-.09.57-.137.869-.03h.003c.002 0 .003 0 .003-.002a.006.006 0 00.001-.006 1.869 1.869 0 00-.304-.479c-.138-.179-.437-.434-.677-.416a.258.258 0 00-.212.14zm.967 2.238a.806.806 0 00.399.092.016.016 0 00.016-.015c.024-.267 0-.533-.07-.796a.016.016 0 00-.016-.011c-.196.01-.385.033-.569.066a1.173 1.173 0 01-.4-.448h-.004a.008.008 0 00-.005.002.009.009 0 00-.002.004c-.063.464.268.888.651 1.106z" fill="#081A2B"></path><path d="M11.736 3.877l.084.234a.026.026 0 01.002.009l.011.142a.036.036 0 01-.042.039 1.168 1.168 0 01-.415-.148c-.028-.027-.056-.029-.089-.054a2.333 2.333 0 01-.174-.142.024.024 0 00-.01 0l-.368.04a1.682 1.682 0 01.168-1.595c.194-.285.459-.496.796-.634.18-.073.362-.09.563-.113a.012.012 0 00.01-.012v-.208a.018.018 0 00-.019-.019c-.204.004-.428.008-.646.09a.007.007 0 01-.01-.004V1.5c.015-.151-.021-.4-.177-.474a.37.37 0 00-.145-.038c-.126-.005-.175.13-.148.234.01.04.037.08.08.119.005.005.01.012.013.02a.256.256 0 01.002.141c-.044.212-.249.327-.451.319a.145.145 0 01-.077-.026 4.579 4.579 0 00-.243-.156 1.036 1.036 0 00-.265-.11c-.573-.15-1.182-.087-1.667.26-.188.135-.36.313-.515.533-.01.013-.014.024-.013.033a.014.014 0 00.008.012.014.014 0 00.014-.002c.261-.21.549-.373.864-.489.381-.14.793-.16 1.234-.06a.717.717 0 01.265.129.01.01 0 01.001.005.01.01 0 01-.005.009.467.467 0 01-.08.044c-.299.129-.546.297-.743.504a37.931 37.931 0 01-.215.221.029.029 0 01-.012.002 1.124 1.124 0 00-.4.048c-.408.139-.838.47-.984.884a1.297 1.297 0 00.107 1.044.005.005 0 00.003-.001.004.004 0 00.002-.003v-.002c-.115-.355-.023-.753.18-1.064a1.23 1.23 0 01.857-.56.01.01 0 01.006.014l-.17.32c-.054-.002-.093.007-.117.028l-.167.14c-.16.141-.28.304-.36.488a1.74 1.74 0 00-.127.383c-.028.164.014.424.195.493.081.435.414.758.85.833.13.023.279.026.408.06.143.039.285.09.426.157a.5.5 0 01-.135.132c-.26.171-.551.245-.87.221a4.027 4.027 0 01-.342-.067l-.055-.003a6.216 6.216 0 01-.377-.136 2.236 2.236 0 01-.315-.178l-.165-.22a.597.597 0 01-.005-.123c0-.006-.005-.015-.016-.027a.007.007 0 00-.012.005c-.002.048-.068.05-.095.022a3.057 3.057 0 01-.288-.339.805.805 0 01-.11-.179 2.547 2.547 0 00-.137-.334 2.14 2.14 0 01.012-1.053.006.006 0 00-.009-.003c-.202.15-.348.342-.44.578a.024.024 0 01-.02.016c-.375.03-.694.184-.903.503a.006.006 0 000 .006.006.006 0 00.005.003c.096-.004.188.004.277.024a.029.029 0 00.025-.006c.274-.23.654-.298.966-.087l-.07.38-.019.112c0 .01-.004.015-.01.016l-.006-.002a.024.024 0 00-.006-.003.016.016 0 00-.013.002.904.904 0 01-.213.122c-.07.022-.19.061-.356.117a.131.131 0 01-.048.006 7.315 7.315 0 00-.261-.009c-.255-.004-.51-.008-.742.061a.54.54 0 00-.161.078c-.234.166-.441.363-.536.625-.044.123-.063.276-.138.407a.013.013 0 000 .012.014.014 0 00.01.008c.004 0 .01-.003.017-.01a.721.721 0 00.063-.08.012.012 0 01.015.002l.06.061a.523.523 0 01-.188.17.054.054 0 01-.032.008.038.038 0 01-.027-.014c-.072-.091.081-.477.125-.582.126-.3.316-.542.571-.725a.3.3 0 01.143-.05.015.015 0 00.01-.006.014.014 0 00.003-.01l-.028-.347a.21.21 0 010-.04c.012-.11.025-.22.04-.327.045-.301.214-.581.422-.837a2.02 2.02 0 01.42-.359.051.051 0 00.02-.036l.028-.25a2.2 2.2 0 01.45-1.081c.287-.38.64-.656 1.057-.83.134-.056.29-.088.47-.097.103-.005.182.02.3.044a.034.034 0 00.03-.008L8.9.862c.064-.055.164-.12.297-.197a2.268 2.268 0 011.77-.229.137.137 0 00.083-.004c.972-.358 2.011-.146 2.726.612a.016.016 0 01.004.013.016.016 0 01-.007.011l-.286.184a.177.177 0 01-.093.028c-.511.01-.924.368-1.09.841-.027.076-.05.184-.07.324a.198.198 0 01-.015.058.022.022 0 01-.007.008.021.021 0 01-.028-.003l-.052-.057a.046.046 0 00-.019-.013c-.26-.09-.472.114-.571.334a.989.989 0 00.008.84c.03.066.091.155.185.265zm-3.97-2.038c.001 0 .003 0 .005-.002a.047.047 0 00.014-.016V1.82c-.001-.001-.003 0-.005.001a.047.047 0 00-.013.017v.001zm-.046.052l.005-.002v-.004l-.002-.001H7.72c0 .001 0 .002-.003.004v.002h.002zm-.026.048c.006.001.009 0 .009-.005l-.001-.003a.004.004 0 00-.005 0c-.001 0-.002 0-.002.002a.21.21 0 000 .006zm1.614.521l-.02-.007a.005.005 0 00-.006.002v.007l.024.005h.003a.004.004 0 00-.001-.007zm-.663.058a.037.037 0 00.014-.015.005.005 0 00-.006-.006.146.146 0 00-.015.017.005.005 0 00.004.005.005.005 0 00.003 0zm-.059.008c.002 0 .005 0 .006-.002a.005.005 0 00.002-.006.005.005 0 00-.005-.002c-.004 0-.005.003-.004.008v.001h.001zm-.475.277l-.01.01a.006.006 0 00.007.01.062.062 0 00.009-.013.005.005 0 000-.006.004.004 0 00-.006 0zm2.653.447c-.002-.002-.004-.003-.006-.002l-.003.001v.004l.001.003.003.002c.003 0 .005 0 .006-.003V3.25zm-3.017.046l.001-.003c0-.003-.002-.003-.005 0a.002.002 0 000 .003h.004zm3.07.136s0-.002-.003-.005a.07.07 0 00-.018-.019l-.006-.002.002.006a.071.071 0 00.018.019c.003.002.005.002.006.001zm.005.046l-.002-.003a.005.005 0 00-.006 0l-.002.003c0 .002 0 .004.002.005h.001c.005 0 .007-.001.007-.005z" fill="#F9FBFC"></path><path d="M8.374.946c-.01.027-.034.033-.07.018a.146.146 0 01.07-.018z" fill="#798B98"></path><path d="M16.142 1.5a.601.601 0 01-.214-.095.438.438 0 00-.168-.074c-.1-.02-.202-.035-.305-.047a.157.157 0 00-.068.008l-.236.079a.012.012 0 00-.007.005.012.012 0 00-.002.008.013.013 0 00.011.011.696.696 0 01.537.331c.02.032.022.065.047.089a.026.026 0 01.007.012l.037.14v.008a.011.011 0 01-.018.005 1.15 1.15 0 00-.651-.292.042.042 0 01-.025-.012c-.005-.004-.009-.004-.012 0-.004.005-.012.008-.024.009a.189.189 0 01-.072-.004.035.035 0 00-.02-.003 5.638 5.638 0 00-.243.047 1.022 1.022 0 00-.627.487 1.532 1.532 0 00-.152.425c-.197-.132-.265-.31-.204-.534a.984.984 0 01.17-.32v-.002a.006.006 0 00-.002-.003l-.003-.002c-.069-.016-.145 0-.23.05a.46.46 0 00-.232.296.672.672 0 00.063.478.788.788 0 00.621.422.57.57 0 00.383-.09c.018-.013.05-.033.093-.058.216-.126.393-.088.53.113a.102.102 0 01-.044.005.027.027 0 01-.014-.007l-.057-.052a.028.028 0 00-.039 0l-.044.045a1.983 1.983 0 01-.105.162c-.376.489-1.122.451-1.597.175a2.823 2.823 0 01-.513-.405.042.042 0 00-.02-.01.11.11 0 00-.077.016c.002-.016 0-.028-.004-.034-.006-.01-.015-.009-.027.003a.091.091 0 00-.025.054c-.031-.014-.06-.006-.088.024a.703.703 0 00-.198.538c.015.266.2.537.404.706l.002.003v.004a.006.006 0 01-.006.003.825.825 0 01-.13-.031 1.548 1.548 0 01-.751-.515.846.846 0 01-.043-.656c.099-.291.432-.48.714-.562a.024.024 0 00.018-.023.829.829 0 01.283-.616c.233-.21.538-.305.84-.213.039.012.077.004.114-.023.11-.083.277-.24.42-.328.398-.24.838-.297 1.32-.167a1.4 1.4 0 01.683.416zm-1.915.019a1.546 1.546 0 00-.217.163h.002c.001 0 .003 0 .004-.002a3.23 3.23 0 01.217-.152 3.287 3.287 0 01.236-.132v-.001a1.54 1.54 0 00-.242.124z" fill="#F9FBFC"></path><path d="M16.142 1.5c.082.07.147.158.197.264a.025.025 0 01-.01.032 1.465 1.465 0 00-.332.302c-.068.083-.145.187-.14.293.001.007.004.014.009.02.03.034.052.072.067.115-.044.138-.1.237-.08.403a.216.216 0 01-.028.112c-.176-.403-.536-.773-1.008-.765a.418.418 0 00-.326.145c-.056.066-.105.153-.187.203a.366.366 0 01-.367.012 1.53 1.53 0 01.152-.424c.135-.24.344-.402.627-.487.014-.004.095-.02.243-.047a.034.034 0 01.02.003c.011.004.035.006.072.003.012 0 .02-.003.024-.008.003-.004.007-.004.012 0 .007.007.015.011.025.012a1.15 1.15 0 01.658.294c.002 0 .005 0 .007-.002a.012.012 0 00.004-.006v-.007l-.037-.14a.026.026 0 00-.007-.012c-.025-.024-.027-.058-.047-.09a.696.696 0 00-.537-.33.013.013 0 01-.011-.011c0-.003 0-.006.002-.009a.012.012 0 01.007-.005l.236-.079a.157.157 0 01.068-.007c.103.012.205.028.306.047a.438.438 0 01.167.074.602.602 0 00.214.094z" fill="#C2D1D3"></path><path d="M19.163 2.943a.468.468 0 01-.196-.042.709.709 0 01-.108-.074l-.045-.023c-.069-.06-.169-.096-.23-.13a.448.448 0 00-.123-.045.125.125 0 01-.022-.007.628.628 0 00-.079-.029 4.958 4.958 0 01-.154-.032.788.788 0 00-.157-.02 2.055 2.055 0 00-.18.002 1.11 1.11 0 00-.58.234.983.983 0 00-.202.25c-.084.137-.147.27-.19.398a.112.112 0 01-.077.078c-.294.1-.596.146-.906.14a1.915 1.915 0 00-.089-.601.217.217 0 00.029-.113c-.021-.165.035-.264.079-.403a1.802 1.802 0 011.331-.792l.001-.002V1.73l-.001-.002c-.211-.125-.41-.111-.648-.074a.036.036 0 01-.036-.018l-.091-.158a.033.033 0 01.02-.048c.355-.093.715-.07 1.06.06a2.35 2.35 0 00.192.068.01.01 0 01-.008.016.296.296 0 00-.264.15l.001.004.003.004a1.989 1.989 0 011.67 1.211z" fill="#F9FBFC"></path><path d="M7.694 1.938v-.005a.004.004 0 01.009 0c0 .005-.003.007-.009.006z" fill="#798B98"></path><path d="M10.382 2.731a.092.092 0 00-.048-.009.03.03 0 00-.02.011l-.223.275a.133.133 0 00-.015.024.318.318 0 01-.04.06.29.29 0 00-.03.05l-.117.24a.095.095 0 00-.006.022.051.051 0 01-.006.018.336.336 0 00-.04.11l-.005.02c-.008.003-.01.013-.008.027l-.003.014a.045.045 0 00-.006.017l-.014.075a.11.11 0 00-.01.032l-.015.127v.018l-.002.012a.044.044 0 00-.006.023.022.022 0 00-.002.022l.004.206c.006.006.007.016.006.03l.005.016c0 .008 0 .014.005.02a.14.14 0 00.002.075c0 .006 0 .012.002.017.003.022.01.04.02.054l.002.022c0 .008.001.017.005.025 0 .009.002.018.007.028-.003.016 0 .028.01.036 0 .027.008.05.022.07a.031.031 0 00.002.023c0 .012.005.025.012.036l.002.005.07.148a.051.051 0 00.02.032.005.005 0 01.003.005l-.001.002-.002.002-.008.005a.01.01 0 01-.006 0 .01.01 0 01-.005-.001l-.046-.037a.025.025 0 00-.028-.003l-.42.243a.016.016 0 01-.01.002.016.016 0 01-.01-.005 1.785 1.785 0 01-.3-.47c-.071-.16-.088-.36-.108-.547a.652.652 0 01.01-.233.022.022 0 00-.005-.009l-.045-.048a1.15 1.15 0 01.38-.183.02.02 0 00.013-.016c.1-.643.69-1.192 1.332-1.272h.004c.002 0 .003.002.004.003a.009.009 0 01.002.004.01.01 0 010 .004.106.106 0 01-.02.034c-.12.152-.225.315-.314.49z" fill="#F9FBFC"></path><path d="M9.306 2.466a.066.066 0 01-.023-.005.005.005 0 01-.001-.006s.001-.002.003-.002h.003l.02.007.002.001v.003a.004.004 0 01-.004.002zM8.64 2.51a.147.147 0 01.013-.013.005.005 0 01.006.006.037.037 0 01-.015.016h-.002a.005.005 0 01-.004-.006.005.005 0 01.002-.003zM8.585 2.524c-.001-.005 0-.008.004-.009a.005.005 0 01.005.003v.003s0 .002-.002.002a.008.008 0 01-.006.002l-.001-.001z" fill="#798B98"></path><path d="M18.814 2.804c.007.018.022.025.045.022.052.041.088.066.108.075a.468.468 0 00.196.042l.05.156a.013.013 0 01-.02.014c-.126-.081-.25-.158-.372-.23-.578-.342-1.426-.398-1.741.339-.09.208-.08.414-.05.647v.004a.011.011 0 01-.002.004.01.01 0 01-.003.003.01.01 0 01-.004 0c-.398.011-.705.1-.96.422l-.075-.143a.655.655 0 00-.11-.196l.038-.321c.31.006.612-.04.906-.14a.112.112 0 00.077-.077c.043-.129.106-.262.19-.4a.987.987 0 01.203-.249c.077-.063.17-.116.28-.16a1.11 1.11 0 01.3-.074c.025-.003.085-.003.18-.002.047.001.099.008.156.02l.154.033c.01.001.036.01.079.028a.122.122 0 00.022.007c.047.01.087.025.123.045.061.035.162.071.23.13z" fill="#C2D1D3"></path><path d="M4.93 4.8a4.56 4.56 0 00-.364.517c-.03.05-.082.192.014.198l-.067.095a.008.008 0 01-.014-.003c-.056-.498.007-.98.188-1.449.114-.296.258-.557.43-.783.23-.302.51-.541.842-.718a.019.019 0 01.026.023 1.79 1.79 0 00-.12.705.037.037 0 01-.019.033 1.431 1.431 0 00-.356.267c-.3.315-.487.686-.56 1.116z" fill="#F9FBFC"></path><path d="M10.382 2.731c-.175.362-.24.745-.193 1.148.024.206.093.4.207.583a1.83 1.83 0 00.975.776l.002.004-.001.004a.007.007 0 01-.003.003c-.115.054-.225.126-.355.174-.274.1-.557.137-.85.11-.572-.053-1.132-.403-1.279-.982a1.755 1.755 0 01-.019-.754.052.052 0 01.008-.019.36.36 0 01.107-.11l.045.048a.022.022 0 01.005.02.652.652 0 00-.01.222c.02.187.037.387.108.548.077.175.177.331.3.47a.016.016 0 00.02.002l.42-.243a.025.025 0 01.028.003l.046.037a.01.01 0 00.005.002.01.01 0 00.006-.001l.008-.005.002-.002v-.002a.005.005 0 00-.001-.005.051.051 0 01-.02-.032l-.071-.148-.002-.005c.003-.018 0-.03-.012-.036a.031.031 0 01-.002-.023l-.021-.07c-.01-.008-.014-.02-.011-.036l-.007-.028a.054.054 0 01-.005-.025l-.001-.022a.104.104 0 01-.02-.054l-.003-.017a.14.14 0 01-.002-.076.041.041 0 00-.005-.019l-.005-.017c.003-.02.001-.029-.006-.029l-.004-.206.002-.022a.061.061 0 00.007-.019l.001-.016v-.018l.015-.127c.008-.012.011-.023.01-.032l.014-.075a.05.05 0 00.006-.013.03.03 0 00.003-.018c-.002-.015 0-.024.008-.028a.025.025 0 00.004-.018.336.336 0 01.04-.111.05.05 0 00.007-.018.095.095 0 01.006-.022l.117-.24a.29.29 0 01.03-.05c.017-.021.03-.04.04-.06a.133.133 0 01.015-.024l.224-.275a.03.03 0 01.019-.01c.014-.003.03 0 .048.008z" fill="#C2D1D3"></path><path d="M8.117 2.81a.062.062 0 01-.009.013.006.006 0 01-.007-.002.006.006 0 01-.001-.003l.001-.004a.235.235 0 01.01-.01.004.004 0 01.005 0 .005.005 0 010 .006zM18.858 2.826c-.023.003-.037-.004-.044-.022l.044.022z" fill="#798B98"></path><path d="M15.126 2.987a.42.42 0 01.017.396.738.738 0 01-.259.31 1.105 1.105 0 01-.252.134c-.421.155-.825.157-1.21.005a1.338 1.338 0 01-.78-.793.534.534 0 01-.026-.124.11.11 0 01.078-.016.042.042 0 01.02.01c.188.182.36.317.512.406.475.276 1.221.314 1.597-.175a1.974 1.974 0 00.105-.162l.044-.045a.028.028 0 01.038 0l.058.052a.027.027 0 00.014.006c.013.002.028 0 .044-.004zM12.56 2.939c-.046.537.166 1.015.656 1.26a.024.024 0 01.012.016.023.023 0 01-.003.019.587.587 0 01-.253.21.857.857 0 01-.885-.07c.034.043.074.089.12.136a1.242 1.242 0 00.955.403v.001l-.002.002c-.101.055-.209.094-.322.117-.332.066-.651.06-.957-.021a1.74 1.74 0 01-1.146-1.016l.368-.04a.025.025 0 01.02.006c.045.043.1.088.164.137.033.025.061.027.089.054a1.17 1.17 0 00.416.148.037.037 0 00.039-.023.035.035 0 00.002-.016l-.011-.143-.002-.008-.083-.234.056-.207c.2.248.45.42.75.516a.827.827 0 00.134.03.005.005 0 00.003-.002V4.21l-.002-.003c-.204-.169-.39-.44-.404-.706a.702.702 0 01.198-.538c.028-.03.057-.038.088-.024zM10.765 3.255c-.001.003-.003.004-.006.003a.007.007 0 01-.003-.002.007.007 0 01-.002-.003l.001-.004.003-.001c.002 0 .004 0 .006.002l.002.003-.001.002zM7.747 3.296a.002.002 0 01-.003 0 .002.002 0 010-.003c.002-.003.003-.003.004 0l-.001.003z" fill="#C2D1D3"></path><path d="M19.744 4.571c-.037-.012-.058-.04-.062-.086a.065.065 0 00-.016-.038l-.156-.174a.012.012 0 00-.007-.004c-.006-.001-.013-.006-.021-.014-.257-.26-.546-.382-.903-.221a.024.024 0 00-.006.003l-.088.066a.048.048 0 00-.01.012c-.045.065-.082.116-.112.194a7.043 7.043 0 01-.156.39.837.837 0 01-.215.255.843.843 0 01-.3.144c-.33.094-.636.046-.92-.143-.18-.12-.282-.304-.306-.552l.093-.071a.013.013 0 01.01-.002.012.012 0 01.008.005.68.68 0 00.525.35c.207.026.408-.004.604-.096a.02.02 0 00.01-.024c-.084-.227-.132-.45-.042-.696.136-.373.519-.57.9-.536.352.032.663.281.87.579.145.21.245.43.3.659z" fill="#F9FBFC"></path><path d="M10.8 3.422c.008.007.015.012.016.01.002-.001-.003-.008-.01-.015-.008-.007-.015-.012-.016-.01-.002.001.003.008.01.015z" fill="#798B98"></path><path d="M8.923 3.41l-.064.29c-.012.055.014.105-.039.151a3.41 3.41 0 00-.238.237c-.206.224-.265.554-.235.853-.18-.069-.223-.329-.195-.493a1.74 1.74 0 01.126-.383c.081-.184.201-.347.361-.489l.167-.14c.025-.02.063-.03.117-.027z" fill="#C2D1D3"></path><path d="M10.822 3.478c0 .003-.002.005-.007.005-.003-.001-.003-.003-.003-.006l.002-.002a.005.005 0 01.006 0l.002.003zM9.824 3.58a.03.03 0 01-.003.017v-.004l.003-.014z" fill="#798B98"></path><path d="M7.109 4.765l-.087-.019c-.312-.211-.692-.143-.966.086a.029.029 0 01-.025.007 1.065 1.065 0 00-.28-.025.006.006 0 01-.003-.002v-.006c.21-.32.53-.473.903-.504a.024.024 0 00.02-.015 1.286 1.286 0 01.444-.579.006.006 0 01.005.004v.003a2.14 2.14 0 00-.011 1.05z" fill="#081A2B"></path><path d="M9.777 3.862l-.002.016v-.004l.001-.012zM16.062 4.303a2.154 2.154 0 00-.127.277.978.978 0 00-.003.51.006.006 0 01-.003.003.006.006 0 01-.003.001l-.004-.001a.695.695 0 01-.267-.455.713.713 0 01.037-.263c.043-.144.105-.282.185-.412a.64.64 0 01.027.084.322.322 0 00.082.113l.076.143z" fill="#798B98"></path><path d="M19.744 4.57c.053.234.06.47.019.709a.061.061 0 00.005.036c.029.061.078.153.148.275.172.298.2.623.083.976a1.692 1.692 0 00-.333-.824.08.08 0 01-.013-.075.791.791 0 00.038-.373c-.096-.425-.337-.872-.763-1.007a.276.276 0 00-.123-.014.076.076 0 00-.064.068c-.016.181-.03.347-.079.494a1.227 1.227 0 01-.38.567c-.317.266-.693.364-1.129.294a1.178 1.178 0 01-.786-.477.724.724 0 01-.129-.311c-.024-.2.052-.368.228-.505.024.248.126.432.306.552.284.19.59.237.92.143a.845.845 0 00.3-.144.835.835 0 00.215-.254c.015-.029.067-.159.156-.391.03-.078.067-.13.111-.194a.045.045 0 01.011-.012l.088-.066a.026.026 0 01.006-.004c.357-.16.646-.039.902.222.009.008.016.013.022.014.003 0 .006.002.007.004l.156.173c.01.011.015.025.016.039.004.045.025.074.062.086z" fill="#C2D1D3"></path><path d="M9.786 4.19a.025.025 0 01-.005-.02.041.041 0 01.005.02zM15.648 5.033c-.15.048-.308.063-.486.081l-.045-.04a1.674 1.674 0 00.243-.53.007.007 0 01.004-.002l.004.001.002.003c.068.176.16.339.278.487z" fill="#798B98"></path><path d="M7.109 4.765c.053.107.1.219.137.334a.805.805 0 00.11.18c.091.123.187.236.288.338.027.028.093.026.095-.022a.007.007 0 01.012-.005c.01.011.016.02.016.027a.599.599 0 00.005.122l-.015-.002a.01.01 0 00-.01.015c.075.135.165.257.27.366a.106.106 0 00.027.02l.201.107c.15.079.297.203.421.287.016.01.034.019.053.024.14.04.273.101.4.186a2.93 2.93 0 01-.882-.043 1.462 1.462 0 01-.851-.52c-.246-.3-.391-.652-.434-1.053l.07-.38.087.019zM4.93 4.8c-.004.067-.013.172-.025.315a.123.123 0 01-.039.084c-.105.096-.2.201-.286.315-.096-.006-.044-.147-.014-.198.106-.176.227-.348.363-.516zM15.87 6.39a1.133 1.133 0 01.03-.333.074.074 0 000-.034.358.358 0 00-.108-.19 6.349 6.349 0 01-.156-.145c-.02-.019-.06-.042-.069-.056a10.02 10.02 0 00-.185-.187c-.025-.025-.049-.063-.076-.096a.613.613 0 01-.054-.075c-.03-.05-.06-.104-.09-.16.178-.018.337-.033.486-.08.137.157.241.26.313.31.254.175.458.296.616.495.082.103.11.212.083.328a.387.387 0 01-.3.274.829.829 0 01-.49-.051z" fill="#C2D1D3"></path><path d="M15.117 5.074l.045.04c.03.056.06.11.09.16a.602.602 0 00.054.075c.027.034.05.071.076.096.122.122.184.184.185.187.008.014.05.038.07.057.043.042.095.09.155.145.054.05.09.113.108.19a.072.072 0 010 .034c-.027.108-.037.22-.03.332l-.199-.09a.007.007 0 00-.01.003c-.001.002-.002.004-.001.006l.003.004c.107.094.226.18.355.26a.172.172 0 00-.046.038.016.016 0 000 .019.54.54 0 00.08.086c.038.034.065.06.081.08a1.52 1.52 0 01.181.3c.083.14.142.283.18.43a.059.059 0 010 .02c-.002.023.013.034.016.065a.798.798 0 01-.222.673c-.07.074-.146.153-.234.226a.522.522 0 00-.11.127.013.013 0 01-.007.005.014.014 0 01-.009 0 .013.013 0 01-.008-.014c.01-.087.022-.184.033-.29a.668.668 0 00-.007-.251.665.665 0 00-.092-.205 9.836 9.836 0 01-.156-.208l-.119-.298a.054.054 0 00-.014-.02c-.18-.158-.261-.34-.44-.444a55.63 55.63 0 01-.283-.168 2.236 2.236 0 01-.187-.133 2.162 2.162 0 00-.25-.131.042.042 0 00-.031-.003.155.155 0 01-.121-.011c-.025-.013-.053-.013-.075-.027a.76.76 0 00-.195-.093l-.187-.1a.143.143 0 01-.044-.039l-.144-.18a.045.045 0 00-.016-.013c-.087-.043-.198-.048-.297-.057a.01.01 0 00-.01.007.01.01 0 00.002.006 5.74 5.74 0 00.171.06c.113.037.188.16.238.262a.034.034 0 00.014.014.316.316 0 00.068.032c.111.029.21.064.294.104.093.044.21.105.352.184.006.003.01.007.014.012a.115.115 0 00.008.01.09.09 0 00.057.03c.026.003.044.014.054.032a.022.022 0 00.017.012c.01.001.017.003.02.005.156.092.284.19.386.293.13.132.232.235.306.307.076.075.127.131.154.168.106.148.19.251.25.41.024.065.041.146.052.243.023.214.038.412.043.594.005.172-.026.41-.03.563-.015.548-.024.868-.028.963-.006.2-.017.468-.034.805-.014.29-.024.558-.031.805a.582.582 0 01-.012.131.023.023 0 000 .017c.008.02.006.034-.004.046a.017.017 0 00-.002.02c.011.016.011.033 0 .05a.018.018 0 000 .02.025.025 0 01.002.022.074.074 0 00-.005.028c.001.015 0 .089-.005.22-.002.04-.02.086-.008.12a.04.04 0 01-.002.029l-.012.07c-.044.27-.201.401-.472.394a.379.379 0 01-.122-.016.162.162 0 00-.057-.018.086.086 0 01-.023-.002 10.357 10.357 0 00-.47-.124.569.569 0 00-.238-.027 1.658 1.658 0 01-.299.049c-.008 0-.025 0-.053-.003a.44.44 0 01-.34-.21.01.01 0 00-.005 0 .01.01 0 00-.01.007c-.094.277-.037.511.17.703.005.005.014.008.026.009a.014.014 0 00-.001.008c0 .003.001.005.003.007.078.08.16.127.286.157.146.035.277.09.355.226.017.03.06.101.13.213.01.013.02.024.035.032a.645.645 0 01.174.146 7.516 7.516 0 01-.209-.08 2.35 2.35 0 00-.36-.113 1.04 1.04 0 00-.614.058c-.169.066-.35.13-.524.162a.366.366 0 01-.212-.032v-.336c0-.004-.002-.007-.003-.01a.027.027 0 00-.006-.01c-.397-.363-.706-.645-.992-1.003a.032.032 0 01-.007-.018.017.017 0 00-.01-.015c-.032-.015-.046-.067-.064-.09a3.33 3.33 0 01-.153-.225.045.045 0 01-.007-.02c-.001-.014-.021-.028-.032-.043a1.285 1.285 0 00-.417-.398c-.108-.063-.291-.13-.404-.21a1.348 1.348 0 01-.285-.283.943.943 0 01-.095-.134c-.013-.023-.04-.043-.052-.064a.026.026 0 010-.027c.075-.127.036-.272-.038-.395a4.051 4.051 0 00-.33-.464l-.094-.073a.112.112 0 01-.038-.025 11.407 11.407 0 01-.122-.179 1.352 1.352 0 00-.298-.288 1.732 1.732 0 00-.132-.098 1.604 1.604 0 01-.13-.1 4.677 4.677 0 00-.233-.186l-.38-.3a.014.014 0 00-.022.007l-.003.01a.033.033 0 00.015.038c.117.07.202.125.255.166.1.076.116.166.165.271.031.067.06.136.1.174.073.07.107.073.213.106.073.022.14.08.198.14.106.114.168.18.183.198a.095.095 0 00.02.018c.095.062.187.116.168.245a.042.042 0 01-.016.027.1.1 0 00-.036.047.636.636 0 01.08.23c.008.074-.006.18.01.262a.61.61 0 00.166.316.462.462 0 01.077.175l-.041.068a.144.144 0 01-.018.024c-.067.07-.1.148-.06.248a.069.069 0 01.004.019l.018.193a.009.009 0 00.008.008l.005-.001a.009.009 0 00.004-.004.254.254 0 00.028-.096.051.051 0 01.023-.041c.174-.111.345-.118.511-.02.088.05.21.147.367.287.245.22.426.473.545.761.006.014.008.03.005.045a.998.998 0 01-.072.248l-.114.25a.207.207 0 00-.014.042c-.031.15-.033.373-.083.534-.04.13-.103.257-.188.382-.062.092-.166.172-.243.247a.347.347 0 00-.108.18 2.625 2.625 0 00-.01.173c-.008.168.064.252.235.276a.025.025 0 01.017.01.026.026 0 01.004.01v.011l-.117.413a1.816 1.816 0 01-.033.423.044.044 0 01-.026.031.042.042 0 01-.04-.005l-.242-.172a.018.018 0 00-.008-.003.032.032 0 01-.023-.008.158.158 0 00-.032-.028 2.73 2.73 0 01-.213-.129 4.595 4.595 0 00-.212-.128 18.663 18.663 0 01-.73-.434 3.707 3.707 0 01-.085-.06.444.444 0 00-.171-.072c.004 0 .005-.008 0-.024a.82.82 0 01.175-.336.097.097 0 00.015-.024l.137-.298a2.624 2.624 0 00.208-.232c.072-.09.168-.162.265-.25.02-.02.081-.11.061-.15-.006-.015-.007-.026 0-.033.005-.008.005-.019 0-.031-.008-.016-.009-.029-.002-.04a.01.01 0 00.001-.004l-.004-.1a.023.023 0 01.007-.017l.127-.122a.019.019 0 00.004-.02.017.017 0 00-.003-.006l-.001-.001a.015.015 0 00-.012-.005.015.015 0 00-.011.005l-.133.144a.03.03 0 00-.008.022l.015.239c0 .004 0 .009-.002.013a.293.293 0 01-.094.12 14.65 14.65 0 00-.305.24.927.927 0 00-.215.236 2.781 2.781 0 00-.272.58.024.024 0 01-.03.005 12.054 12.054 0 01-1.145-.775.113.113 0 01-.02-.019.65.65 0 00-.245-.18 2.753 2.753 0 01-.144-.441 10.283 10.283 0 01-.219-1.106.008.008 0 00-.004-.003c-.004-.001-.006 0-.004.003l-.038-.338a.016.016 0 00-.01-.013.016.016 0 00-.01 0 .015.015 0 00-.007.004.376.376 0 01-.085.066.705.705 0 01-.274.1 1.26 1.26 0 01-.78-.152.059.059 0 01-.014-.012c-.037-.039-.085-.054-.126-.09a2.343 2.343 0 01-.456-.532 1.392 1.392 0 01-.126-.256 1.704 1.704 0 01-.083-.274 20.451 20.451 0 01-.117-.708 1.352 1.352 0 01-.028-.296.449.449 0 000-.103.072.072 0 00.01-.028c.007-.029.022-.038.046-.028l.002.01c-.002.043.018.09.024.12.074.401.13.724.277 1.07a1.704 1.704 0 00.229.393h.001l.141.132a.024.024 0 00.015.006l.013.001h.004a.007.007 0 00.003-.008l-.001-.003a1.853 1.853 0 01-.209-.272 13.739 13.739 0 00-.213-.372l.001-.006.004-.004a2.046 2.046 0 01.593-.007.41.41 0 00.15.186c.179.089.367.175.566.257.201.083.382.037.424-.205l.16.086a.03.03 0 00.013.004c.01 0 .022.003.035.008a.516.516 0 00.264.035c.024-.003.044.01.064-.002.027-.015.047-.022.062-.02.006 0 .011 0 .016-.003a.828.828 0 00.198-.135.785.785 0 00.21-.612c.266-.306.319-.745.166-1.115a3.85 3.85 0 00-.08-.184.025.025 0 01-.001-.018.024.024 0 01.01-.014l.327-.191a1.437 1.437 0 00.375-.573c.071-.206.112-.324.123-.352a1.33 1.33 0 01.524-.666c.106-.07.271-.148.362-.19.133-.063.289-.18.413-.262a.173.173 0 00.034-.029l.383-.43c.077-.086.163-.101.283-.097.188.007.336.01.444.005a2.5 2.5 0 001.256-.382c.126-.078.242-.151.348-.22.14-.09.33-.073.486-.073.658 0 1.255-.315 1.648-.84zm-5.175 2.46c.018-.035.024-.059.015-.07a5.6 5.6 0 00-.038-.057.03.03 0 00-.052.008l-.05.133a.018.018 0 00-.002.007l-.005.128a.046.046 0 00.015.036l.003.002a.02.02 0 00.034-.008c.02-.059.047-.119.08-.18zM9.587 8.88a2.905 2.905 0 00.38.103c.297.04.592.094.884.166a.78.78 0 00.13.016.864.864 0 00.213.143l.127.038c.206.066.4.114.584.146.285.048.536.046.803-.02a.44.44 0 00.09-.032.033.033 0 00.022-.006c.004-.005.008-.007.01-.006.003.001.005.003.006.005a.014.014 0 01.003.007v.007a.443.443 0 01-.157.093 1.61 1.61 0 01-.886.02.015.015 0 00-.019.01l-.103.367a.023.023 0 000 .01c0 .002 0 .005.002.008a.023.023 0 00.014.01c.204.055.415.08.634.076a2.941 2.941 0 00.49-.075c.07-.019.15-.05.244-.097a.295.295 0 00.177.106c.311.058.709-.13.956-.32.251-.194.467-.415.706-.64-.013.1-.013.192-.003.273.003.026-.01.041-.002.063a.158.158 0 01.007.044c.009.24-.02.467-.087.681-.09.294-.216.635-.376 1.023-.045.108-.105.205-.158.306a.066.066 0 00-.006.02c-.009.044-.04.077-.057.128v.003l.002.003.003.002.004-.001c.004-.002.009-.014.015-.035a.103.103 0 01.02-.04c.037-.04.052-.106.086-.155a3.034 3.034 0 00.419-.785 15.835 15.835 0 00.218-.693l.032-.053a.08.08 0 01.015-.018.353.353 0 00.112-.227c0-.007 0-.014-.002-.02a.395.395 0 01-.022-.13c0-.155-.004-.32-.014-.495a.123.123 0 01.03-.088l.163-.184a.04.04 0 01.004-.003l.251-.2a.15.15 0 01.03-.018.512.512 0 00.14-.101c.01-.01.015-.02.013-.03a.012.012 0 00-.02-.006l-.051.05a1.457 1.457 0 00-.464.377.48.48 0 01-.069.065h-.007a.014.014 0 01-.009-.012 1.136 1.136 0 00-.214-.59.736.736 0 00-.099-.104 3.355 3.355 0 00-.13-.11l-.227-.12a.012.012 0 00-.005-.002.135.135 0 01-.069-.025 3.711 3.711 0 00-.277-.09 7.545 7.545 0 00-1.504-.186 13.551 13.551 0 00-.554 0c-.025 0-.05-.009-.069.002a.018.018 0 01-.006.001l-.578.046-.005.002a.206.206 0 01-.052.014 6.7 6.7 0 00-.734.162c-.167.046-.317.1-.451.163-.23.106-.375.176-.435.207-.25.136-.518.308-.801.519a.02.02 0 00-.008.018.019.019 0 00.012.014l.14.052h.003c.025-.004.05.02.074.03.15.054.304.093.462.118zm-.432 2.308c.002.006.005.01.006.01a.006.006 0 00.006 0 .006.006 0 00.003-.005.076.076 0 00-.008-.012h-.006a.005.005 0 00-.002.003v.004zm.074.085a.068.068 0 00-.015-.022l-.002-.002h-.003l-.004.002a.006.006 0 00.001.008l.017.018.002.001h.003l.001-.003v-.002zm.028.03c0-.002-.003-.005-.006-.008a.006.006 0 00-.008 0 .005.005 0 000 .008.019.019 0 00.01.005h.001l.002-.001v-.004zm.04.063l.001.002.002.001.001.001h.001L9.3 11.37l-.002-.002-.001-.001h-.002zm4.608.838l-.025.016-.002.002v.003l.003.002h.003a.052.052 0 00.026-.018v-.004l-.003-.001h-.002zm-.33.298l.012-.018v-.004a.005.005 0 00-.003-.002h-.003a.005.005 0 00-.003.001.041.041 0 00-.01.02v.003l.002.002h.003l.002-.002zm-.014.04c-.004.002-.006.005-.006.01l.002.001h.002l.005-.008v-.003h-.004zm-3.789.14c-.002 0-.006.002-.01.006a.005.005 0 00-.001.006l.002.002h.003a.03.03 0 00.01-.002.006.006 0 00.002-.003.006.006 0 00-.002-.007.005.005 0 00-.004-.001z" fill="#F9FBFC"></path><path d="M6.934 5.238a1.536 1.536 0 00.137.627.012.012 0 01-.014.01c-.2-.05-.365-.087-.495-.11a1.78 1.78 0 00-1.467.355c-.169.132-.326.32-.487.53l-.06-.06a.013.013 0 00-.015-.002.723.723 0 01-.064.079c-.006.008-.012.011-.016.01a.014.014 0 01-.01-.007.013.013 0 010-.012c.075-.131.094-.285.138-.407.095-.262.302-.459.536-.625a.54.54 0 01.16-.078c.233-.07.488-.065.743-.06.091 0 .178.004.26.008a.131.131 0 00.049-.006l.356-.118a.903.903 0 00.22-.124h.006l.006.004a.011.011 0 00.006.002c.006 0 .01-.006.01-.016z" fill="#C2D1D3"></path><path d="M19.69 5.294a.791.791 0 01-.037.373.08.08 0 00.013.075c.176.224.287.499.333.824a.505.505 0 01-.186.32c-.168.134-.279.023-.33-.141a.07.07 0 01-.004-.024c.004-.179-.005-.297.013-.445l.048-.458c.02-.188-.109-.373-.263-.467a.011.011 0 01-.005-.012.01.01 0 01.003-.005.01.01 0 01.007-.003l.409-.037zM19.03 5.52c0-.002.001-.004.003-.005a.007.007 0 01.01.006c.021.155.013.305-.023.45-.1.398-.495.518-.862.488a.01.01 0 01-.005-.002.01.01 0 01-.003-.004.01.01 0 01-.001-.004v-.005a.867.867 0 01.304-.348c.15-.11.24-.177.271-.204.077-.065.159-.149.245-.252a.31.31 0 00.06-.12zM7.772 5.74l.165.22a.218.218 0 00.112.118.006.006 0 010 .006.034.034 0 00-.004.02c0 .006.006.011.015.014.09.025.197.095.305.144a.12.12 0 01.025.016c.13.108.21.169.238.184a3.642 3.642 0 00.383.153c.007.001.021.012.044.034a.024.024 0 00.006.004l.157.08a.239.239 0 00-.098.008 1.45 1.45 0 00-.401-.185.184.184 0 01-.053-.024c-.124-.084-.271-.208-.42-.287l-.202-.107a.106.106 0 01-.027-.02 1.76 1.76 0 01-.272-.372.01.01 0 01.012-.01l.015.003z" fill="#798B98"></path><path d="M16.018 6.572c.149.071.328.138.537.2.13.04.265.101.404.186.363.223.584.575.607 1.004.015.282-.096.53-.405.567a3.353 3.353 0 01-.219.011c-.248.008-.48.056-.634.27-.116.16-.14.342-.148.553-.025.62-.066 1.742-.124 3.366-.007.199-.03.308-.13.457-.176.262-.5.248-.763.153a7.472 7.472 0 01-.414-.16 1.29 1.29 0 00-.338-.113c-.27-.023-.543.099-.67.346-.012 0-.02-.004-.026-.008-.207-.192-.264-.427-.17-.703l.004-.005a.01.01 0 01.006-.002.011.011 0 01.01.005.44.44 0 00.388.208 1.66 1.66 0 00.3-.049.569.569 0 01.236.026c.263.066.42.107.471.124a.086.086 0 00.023.003.16.16 0 01.057.017c.02.01.06.015.122.016.27.008.428-.123.472-.393l.012-.07a.04.04 0 00.002-.029c-.012-.035.006-.08.008-.12a5.78 5.78 0 00.005-.22c0-.009.001-.018.005-.028a.025.025 0 00-.002-.022.018.018 0 010-.02.044.044 0 000-.05.017.017 0 01.002-.02c.01-.012.012-.027.004-.046a.023.023 0 010-.017.582.582 0 00.012-.131c.007-.248.017-.516.031-.806.017-.336.028-.604.034-.805.004-.094.013-.415.028-.962.004-.153.035-.391.03-.563a7.292 7.292 0 00-.043-.594 1.019 1.019 0 00-.052-.242c-.06-.16-.144-.263-.25-.411a1.586 1.586 0 00-.154-.168 39.063 39.063 0 01-.306-.308c-.102-.103-.23-.2-.386-.292a.062.062 0 00-.02-.005.022.022 0 01-.017-.012c-.01-.019-.028-.03-.054-.032a.09.09 0 01-.057-.03.115.115 0 01-.008-.01.042.042 0 00-.014-.013 6.925 6.925 0 00-.352-.183 1.625 1.625 0 00-.294-.104.319.319 0 01-.068-.032.033.033 0 01-.014-.015c-.05-.102-.125-.225-.238-.26a5.708 5.708 0 01-.171-.061.01.01 0 01-.001-.006.01.01 0 01.01-.007c.098.008.209.014.296.056a.045.045 0 01.016.014l.143.18a.143.143 0 00.046.038l.186.1.005.003a.76.76 0 01.19.09c.022.015.05.015.075.028.04.02.08.024.121.01a.042.042 0 01.03.003c.142.068.226.112.251.132.087.066.149.11.187.133l.284.168c.178.103.26.285.44.444a.054.054 0 01.013.02l.118.298.003.005.154.203a.665.665 0 01.092.204c.017.056.02.14.007.252-.011.106-.023.203-.033.29a.013.013 0 00.017.014.013.013 0 00.008-.005.522.522 0 01.11-.128c.087-.072.162-.152.233-.225a.798.798 0 00.222-.674c-.004-.03-.019-.041-.015-.064 0-.007 0-.014-.002-.021a1.644 1.644 0 00-.191-.454 1.52 1.52 0 00-.169-.275.771.771 0 00-.081-.08.54.54 0 01-.08-.087.016.016 0 010-.02.17.17 0 01.046-.037zm-.183 2.357a.004.004 0 00-.002-.003h-.003s-.002 0-.003.002l-.002.003c0 .002 0 .005.003.008l.002.002h.003l.002-.001.001-.003V8.93zM10.031 5.99l.44.05c.002 0 .004 0 .006.002a.015.015 0 01.005.006v.007a1.729 1.729 0 01-1.265.679l-.156-.081a.024.024 0 01-.006-.004c-.022-.022-.037-.033-.044-.034a3.639 3.639 0 01-.383-.154 2.358 2.358 0 01-.238-.183.12.12 0 00-.025-.016c-.108-.05-.214-.12-.305-.144-.01-.003-.014-.008-.015-.014 0-.007.001-.014.005-.02a.006.006 0 000-.007l-.002-.001a.218.218 0 01-.111-.117c.124.082.23.141.316.179a6.204 6.204 0 00.376.136l.055.003a4.032 4.032 0 00.341.067c.32.023.61-.05.871-.222a.5.5 0 00.135-.132z" fill="#C2D1D3"></path><path d="M8.177 7.145a.873.873 0 01-.113.096.414.414 0 00-.062.05.697.697 0 01-.058.057.677.677 0 00-.082.089c-.072.09-.131.169-.179.236-.033.047-.08.091-.13.145a.57.57 0 01-.112.094 1.525 1.525 0 01-.308.153.119.119 0 01-.058.009.02.02 0 00-.017.004.201.201 0 00-.004.003.054.054 0 01-.023.01l-.204.025a.071.071 0 01-.024 0 .597.597 0 00-.082-.01.609.609 0 01-.093-.012 1.386 1.386 0 01-.466-.183.017.017 0 00-.022.005l-.165.23a.017.017 0 01-.027 0c-.236-.305-.521-.517-.924-.502-.366.014-.646.182-.84.506-.019.033-.035.073-.055.107a.036.036 0 01-.02.016 2.242 2.242 0 00-.597.314c-.08.058-.156.125-.227.199-.154-.755.038-1.548.597-2.073a.713.713 0 01.176-.125.01.01 0 01.009.014.555.555 0 00-.012.26c.032.16.185.238.337.226.144-.012.294-.132.385-.243.135-.164.227-.273.276-.326.35-.378.965-.585 1.445-.366.16.073.296.193.407.357a.66.66 0 01.105.471c-.043.286-.35.46-.554.183a.007.007 0 00-.008-.003.008.008 0 00-.006.007c0 .069.017.13.052.183a.49.49 0 00.541.22c.158-.032.288-.131.422-.233a.97.97 0 01.72-.193z" fill="#F9FBFC"></path><path d="M3.605 9a.808.808 0 00-.004.44c.013.049.031.105.055.169.021.057.078.157.172.3.015.022.028.057.04.064.033.023.038.047.059.085a.026.026 0 00.006.008l.218.187a.013.013 0 01.003.005.013.013 0 01-.004.016h-.015a1.061 1.061 0 01-.215-.173 2.5 2.5 0 01-.634-1.315c.07-.075.146-.141.226-.2.183-.134.383-.239.598-.313a.035.035 0 00.019-.016c.02-.034.036-.075.055-.107.194-.324.474-.493.84-.506.403-.015.688.197.924.503a.017.017 0 00.021.004.017.017 0 00.006-.005l.165-.23a.017.017 0 01.022-.005c.141.088.297.15.466.183.033.006.064.01.093.012a.597.597 0 01.082.009.071.071 0 00.024 0l.204-.025a.055.055 0 00.023-.009l.004-.003a.021.021 0 01.017-.005c.014.003.034 0 .058-.009.102-.036.204-.086.308-.152a.569.569 0 00.112-.094c.05-.054.097-.098.13-.145a5.79 5.79 0 01.179-.237.677.677 0 01.082-.088.698.698 0 00.058-.057.413.413 0 01.062-.05.873.873 0 00.113-.096c.1-.002.195.007.284.026a90.404 90.404 0 01.387.087.007.007 0 010 .008.915.915 0 00-.507.346c-.095.13-.173.345-.247.475-.216.377-.577.614-1.008.633-.297.013-.55-.046-.78-.224a2.955 2.955 0 01-.234-.198c-.101-.097-.18-.142-.3-.228-.44-.315-1.072-.275-1.438.136a.493.493 0 00.042.725c.032.029.07.06.114.093a.064.064 0 01.025.063.753.753 0 01-.152.332c-.103.13-.303.096-.418-.004a.927.927 0 01-.309-.583.008.008 0 00-.012.005L3.604 9zM9.942 7.533c-.033.061-.06.121-.08.18a.021.021 0 01-.015.014.02.02 0 01-.02-.006l-.002-.002a.046.046 0 01-.015-.036l.005-.129.001-.006.05-.133a.03.03 0 01.053-.008l.038.056c.009.012.003.036-.015.07zM14.897 9.017a.81.81 0 00-.117-.495c-.306-.542-.934-.647-1.501-.696-.293-.026-.813-.07-1.003.188-.034.045-.051.108-.07.161a.022.022 0 01-.018.015 4.21 4.21 0 00-1.03.283l-.58.24a2.21 2.21 0 01-.991.168 2.499 2.499 0 01-.462-.118c-.025-.01-.05-.035-.074-.03h-.004l-.139-.052a.018.018 0 01-.012-.015.019.019 0 01.008-.018c.283-.21.55-.382.802-.518.059-.032.203-.1.434-.208.134-.062.284-.116.451-.162a6.7 6.7 0 01.735-.162.204.204 0 00.05-.014.02.02 0 01.006-.002l.578-.046c.002 0 .004 0 .006-.002.02-.01.044-.001.069-.002.198-.003.383-.003.554.001a7.547 7.547 0 011.505.187 3.745 3.745 0 01.277.09.135.135 0 00.068.024l.005.001.227.122a.74.74 0 01.23.214 1.136 1.136 0 01.216.595.014.014 0 00.014.006.479.479 0 00.069-.065c.056-.07.113-.13.17-.18a2.868 2.868 0 01.293-.197l.05-.05a.013.013 0 01.013-.004l.005.004a.012.012 0 01.003.006c.002.01-.002.02-.013.03a.51.51 0 01-.14.1.15.15 0 00-.03.02l-.251.2a.03.03 0 00-.004.002l-.163.184a.123.123 0 00-.03.088c.01.175.014.34.014.494a.4.4 0 00.021.13.046.046 0 01.003.021.354.354 0 01-.112.226.08.08 0 00-.015.019l-.032.053a3.028 3.028 0 01-.636 1.478c-.035.048-.05.114-.086.154a.103.103 0 00-.021.04c-.006.022-.011.034-.015.036h-.004l-.003-.001-.002-.003v-.004c.017-.05.048-.083.057-.128a.07.07 0 01.006-.02c.053-.1.113-.198.158-.305.16-.389.286-.73.376-1.023.067-.214.096-.441.087-.681a.151.151 0 00-.007-.044c-.008-.022.005-.038.002-.063a1.1 1.1 0 01.003-.272z" fill="#C2D1D3"></path><path d="M14.897 9.017c-.239.224-.455.445-.706.639-.247.19-.645.378-.956.32a.295.295 0 01-.177-.107 1.013 1.013 0 01-.036-.37.04.04 0 00-.028-.041l-.157-.046c.066-.147.1-.274.104-.38.01-.244-.157-.413-.382-.479-.36-.105-.787-.027-1.113.157-.133.074-.207.178-.322.31a.018.018 0 00-.003.021l.027.05-.167.075a.78.78 0 01-.13-.017 8.323 8.323 0 00-.884-.165 2.904 2.904 0 01-.358-.093c.005-.011.008-.014.008-.01.332.016.652-.04.961-.167l.58-.24a4.21 4.21 0 011.03-.283.022.022 0 00.018-.015c.019-.054.036-.117.07-.162.19-.258.71-.213 1.003-.188.567.05 1.195.155 1.501.697a.81.81 0 01.117.494z" fill="#081A2B"></path><path d="M12.837 9.412a1.53 1.53 0 00-.72-.397 1.582 1.582 0 00-.97.076l-.026-.05a.017.017 0 01-.002-.01c0-.004.002-.008.005-.01.115-.133.189-.237.322-.312.326-.183.753-.26 1.113-.156.225.066.391.235.382.48a1.072 1.072 0 01-.104.379zM5.37 8.521a.917.917 0 00-.046.283.482.482 0 00-.2.108c-.133.12-.184.297-.185.475-.001.09 0 .15.002.182a.252.252 0 00-.134.107l-.076.124a2.57 2.57 0 01.017-.565c.05-.37.225-.665.622-.714z" fill="#798B98"></path><path d="M5.324 8.804c0-.096.015-.19.046-.283.177-.016.318.032.423.141.225.237.28.51.328.834l.003.02a.02.02 0 01-.032.007c-.277-.268-.302-.747-.768-.719z" fill="#C2D1D3"></path><path d="M9.617 8.88c0-.003-.003 0-.008.01-.01 0-.018-.004-.022-.01a.041.041 0 01.03 0zM15.835 8.929a.013.013 0 01.001.008l-.001.003-.002.001h-.003l-.002-.002-.003-.008.002-.003.003-.002h.004l.002.003z" fill="#798B98"></path><path d="M12.838 9.412l.156.046a.04.04 0 01.028.041c-.012.116 0 .24.037.37a1.325 1.325 0 01-.245.098 2.936 2.936 0 01-.49.075 2.284 2.284 0 01-.642-.08.023.023 0 01-.009-.015v-.009l.105-.366a.016.016 0 01.018-.011c.297.076.592.07.885-.02a.443.443 0 00.158-.093.015.015 0 000-.008.014.014 0 00-.009-.011c-.002 0-.006 0-.01.005-.015-.004-.023-.002-.022.007a.442.442 0 01-.09.033 1.903 1.903 0 01-.803.019 4.297 4.297 0 01-.584-.146 3.239 3.239 0 00-.127-.038.862.862 0 01-.213-.143l.167-.075a1.582 1.582 0 011.531.185c.058.043.11.088.159.136z" fill="#C2D1D3"></path><path d="M3.605 9c.02.042.047.119.085.23.113.342.426.622.798.655a.068.068 0 01.062.067v.091a.033.033 0 01-.013.026 2.18 2.18 0 01-.346.222c-.016.009-.035.003-.056-.017.008.002.013.002.015 0a.012.012 0 00.004-.004.012.012 0 00.001-.006v-.006a.015.015 0 00-.004-.005l-.218-.187a.025.025 0 01-.006-.008c-.021-.037-.026-.062-.06-.084-.01-.008-.024-.042-.04-.065a1.871 1.871 0 01-.171-.3 1.951 1.951 0 01-.055-.168A.808.808 0 013.605 9zM6.852 10.057a.86.86 0 00.408.115c.029 0 .056-.007.082-.022a.013.013 0 00.005-.018 1.368 1.368 0 00-.064-.118c-.16-.148-.325-.185-.534-.228a.374.374 0 01-.131-.065l-.108-.147a1.599 1.599 0 01-.135-.499.01.01 0 01.01-.006.01.01 0 01.005.002l.351.202a.018.018 0 00.01.003c.226-.023.399-.028.519-.016a.637.637 0 01.544.46c.052.19.007.458-.154.593-.296.249-.67.053-.808-.256zM8.842 9.503c-.003.03.012.053.044.07a.018.018 0 01.008.008.019.019 0 01.001.012l-.005.017a.029.029 0 00.004.023c.058.094.034.233.185.24a.08.08 0 01.035.01c.122.067.198.116.227.147l.21.213c.05.052.119.088.206.11.01.011.023.02.038.026a.083.083 0 01-.015.044.028.028 0 00-.004.02c.019.12.067.222.144.307.037.04.06.065.068.076a1.289 1.289 0 00.095.114h-.002v.001l-.003.001h-.003c-.091-.082-.154-.147-.209-.19a.248.248 0 01-.07-.12.012.012 0 00-.006-.007.015.015 0 00-.006-.002H9.78l-.078.027a.1.1 0 01.036-.047.042.042 0 00.016-.027c.02-.129-.073-.184-.167-.245a.093.093 0 01-.021-.018 10.447 10.447 0 00-.183-.197.5.5 0 00-.198-.142c-.106-.033-.14-.036-.213-.105-.04-.038-.069-.107-.1-.174-.05-.106-.065-.195-.165-.272a2.94 2.94 0 00-.255-.165.034.034 0 01-.014-.017.033.033 0 010-.021l.002-.01a.014.014 0 01.022-.007l.38.3zM12.82 9.434a.033.033 0 01-.022.007c0-.01.006-.012.022-.007z" fill="#798B98"></path><path d="M9.757 10.354a.43.43 0 01-.207-.11l-.209-.214c-.03-.031-.105-.08-.227-.147a.08.08 0 00-.035-.01c-.15-.007-.127-.146-.185-.24a.03.03 0 01-.004-.023l.005-.016a.019.019 0 000-.012.018.018 0 00-.009-.01c-.032-.016-.047-.04-.044-.07.08.06.157.123.232.187.037.032.08.065.131.1.056.038.1.071.132.098a.853.853 0 00.05.037 1.35 1.35 0 01.248.252l.122.178zM4.941 9.57l.03.474c-.025-.01-.04 0-.047.029-.006-.003-.01-.001-.013.005-.003.006-.002.014.003.023a.448.448 0 01-.002.13c.003.104.012.194.03.269a20.494 20.494 0 00.117.708c.01.061.038.153.083.273.036.094.078.18.126.257.13.207.283.385.456.533.04.035.09.05.126.089.004.005.009.009.015.012.234.133.494.183.779.151a.705.705 0 00.274-.099.382.382 0 00.085-.066.016.016 0 01.016-.004.016.016 0 01.011.012l.038.339a1.28 1.28 0 01-1.191-.166 1.876 1.876 0 01-.484-.476c-.153-.22-.27-.45-.353-.69a4.436 4.436 0 01-.14-.516 13.62 13.62 0 01-.13-.69 3.439 3.439 0 01-.039-.368c.028-.043.053-.085.076-.123a.252.252 0 01.134-.107zM6.852 10.057a1.45 1.45 0 01-.256-.294.657.657 0 01-.086-.19l.108.148a.374.374 0 00.131.065c.209.043.374.08.534.228.004.004.026.043.064.119a.013.013 0 01-.005.017.155.155 0 01-.082.022.86.86 0 01-.408-.115z" fill="#C2D1D3"></path><path d="M4.972 10.055c.041.009.081.014.119.028.29.109.498.307.622.594.029.066.076.21.14.428a2.043 2.043 0 00-.592.007.012.012 0 00-.003.016c.047.076.117.199.211.366a1.857 1.857 0 00.21.275v.004a.007.007 0 01-.003.003.007.007 0 01-.004.001l-.013-.001a.024.024 0 01-.015-.006l-.14-.131-.002-.002a1.703 1.703 0 01-.229-.392c-.147-.346-.203-.669-.277-1.07-.006-.03-.026-.077-.024-.12z" fill="#C2D1D3"></path><path d="M4.924 10.073a.073.073 0 01-.01.028c-.005-.01-.006-.017-.003-.023.003-.006.007-.008.013-.005z" fill="#798B98"></path><path d="M8.016 10.704a.785.785 0 01-.21.612.827.827 0 01-.198.135.027.027 0 01-.016.003c-.015-.002-.035.005-.063.02-.02.011-.039-.001-.063.002a.516.516 0 01-.264-.035.104.104 0 00-.035-.008.03.03 0 01-.013-.004l-.16-.087c-.071-.144-.146-.29-.225-.439a1.188 1.188 0 01-.092-.275 7.976 7.976 0 01-.069-.327l.004-.002h.004c.002 0 .003.001.004.003.182.383.567.72 1.022.61a.83.83 0 00.374-.208zM12.784 14.197a.827.827 0 00-.136.003c-.174.03-.258.135-.25.316a.126.126 0 00.008.096c.036.074.102.096.19.121a2.002 2.002 0 01-.257.512c-.15.214-.26.367-.335.457-.014.018-.021.029-.02.034l-.002.006a.01.01 0 01-.006.005c-.008.004-.013.008-.014.014a.01.01 0 000 .005.01.01 0 00.002.004.012.012 0 00.004.003 4.833 4.833 0 01.8-.135c.002.001.003.002.003.004v.005a5.868 5.868 0 01-.124.038.068.068 0 00-.029.014c-.02.02-.045.007-.07.016a3.586 3.586 0 01-.305.072.362.362 0 00-.104.017.665.665 0 01-.158.002.618.618 0 00-.092.009.028.028 0 00-.008.007 2.028 2.028 0 00-.053.085.736.736 0 00-.083.625c.127.403.607.657.998.72.235.039.461.037.677-.005.34-.065.579-.247.718-.545.114-.245.053-.48.03-.735.454.296.698.902.374 1.393-.305.462-.869.574-1.382.554a4.382 4.382 0 01-.995-.145c-.217-.06-.464-.137-.739-.233-.113-.04-.365-.146-.757-.32a9.03 9.03 0 01-1.426-.8.406.406 0 01-.08-.084 1.707 1.707 0 00-.228-.441.4.4 0 01-.062-.204l.053-.372a.443.443 0 01.17.072l.085.06c.233.145.477.29.731.434.065.036.136.08.212.128.114.073.185.116.213.129a.161.161 0 01.033.028.032.032 0 00.022.008c.003 0 .006.001.008.003l.241.172a.044.044 0 00.058-.007.044.044 0 00.01-.02 1.822 1.822 0 00.032-.422l.117-.413a.027.027 0 000-.01.025.025 0 00-.011-.018.024.024 0 00-.01-.004c-.17-.023-.243-.107-.236-.275.005-.102.008-.16.01-.174a.347.347 0 01.11-.179c.076-.075.18-.155.242-.247a1.45 1.45 0 00.188-.382c.05-.162.052-.383.083-.534a.203.203 0 01.014-.043l.114-.249a1 1 0 00.072-.248.085.085 0 00-.005-.045 2.078 2.078 0 00-.545-.76 2.523 2.523 0 00-.367-.289c-.166-.097-.337-.09-.51.02a.052.052 0 00-.024.042c-.001.026-.01.058-.028.096a.009.009 0 01-.004.004h-.005a.01.01 0 01-.005-.002.01.01 0 01-.003-.005l-.018-.193a.068.068 0 00-.004-.019c-.04-.1-.007-.179.06-.248a.144.144 0 00.018-.024l.04-.069a.035.035 0 00.027-.016c.005-.008.006-.018.002-.03a.23.23 0 00-.105-.128.61.61 0 01-.166-.316c-.016-.082-.002-.188-.01-.261a.636.636 0 00-.08-.231l.078-.026a.013.013 0 01.01 0l.003.003a.012.012 0 01.002.004c.02.06.043.1.071.121.055.043.118.108.209.19h.005l.001-.002h.002l.001.001c0 .003-.032-.035-.096-.115a2.282 2.282 0 00-.068-.076.583.583 0 01-.144-.307.027.027 0 01.004-.02.083.083 0 00.015-.044l.094.073a4.053 4.053 0 01.33.465c.074.121.113.267.038.394a.027.027 0 000 .027c.012.021.04.041.052.064.016.03.048.075.095.134.048.059.078.096.092.11.063.067.127.124.193.172.113.082.296.148.404.21.16.093.3.226.417.399.01.015.03.029.032.042 0 .008.003.015.007.021.07.11.122.184.153.225.018.022.032.075.064.09a.017.017 0 01.01.015c0 .006.003.012.007.018.286.358.595.64.992 1.003a.028.028 0 01.006.01.028.028 0 01.002.01l.002.336zm-1.437-1.533a1.32 1.32 0 00-.084-.168.407.407 0 01-.063-.269v-.007a.014.014 0 00-.005-.006.013.013 0 00-.014 0 .084.084 0 01-.096-.008 8.905 8.905 0 00-.438-.307c-.049-.031-.097-.074-.154-.115a.027.027 0 01-.005-.005l-.095-.122a.007.007 0 00-.004-.002h-.005a.007.007 0 00-.002.005v.004a.526.526 0 00.09.136 1.3 1.3 0 00.29.238c.116.07.192.13.252.237.033.058.114.075.16.121.01.011.018.024.024.037a.987.987 0 00.143.24h.004a.006.006 0 00.003-.005v-.004zm-.688 4.437l.187-.061a.01.01 0 01.006 0 .01.01 0 01.005.003.01.01 0 01.003.005.01.01 0 01-.002.006c-.043.08.04.095.042.147a.843.843 0 00.058.115.01.01 0 00.013-.003.01.01 0 00.002-.006c-.006-.238-.073-.408-.195-.651a.598.598 0 00-.042-.064c-.035-.05-.038-.103-.007-.16a.012.012 0 00-.012-.018.012.012 0 00-.007.004c-.034.039-.04.09-.02.151l.134.313c.016.036.023.086-.01.107a2.862 2.862 0 00-.16.107v.003l.002.002h.003zm1.116.496a.217.217 0 00-.032-.087.43.43 0 01-.002-.396 5.65 5.65 0 01.137-.255c.002-.004.003-.009.002-.014a.02.02 0 00-.007-.012.015.015 0 00-.005-.003h-.006l-.006.001a2.74 2.74 0 00-.193.28c-.066.127-.06.266.017.416.017.034.043.06.078.08a.012.012 0 00.012 0 .012.012 0 00.005-.01z" fill="#C2D1D3"></path><path d="M4.833 11.884a2.219 2.219 0 00-.192-.409l-.2-.31a5.166 5.166 0 00-.212-.303c.104-.12.222-.22.354-.302a.02.02 0 01.02 0 .02.02 0 01.01.016 2.798 2.798 0 00.186.829.74.74 0 01.034.48z" fill="#798B98"></path><path d="M4.229 10.862c.075.1.146.2.212.303l.2.31c.077.128.14.264.192.41-.116.172-.247.24-.393.202-.128-.033-.23-.124-.306-.273-.153-.301-.095-.68.095-.952z" fill="#C2D1D3"></path><path d="M9.163 11.184l.007.01a.006.006 0 01-.003.005l-.003.001h-.003a.033.033 0 01-.007-.013v-.002l.001-.002.001-.001h.006v.002zM9.223 11.278l-.017-.018a.006.006 0 01-.002-.004l.001-.004a.006.006 0 01.004-.002l.005.001c.003.003.009.01.015.023a.004.004 0 01-.001.004h-.005zM9.252 11.308a.018.018 0 01-.01-.005.005.005 0 01.001-.008.006.006 0 01.004-.001l.004.001c.004.004.005.007.006.009v.002l-.001.001-.002.001h-.002zM9.3 11.37h.002v.001H9.3l-.002-.002-.002-.002H9.3l.002.002zM10.035 11.632a.463.463 0 00-.077-.175.23.23 0 01.105.129c.004.012.003.022-.002.03a.035.035 0 01-.026.016zM11.337 12.67a.983.983 0 01-.139-.237.128.128 0 00-.025-.037c-.045-.046-.126-.063-.159-.12a.625.625 0 00-.251-.239 1.299 1.299 0 01-.29-.238.526.526 0 01-.091-.14l.002-.003a.006.006 0 01.005-.001c.001 0 .003 0 .004.002l.095.122a.028.028 0 00.005.005c.057.04.105.083.154.115.131.086.277.188.438.307.03.023.062.025.096.007a.015.015 0 01.007-.001c.002 0 .005 0 .006.002a.014.014 0 01.005.006.014.014 0 01.002.007.408.408 0 00.062.268 1.284 1.284 0 01.085.173.006.006 0 01-.003.004.006.006 0 01-.004 0 .007.007 0 01-.004-.001z" fill="#798B98"></path><path d="M13.91 12.21a.054.054 0 01-.026.018h-.003a.005.005 0 01-.002-.002v-.003l.001-.002.025-.016h.004l.001.003v.002z" fill="#C2D1D3"></path><path d="M4.745 12.402c-.007.047.012.085.056.111.047.03.096.058.145.088a.059.059 0 01.02.02c.015.027.046.032.068.053.057.056.275.285.137.342-.27.113-.547.211-.83.296a1.758 1.758 0 01-.152-.968l.003-.003a.008.008 0 01.004 0 2 2 0 00.55.062z" fill="#F9FBFC"></path><path d="M5.41 12.852c.07.112.123.226.161.341a.86.86 0 01.036.21c.005.08.013.162.023.243a.589.589 0 00-.177-.084c-.025-.044-.177-.073-.225-.081a.417.417 0 00-.443.181l-.084.1a.023.023 0 01-.017.008c-.003 0-.006 0-.01-.002a1.767 1.767 0 01-.334-.456c.284-.085.56-.183.831-.295.138-.058-.08-.286-.137-.342-.022-.022-.053-.027-.068-.054a.058.058 0 00-.02-.02l-.145-.088c-.044-.026-.063-.063-.056-.11a.49.49 0 01.252.055.94.94 0 01.196.17c.074.079.146.153.217.224z" fill="#C2D1D3"></path><path d="M13.568 12.5a.04.04 0 01.01-.02s.001-.002.003-.002h.003l.002.003v.004l-.01.018-.003.002h-.003l-.002-.003V12.5z" fill="#798B98"></path><path d="M9.775 12.695a.027.027 0 01-.009.003h-.003a.005.005 0 01-.002-.003.005.005 0 01.001-.007c.004-.003.008-.005.01-.004h.004l.002.004v.004a.006.006 0 01-.003.003z" fill="#C2D1D3"></path><path d="M5.63 13.646a3.955 3.955 0 01-.023-.244.86.86 0 00-.036-.21 1.63 1.63 0 00-.16-.34c.303.121.512.328.626.62a1.86 1.86 0 01.13.601.006.006 0 01-.004.003H6.16a.006.006 0 01-.003-.002c-.149-.173-.305-.284-.526-.428zM5.453 13.562a1.399 1.399 0 00-.668.1.417.417 0 01.443-.181c.049.008.2.037.225.081z" fill="#798B98"></path><path d="M8.927 15.291c-.008-.015-.019-.023-.033-.021a.052.052 0 00-.03.014.055.055 0 00-.016.03 4.911 4.911 0 00-.047.37.144.144 0 00.014.076l.258.517a5.316 5.316 0 01-.907-.806 3.746 3.746 0 01-.727-1.22c.096.04.178.101.245.181a.113.113 0 00.02.018 12.074 12.074 0 001.156.779.024.024 0 00.02-.008.927.927 0 01.487-.816c.138-.112.24-.192.304-.24a.293.293 0 00.094-.12.034.034 0 00.002-.014l-.015-.238a.03.03 0 01.008-.022l.133-.144a.015.015 0 01.012-.005.015.015 0 01.011.005.018.018 0 01.006.013.019.019 0 01-.006.014l-.127.121a.022.022 0 00-.007.018l.004.1a.01.01 0 01-.001.004c-.007.01-.006.024.001.04.006.012.006.022 0 .03s-.005.019.002.033c.02.04-.041.13-.062.15-.097.089-.193.16-.265.25a2.608 2.608 0 01-.208.232l-.137.3a.097.097 0 01-.015.023.82.82 0 00-.174.336z" fill="#C2D1D3"></path><path d="M10.927 19.471c0 .026.007.05.021.073.168.28.335.595.482.849l.221.38-1.008.219a.01.01 0 00-.004.002.013.013 0 00-.003.004.012.012 0 00-.002.004v.005c.103.27.178.48.227.63a.097.097 0 01.005.046.018.018 0 01-.02.015.568.568 0 01-.114-.092 5.34 5.34 0 01-.148-.163.038.038 0 00-.018-.015.194.194 0 01-.086-.074c-.027-.041-.078-.124-.134-.172a2.534 2.534 0 01-.354-.374 5.564 5.564 0 00-.194-.246c-.072-.088-.13-.204-.199-.29a.195.195 0 00-.04-.039.868.868 0 01-.345-.408c-.04-.09-.107-.13-.19-.176a.098.098 0 01-.022-.018c-.075-.08-.107-.133-.187-.254a.125.125 0 00-.026-.028.918.918 0 01-.215-.258c-.036-.063-.08-.126-.126-.193a.116.116 0 00-.024-.026c-.07-.054-.199-.143-.278-.22-.178-.175-.274-.398-.398-.66a1.242 1.242 0 01-.091-.295l-.102-.423a.019.019 0 00-.018-.014H7.48a.06.06 0 01-.049-.027 6.486 6.486 0 01-.138-.223c-.04-.066-.084-.109-.131-.17a.172.172 0 00-.016-.017.374.374 0 01-.086-.105 1.149 1.149 0 00-.049-.098.064.064 0 01-.007-.02l-.05-.238a.103.103 0 00-.056-.072l-.308-.149a9.015 9.015 0 01-.107-.884c.154.19.403.21.572.38a.73.73 0 01.125.187c.06.144.122.287.185.43.004.01.01.02.02.034v-.02a1.092 1.092 0 00-.21-.516.466.466 0 00-.2-.246 15.664 15.664 0 00-.35-.19.06.06 0 01-.016-.012.359.359 0 00-.122-.086c-.002.004-.004.003-.009-.003a.021.021 0 01-.004-.01 3.443 3.443 0 01-.026-.5c.001-.257.069-.49.204-.697a.67.67 0 01.48-.313.021.021 0 01.024.018c0 .005.053.22.158.647.118.478.335.952.616 1.382.184.282.38.55.589.805l2.395 2.897a.063.063 0 01.013.027zm-3.625-4.085c.002-.002.003-.004.002-.006v-.002h-.002c-.002 0-.004.002-.005.006v.002l.002.001h.003zM5.888 14.29a.765.765 0 01-.515.137c-.046-.004-.13-.002-.17-.036a.64.64 0 01-.204-.377.258.258 0 01.212-.14c.24-.018.54.236.677.415z" fill="#F9FBFC"></path><path d="M14.703 14.202c.003.142-.056.228-.177.255a.419.419 0 01-.194-.014c-.13-.034-.27-.104-.393-.135a1.005 1.005 0 00-.572.027c-.204.07-.41.14-.583-.028a.058.058 0 00-.038-.016c-.157-.004-.273.07-.348.225-.008-.181.076-.286.25-.316a.828.828 0 01.136-.003.366.366 0 00.212.032c.174-.032.355-.096.524-.162.2-.08.405-.104.615-.058.11.024.233.063.36.113.067.027.137.054.208.08z" fill="#798B98"></path><path d="M4.999 14.014a.64.64 0 00.204.377c.04.033.124.032.17.036.188.016.36-.03.515-.138a1.87 1.87 0 01.305.482c0 .002 0 .003-.002.003l-.003.002h-.003c-.299-.107-.57-.06-.87.03-.068.02-.1.005-.15-.037-.23-.186-.35-.492-.166-.755z" fill="#C2D1D3"></path><path d="M14.508 15.046a.408.408 0 01-.246.03c-.288-.064-.56-.13-.849-.133-.174-.002-.303.022-.389.07-.164.094-.237.272-.21.47l.014.096a.034.034 0 01-.01.03l-.02.017-.002.002a.004.004 0 00.002.005h.022c.006 0 .012.003.017.006a.33.33 0 00.099.05.034.034 0 00.02 0 .12.12 0 00.055-.037c.214-.019.427.001.638.06.19.053.363.138.519.255.023.255.084.49-.03.735-.14.298-.378.48-.718.545a1.929 1.929 0 01-.677.005c-.39-.063-.871-.317-.998-.72a.735.735 0 01.084-.625c.03-.051.047-.08.052-.085a.03.03 0 01.02-.011.645.645 0 01.08-.005.662.662 0 00.158-.002.361.361 0 01.104-.017c.006 0 .011 0 .017-.002.158-.035.254-.058.289-.07.024-.009.05.004.07-.016a.068.068 0 01.028-.014 5.503 5.503 0 00.124-.038.006.006 0 000-.005.006.006 0 00-.002-.004h-.005a4.033 4.033 0 00-.335.075c-.11.03-.234.052-.376.068a.566.566 0 01-.085-.008.011.011 0 01-.004-.003.012.012 0 01-.002-.004v-.005c.001-.006.006-.01.014-.014a.012.012 0 00.006-.005.011.011 0 00.001-.007c0-.004.007-.015.021-.033.074-.09.186-.243.335-.457.11-.157.195-.328.257-.512a.524.524 0 01.168-.116.682.682 0 01.2-.047c.164-.017.292-.032.385-.046a.88.88 0 01.255.001c.239.035.46.103.663.203.14.07.224.165.241.318z" fill="#F9FBFC"></path><path d="M14.508 15.045c.03.302-.187.337-.417.29-.316-.066-.684-.169-.936.092-.032.033-.08.108-.144.225a.12.12 0 01-.055.036.036.036 0 01-.02 0 .328.328 0 01-.099-.049.027.027 0 00-.016-.006h-.023l-.002-.002v-.003s0-.002.002-.002l.019-.018a.034.034 0 00.01-.013.034.034 0 000-.016c0-.012-.005-.043-.012-.096-.028-.198.045-.376.21-.47.085-.049.214-.072.388-.07.29.003.56.069.848.134a.408.408 0 00.247-.032zM5.726 15.589l.05.104.02.04c.083.162.14.335.17.519-.383-.218-.714-.642-.651-1.105 0-.002 0-.004.002-.005a.009.009 0 01.01-.002l.004.004c.085.173.217.322.395.445z" fill="#C2D1D3"></path><path d="M7.175 15.752l-.12-.114c-.17-.17-.417-.191-.572-.381l.004-.039a.36.36 0 01.122.086c.004.005.01.009.015.012.118.062.235.125.352.19.086.048.152.13.199.246zM8.927 15.291c.004.015.003.023-.001.024l-.053.372a.4.4 0 00.062.204c.106.152.182.299.228.441a.17.17 0 01-.09-.055l-.258-.517a.144.144 0 01-.014-.077 4.9 4.9 0 01.047-.368.055.055 0 01.016-.03.051.051 0 01.03-.015c.014-.001.025.006.033.021zM7.302 15.386l-.002.002H7.3l-.002-.002v-.002c.001-.004.003-.006.005-.006h.001l.001.002c0 .002 0 .004-.002.006zM5.966 16.252a1.766 1.766 0 00-.17-.52c.004-.019-.003-.032-.02-.04l-.05-.104c.184-.034.373-.056.569-.066.004 0 .007 0 .01.002a.016.016 0 01.006.01c.07.262.094.527.07.795a.016.016 0 01-.016.015.806.806 0 01-.399-.092z" fill="#798B98"></path><path d="M11.651 20.773c.198.315.378.575.54.781.18.23.38.45.598.655.25.236.524.441.82.615.16.093.381.212.666.354.03.015.1.033.209.055-.276.12-.553.22-.832.298a5.697 5.697 0 01-1.031.193l-.348-.233a.035.035 0 01-.01-.009.223.223 0 00-.078-.052.035.035 0 01-.017-.017l-.005-.007a.03.03 0 00-.005-.007l-.115-.1a.094.094 0 01-.016-.018.827.827 0 00-.134-.17 3.473 3.473 0 01-.367-.345 4.207 4.207 0 01-.238-.327 13.75 13.75 0 01-.266-.486.179.179 0 00-.06-.067l-.314-.204a.033.033 0 01-.012-.015.287.287 0 00-.072-.086.098.098 0 01-.014-.015 1.76 1.76 0 00-.216-.252.023.023 0 00-.012-.013.083.083 0 00-.037-.009c-.003 0-.007 0-.01-.002a.016.016 0 01-.006-.008c-.003-.012-.011-.017-.023-.015a.025.025 0 01-.017-.004.46.46 0 00-.145-.058.133.133 0 01-.057-.024.257.257 0 01-.046-.044 1.073 1.073 0 00-.204-.293.208.208 0 01-.032-.042 3.141 3.141 0 01-.05-.098.678.678 0 00-.15-.186c-.108-.099-.225-.229-.292-.294a.48.48 0 01-.16-.328c-.006-.07-.089-.079-.137-.105a.095.095 0 01-.027-.021 5.708 5.708 0 00-.272-.291c-.1-.099-.168-.242-.267-.326a.919.919 0 00-.092-.073.075.075 0 01-.021-.019.182.182 0 00-.069-.058.046.046 0 01-.019-.016.132.132 0 00-.027-.032c-.073-.047-.087-.08-.129-.137a.01.01 0 00-.005-.004.01.01 0 00-.007 0 .01.01 0 00-.005.005.579.579 0 00.025.134c.137.375.285.858.436 1.284.063.178.109.305.139.384l.072.198c.015.045.032.099.05.162a8.036 8.036 0 00.072.234c.15.48.329.948.538 1.406.04.085.124.24.255.464.007.013.039.06.096.145.033.048.06.1.078.155-.867-.297-1.705-.836-2.237-1.593-.146-.208-.191-.401-.22-.685-.052-.499-.093-.841-.123-1.027l-.48-2.913a15.477 15.477 0 01-.127-1.026l.308.149a.104.104 0 01.056.072l.05.239a.064.064 0 00.007.02c.016.027.032.06.05.097a.374.374 0 00.085.105.17.17 0 01.016.017c.047.061.091.104.13.17.039.065.085.14.14.223a.059.059 0 00.048.027h.057a.019.019 0 01.018.014l.102.423c.022.115.053.214.091.295.124.262.22.486.398.66.08.077.207.166.278.22.01.008.017.016.024.026.046.068.09.13.126.193.059.103.13.189.215.258.01.008.019.018.026.028.08.12.112.175.187.254a.098.098 0 00.023.018c.082.046.15.086.188.176a.868.868 0 00.346.408c.015.011.029.024.04.04.068.085.127.201.2.289.08.097.144.179.193.246.1.136.257.293.354.375.056.047.107.13.134.17.024.037.053.061.087.075a.038.038 0 01.017.015c.004.006.054.061.149.164a.568.568 0 00.114.091.018.018 0 00.015-.006.02.02 0 00.004-.009.097.097 0 00-.005-.045 14.392 14.392 0 00-.227-.636l.002-.004a.01.01 0 01.003-.004.01.01 0 01.005-.002l1.007-.22z" fill="#C2D1D3"></path><path d="M7.384 16.288a.06.06 0 01.001-.02v.02z" fill="#081A2B"></path><path d="M10.655 17.093c.006-.006.059-.04.159-.104.033-.021.026-.071.01-.107a23.345 23.345 0 01-.134-.313c-.02-.062-.014-.112.02-.151a.012.012 0 01.007-.004c.003 0 .006 0 .009.002a.012.012 0 01.004.016c-.032.057-.03.11.006.16a.616.616 0 01.042.064c.122.243.189.413.195.65a.01.01 0 01-.008.01h-.007a.832.832 0 01-.058-.115c-.002-.053-.085-.067-.042-.147a.01.01 0 00-.006-.015.01.01 0 00-.006 0l-.187.061h-.003s-.002 0-.002-.002v-.005zM11.775 17.597l-.001.006a.011.011 0 01-.01.005l-.006-.001a.189.189 0 01-.078-.08c-.077-.15-.083-.29-.016-.416a2.705 2.705 0 01.192-.28.015.015 0 01.006-.002h.006l.005.004a.021.021 0 01.007.012c.001.005 0 .01-.002.014a5.65 5.65 0 00-.137.255.43.43 0 00.002.396c.022.042.033.07.032.087z" fill="#798B98"></path><path d="M12.62 23.724a5.976 5.976 0 01-2.843-.34.662.662 0 00-.078-.154 4.738 4.738 0 01-.096-.145 6.677 6.677 0 01-.255-.464 11.827 11.827 0 01-.61-1.64 2.973 2.973 0 00-.05-.162c-.03-.087-.055-.153-.072-.198-.03-.079-.076-.207-.14-.384-.15-.426-.298-.909-.436-1.284a.579.579 0 01-.024-.134.01.01 0 01.005-.004.01.01 0 01.007 0 .01.01 0 01.005.003c.042.057.056.09.129.137a.133.133 0 01.027.032.046.046 0 00.02.016c.024.01.047.03.068.058a.075.075 0 00.021.02c.016.009.047.033.092.072.099.084.166.227.267.326.071.069.162.166.272.29a.095.095 0 00.026.022c.05.026.132.035.138.105a.48.48 0 00.16.328c.067.065.184.195.292.293a.678.678 0 01.15.187l.05.098c.009.015.02.029.031.041.087.09.155.187.205.294.003.005.018.02.046.044.013.01.032.019.057.024a.458.458 0 01.145.058.025.025 0 00.017.004c.012-.002.02.003.023.015a.016.016 0 00.006.008.016.016 0 00.01.002c.01 0 .021.003.036.009a.023.023 0 01.013.013c.003.01.014.021.034.037.026.02.086.092.181.215l.014.015c.036.032.06.06.073.086.002.006.007.011.012.015l.313.204c.026.017.047.04.061.067.1.19.188.352.266.486.029.05.108.159.238.327.044.057.167.172.367.346a.823.823 0 01.134.169c.004.007.01.013.016.018l.115.1a.032.032 0 01.005.006l.005.008c.003.008.01.014.017.017a.224.224 0 01.078.052.035.035 0 00.01.009l.348.233zm-1.328-.046a.07.07 0 00-.005 0l-.002.003v.002c0 .001 0 .002.002.003h.002c.004 0 .006-.002.007-.004v-.003l-.002-.001h-.002z" fill="#F9FBFC"></path><path d="M14.484 23.233a1.067 1.067 0 01-.209-.055 11.96 11.96 0 01-.666-.354 4.512 4.512 0 01-.82-.615 5.988 5.988 0 01-.598-.655 9.283 9.283 0 01-.54-.781 285.15 285.15 0 01-.22-.38c-.148-.254-.315-.57-.483-.849a.137.137 0 01-.02-.072.039.039 0 01.02.013c.388.47.813.95 1.274 1.44.251.265.5.495.745.69.365.291.76.514 1.187.67a3.752 3.752 0 001.647.218.008.008 0 01.004.005v.006a2.344 2.344 0 01-.272.185c-.287.162-.583.317-.888.464-.02.01-.047.021-.081.034a.533.533 0 00-.08.036zM11.296 23.682c0 .003-.003.004-.007.005l-.002-.001-.002-.002v-.003l.002-.002.005-.001h.003l.001.002v.002z" fill="#798B98"></path></svg>