<svg height="1em" style="flex:none;line-height:1" viewBox="0 0 24 24" width="1em" xmlns="http://www.w3.org/2000/svg"><title>Google AI Studio</title><path d="M15.028 14.16c-.035.384.089.773.353 1.057.265.284.639.434.978.568.37.145.692.263 1.038.468.33.195.622.437.866.736a3.082 3.082 0 01-.212 4.134 3.006 3.006 0 01-4.094.14 4.75 4.75 0 01-.797-.938c-.338-2.214.318-4.533 1.868-6.165z" fill="#85A8FF"></path><path d="M16.457 13.024c.372-.217.72-.37 1.125-.513.39-.136.787-.249 1.188-.35.4-.102.803-.188 1.207-.275.403-.086.804-.17 1.194-.318 1.91-.733 3.067-2.7 2.788-4.746-.28-2.045-1.92-3.622-3.956-3.805-.925-.082-1.818.138-2.644.524-.824.384-1.578.93-2.234 1.555-1.325 1.26-2.305 2.878-2.902 4.6a13.445 13.445 0 00-.684 5.426c.07.91.234 1.827.496 2.703.256.859.627 1.746 1.126 2.498a7.535 7.535 0 01.545-4.166c.572-1.3 1.521-2.415 2.751-3.133z" fill="#0057CC"></path><path d="M7.962 14.27a3.817 3.817 0 00-.419-.413c.188.325.207.695.128 1.05a2.44 2.44 0 01-.474.961 4.096 4.096 0 01-.786.736c-.253.19-.623.431-.852.658a2.093 2.093 0 00-.334 2.534 2.048 2.048 0 002.352.946c.5-.148.925-.48 1.262-.86.34-.385.617-.842.836-1.304a6.87 6.87 0 00-1.713-4.308z" fill="#85A8FF"></path><path d="M3.687 5.396c1.387-.001 2.733.777 3.708 1.65 1.035.927 1.836 2.108 2.364 3.392.53 1.29.786 2.686.776 4.08-.01 1.354-.274 2.822-.86 4.06a6.874 6.874 0 00-1.713-4.31 3.405 3.405 0 00-.606-.554 3.085 3.085 0 00-.73-.369c-.506-.181-1.078-.266-1.604-.324-.543-.062-1.088-.098-1.63-.179-.556-.083-1.055-.206-1.551-.497A3.737 3.737 0 01.127 8.157a3.696 3.696 0 013.56-2.76z" fill="#0057CC"></path></svg>