<svg fill="currentColor" fill-rule="evenodd" height="1em" style="flex:none;line-height:1" viewBox="0 0 24 24" width="1em" xmlns="http://www.w3.org/2000/svg"><title>Google AI Studio</title><path d="M17.582 12.511a6.242 6.242 0 00-1.125.513c-1.221.713-2.008 1.191-1.076 2.193.265.284.639.434.978.568l.09.035c.334.13.63.245.948.433.33.195.622.437.866.736a3.082 3.082 0 01-.212 4.134 3.006 3.006 0 01-4.094.14 4.75 4.75 0 01-.797-.938l-.001-.006c-.498-.751-.868-1.637-1.124-2.494a12.997 12.997 0 01-.496-2.703 13.445 13.445 0 01.684-5.426c.597-1.722 1.577-3.34 2.902-4.6.656-.625 1.41-1.171 2.234-1.555.826-.386 1.72-.606 2.644-.524 2.035.183 3.676 1.76 3.956 3.805.28 2.046-.877 4.013-2.788 4.746-.377.144-.765.226-1.155.31l-.04.008c-.403.087-.806.173-1.206.275-.401.101-.798.214-1.188.35zM7.394 7.046c-.974-.873-2.32-1.651-3.707-1.65a3.696 3.696 0 00-3.56 2.761 3.737 3.737 0 001.714 4.188c.496.291.995.414 1.551.497.347.052.695.086 1.044.12.195.018.39.037.586.059.526.058 1.098.143 1.603.324.931.333 1.264.587 1.046 1.561a2.44 2.44 0 01-.474.962 4.096 4.096 0 01-.786.736c-.066.05-.14.102-.217.157-.219.157-.465.334-.635.501a2.093 2.093 0 00-.334 2.534 2.048 2.048 0 002.352.946c.5-.148.925-.48 1.262-.86.34-.385.617-.842.836-1.304.586-1.238.85-2.706.86-4.06a10.555 10.555 0 00-.776-4.08c-.528-1.284-1.33-2.465-2.365-3.392z"></path></svg>