<svg fill="currentColor" fill-rule="nonzero" height="1em" style="flex:none;line-height:1" viewBox="0 0 224 24" xmlns="http://www.w3.org/2000/svg"><title>AlephAlpha</title><path d="M7.789 22H2L8.956 2H17.1l6.956 20h-6.178l-3.167-9.911-1.578-5.222h-.422l-1.633 5.222L7.788 22zm12.178-3.856H6.056v-4.888h13.91v4.888zM32.156 22h-5.623V2h5.623v20zm10.022 0h-14.09v-5.044h14.09V22zM51.011 22h-5.655V2h5.6l.055 20zM61.556 7.044H46.933V2h14.623v5.044zm-.434 7.434H46.933V9.467h14.19v5.01zM61.556 22H46.933v-5.044h14.623V22zM91.833 22h-5.622V2h5.622v20zm10.434-7.522H87.722V9.433h14.545v5.045zM105 22h-5.722V2h5.622l.1 20zM120.444 22h-5.788l6.955-20h8.156l6.955 20h-6.144l-3.167-9.911-1.578-5.222h-.466l-1.656 5.222L120.444 22zm12.267-3.856h-13.922v-4.888H132.7v4.888h.011zM144.789 22h-5.511V2h5.6l-.089 20zm10.044 0h-14.089v-5.044h14.089V22zM184.367 22h-5.622V2h5.622v20zm10.433-7.522h-14.544V9.433H194.8v5.045zM197.511 22h-5.6V2h5.6v20zM205.767 22h-5.789l6.955-20h8.145l6.955 20h-6.222l-3.167-9.911-1.577-5.222h-.423l-1.655 5.222L205.767 22zm12.266-3.856h-13.911v-4.888h13.911v4.888zM71.133 22h-5.6V2h5.6v20z"></path><path d="M75.3 16.7h-7.578v-5h7.367a3.224 3.224 0 001.944-.433 3.805 3.805 0 000-3.8 3.216 3.216 0 00-1.944-.422h-7.367V2.01H75.3a9.402 9.402 0 014.156.867 6.578 6.578 0 012.722 2.533 8.668 8.668 0 010 7.956 6.404 6.404 0 01-2.722 2.489 9.205 9.205 0 01-4.156.778v.066zM163.633 22h-5.622V2h5.622v20z"></path><path d="M167.489 16.7h-7.578v-5h7.367a3.223 3.223 0 001.944-.433 3.804 3.804 0 000-3.8 3.215 3.215 0 00-1.944-.422h-7.367V2.01h7.578a9.4 9.4 0 014.155.867 6.58 6.58 0 012.723 2.533 8.667 8.667 0 010 7.956 6.405 6.405 0 01-2.723 2.489 9.204 9.204 0 01-4.155.778v.066z"></path></svg>