<svg fill="currentColor" fill-rule="evenodd" height="1em" style="flex:none;line-height:1" viewBox="0 0 106 24" xmlns="http://www.w3.org/2000/svg"><title>Anspire</title><path d="M60.467 6.88a.122.122 0 01.12.147l-.232 1.087a3.665 3.665 0 012.746-1.234h5.125a1.835 1.835 0 011.8 2.204l-1.542 7.34a3.43 3.43 0 01-3.36 2.716h-7.117l-.615 2.885a2.45 2.45 0 01-2.4 1.934H53.78a.122.122 0 01-.12-.148l3.565-16.738a.245.245 0 01.24-.193h3.002zm-5.947 0a.17.17 0 01.17.194l-.003.012-.165.765a1.837 1.837 0 01-1.799 1.444h-7.439c-.478 0-.89.333-.99.799a.858.858 0 00.623 1.007l6.194 1.63a2.44 2.44 0 011.775 2.849l-.172.83a3.43 3.43 0 01-3.363 2.73H39.187a.122.122 0 01-.12-.148l.45-2.075a.245.245 0 01.24-.192h8.629c.543 0 1.01-.385 1.112-.916a1.007 1.007 0 00-.728-1.16l-5.15-1.393v.002l-.877-.217a2.44 2.44 0 01-1.808-2.873l.124-.58a3.43 3.43 0 013.359-2.708H54.52zm11.503 2.415h-3.955a2.452 2.452 0 00-2.309 1.617l-1.238 5.813h5.36c.698 0 1.3-.488 1.441-1.168l1.181-5.675a.488.488 0 00-.48-.587zM29.197 6.88a.122.122 0 01.12.147l-.182.86a2.986 2.986 0 012.24-1.007h5.58a1.835 1.835 0 011.801 2.204l-1.807 8.6a1.837 1.837 0 01-1.8 1.456h-1.705a.122.122 0 01-.12-.147l1.908-9.11a.488.488 0 00-.48-.588h-3.93c-1.096 0-2.05.722-2.354 1.754l-1.665 7.897a.245.245 0 01-.24.194h-3.087a.061.061 0 01-.06-.073l2.53-11.993a.245.245 0 01.24-.194h3.01zm53.834 0a.122.122 0 01.12.147l-.18.856a3.233 3.233 0 012.343-1.003h4.522a.122.122 0 01.12.148l-.013.058-.063.289a2.45 2.45 0 01-2.397 1.924H84.67a2.514 2.514 0 00-2.325 1.55l-1.708 8.097a.245.245 0 01-.24.194h-3.012a.122.122 0 01-.12-.147l2.514-11.92a.245.245 0 01.24-.193h3.012zm18.149 9.82a.122.122 0 01.119.148l-.031.149-.046.212a2.45 2.45 0 01-2.399 1.931h-8.488a1.468 1.468 0 01-1.44-1.77l.052-.24.051-.237a.245.245 0 01.24-.193h11.942zM99.153 11.7a.122.122 0 01.119.15l-.47 1.98a.245.245 0 01-.24.187h-8.664a.122.122 0 01-.12-.15l.47-1.98a.245.245 0 01.24-.187h8.665zm4.724-4.82a.122.122 0 01.12.148l-.033.155-.045.208a2.45 2.45 0 01-2.398 1.93H90.875a.122.122 0 01-.12-.148l.063-.291.119-.554a1.837 1.837 0 011.799-1.447h11.141z"></path><path d="M16.76 2c.883 0 1.642.625 1.807 1.488l2.966 15.507a.122.122 0 01-.12.145H18.52a.245.245 0 01-.24-.199L15.623 5.026a.49.49 0 00-.482-.397h-1.048a.737.737 0 00-.62.337l-4.222 6.55h6.209a.12.12 0 01.119.137l-.002.01-.143.596a2.695 2.695 0 01-2.624 2.062H7.443l-3.034 4.707a.246.246 0 01-.207.112h-3.08a.122.122 0 01-.102-.188L11.209 3.23A2.701 2.701 0 0113.476 2h3.284zm60.137 5.027l-2.514 11.919a.245.245 0 01-.24.194H71.13a.122.122 0 01-.12-.147l2.514-11.92a.245.245 0 01.24-.193h3.012a.122.122 0 01.12.147zm.915-4.328l-.582 2.468a.245.245 0 01-.239.188h-2.913a.122.122 0 01-.12-.15l.296-1.253a1.826 1.826 0 011.78-1.403h1.659a.122.122 0 01.12.15z"></path></svg>