<svg fill="currentColor" fill-rule="evenodd" height="1em" style="flex:none;line-height:1" viewBox="0 0 168 24" xmlns="http://www.w3.org/2000/svg"><title>AntGroup</title><path d="M158.72 2.37h-8.58V21.6a7.9 7.9 0 001.69.17 8.08 8.08 0 001.69-.17v-6.22h5.32c4 0 6.69-2.58 6.69-6.58s-2.66-6.43-6.81-6.43zm-.56 10h-4.62v-7h4.64c2.9 0 4.15 1 4.15 3.52s-1.58 3.48-4.17 3.48zm-57.24 2.52c-1-.8-1.9-1-1.88-1.15.02-.15.5-.09 1.34-.35a5.35 5.35 0 004.16-5.29c0-4.442-3.01-5.711-7.4-5.758l-8.6-.002V21.6a7.8 7.8 0 001.68.17 8 8 0 001.68-.17v-7.34h2.16a5.73 5.73 0 013.53.83 11.27 11.27 0 012.53 3.06l.135.216c.268.44.644 1.114.98 1.73l.795 1.474c.66.12 1.33.176 2 .17a6.53 6.53 0 001.92-.26l-.937-1.492c-.605-.947-1.369-2.112-1.864-2.754l-.089-.114a13.21 13.21 0 00-2.14-2.23zm-4.57-3.46h-4.41V5.18h5c2.9 0 4.25.57 4.25 2.93 0 2.36-1.94 3.32-4.84 3.32zm46.51-9.06V13.8c0 3.1-1.83 5.06-4.86 5.06-3.03 0-4.86-2-4.86-5.06V2.37a7.89 7.89 0 00-1.69-.17 8.07 8.07 0 00-1.355.108l-.335.062v11.54c0 5.63 3.61 8.09 8.23 8.09 4.62 0 8.23-2.46 8.23-8.09V2.37a7.89 7.89 0 00-1.69-.17 8.07 8.07 0 00-1.67.17zM75.596 5.09l.304-.009a7.35 7.35 0 016.43 3.32l2.48-1.83C82.58 3.5 80.16 2 75.63 2a9.71 9.71 0 00-9.804 9.67l.004.33c0 5.81 4.1 10 9.18 10a9.85 9.85 0 003.455-.624l.365-.146a10.65 10.65 0 001.853-.923l.531-.349c.218-.14.44-.26.596-.198.15.06.176.171.18.311v1.49a4.62 4.62 0 001.28.17c.351.003.7-.042 1.039-.133l.251-.078V11.26h-8.63V14h5.67c0 2.06-1.88 4.93-6.13 4.93-4 0-6.36-3.19-6.36-6.88a6.83 6.83 0 016.486-6.961zM116.92 2c-5.523 0-10 4.478-10 10 0 5.523 4.477 10 10 10s10-4.477 10-10c0-5.522-4.477-10-10-10zm0 16.66a6.66 6.66 0 11.244-.004l-.244.004zM42.78 5.44h7v16.15a8.83 8.83 0 001.79.17 9 9 0 001.79-.17V5.44h7V2.33H42.78v3.11zm-6.16-3.12v14a122.36 122.36 0 00-9.014-12.973L26.78 2.32a7.62 7.62 0 00-1.66-.17 7.76 7.76 0 00-1.66.17v19.27a7.52 7.52 0 001.65.17 7.69 7.69 0 001.323-.107l.327-.063V6.66c3.2 4.41 6.226 8.943 8.982 13.547l.818 1.383a7.74 7.74 0 001.67.17 7.92 7.92 0 001.34-.107l.33-.063V2.32a7.51 7.51 0 00-1.65-.17 7.68 7.68 0 00-1.307.109l-.323.061zM21.04 21.65l-.05-.2-.24-.83-.75-2.48-.81-2.46c-.18-.55-.38-1.09-.57-1.63l-.28-.81c-.09-.27-.2-.54-.3-.81l-.6-1.62c-.83-2.15-1.71-4.28-2.66-6.38-.24-.53-.48-1.05-.73-1.57l-.28-.58H9.24l-.654 1.377a24.51 24.51 0 00-.356.803c-.94 2.1-1.82 4.23-2.64 6.38l-.9 2.43-.29.81-.57 1.63-.81 2.46-.26.82-.51 1.65c-.09.27-.17.55-.25.83v.14a8.18 8.18 0 001.71.17 8.43 8.43 0 001.38-.107l.34-.063.72-2.43.26-.8.67-2a21.63 21.63 0 014.45-.16 16.09 16.09 0 014.18.92l.254.124c.262.136.407.26.516.516l.19.59.25.8.24.81.47 1.62v.05a7.6 7.6 0 001.71.17 8.4 8.4 0 001.363-.108l.337-.062zm-9.5-7.94a14.22 14.22 0 00-3.76.57l.075-.23c.057-.185.122-.41.155-.51l.57-1.58c.632-1.68 1.283-3.353 1.98-5.005l.68-1.585c.09-.22.19-.28.29-.28.1 0 .19.06.27.24l.17.37c.9 2 1.73 4.13 2.52 6.24l.75 2.08a18.56 18.56 0 00-3.168-.31h-.532z"></path></svg>