<svg fill="currentColor" fill-rule="evenodd" height="1em" style="flex:none;line-height:1" viewBox="0 0 91 24" xmlns="http://www.w3.org/2000/svg"><title>AntGroup</title><path d="M59.318 17.32c.714 1.185 2.65 3.556 7.018 4.389l.367-1.903a8.93 8.93 0 01-4.96-2.486h5.021v-1.89H58.32v-.975h7.806v-1.801h-7.473v-.833h6.936v-1.755h-6.91v-.955h6.937V7.357H58.68v-.955h7.473V4.601h-7.201a3.548 3.548 0 001.086-1.043l.16-.257c.123-.2.189-.318.194-.332L58.605 2c-.205.363-.432.714-.68 1.05a3.264 3.264 0 01-3.145 1.558h-2.249c.387-.511.745-1.042 1.074-1.592l-1.787-.969a23.284 23.284 0 01-5.054 5.866l1.304 1.55c.34-.284.68-.568.965-.853v3.956c0 1.3.618 1.916 1.922 1.916h5.327v.976h-8.445v1.89h5.02a8.93 8.93 0 01-4.959 2.485l.367 1.903c4.368-.833 6.305-3.197 7.018-4.389h.999v4.585h2.038v-4.585l.998-.027zm-2.676-7.287h-5.619V9.11h5.619v.922zm0-3.61v.907h-5.619v-.792l.095-.115h5.524zm-5.619 5.845v-.447h5.619v.86h-5.238c-.326-.034-.374-.082-.374-.413h-.007zM19.97 3.26l-.55 8.33h2.717v1.143l-.007 1.055c-.026 2.017-.13 3.957-.482 4.914-.727 1.984-2.214 2.905-4.66 2.898h-3.309v-1.937h3.18c1.974 0 2.533-.87 2.844-1.676l.03-.078c.217-.582.36-2.011.36-4.43H11.81l.53-7.307h1.95l-.387 5.418h3.471l.421-6.44h-6.698V3.26h8.872zM7.224 2.515v2.709h3.248v8.56a2.17 2.17 0 01-.634 1.678 2.185 2.185 0 01-1.683.632h-.937v3.387h1.616v-1.978h2.039v-1.998h7.024v2.032h-7.024v2.41c.028.442-.136.874-.452 1.185-.315.31-.75.469-1.193.435H2v-2.12h3.2V16.06H2.04V5.224h3.146v-2.71h2.038zm1.21 4.68L7.218 7.2v6.936h.93a.285.285 0 00.286-.285V7.195zM5.2 7.2H4.079v6.909l1.12-.007V7.2zM89 3.016v15.273c0 2.336-1.25 3.623-3.635 3.623H70.59V3.016H89zm-2.038 2.032H72.64v14.839h12.718c.436.04.867-.115 1.177-.424.31-.31.466-.74.426-1.174V5.048zm-2.901 1.26v2.079h1.474v1.937h-1.474v5.039a3.212 3.212 0 01-.982 2.377 3.233 3.233 0 01-2.415.9h-2.038v-1.936h1.934a1.492 1.492 0 001.436-1.43v-3.84a17.273 17.273 0 01-7.528 5.527l-.68-1.903a16.202 16.202 0 006.645-4.734h-6.29V8.387h7.88v-2.08h2.038zm-53.97-3.793v2.709h3.248v8.567a2.17 2.17 0 01-.634 1.678 2.185 2.185 0 01-1.682.632h-.931v3.386h1.617V17.51h2.038v2.33a40.11 40.11 0 004.137-3.983 20.18 20.18 0 01-1.84-2.905c-1.38-2.662-1.495-5.635-1.495-8.209h2.126l.003.61c.02 2.247.189 4.575 1.254 6.63.387.748.828 1.468 1.318 2.154.49-.686.93-1.406 1.318-2.154 1.162-2.242 1.257-4.809 1.257-7.24h2.126l-.003.623c-.025 2.503-.237 5.122-1.492 7.586a20.167 20.167 0 01-1.84 2.905 43.423 43.423 0 004.816 4.558L44.073 22a47.021 47.021 0 01-4.823-4.524A47.048 47.048 0 0134.426 22l-.937-1.11c-.314.46-.85.717-1.407.677h-7.228v-2.12h3.2V16.06h-3.16V5.224h3.16v-2.71h2.038zm1.21 4.686h-1.216v6.936h.93a.285.285 0 00.286-.285v-6.65zm-3.247 0h-1.121v6.902h1.12V7.2zM39.759 2.38c.267 1.96.414 3.935.442 5.913l-1.671.21a49.217 49.217 0 00-.809-5.608v-.223l2.038-.292z"></path></svg>