<svg fill="currentColor" fill-rule="evenodd" height="1em" style="flex:none;line-height:1" viewBox="0 0 140 24" xmlns="http://www.w3.org/2000/svg"><title>AssemblyAI</title><path d="M4.909 19.11l1.589-4.228h7.015l1.614 4.229h3.006L11.753 2H8.405L2 19.11h2.909zM9.993 5.032l2.738 7.455H7.28l2.712-7.455zM19.456 14.98c.074 2.713 2.372 4.278 5.72 4.278 3.032 0 5.305-1.516 5.305-3.911 0-2.787-2.323-3.374-5.183-3.716-1.808-.195-3.006-.342-3.006-1.515 0-1.003 1.027-1.638 2.591-1.638 1.565 0 2.64.807 2.787 1.955h2.591c-.171-2.566-2.347-3.984-5.427-3.984-3.006-.024-5.133 1.516-5.133 3.887 0 2.59 2.249 3.202 5.109 3.544 1.93.244 3.08.342 3.08 1.687 0 1.002-1.076 1.637-2.713 1.637-1.907 0-3.032-.928-3.13-2.224h-2.59zM32.483 14.98c.074 2.713 2.371 4.278 5.72 4.278 3.031 0 5.305-1.516 5.305-3.911 0-2.787-2.322-3.374-5.182-3.716-1.81-.195-3.007-.342-3.007-1.515 0-1.003 1.027-1.638 2.59-1.638 1.566 0 2.641.807 2.788 1.955h2.59c-.17-2.566-2.346-3.984-5.426-3.984-3.007-.024-5.133 1.516-5.133 3.887 0 2.59 2.249 3.202 5.109 3.544 1.93.244 3.08.342 3.08 1.687 0 1.002-1.076 1.637-2.713 1.637-1.907 0-3.032-.928-3.13-2.224h-2.59zM52.227 19.258c3.104 0 5.207-1.883 5.647-4.352h-2.64c-.367 1.394-1.54 2.2-3.154 2.2-2.078 0-3.422-1.393-3.495-3.52v-.17h9.435a7.14 7.14 0 00.073-1.003C58.02 8.746 55.6 6.45 51.983 6.45c-3.692 0-6.16 2.566-6.16 6.429 0 3.837 2.468 6.38 6.404 6.38zm-3.545-7.774c.196-1.784 1.638-2.909 3.325-2.909 1.833 0 3.129 1.051 3.349 2.91h-6.674zM75.359 6.449c-2.054 0-3.471.904-4.278 2.273-.758-1.613-2.224-2.273-3.862-2.273-1.882.024-2.958.855-3.667 1.784l-.293-1.638H60.96v12.516h2.64v-6.698c0-2.224 1.125-3.69 2.933-3.69 1.736 0 2.64 1.148 2.64 3.348v7.04h2.665V12.34c0-2.25 1.149-3.618 2.957-3.618 1.711 0 2.616 1.149 2.616 3.349v7.04h2.64V11.9c0-3.96-2.102-5.451-4.693-5.451zM89.876 6.449c-1.93 0-3.227.88-4.058 2.004V2h-2.64v17.11h2.298l.318-1.808c.782 1.125 2.127 1.956 4.082 1.956 3.423 0 5.916-2.567 5.916-6.405 0-4.033-2.493-6.404-5.916-6.404zm-.44 10.584c-2.2 0-3.642-1.735-3.642-4.204 0-2.42 1.442-4.131 3.642-4.131s3.667 1.71 3.667 4.155c0 2.47-1.467 4.18-3.666 4.18zM98.64 19.11h2.641V2h-2.64v17.11zM108.219 19.184l-.488 1.223c-.392 1.026-.636 1.27-1.663 1.27h-1.857V24h2.835c1.834 0 2.371-.904 3.153-2.933l5.672-14.471h-2.812l-3.397 9.509-3.496-9.51h-2.811l4.864 12.59zM119.103 19.11l1.589-4.228h7.016l1.613 4.229h3.007L125.948 2h-3.349l-6.405 17.11h2.909zm5.085-14.079l2.738 7.455h-5.452l2.714-7.455zM134.816 19.11h2.811V2h-2.811v17.11z"></path></svg>