<svg fill="currentColor" fill-rule="evenodd" height="1em" style="flex:none;line-height:1" viewBox="0 0 96 24" xmlns="http://www.w3.org/2000/svg"><title>AzureAI</title><path clip-rule="evenodd" d="M12.504 3l6.915 18.325H15.91l-1.625-4.548H7.047l-1.562 4.548H2L8.916 3h3.588zm-1.806 3.4h-.09l-2.717 7.718h5.508l-2.7-7.719-.001.001zM21 8.188h10.517v1.24l-6.904 9.444h6.943v2.453H20.513v-1.47l6.802-9.213H21V8.188zm24.2 0v13.137h-3.127v-1.724h-.05a4.185 4.185 0 01-1.646 1.398c-.689.337-1.459.506-2.313.506-1.53 0-2.692-.433-3.49-1.298-.799-.864-1.2-2.208-1.2-4.032V8.188h3.141v7.617c0 1.108.219 1.94.66 2.498.439.558 1.102.837 1.99.837.88 0 1.585-.308 2.115-.926.53-.617.793-1.426.793-2.421V8.188H45.2zm8.908-.217c.247 0 .469.017.666.051.196.034.364.076.5.128v3.131c-.164-.12-.398-.232-.71-.338-.312-.107-.69-.16-1.133-.16-.761 0-1.405.32-1.93.958-.525.64-.788 1.624-.788 2.952v6.632h-3.1V8.188h3.1v2.07h.052c.28-.715.71-1.275 1.28-1.68.573-.404 1.26-.607 2.063-.607zm7.673-.05c1.82 0 3.236.554 4.25 1.667 1.01 1.111 1.516 2.648 1.516 4.607v1.494h-9.018c.138 1.32.562 2.243 1.276 2.768.71.524 1.633.785 2.759.785a6.64 6.64 0 002.126-.339 6.884 6.884 0 001.794-.887v2.544c-.512.323-1.182.585-2.011.784-.829.201-1.712.301-2.653.301-2.007 0-3.566-.592-4.68-1.776-1.116-1.185-1.672-2.832-1.672-4.945 0-2.036.595-3.714 1.787-5.03 1.19-1.316 2.7-1.974 4.526-1.974v.001zm0 2.363c-.741 0-1.407.267-1.996.8-.59.531-.983 1.312-1.18 2.343h5.893c0-1.021-.236-1.8-.71-2.338-.474-.536-1.142-.805-2.007-.805z"></path><path clip-rule="evenodd" d="M12.504 3l6.915 18.325H15.91l-1.625-4.548H7.047l-1.562 4.548H2L8.916 3h3.588zm-1.806 3.4h-.09l-2.717 7.718h5.508l-2.7-7.719-.001.001zM21 8.188h10.517v1.24l-6.904 9.444h6.943v2.453H20.513v-1.47l6.802-9.213H21V8.188zm24.2 0v13.137h-3.127v-1.724h-.05a4.185 4.185 0 01-1.646 1.398c-.689.337-1.459.506-2.313.506-1.53 0-2.692-.433-3.49-1.298-.799-.864-1.2-2.208-1.2-4.032V8.188h3.141v7.617c0 1.108.219 1.94.66 2.498.439.558 1.102.837 1.99.837.88 0 1.585-.308 2.115-.926.53-.617.793-1.426.793-2.421V8.188H45.2zm8.908-.217c.247 0 .469.017.666.051.196.034.364.076.5.128v3.131c-.164-.12-.398-.232-.71-.338-.312-.107-.69-.16-1.133-.16-.761 0-1.405.32-1.93.958-.525.64-.788 1.624-.788 2.952v6.632h-3.1V8.188h3.1v2.07h.052c.28-.715.71-1.275 1.28-1.68.573-.404 1.26-.607 2.063-.607zm7.673-.05c1.82 0 3.236.554 4.25 1.667 1.01 1.111 1.516 2.648 1.516 4.607v1.494h-9.018c.138 1.32.562 2.243 1.276 2.768.71.524 1.633.785 2.759.785a6.64 6.64 0 002.126-.339 6.884 6.884 0 001.794-.887v2.544c-.512.323-1.182.585-2.011.784-.829.201-1.712.301-2.653.301-2.007 0-3.566-.592-4.68-1.776-1.116-1.185-1.672-2.832-1.672-4.945 0-2.036.595-3.714 1.787-5.03 1.19-1.316 2.7-1.974 4.526-1.974v.001zm0 2.363c-.741 0-1.407.267-1.996.8-.59.531-.983 1.312-1.18 2.343h5.893c0-1.021-.236-1.8-.71-2.338-.474-.536-1.142-.805-2.007-.805zM82.504 3l6.915 18.325H85.91l-1.625-4.548h-7.238l-1.562 4.548H72L78.916 3h3.588zm-1.806 3.4h-.09l-2.717 7.718h5.508l-2.7-7.719-.001.001zm13.015 14.925h-3.1V3h3.1v18.325z"></path></svg>