<svg fill="currentColor" fill-rule="evenodd" height="1em" style="flex:none;line-height:1" viewBox="0 0 105 24" xmlns="http://www.w3.org/2000/svg"><title>AzureAI</title><path d="M103.235 21.67h-2.305V2h2.305v19.67zM98.022 21.67H95.47l-2.085-5.514h-8.34l-1.961 5.515h-2.566L88.064 2h2.387l7.572 19.67zm-5.391-7.585l-3.086-8.381c-.101-.275-.202-.714-.302-1.317h-.055c-.091.558-.197.997-.316 1.317l-3.059 8.381h6.818zM70.546 21.67h-2.25v-2.194h-.055C67.263 21.159 65.823 22 63.921 22c-1.4 0-2.497-.37-3.293-1.111-.786-.74-1.18-1.724-1.18-2.95 0-2.624 1.546-4.151 4.637-4.581l4.211-.59c0-2.387-.965-3.58-2.894-3.58-1.692 0-3.22.576-4.582 1.728V8.612c1.381-.878 2.972-1.317 4.774-1.317 3.301 0 4.952 1.747 4.952 5.24v9.136zm-2.25-7.105l-3.388.466c-1.042.147-1.829.407-2.36.782-.53.366-.795 1.02-.795 1.962 0 .686.242 1.248.727 1.687.494.43 1.148.645 1.962.645 1.115 0 2.034-.389 2.757-1.166.731-.787 1.097-1.779 1.097-2.977v-1.399zM58.05 9.901c-.394-.302-.96-.452-1.702-.452-.96 0-1.764.452-2.414 1.358-.64.905-.96 2.14-.96 3.703v7.16h-2.25V7.625h2.25v2.894h.055c.32-.987.81-1.755 1.468-2.304.658-.558 1.394-.837 2.208-.837.585 0 1.034.064 1.344.192v2.332zM46.17 21.67h-2.25v-2.222h-.054C42.933 21.15 41.488 22 39.53 22c-3.347 0-5.02-1.994-5.02-5.98V7.623h2.235v8.038c0 2.963 1.134 4.445 3.402 4.445 1.098 0 1.998-.402 2.702-1.207.714-.814 1.07-1.875 1.07-3.183V7.624h2.25v14.047zM31.904 8.269L23.591 19.75h8.23v1.92H20.286v-.699l8.313-11.427h-7.53v-1.92h10.836v.645zM19.503 21.67h-2.551l-2.085-5.514h-8.34l-1.962 5.515H2L9.545 2h2.386l7.572 19.67zm-5.39-7.585l-3.087-8.381c-.1-.275-.201-.714-.302-1.317h-.055c-.091.558-.196.997-.315 1.317l-3.06 8.381h6.819z"></path></svg>