<svg fill="currentColor" fill-rule="evenodd" height="1em" style="flex:none;line-height:1" viewBox="0 0 214 24" xmlns="http://www.w3.org/2000/svg"><title>Bedrock</title><path d="M13.269 14.167l-2.47-8.056-2.415 8.056h4.885zM2.555 21.556c-.37 0-.555-.14-.555-.417 0-.093.023-.208.07-.347l.152-.459L8.384 3.028a1.66 1.66 0 01.236-.43.745.745 0 01.291-.223c.111-.046.268-.07.472-.07h3.08c.297 0 .514.056.653.167.139.111.255.297.347.556l6.162 17.305.153.459c.046.139.069.254.069.347 0 .278-.185.417-.555.417h-3.053c-.278 0-.486-.051-.625-.153-.139-.102-.254-.292-.347-.57l-1.138-3.666H7.496l-1.083 3.666c-.092.278-.208.468-.347.57-.139.102-.356.153-.652.153H2.555zm19.54 0c-.24 0-.416-.056-.527-.167-.111-.111-.167-.287-.167-.528V8.056c0-.26.056-.44.167-.542.11-.102.287-.153.527-.153h1.999c.378 0 .625.161.74.483l.259.878c.98-.648 1.864-1.106 2.65-1.375a7.465 7.465 0 012.43-.403c1.664 0 2.84.593 3.524 1.778.944-.63 1.832-1.083 2.665-1.36a8.103 8.103 0 012.58-.418c1.296 0 2.3.362 3.012 1.084.713.722 1.069 1.731 1.069 3.028v9.805c0 .24-.05.417-.153.528-.101.111-.282.167-.54.167h-2.665c-.241 0-.417-.056-.528-.167-.11-.111-.166-.287-.166-.528v-8.917c0-1.259-.565-1.888-1.693-1.888-1 0-2.008.24-3.026.722V20.86c0 .24-.05.417-.152.528-.102.111-.283.167-.542.167h-2.664c-.24 0-.417-.056-.528-.167-.11-.111-.166-.287-.166-.528v-8.917c0-1.259-.565-1.888-1.693-1.888-1.036 0-2.054.25-3.053.75V20.86c0 .24-.051.417-.153.528-.102.111-.282.167-.541.167h-2.665zm27.7.444c-1.369 0-2.465-.389-3.289-1.167-.823-.777-1.235-1.814-1.235-3.11 0-.908.236-1.71.708-2.404s1.124-1.222 1.957-1.583c.832-.361 1.785-.542 2.859-.542.888 0 1.868.12 2.942.362v-1.39c0-.851-.176-1.435-.528-1.75-.351-.314-.999-.472-1.943-.472-1.118 0-2.36.176-3.728.527l-.518.14a1.095 1.095 0 01-.305.056c-.315 0-.472-.213-.472-.64v-1.25c0-.296.037-.5.11-.61.075-.111.241-.223.5-.334.648-.277 1.43-.495 2.346-.652a16.44 16.44 0 012.79-.237c1.905 0 3.297.385 4.176 1.153.88.769 1.319 1.977 1.319 3.625v9.14c0 .24-.051.416-.153.527-.102.111-.282.167-.541.167h-1.888c-.222 0-.393-.047-.513-.14-.12-.092-.208-.25-.264-.472l-.166-.638a6.708 6.708 0 01-1.985 1.236c-.75.305-1.475.458-2.179.458zm1.138-2.722c.463 0 .94-.102 1.43-.306a5.4 5.4 0 001.374-.833v-2.417a14.088 14.088 0 00-2.193-.194c-1.61 0-2.415.648-2.415 1.944 0 .574.158 1.019.472 1.334.315.314.759.472 1.332.472zm9.326 2.278c-.24 0-.416-.056-.527-.167-.111-.111-.167-.287-.167-.528v-1.417c0-.296.033-.523.098-.68.064-.158.18-.338.347-.542l6.855-7.86h-6.328c-.24 0-.416-.056-.527-.168-.112-.11-.167-.287-.167-.527V8.056c0-.26.055-.44.167-.542.11-.102.286-.153.527-.153H70.64c.259 0 .44.051.541.153.102.102.153.282.153.542v1.472c0 .296-.033.523-.097.68-.065.158-.18.338-.347.542l-6.94 7.806h6.829c.259 0 .44.05.541.152.102.102.153.283.153.542v1.611c0 .24-.051.417-.153.528-.102.111-.282.167-.541.167h-10.52zm19.374.416c-2.202 0-3.923-.662-5.163-1.986-1.24-1.324-1.86-3.171-1.86-5.542 0-2.351.62-4.19 1.86-5.513 1.24-1.325 2.96-1.987 5.163-1.987 2.202 0 3.923.662 5.162 1.987 1.24 1.324 1.86 3.162 1.86 5.513 0 2.37-.62 4.218-1.86 5.542-1.24 1.324-2.96 1.986-5.162 1.986zm0-3.11c1.943 0 2.914-1.473 2.914-4.418 0-2.925-.971-4.388-2.914-4.388s-2.915 1.463-2.915 4.388c0 2.945.972 4.417 2.915 4.417zm10.186 2.694c-.24 0-.416-.056-.527-.167-.111-.111-.167-.287-.167-.528V8.056c0-.26.056-.44.167-.542.11-.102.287-.153.527-.153h1.999c.425 0 .684.204.777.611l.25.917c1.665-1.296 3.441-1.945 5.329-1.945 1.313 0 2.327.357 3.039 1.07.712.713 1.069 1.727 1.069 3.042v9.805c0 .24-.051.417-.153.528-.102.111-.282.167-.541.167h-2.665c-.24 0-.416-.056-.527-.167-.111-.111-.167-.287-.167-.528V12.25c0-.76-.166-1.315-.5-1.667-.332-.352-.841-.527-1.526-.527-1.018 0-2.026.314-3.025.944v9.861c0 .24-.051.417-.153.528-.102.111-.282.167-.541.167h-2.665zm23.148 0c-.24 0-.416-.056-.527-.167-.11-.111-.166-.287-.166-.528V3c0-.26.055-.44.166-.542.111-.102.287-.152.527-.152h6.218c1.85 0 3.344.472 4.482 1.416 1.138.945 1.707 2.176 1.707 3.695 0 .944-.217 1.754-.652 2.43-.435.676-1.078 1.2-1.929 1.57 1.184.352 2.086.93 2.706 1.736.62.805.93 1.791.93 2.958 0 1.667-.62 2.99-1.86 3.972-1.24.982-2.905 1.473-4.996 1.473h-6.606zm6.523-2.973c1.887 0 2.831-.889 2.831-2.666 0-1.834-1.008-2.75-3.025-2.75h-3.081v5.416h3.275zm-.86-8.25c1.795 0 2.692-.833 2.692-2.5 0-1.703-.823-2.555-2.47-2.555h-2.637v5.055h2.415zm16.709 11.64c-2.35 0-4.14-.64-5.371-1.917-1.23-1.278-1.846-3.149-1.846-5.612 0-2.37.61-4.213 1.832-5.527 1.221-1.315 2.914-1.973 5.08-1.973 1.831 0 3.242.505 4.232 1.514.99 1.01 1.485 2.45 1.485 4.32 0 .574-.046 1.231-.139 1.972-.037.278-.11.463-.222.556-.11.092-.277.138-.5.138h-8.02c.073 1.223.443 2.107 1.11 2.653.666.547 1.711.82 3.136.82 1.017 0 2.202-.176 3.553-.528a1.095 1.095 0 01.305-.056c.314 0 .472.213.472.64v1.277c0 .296-.042.505-.125.625-.083.12-.245.227-.486.32-1.406.518-2.905.777-4.496.777zm1.943-9.029v-.472c0-1.815-.796-2.722-2.387-2.722-.907 0-1.624.273-2.152.82-.527.546-.828 1.337-.902 2.374h5.44zm11.046 8.917c-1.202 0-2.248-.31-3.136-.93-.888-.62-1.568-1.482-2.04-2.584s-.708-2.375-.708-3.82c0-2.296.546-4.133 1.638-5.513 1.091-1.38 2.535-2.07 4.33-2.07 1.461 0 2.729.417 3.802 1.25v-6.5c0-.259.056-.44.167-.541.11-.102.286-.153.527-.153h2.665c.259 0 .439.05.54.153.103.102.153.282.153.541v19.167c0 .24-.05.417-.152.528-.102.111-.282.167-.541.167h-2.22c-.223 0-.394-.047-.514-.14-.12-.092-.209-.25-.264-.472l-.167-.638c-1.147 1.037-2.507 1.555-4.08 1.555zm1.333-3.055c.888 0 1.739-.26 2.553-.778v-7.334c-.796-.463-1.711-.694-2.748-.694-.98 0-1.711.366-2.192 1.097-.482.732-.722 1.838-.722 3.32 0 1.481.254 2.583.763 3.305.51.722 1.29 1.084 2.346 1.084zm10.491 2.75c-.24 0-.416-.056-.527-.167-.111-.111-.167-.287-.167-.528V8.056c0-.26.056-.44.167-.542.11-.102.287-.153.527-.153h1.999c.425 0 .684.204.777.611l.36 1.5c.74-.815 1.44-1.393 2.096-1.736a4.468 4.468 0 012.096-.514h.388c.26 0 .444.051.555.153.111.102.167.282.167.542v2.333c0 .24-.05.417-.153.528-.101.11-.282.166-.54.166l-.223-.007-.277-.02a8.873 8.873 0 00-.778-.028c-.425 0-.943.06-1.554.18-.61.12-1.129.274-1.554.459v9.333c0 .24-.051.417-.153.528-.102.111-.282.167-.541.167h-2.665zm16.154.416c-2.202 0-3.923-.662-5.162-1.986-1.24-1.324-1.86-3.171-1.86-5.542 0-2.351.62-4.19 1.86-5.513 1.24-1.325 2.96-1.987 5.162-1.987s3.923.662 5.163 1.987c1.24 1.324 1.86 3.162 1.86 5.513 0 2.37-.62 4.218-1.86 5.542-1.24 1.324-2.96 1.986-5.163 1.986zm0-3.11c1.943 0 2.914-1.473 2.914-4.418 0-2.925-.971-4.388-2.914-4.388s-2.914 1.463-2.914 4.388c0 2.945.971 4.417 2.914 4.417zm15.738 3c-2.258 0-3.983-.63-5.177-1.89-1.193-1.259-1.79-3.074-1.79-5.444 0-2.352.63-4.185 1.887-5.5 1.259-1.315 3.007-1.972 5.246-1.972 1.11 0 2.156.203 3.137.61.24.093.402.2.485.32.084.12.125.329.125.625V9.89c0 .426-.157.639-.472.639l-.138-.014a1.095 1.095 0 01-.167-.042 8.761 8.761 0 00-2.22-.305c-1.296 0-2.249.328-2.86.986-.61.657-.915 1.699-.915 3.125v.389c0 1.407.3 2.44.902 3.097.601.657 1.531.986 2.79.986.585 0 1.21-.07 1.873-.212l.633-.147c.098-.02.169-.03.213-.03.296 0 .444.185.444.556v1.389c0 .296-.041.504-.124.625-.084.12-.246.226-.486.319a9.46 9.46 0 01-1.68.472 9.88 9.88 0 01-1.706.14zm6.883-.306c-.24 0-.416-.056-.527-.167-.111-.111-.167-.287-.167-.528V1.694c0-.259.056-.44.167-.541.11-.102.286-.153.527-.153h2.637c.259 0 .44.05.541.153.102.102.153.282.153.541v11.723l4.607-5.556c.167-.204.32-.338.458-.403.139-.064.338-.097.597-.097h3.025c.37 0 .555.139.555.417 0 .203-.12.435-.36.694l-4.996 5.667 5.495 6.305c.24.26.361.482.361.667 0 .296-.185.445-.555.445h-3.192c-.26 0-.458-.033-.597-.098-.139-.064-.291-.199-.458-.402l-4.94-5.973v5.778c0 .24-.051.417-.153.528-.102.111-.282.167-.541.167h-2.637z"></path></svg>