<svg fill="currentColor" fill-rule="evenodd" height="1em" style="flex:none;line-height:1" viewBox="0 0 24 24" width="1em" xmlns="http://www.w3.org/2000/svg"><title>bilibili index</title><path d="M11.995 0c2.204-.001 3.701 2.07 4.497 3.874.374.849.672 1.728.892 2.638a.09.09 0 00.066.066c.885.209 1.728.486 2.529.83 1.17.504 2.236 1.17 3.076 2.13.195.224.386.52.574.89.78 1.539.27 3.194-.905 4.35-1.412 1.39-3.384 2.137-5.264 2.608a.058.058 0 00-.044.047c-.036.227-.184.734-.443 1.522-.71 2.16-2.34 5.044-4.966 5.045-2.625.001-4.258-2.88-4.97-5.04-.26-.788-.408-1.295-.446-1.522a.059.059 0 00-.043-.047c-1.88-.468-3.853-1.214-5.267-2.602-1.177-1.155-1.688-2.81-.909-4.35.188-.37.378-.666.573-.89.839-.962 1.905-1.628 3.074-2.133a15.26 15.26 0 012.529-.833.087.087 0 00.065-.066c.22-.91.516-1.79.89-2.639C8.296 2.072 9.791.001 11.994 0zm5.915 8.994l.176 1.29a.068.068 0 00.026.043c.415.318.687.68.815 1.083a1.996 1.996 0 01-1.846 2.596 2.001 2.001 0 01-2.058-2.282c.075-.52.359-.977.852-1.369a.052.052 0 00.02-.047c-.102-.978-.311-1.911-.559-2.993-.3-1.31-.727-2.529-1.45-3.705a3.868 3.868 0 00-.506-.665c-.48-.494-.997-.897-1.696-.728-.476.116-1.069.654-1.34 1.043a10.085 10.085 0 00-1.399 2.938.02.02 0 00.022.016l1.588-.074a.07.07 0 00.046-.02c.638-.632 1.57-.76 2.337-.308.318.187.569.478.754.873.456.977-.123 2.14-1.06 2.482-.879.321-1.8-.006-2.294-.809a.068.068 0 00-.061-.032 23.52 23.52 0 00-2.412.209c-.676.094-1.403.296-2.014.5-.692.228-1.347.52-1.965.876-.885.51-2.189 1.567-1.536 2.725.119.211.233.373.343.487.89.92 2 1.415 3.3 1.852a.022.022 0 00.029-.023l-.157-1.145a.068.068 0 00-.033-.05 2.08 2.08 0 01-.848-.96c-.415-.925-.03-1.983.792-2.49a2.004 2.004 0 012.415.239c.345.315.623.855.642 1.356.026.697-.253 1.239-.782 1.703a.057.057 0 00-.02.05c.165 1.255.485 2.545.787 3.705.262 1.004.69 2.098 1.296 3.041.315.49.697.92 1.135 1.189.526.323 1.05.312 1.57-.033.666-.442 1.045-1.034 1.47-1.822a9.514 9.514 0 00.77-1.89.017.017 0 00-.018-.014l-1.336.063a.06.06 0 00-.05.033 1.822 1.822 0 01-1.279 1.008 1.85 1.85 0 01-1.878-.665c-.558-.723-.557-1.598-.003-2.32a1.78 1.78 0 011.063-.668c.6-.133 1.164.016 1.693.447a.076.076 0 00.051.017c.83-.027 1.64-.098 2.431-.213.62-.09 1.364-.288 1.908-.442a11.537 11.537 0 002.236-.9c.732-.386 1.634-1.033 1.89-1.847.4-1.269-1.44-2.406-2.352-2.802-.637-.277-1.13-.467-1.479-.57a.02.02 0 00-.019.003.02.02 0 00-.006.009.022.022 0 000 .01z"></path></svg>