<svg fill="currentColor" fill-rule="evenodd" height="1em" style="flex:none;line-height:1" viewBox="0 0 52 24" xmlns="http://www.w3.org/2000/svg"><title>bilibili</title><path d="M46.573 20.632c-.215 0-.398.017-.577-.004-.364-.042-.729-.034-1.093-.044-.236-.007-.229-.007-.248-.235-.059-.696-.123-1.392-.185-2.088-.054-.611-.105-1.223-.165-1.834-.054-.56-.12-1.117-.178-1.676-.057-.526-.109-1.052-.167-1.576-.074-.66-.15-1.32-.23-1.98-.07-.583-.14-1.168-.218-1.75-.122-.903-.248-1.805-.376-2.707a79.498 79.498 0 00-.474-2.873c-.03-.171-.026-.177.137-.205.679-.116 1.361-.215 2.052-.2.074.002.15.004.224.013.121.015.184.074.191.216.024.494.059.987.095 1.48.058.808.121 1.616.181 2.423.039.52.072 1.038.11 1.557.063.833.13 1.666.192 2.499.039.51.072 1.02.111 1.53.06.748.125 1.495.186 2.242.038.476.072.952.113 1.428.06.705.124 1.41.185 2.114.046.55.087 1.102.134 1.67zM20.291 3.468c.1 0 .25-.011.398.002.188.018.224.066.236.256.054.868.105 1.736.163 2.605.063.936.132 1.871.201 2.806.064.859.128 1.717.196 2.576.075.943.158 1.885.233 2.829.058.722.106 1.445.165 2.168.056.671.122 1.34.183 2.011.05.577.103 1.154.153 1.732.016.183.003.195-.194.19-.515-.013-1.027-.073-1.542-.059-.118.004-.152-.05-.172-.163-.043-.244-.036-.492-.062-.739-.07-.652-.111-1.307-.17-1.961-.054-.594-.119-1.187-.18-1.78-.054-.543-.107-1.085-.165-1.628-.058-.533-.119-1.067-.179-1.6-.055-.491-.11-.982-.169-1.473-.087-.719-.173-1.438-.268-2.156-.087-.659-.185-1.315-.278-1.973a77.866 77.866 0 00-.425-2.674 30.006 30.006 0 00-.114-.602c-.02-.101-.002-.16.113-.175.303-.041.605-.104.91-.134.304-.028.609-.085.967-.058zm21.565 8.668c.58 0 .594.004.687.527.115.646.195 1.297.271 1.948.08.694.161 1.387.235 2.082.06.559.11 1.12.166 1.678.06.586.122 1.17.183 1.755.033.33.065.661.102.991.011.096-.017.146-.111.157-.199.023-.395.05-.593.07-.362.04-.725.078-1.087.112-.188.017-.2.007-.235-.175-.318-1.646-.637-3.291-.952-4.939-.21-1.095-.414-2.19-.62-3.286-.028-.15-.053-.302-.077-.453-.014-.087.01-.143.108-.166.653-.153 1.313-.271 1.923-.301zm-24.373 0c.62 0 .618.002.714.567.148.873.253 1.752.347 2.633.091.856.192 1.71.282 2.565.06.586.108 1.172.165 1.756.04.416.089.831.133 1.246.005.051.008.102.011.154.01.203 0 .22-.195.24-.387.04-.776.074-1.163.112-.14.014-.28.035-.42.048-.185.017-.191.017-.227-.17-.13-.66-.257-1.32-.384-1.98-.306-1.588-.615-3.175-.92-4.763-.12-.636-.225-1.274-.344-1.91-.022-.116-.006-.17.114-.198.648-.152 1.3-.27 1.887-.3zm8.19 6.66v2.665c0 .025-.002.051.002.077.012.13-.035.186-.168.18-.175-.007-.348-.002-.523.002-.365.007-.73-.008-1.095.034-.201.024-.197.011-.217-.202-.06-.67-.125-1.341-.186-2.012-.056-.62-.107-1.24-.164-1.86-.058-.637-.124-1.273-.183-1.91-.04-.424-.076-.848-.111-1.273-.047-.553-.09-1.105-.139-1.658-.02-.233-.003-.266.227-.29a11.356 11.356 0 011.79-.056c.15.009.297.038.441.073.182.043.202.07.212.26.02.384.04.768.05 1.152.011.427.002.854.017 1.281.04 1.178.034 2.357.048 3.536zm24.325.12v2.524c0 .043-.001.085.001.129.009.11-.043.15-.147.149-.258-.002-.515 0-.772.003-.291.003-.581.002-.871.033-.192.022-.193.008-.21-.183l-.242-2.622c-.072-.807-.14-1.614-.213-2.421-.077-.833-.16-1.663-.234-2.495a84.78 84.78 0 01-.1-1.25c-.011-.182.008-.214.213-.23.355-.029.709-.077 1.067-.07.356.006.714-.014 1.068.054.3.058.316.075.333.397.052.947.036 1.896.07 2.843.034 1.008.01 2.016.037 3.14zm-8.747-11.36c.21.012.375.002.54.038.104.024.157.072.167.184.05.543.103 1.086.157 1.63.043.44.09.88.134 1.321l.004.026c.036.277.028.285-.242.3-.24.013-.48.034-.72.049-.157.01-.207.036-.233-.194-.09-.813-.194-1.623-.294-2.435a25.338 25.338 0 00-.092-.683c-.02-.13.03-.2.15-.21.158-.015.316-.019.429-.026zm-24.295.003c.162.01.329-.003.492.034.093.022.14.061.15.168.02.254.058.508.082.762.076.78.148 1.561.22 2.342.015.17.011.174-.147.185-.281.021-.563.042-.845.053-.164.008-.184-.012-.205-.18-.071-.575-.138-1.15-.207-1.726-.055-.474-.102-.948-.17-1.421-.018-.13.025-.167.129-.188.165-.034.331-.023.501-.029zm8.556 2.15v1.482c0 .222-.003.224-.224.221a6.928 6.928 0 01-.792-.041c-.17-.022-.174-.016-.179-.197-.017-.604-.035-1.209-.047-1.813-.009-.409-.014-.817-.038-1.226-.013-.21-.002-.213.2-.216.299-.003.597.01.893.056.178.028.186.028.187.226l.001 1.508h-.001zm24.337.012v1.484c0 .208-.004.21-.212.208a10.826 10.826 0 01-.817-.039c-.136-.01-.175-.067-.166-.19v-.052c-.02-.954-.042-1.908-.06-2.862-.001-.05-.004-.102-.002-.153.003-.193.003-.198.196-.196.265.001.529.015.793.041.323.032.266.072.268.328v1.431zm-33.559 1.16c.007.272.007.272-.253.335-.176.043-.352.09-.53.13-.151.034-.178.015-.204-.134l-.541-3.038c-.036-.21-.027-.222.179-.259.253-.044.505-.088.758-.128.161-.025.182-.016.214.162.064.36.124.72.172 1.083.073.573.133 1.149.2 1.723.005.042.003.085.005.127zM39.1 7.945c.331-.054.665-.11 1-.162.12-.019.156.057.171.164.057.396.129.79.175 1.186.069.575.163 1.147.18 1.726l.003.18c.003.091-.043.139-.128.159-.226.05-.453.102-.678.156-.108.026-.145-.02-.163-.126-.067-.403-.146-.804-.215-1.205-.117-.662-.231-1.324-.345-1.986-.003-.024 0-.05 0-.092zm-15.232 2.322c-.01.352.011.659-.037.965-.014.097-.042.16-.146.169-.224.018-.447.036-.67.059-.107.011-.137-.035-.155-.141-.05-.313-.04-.63-.071-.944-.057-.594-.081-1.191-.12-1.786-.009-.145-.023-.29-.035-.434-.006-.081.026-.127.112-.13.29-.012.578-.065.869-.054.17.006.184.017.196.189.008.119.006.239.009.359l.048 1.748zm24.326-.341c0 .41.005.82 0 1.23-.004.212-.028.23-.229.25-.199.018-.396.033-.594.054-.112.012-.164-.02-.171-.15-.029-.544-.068-1.088-.106-1.632-.03-.451-.063-.902-.094-1.352-.004-.052-.001-.103-.004-.154-.005-.09.022-.143.123-.146.281-.01.56-.064.843-.054.173.006.176.009.189.189.042.587.046 1.176.043 1.765zM15.46 17.249c.355.392.373.856.256 1.341-.118.486-.387.886-.713 1.245-.546.6-1.207 1.042-1.909 1.418a13.319 13.319 0 01-3.827 1.333 22.16 22.16 0 01-2.91.376c-.298.016-.595.03-.893.028-.216 0-.433.006-.648-.002-.184-.006-.21-.038-.225-.23-.056-.688-.103-1.377-.164-2.065-.072-.798-.155-1.595-.232-2.392-.056-.577-.105-1.155-.167-1.73-.071-.678-.151-1.355-.23-2.033-.07-.626-.14-1.252-.215-1.879-.084-.694-.171-1.386-.264-2.078-.09-.667-.185-1.333-.283-1.999-.16-1.095-.333-2.189-.521-3.28a69.862 69.862 0 00-.507-2.66c-.025-.118.01-.165.114-.208.992-.413 1.981-.833 2.973-1.248.184-.077.373-.141.57-.178.135-.025.17.003.166.14-.01.35.004.701-.03 1.05a3.478 3.478 0 00-.014.281c-.016 1.255-.03 2.51.002 3.766.03 1.1.087 2.199.15 3.298.05.868.122 1.736.197 2.602.072.849.16 1.697.244 2.546.015.161.03.176.213.152.36-.055.725-.085 1.09-.09 1.133-.003 2.248.153 3.35.415.966.23 1.904.536 2.804.963.446.212.872.457 1.26.767.133.105.251.225.363.351zm24.154-.206c.439.386.598.858.474 1.442-.104.482-.338.887-.651 1.25-.502.582-1.112 1.024-1.771 1.394-1.294.726-2.671 1.198-4.12 1.47-.79.15-1.587.262-2.389.334-.454.04-.91.088-1.419.057h-.595c-.116 0-.182-.037-.192-.175-.043-.603-.094-1.206-.148-1.81-.058-.636-.122-1.273-.182-1.91-.055-.584-.106-1.17-.165-1.756-.055-.551-.118-1.101-.178-1.652-.055-.517-.109-1.034-.17-1.55-.073-.626-.15-1.252-.228-1.877-.073-.584-.145-1.167-.222-1.75-.083-.625-.17-1.25-.261-1.873-.122-.81-.253-1.616-.382-2.423a70.147 70.147 0 00-.624-3.417c-.01-.05-.014-.102-.03-.15-.035-.11 0-.17.107-.212 1.054-.413 2.074-.912 3.138-1.305.139-.052.28-.11.43-.126.135-.013.169.009.156.153-.071.783-.03 1.57-.067 2.354-.03.64-.027 1.28.005 1.92.008.163.014.326.013.488-.009.768.032 1.536.07 2.304.051 1.014.124 2.026.2 3.038.053.731.124 1.46.192 2.19.037.4.076.8.125 1.197.027.219.038.22.253.192a7.627 7.627 0 011.14-.088 15.02 15.02 0 013.95.599c.874.249 1.725.56 2.529.995.362.193.702.427 1.012.697zM8.609 20.83c.496-.237 2.907-2.126 3.098-2.434-1.17-.506-2.344-.975-3.606-1.36l.508 3.794zm27.377-2.31c.061-.067.055-.119-.03-.156-.166-.076-.331-.157-.5-.227-.9-.369-1.805-.726-2.732-1.018-.081-.025-.164-.081-.268-.033l.5 3.728c.074.016.103-.018.136-.041.843-.62 1.69-1.233 2.5-1.9.136-.111.272-.224.394-.353z"></path></svg>