<svg fill="currentColor" fill-rule="evenodd" height="1em" style="flex:none;line-height:1" viewBox="0 0 161 24" xmlns="http://www.w3.org/2000/svg"><title>bilibili index</title><path d="M5.752 2.036a.032.032 0 01.009.023v6.997a.026.026 0 00.031.024.025.025 0 00.012-.009c.985-1.118 2.257-1.848 3.77-1.932 1.788-.1 3.457.545 4.626 1.894a6.06 6.06 0 011.29 2.362c.463 1.67.531 3.428.204 5.274-.22 1.245-.735 2.452-1.58 3.395-1.713 1.911-4.228 2.502-6.548 1.343-.834-.417-1.463-1.03-2.022-1.741a.03.03 0 00-.032-.01.03.03 0 00-.015.011.029.029 0 00-.005.017v1.948a.052.052 0 01-.015.035.048.048 0 01-.035.015H2.04a.04.04 0 01-.028-.012.04.04 0 01-.011-.027L2 2.063c0-.01.003-.02.01-.026a.036.036 0 01.025-.01H5.73c.008 0 .017.003.023.01zm39.7 0c.006.005.01.013.01.022v6.998c0 .005.001.01.004.013a.026.026 0 00.011.01c.005.002.01.001.015 0a.023.023 0 00.012-.008c.986-1.118 2.258-1.848 3.771-1.932 1.787-.1 3.457.545 4.626 1.894a6.052 6.052 0 011.29 2.36c.464 1.67.532 3.43.206 5.276-.221 1.245-.735 2.451-1.58 3.395-1.714 1.911-4.23 2.502-6.548 1.343-.835-.417-1.465-1.03-2.024-1.741a.03.03 0 00-.014-.01.03.03 0 00-.018 0 .03.03 0 00-.015.011.029.029 0 00-.005.017v1.949a.051.051 0 01-.014.035.05.05 0 01-.035.014H41.74a.04.04 0 01-.028-.011.04.04 0 01-.01-.028L41.7 2.063c0-.01.003-.02.01-.026a.036.036 0 01.025-.01l3.694-.002c.008 0 .017.004.023.01zm81.207-.006a.038.038 0 01.012.008.046.046 0 01.007.012l.003.013v19.579a.04.04 0 01-.012.027.039.039 0 01-.027.012h-3.404a.048.048 0 01-.034-.015.052.052 0 01-.015-.035v-1.947a.027.027 0 00-.004-.018.032.032 0 00-.015-.01.032.032 0 00-.019 0 .03.03 0 00-.014.01c-.559.711-1.188 1.323-2.022 1.74-2.318 1.159-4.833.569-6.547-1.341-.845-.944-1.359-2.151-1.58-3.396-.327-1.846-.259-3.604.204-5.274a6.068 6.068 0 011.289-2.36c1.17-1.35 2.84-1.996 4.626-1.895 1.513.084 2.785.815 3.77 1.932a.025.025 0 00.027.007.025.025 0 00.012-.009.025.025 0 00.004-.014V2.06c0-.009.004-.017.01-.023a.032.032 0 01.023-.01h3.693c.004 0 .009.001.013.003zm2.773 10.982c.57-4.076 3.837-6.533 7.94-5.741 1.927.371 3.352 1.423 4.275 3.153.224.418.417.944.582 1.577.272 1.045.396 2.242.371 3.59a.054.054 0 01-.052.053h-9.347a.023.023 0 00-.018.007.026.026 0 00-.008.019c.016 1.955 1.181 3.645 3.312 3.509 1.161-.075 1.878-.916 2.146-1.98a.055.055 0 01.023-.032.056.056 0 01.039-.008l3.664.615.013.005.01.011.004.014-.001.013c-.743 2.124-2.312 3.624-4.553 4.033a9.227 9.227 0 01-3.207.015c-2.123-.358-3.633-1.478-4.531-3.36-.79-1.65-.918-3.661-.662-5.493zM22.667 7.443c.02 0 .037.017.037.037v14.164c0 .02-.017.037-.037.038h-3.686a.038.038 0 01-.037-.038V7.48c0-.02.017-.037.037-.037h3.686zm7.64-5.417c.019 0 .035.016.035.036v19.583c0 .02-.016.037-.035.037h-3.69a.036.036 0 01-.035-.037V2.063c0-.02.016-.036.035-.036h3.69zm7.638 5.417c.02 0 .035.016.035.036v14.166c0 .02-.015.037-.035.037h-3.688a.036.036 0 01-.035-.037V7.48c0-.02.015-.036.035-.036h3.688zm24.422 0c.021 0 .038.018.038.038v14.162a.04.04 0 01-.038.039h-3.685a.039.039 0 01-.038-.04V7.483c0-.022.017-.039.038-.039h3.685zm7.643-5.417c.02 0 .036.016.036.036v19.583c0 .02-.017.037-.036.037h-3.69a.036.036 0 01-.036-.037V2.063c0-.02.016-.036.035-.036h3.69zm7.64 5.417c.02 0 .036.017.036.037v14.164c0 .02-.016.038-.037.038h-3.685a.038.038 0 01-.037-.038V7.48c0-.02.016-.036.037-.037h3.685zm15.28 0c.022 0 .04.018.04.04v14.159a.04.04 0 01-.04.04h-3.682a.04.04 0 01-.039-.04V7.482c0-.021.017-.039.039-.039h3.683zm8.037 1.36c1.272-1.245 2.797-1.796 4.573-1.654.917.074 1.808.367 2.537.857 1.472.988 1.705 2.785 1.709 4.406.004 2.163.005 5.241.002 9.233 0 .01-.003.02-.01.026a.035.035 0 01-.025.01h-3.685a.042.042 0 01-.028-.012.04.04 0 01-.013-.028c.002-4.1.001-6.72-.003-7.855 0-.228-.013-.593-.041-1.096-.029-.553-.1-1.199-.381-1.662-.613-1.008-1.824-1.237-2.881-.87-1.132.39-1.793 1.175-1.981 2.35-.088.552-.139 1.263-.151 2.133-.009.652-.011 2.986-.005 7.003 0 .01-.005.019-.012.026a.038.038 0 01-.026.012h-3.69a.037.037 0 01-.036-.037V7.485c0-.011.004-.022.012-.03a.042.042 0 01.03-.012h3.401c.013 0 .026.005.036.015.009.01.014.023.014.036v1.994c0 .004.002.007.003.01a.022.022 0 00.009.007h.011a.027.027 0 00.01-.005c.227-.248.372-.454.621-.697zm47.696-1.356a.03.03 0 01.012.01l2.54 3.87a.03.03 0 00.012.009.029.029 0 00.014.004c.005 0 .01-.002.015-.004a.037.037 0 00.011-.01l2.563-3.869a.03.03 0 01.012-.01.028.028 0 01.014-.004h4.37c.005 0 .011.001.016.004a.036.036 0 01.012.013.036.036 0 01.004.018.042.042 0 01-.006.015l-4.776 6.674a.034.034 0 00-.006.02c0 .006.002.013.006.018l5.219 7.426c.004.004.006.01.006.015a.027.027 0 01-.003.018.034.034 0 01-.011.013.034.034 0 01-.017.005h-4.542a.035.035 0 01-.015-.004.027.027 0 01-.01-.011l-2.864-4.361a.036.036 0 00-.011-.01.036.036 0 00-.015-.004.035.035 0 00-.015.004c-.004.002-.009.006-.011.01l-2.89 4.361a.032.032 0 01-.012.01.029.029 0 01-.014.005h-4.328a.033.033 0 01-.016-.005.039.039 0 01-.013-.013c-.003-.005-.003-.01-.003-.017a.046.046 0 01.006-.016l5.088-7.265a.034.034 0 00.006-.02.031.031 0 00-.006-.018l-4.871-6.835a.03.03 0 01-.006-.015.028.028 0 01.004-.018.036.036 0 01.012-.013.03.03 0 01.016-.004h4.488a.03.03 0 01.015.004zm-26.33 4.104c-1.083-1.91-3.689-2.147-4.952-.273-.625.928-.741 2.14-.743 3.225-.002 1.085.109 2.297.731 3.227 1.257 1.88 3.863 1.652 4.953-.253.507-.886.611-1.97.613-2.962.001-.993-.099-2.077-.602-2.964zm-71.393-.322c-1.298-1.85-3.895-1.566-4.943.36-.488.896-.568 1.982-.549 2.974.02.992.143 2.073.665 2.949 1.124 1.884 3.732 2.065 4.954.165.605-.94.696-2.154.674-3.239-.021-1.084-.16-2.293-.801-3.21zm-39.703 0c-1.296-1.85-3.894-1.567-4.942.359-.488.896-.569 1.98-.55 2.973.02.991.143 2.072.664 2.948 1.123 1.884 3.73 2.067 4.953.167.605-.94.697-2.153.675-3.237-.02-1.085-.16-2.295-.8-3.21zm124.733-1.225c-.358 0-.712.078-1.042.23a2.715 2.715 0 00-.884.66c-.253.284-.454.62-.592.99-.137.37-.208.767-.209 1.168v.27c0 .005.002.01.006.014a.021.021 0 00.015.006l5.562.009a.023.023 0 00.015-.006.02.02 0 00.006-.015v-.268c.001-.81-.284-1.587-.793-2.16-.509-.574-1.201-.897-1.922-.898h-.162zM20.9 2a2.194 2.194 0 110 4.389A2.194 2.194 0 0120.9 2zm15.277 0a2.195 2.195 0 110 4.39 2.195 2.195 0 010-4.39zm24.388 0a2.195 2.195 0 110 4.39 2.195 2.195 0 010-4.39zm15.279 0a2.195 2.195 0 110 4.39 2.195 2.195 0 010-4.39zm15.278 0a2.194 2.194 0 110 4.389 2.194 2.194 0 010-4.389z"></path></svg>