<svg fill="currentColor" fill-rule="evenodd" height="1em" style="flex:none;line-height:1" viewBox="0 0 49 24" xmlns="http://www.w3.org/2000/svg"><title>Bocha</title><path d="M21.707 1.003l2.706 1.102a.04.04 0 01.024.027.04.04 0 01-.007.035l-.815 1.005a.04.04 0 00.031.066h1.381a.04.04 0 01.04.049l-.6 2.414a.04.04 0 01-.04.03h-5.486a.04.04 0 00-.038.032l-.156.628a.04.04 0 00.039.049h4.57a.04.04 0 01.038.049l-1.952 7.852a.04.04 0 01-.039.031h-2.876a.04.04 0 01-.039-.05l.187-.75a.04.04 0 00-.021-.047.04.04 0 00-.018-.004h-1.64a.04.04 0 00-.039.03l-.185.745a.04.04 0 01-.039.03h-2.897a.04.04 0 01-.038-.049l.174-.707a.04.04 0 00-.008-.034.04.04 0 00-.031-.015h-1.71a.04.04 0 00-.039.031l-.292 1.176a.04.04 0 01-.038.03H9.12a.04.04 0 01-.038-.048l2.048-8.24a.04.04 0 01.039-.031h4.555a.04.04 0 00.038-.031l.156-.629a.04.04 0 00-.007-.033.04.04 0 00-.031-.016h-5.418a.04.04 0 01-.031-.015.04.04 0 01-.008-.033l.599-2.415a.04.04 0 01.038-.03h5.463a.04.04 0 00.04-.031l.485-1.95a.04.04 0 01.038-.032h2.896a.04.04 0 01.038.05l-.47 1.9a.04.04 0 00.007.033.04.04 0 00.03.015l1.682-.03a.04.04 0 00.016-.078l-.945-.385a.04.04 0 01-.024-.026.04.04 0 01.007-.036l1.339-1.653a.04.04 0 01.045-.011zm-6.502 7.641a.052.052 0 00-.01-.045.052.052 0 00-.04-.02h-1.68a.053.053 0 00-.05.04l-.11.442a.052.052 0 00.01.045.053.053 0 00.04.021h1.68a.053.053 0 00.052-.04l.108-.443zm2.873.435a.04.04 0 000 .018.04.04 0 00.02.026c.005.003.011.004.017.004h1.639a.039.039 0 00.038-.03l.116-.47a.039.039 0 00-.02-.045.039.039 0 00-.017-.004h-1.639a.039.039 0 00-.037.03l-.117.471zm-3.482 2.002a.045.045 0 00-.044-.055H12.86a.045.045 0 00-.044.034l-.126.505a.044.044 0 00.008.04.045.045 0 00.036.017h1.694a.045.045 0 00.044-.035l.125-.506zm4.702-.009a.04.04 0 000-.017.04.04 0 00-.02-.026.039.039 0 00-.017-.004h-1.64a.038.038 0 00-.038.03l-.129.518a.038.038 0 00.008.033.039.039 0 00.03.015h1.64a.039.039 0 00.037-.03l.13-.519z"></path><path d="M10.348 6.857L9.62 9.79a.039.039 0 01-.038.03H7.551a.039.039 0 00-.038.03L4.251 22.97a.039.039 0 01-.038.03H1.038a.038.038 0 01-.03-.015.038.038 0 01-.007-.032L4.256 9.867a.039.039 0 00-.037-.047H2.007a.039.039 0 01-.038-.048l.729-2.933a.039.039 0 01.037-.03H5a.039.039 0 00.037-.029l1.374-5.525a.039.039 0 01.038-.03h3.176a.039.039 0 01.037.048L8.296 6.762a.039.039 0 00.038.048h1.977a.038.038 0 01.038.03.039.039 0 010 .017zM41.136 6.557a.042.042 0 00-.037.026.04.04 0 00.008.043 12.912 12.912 0 004.111 2.756c.494.21.944.392 1.351.546a.051.051 0 01.015.088c-.892.782-1.748 1.609-2.461 2.518a.027.027 0 01-.035.008l-1.83-1.057a.036.036 0 00-.033-.002.038.038 0 00-.014.01.04.04 0 00-.008.015l-1.9 7.072a.055.055 0 01-.053.043H26.657a.043.043 0 01-.04-.053l1.79-6.668a.045.045 0 00-.063-.053 7.314 7.314 0 01-1.887.64.093.093 0 01-.103-.05c-.46-.91-.969-1.804-1.65-2.605a.024.024 0 01-.004-.021.021.021 0 01.015-.015 20.664 20.664 0 006.853-3.427.022.022 0 00-.014-.04l-5.229.096a.022.022 0 01-.022-.027l.685-2.755a.093.093 0 01.092-.071h8.464a.046.046 0 00.045-.035l.564-2.266a.062.062 0 01.06-.047H39.4a.05.05 0 01.049.063l-.56 2.253a.026.026 0 000 .011c0 .004.002.008.005.01a.027.027 0 00.009.008.029.029 0 00.011.003h8.682a.047.047 0 01.045.058l-.684 2.749a.092.092 0 01-.088.07l-5.732.106zm-10.9 4.38l10.861-.202c.005 0 .01-.001.013-.004a.023.023 0 00.008-.011.023.023 0 00-.007-.026 12.544 12.544 0 01-2.99-3.336.058.058 0 00-.058-.027.061.061 0 00-.05.044l-.737 2.746a.113.113 0 01-.11.085h-3.16a.044.044 0 01-.035-.018.047.047 0 01-.008-.04l.66-2.456a.03.03 0 00-.014-.032.03.03 0 00-.035.002 25.931 25.931 0 01-4.355 3.214.033.033 0 00-.015.037.033.033 0 00.033.024zm7.958 2.081a.05.05 0 00-.027-.056.048.048 0 00-.021-.005H31.35a.049.049 0 00-.047.038l-.156.627a.048.048 0 00.01.042.049.049 0 00.038.018h6.795a.049.049 0 00.048-.037l.156-.627zm-.679 2.76a.042.042 0 00-.041-.052h-6.812a.042.042 0 00-.041.032l-.168.67a.043.043 0 00.008.037.042.042 0 00.033.016h6.813a.042.042 0 00.04-.032l.168-.67zM19.69 15.405h2.396a.054.054 0 01.052.067l-.632 2.545a.058.058 0 01-.055.043h-2.41a.078.078 0 00-.076.06 95.011 95.011 0 01-.705 2.772c-.305 1.066-.82 1.797-2.019 1.922-.956.1-1.935.067-2.939-.099a.073.073 0 01-.06-.067c-.05-.84-.1-1.707-.414-2.419a.072.072 0 00-.053-.042.072.072 0 00-.064.02l-1.258 1.257a.067.067 0 01-.093.003 28.356 28.356 0 00-2.783-2.23.079.079 0 01-.01-.12l1.012-1.011a.03.03 0 00.006-.031.026.026 0 00-.026-.017H6.807a.055.055 0 01-.054-.043.055.055 0 010-.025l.625-2.514a.094.094 0 01.092-.071h8.972a.12.12 0 00.116-.09l.133-.536a.11.11 0 01.107-.084h2.934a.055.055 0 01.044.021.055.055 0 01.01.048l-.144.579a.05.05 0 00.026.057.048.048 0 00.021.005zm-7.98 2.789l1.734 1.224a.063.063 0 01.022.073.063.063 0 01-.014.024l-.604.603a.032.032 0 00-.009.035.035.035 0 00.028.023c.654.11 1.33.135 2.028.078.206-.018.38-.134.524-.348a.143.143 0 00.023-.052l.431-1.733a.038.038 0 000-.017.04.04 0 00-.038-.03l-4.111.077a.023.023 0 00-.014.005.023.023 0 000 .038zM43.554 19.544l-.703 2.827a.043.043 0 01-.015.024.043.043 0 01-.027.009H22.454a.043.043 0 01-.034-.017.043.043 0 01-.008-.036l.705-2.828a.042.042 0 01.041-.032h20.354a.043.043 0 01.042.053z"></path></svg>