<svg fill="currentColor" fill-rule="evenodd" height="1em" style="flex:none;line-height:1" viewBox="0 0 24 24" width="1em" xmlns="http://www.w3.org/2000/svg"><title>Bocha</title><path d="M6.98 2c2.351.265 3.905 1.955 3.987 4.31a.035.035 0 00.019.031.036.036 0 00.036-.001c5.432-3.05 12.168.3 12.921 6.48.31 2.535-.668 5.04-2.33 6.946-1.41 1.619-3.653 2.561-5.763 2.738h-.996c-3.945-.28-7.106-2.99-7.99-6.805a.302.302 0 00-.078-.145l.013-.027a.114.114 0 00.01-.055l-.162-2.05.014-8.569L6.666 2h.314zm14.102 17.852c-.32-.386-.527-.643-.62-.773-.74-1.011-1.058-2.195-.952-3.552.044-.57.296-1.117.263-1.744-.146-2.74-2.503-4.64-5.21-4.232-1.772.268-3.215 1.678-3.61 3.4a4.44 4.44 0 001.574 4.488c1.119.879 2.37 1.166 3.753.86.675-.15 1.04-.226 1.096-.23 1.126-.083 2.098.273 2.918 1.069.486.472.74.718.763.738a.017.017 0 00.024 0 .017.017 0 000-.024z"></path><path d="M6.661 4.854l-.014 8.568-2.921-5.847-1.488-3.048a.106.106 0 01.022-.124.11.11 0 01.037-.024c1.57-.602 3.025-.444 4.364.475z" fill-opacity=".35"></path><path d="M3.726 7.575l2.921 5.847.161 2.05a.114.114 0 01-.01.055l-.012.027L.02 8.821a.07.07 0 01.001-.1C1.064 7.747 2.3 7.365 3.726 7.576z" fill-opacity=".21"></path></svg>