<svg fill="currentColor" fill-rule="evenodd" height="1em" style="flex:none;line-height:1" viewBox="0 0 79 24" xmlns="http://www.w3.org/2000/svg"><title>BRIA AI</title><path d="M50.91 1.02c.21 0 .38.169.38.378v21.223a.38.38 0 01-.38.379h-4.952a.38.38 0 01-.38-.379V1.398c0-.209.17-.379.38-.379h4.952z"></path><path clip-rule="evenodd" d="M67.794 1.02c.154 0 .293.092.352.233l8.825 21.223a.38.38 0 01-.352.524h-5.261a.381.381 0 01-.356-.245l-1.403-3.68a.381.381 0 00-.356-.244H60.76c-.158 0-.3.098-.356.245l-1.402 3.68a.381.381 0 01-.356.244h-5.261a.38.38 0 01-.352-.524l8.825-21.223a.381.381 0 01.352-.234h5.585zm-2.437 6.928a.381.381 0 00-.712 0l-2.22 5.822a.38.38 0 00.357.514h4.439a.38.38 0 00.356-.514l-2.22-5.822zM12.656 1.016c1.42-.005 2.462.11 3.127.344 2.613.929 4.087 2.706 4.106 5.526.015 2.367-1.021 3.948-3.108 4.741a.084.084 0 00-.058.087.092.092 0 00.07.083c2.346.617 3.582 2.14 3.709 4.57.217 4.101-2.617 6.383-6.482 6.478-3.524.083-7.468.093-11.83.03a.197.197 0 01-.135-.057.187.187 0 01-.055-.133V1.288c0-.071.029-.14.08-.19a.277.277 0 01.194-.079c1.879.01 5.34.01 10.382-.003zM7.648 13.772a.283.283 0 00-.282.28l-.015 4.233a.28.28 0 00.282.285l4.909.015a2.606 2.606 0 001.733-.634c.46-.407.72-.962.724-1.542v-.424a1.987 1.987 0 00-.183-.838 2.189 2.189 0 00-.528-.713 2.487 2.487 0 00-.793-.477 2.708 2.708 0 00-.938-.17l-4.909-.015zm.05-8.376a.313.313 0 00-.313.311L7.37 9.8a.31.31 0 00.312.311l4.487.015c.321 0 .64-.057.936-.17.297-.114.567-.281.795-.493a2.28 2.28 0 00.533-.738 2.15 2.15 0 00.188-.873v-.151a2.207 2.207 0 00-.71-1.616 2.537 2.537 0 00-1.727-.673l-4.486-.016zM34.533 1c3.877-.034 7.583 2.001 7.963 6.174.381 4.143-1.401 6.778-5.347 7.905a.204.204 0 00-.137.137.2.2 0 00.042.19l6.429 7.204a.175.175 0 01.027.185.175.175 0 01-.157.102h-5.747a.833.833 0 01-.613-.269c-3.072-3.355-5.118-5.619-6.136-6.79-.325-.375-.873-.501-1.645-.38a.332.332 0 00-.282.326v6.947a.169.169 0 01-.051.12.178.178 0 01-.124.05h-5a.216.216 0 01-.151-.06.206.206 0 01-.063-.148V1.32A.318.318 0 0123.865 1c4.54.023 8.096.023 10.668 0zm-5.275 4.647a.299.299 0 00-.274.182.296.296 0 00-.023.113l-.008 4.707a.295.295 0 00.297.296l4.974.011a3.51 3.51 0 001.132-.184c.359-.122.685-.3.96-.527.274-.225.492-.494.641-.79.15-.295.226-.612.227-.932v-.425c0-.646-.31-1.266-.864-1.723-.553-.458-1.305-.716-2.088-.717l-4.974-.011z"></path></svg>