<svg fill="currentColor" fill-rule="evenodd" height="1em" style="flex:none;line-height:1" viewBox="0 0 24 24" width="1em" xmlns="http://www.w3.org/2000/svg"><title>Browserless</title><path d="M24 1.384L23.988 22.6a.34.34 0 00-.099.203c-.025.01-.038.029-.038.057l-.178.123c-.112.073-.288.054-.493.054a19172.166 19172.166 0 00-22.442 0c-.556.002-.737-.133-.737-.673V1.496c0-.129.03-.237.089-.325a.539.539 0 01.407-.17h22.448c.153.001.368.006.644.015.048.002.123.036.224.103.014.01.027.022.036.036l.151.23zM2.854 3.13c.07-.312.016-.6-.165-.866a.712.712 0 00-.525-.383c-.383-.071-.696.017-.939.265-.357.365-.427.931-.078 1.328.367.42.806.496 1.316.228a.725.725 0 00.391-.572zm2.933-.274a1 1 0 10-2.001 0 1 1 0 002 0zm2.878-.004a1.001 1.001 0 10-2.002 0 1.001 1.001 0 002.002 0zm14.353 1.99a.063.063 0 00-.063-.064H1.028a.063.063 0 00-.063.063v17.17a.064.064 0 00.063.063h21.927a.063.063 0 00.063-.064V4.84z"></path><path d="M10.979 15.344c-1.397.008-2.794.01-4.192.004-.17 0-.29-.012-.364-.034-.323-.209-.385-.456-.186-.743.27-.388.525-.825.773-1.142.24-.309.44-.667.662-.996.238-.35.663-.951.97-1.44.108-.173.247-.378.416-.615.173-.242.37-.544.679-.424a.517.517 0 01.227.197c.18.256.364.506.49.708.14.228.264.419.372.573.446.64.838 1.226 1.175 1.76.052.081.142.17.194.25.35.537.604.915.76 1.135a.506.506 0 01.099.277c.017.355-.293.478-.593.479-.494 0-.988.005-1.482.01z"></path><path d="M11.001 16.511c-.092-.086-.125-.151-.1-.194.573.024 1.145.031 1.713.022.114-.002.218-.012.313-.03.147-.03.248-.06.303-.09.466-.252.743-.63.83-1.135l.003-.363a.52.52 0 00-.043-.304 2.57 2.57 0 00-.395-.643l-.482-.733-.72-1.096a.047.047 0 01.016-.067c.164-.094.292-.15.386-.168.057-.011.138-.033.244-.066.093-.03.175-.048.244-.056.435-.05.83-.05 1.183.003.478.07.924.258 1.34.562.314.23.544.45.69.66.108.158.221.341.339.551.105.188.186.387.242.598.143.534.158 1.074.045 1.62-.02.104-.04.176-.058.216-.047.108-.048.184-.093.283-.236.517-.57 1.051-1.037 1.384-.336.24-.62.406-.852.497-.164.066-.455.16-.685.181-.117.011-.241.03-.371.055a.502.502 0 01-.127.009 5.841 5.841 0 01-.759-.095 2.608 2.608 0 01-.749-.276 4.305 4.305 0 01-.678-.434c-.246-.208-.493-.505-.742-.89z"></path></svg>