<svg fill="currentColor" fill-rule="evenodd" height="1em" style="flex:none;line-height:1" viewBox="0 0 169 24" xmlns="http://www.w3.org/2000/svg"><title>Browserless</title><path d="M2 21.718V.05c0-.013.005-.025.014-.034A.05.05 0 012.05.002c.767-.003 3.675-.003 8.723 0 1.84 0 3.92.354 5.349 1.618.99.875 1.544 1.991 1.66 3.348.23 2.697-.884 4.564-3.341 5.603a.03.03 0 00-.011.045.03.03 0 00.014.01c1.282.382 2.322 1.031 3.04 2.138 1 1.538 1.06 3.805.39 5.537-.983 2.552-3.923 3.464-6.407 3.475-3.764.015-6.898.017-9.402.006A.064.064 0 012 21.718zM4.504 5.892l.012 3.734c0 .013.005.025.014.034.01.01.021.015.034.015 2.304.003 4.32-.006 6.051-.027 1.187-.015 2.448-.238 3.405-.931.907-.655 1.297-1.732 1.294-2.86-.004-1.128-.4-2.2-1.312-2.85-.962-.687-2.224-.902-3.412-.91-1.73-.009-3.747-.005-6.051.013a.047.047 0 00-.033.014.049.049 0 00-.014.034l.012 3.734zm0 9.833c-.008 2.255-.01 3.564-.006 3.926 0 .007.003.014.008.019a.025.025 0 00.018.007c2.75.013 4.902.02 6.454.02 1.269.002 2.727-.218 3.712-1.05.838-.707 1.145-1.816 1.15-2.883.003-1.067-.297-2.177-1.13-2.89-.979-.839-2.435-1.07-3.704-1.078a1549.366 1549.366 0 00-6.465-.022.026.026 0 00-.014.014 522.1 522.1 0 00-.023 3.937zM120.16.002h-2.381a.06.06 0 00-.061.06v21.662c0 .034.027.061.061.061h2.381a.06.06 0 00.061-.06V.062a.06.06 0 00-.061-.061zM24.876 9.274c0 .006.002.011.005.016a.023.023 0 00.03.006.024.024 0 00.01-.011c1.128-2.188 3.354-2.834 5.762-2.908.018 0 .036.006.05.018a.07.07 0 01.023.046l.204 2.03c.001.009 0 .017-.002.025a.065.065 0 01-.057.045c-1.218.089-2.12.201-2.703.338-.338.08-.706.215-1.104.405-1.386.663-2.137 2.259-2.143 3.745a1268.36 1268.36 0 00-.006 8.71.046.046 0 01-.046.046h-2.422a.042.042 0 01-.03-.012.044.044 0 01-.012-.031V6.774c0-.01.004-.02.01-.027a.035.035 0 01.026-.01h2.343a.062.062 0 01.062.061v2.476zM39.303 6.37c.66 0 1.286.072 1.878.216 3.625.891 5.272 4.04 5.272 7.599s-1.647 6.708-5.274 7.597a7.843 7.843 0 01-1.877.218c-.66 0-1.286-.073-1.878-.218-3.626-.89-5.273-4.04-5.273-7.598.001-3.56 1.648-6.708 5.274-7.598a7.805 7.805 0 011.878-.217zm-4.613 7.84c.004.897.114 1.721.33 2.473.602 2.095 2.095 3.265 4.295 3.257 2.201-.008 3.685-1.19 4.27-3.29.21-.753.314-1.578.31-2.474a9.068 9.068 0 00-.328-2.471c-.602-2.096-2.095-3.267-4.295-3.258-2.201.009-3.685 1.19-4.27 3.29a9.023 9.023 0 00-.312 2.474zM75.575 18.247a.046.046 0 01.031-.025.046.046 0 01.038.008c.943.75 1.982 1.288 3.17 1.547 1.577.345 5.497.609 5.489-2.011-.005-1.53-1.36-1.996-2.607-2.272-.37-.082-1.225-.282-2.564-.6-1.966-.467-3.743-1.642-3.83-3.872-.097-2.517 1.753-4.05 4.057-4.487 2.409-.456 5.228.025 7.045 1.778a.06.06 0 01.014.07l-.78 1.736a.053.053 0 01-.083.018c-.956-.83-2.03-1.363-3.218-1.6-1.618-.325-4.625-.152-4.6 2.205.017 1.506 1.253 1.983 2.512 2.262.226.05 1.054.252 2.484.605 1.205.298 2.53.828 3.297 1.85.42.56.646 1.235.678 2.025.058 1.436-.481 2.554-1.616 3.354-.786.554-1.708.902-2.767 1.043-1.756.233-3.404.11-4.944-.371-.9-.281-1.757-.75-2.568-1.41a.089.089 0 01-.025-.103l.787-1.75zM102.02 18.206a.044.044 0 01.015-.005.036.036 0 01.029.007.032.032 0 01.009.013l.793 1.74a.044.044 0 01.003.027.043.043 0 01-.013.024c-1.682 1.517-4.168 2.111-6.386 1.96-1.437-.096-2.807-.482-3.955-1.31-1.328-.957-2.194-2.276-2.597-3.957a10.36 10.36 0 01-.03-4.775c.582-2.556 2.3-4.584 4.848-5.293.827-.23 1.721-.308 2.683-.236 3.512.265 5.472 3.012 5.67 6.349.047.808.058 1.421.032 1.84a.059.059 0 01-.019.04.058.058 0 01-.04.015H92.176a.03.03 0 00-.03.033c.055 1.05.248 2.092.729 2.98.748 1.38 1.983 2.137 3.703 2.271 1.799.141 3.425-.301 4.878-1.326l.564-.397zm-9.797-5.165h8.648a.051.051 0 00.019-.004.054.054 0 00.016-.011.05.05 0 00.01-.016.06.06 0 00.003-.019 6.487 6.487 0 00-.35-2.07c-.385-1.097-1.063-1.854-2.034-2.268-1.033-.443-2.429-.426-3.479-.044-1.864.681-2.694 2.574-2.848 4.415a.014.014 0 00.004.012.014.014 0 00.011.005zM109.236 9.274c0 .006.001.011.005.016a.023.023 0 00.013.008.024.024 0 00.027-.013c1.128-2.188 3.354-2.834 5.762-2.908.018 0 .036.006.05.018a.069.069 0 01.023.046l.204 2.03a.07.07 0 01-.002.025.065.065 0 01-.013.022.056.056 0 01-.02.016.062.062 0 01-.024.007c-1.219.089-2.12.201-2.703.338a5.54 5.54 0 00-1.104.405c-1.386.663-2.137 2.259-2.143 3.745a1220.35 1220.35 0 00-.006 8.71.046.046 0 01-.014.033.044.044 0 01-.032.013h-2.422a.038.038 0 01-.016-.003.047.047 0 01-.014-.01.04.04 0 01-.009-.013.047.047 0 01-.003-.017V6.774c0-.01.003-.02.01-.027a.036.036 0 01.026-.01h2.343c.016 0 .032.006.044.018a.064.064 0 01.018.043v2.476zM136.424 18.206a.033.033 0 01.014-.005.036.036 0 01.029.007.032.032 0 01.009.013l.793 1.74a.044.044 0 01.003.027.038.038 0 01-.013.024c-1.682 1.517-4.168 2.111-6.386 1.96-1.437-.096-2.807-.482-3.955-1.31-1.328-.957-2.193-2.276-2.597-3.957a10.356 10.356 0 01-.03-4.775c.582-2.556 2.3-4.584 4.848-5.293.827-.23 1.721-.308 2.683-.236 3.512.265 5.472 3.012 5.67 6.349.047.808.058 1.421.032 1.84a.059.059 0 01-.019.04.057.057 0 01-.04.015H126.58c-.005 0-.009.001-.013.003a.03.03 0 00-.01.007.042.042 0 00-.007.01.026.026 0 00-.001.013c.055 1.05.248 2.092.729 2.98.748 1.38 1.983 2.137 3.703 2.271 1.799.141 3.425-.301 4.878-1.326.213-.15.401-.283.565-.397zm-9.798-5.165h8.648a.048.048 0 00.045-.031.042.042 0 00.004-.019 6.515 6.515 0 00-.351-2.07c-.385-1.097-1.063-1.854-2.034-2.268-1.033-.443-2.429-.426-3.478-.044-1.865.681-2.695 2.574-2.848 4.415a.007.007 0 000 .006.052.052 0 00.003.006.01.01 0 00.005.003l.006.002zM141.086 18.247a.038.038 0 01.012-.016.045.045 0 01.038-.01.051.051 0 01.019.01c.942.749 1.981 1.287 3.169 1.546 1.577.345 5.497.609 5.489-2.011-.005-1.53-1.361-1.996-2.607-2.272-.37-.082-1.225-.282-2.564-.6-1.966-.467-3.743-1.642-3.829-3.872-.098-2.517 1.752-4.05 4.056-4.487 2.409-.456 5.228.025 7.045 1.778.01.009.016.02.018.033a.06.06 0 01-.004.037l-.78 1.736a.045.045 0 01-.015.019.051.051 0 01-.022.01.051.051 0 01-.045-.01c-.957-.83-2.03-1.364-3.219-1.602-1.617-.324-4.625-.15-4.599 2.206.016 1.506 1.252 1.983 2.511 2.262.226.05 1.054.252 2.484.605 1.205.298 2.53.828 3.297 1.85.42.56.646 1.235.678 2.025.058 1.436-.481 2.554-1.616 3.354-.786.554-1.708.902-2.767 1.043-1.756.233-3.404.11-4.944-.371-.901-.281-1.757-.75-2.568-1.41a.09.09 0 01-.024-.103l.787-1.75zM155.918 18.247a.049.049 0 01.012-.016.052.052 0 01.019-.01.045.045 0 01.038.01c.943.749 1.982 1.287 3.17 1.546 1.576.345 5.497.609 5.489-2.011-.006-1.53-1.361-1.996-2.607-2.272-.371-.082-1.225-.282-2.564-.6-1.967-.467-3.743-1.642-3.83-3.872-.098-2.517 1.752-4.05 4.056-4.487 2.41-.456 5.229.025 7.046 1.778a.06.06 0 01.013.07l-.78 1.736a.052.052 0 01-.014.019.057.057 0 01-.022.01.051.051 0 01-.024 0 .051.051 0 01-.022-.01c-.956-.83-2.029-1.364-3.219-1.602-1.617-.324-4.625-.15-4.599 2.206.017 1.506 1.253 1.983 2.511 2.262.226.05 1.054.252 2.485.605 1.205.298 2.53.828 3.297 1.85.419.56.645 1.235.678 2.025.057 1.436-.481 2.554-1.616 3.354-.786.554-1.708.902-2.767 1.043-1.757.233-3.405.11-4.944-.371-.901-.281-1.757-.75-2.568-1.41a.091.091 0 01-.03-.047.091.091 0 01.005-.056l.787-1.75zM50.983 6.76l4.247 11.952a.034.034 0 00.052.016.034.034 0 00.012-.017l4.308-11.95a.034.034 0 01.032-.023h2.117a.034.034 0 01.032.023l4.239 11.929a.034.034 0 00.051.016.033.033 0 00.013-.016l4.3-11.93a.034.034 0 01.031-.023h2.401a.034.034 0 01.031.046l-5.565 14.98a.034.034 0 01-.032.023h-2.365a.034.034 0 01-.032-.023l-4.192-11.542a.034.034 0 00-.052-.016.034.034 0 00-.012.016l-4.223 11.543a.033.033 0 01-.013.016.033.033 0 01-.02.006H54.01a.033.033 0 01-.02-.006.033.033 0 01-.012-.017L48.41 6.784a.034.034 0 01.016-.042.034.034 0 01.015-.004h2.51a.034.034 0 01.031.023z"></path></svg>