<svg fill="currentColor" fill-rule="evenodd" height="1em" style="flex:none;line-height:1" viewBox="0 0 173 24" xmlns="http://www.w3.org/2000/svg"><title>BurnCloud</title><path clip-rule="evenodd" d="M2 2.328h8.852c1.749 0 3.17.437 4.262 1.312.984.874 1.476 2.13 1.476 3.77 0 .656-.219 1.366-.656 2.131-.437.656-1.038 1.257-1.803 1.803 1.093.438 1.967 1.093 2.623 1.968.656.874.983 1.803.983 2.786 0 1.64-.546 3.006-1.639 4.099-1.202.983-2.732 1.475-4.59 1.475H2V2.328zm7.705 8.033c.655 0 1.202-.273 1.64-.82.436-.546.655-1.093.655-1.64 0-.764-.219-1.42-.656-1.966-.437-.547-1.202-.82-2.295-.82H6.426v5.246h3.279zm.655 7.869c.984 0 1.695-.22 2.132-.656.546-.547.82-1.257.82-2.131 0-.765-.329-1.366-.984-1.804-.547-.437-1.421-.655-2.623-.655H6.59v5.246h3.77zm12.46 1.639c-1.53-1.312-2.296-3.224-2.296-5.738V2.328h4.59v11.803c0 .765.164 1.476.492 2.131.328.547.82.984 1.476 1.312.655.328 1.311.492 1.967.492.655 0 1.311-.164 1.967-.492a5.544 5.544 0 001.475-1.312 4.698 4.698 0 00.492-2.13V2.327h4.426v11.803c0 2.514-.765 4.426-2.295 5.738-1.53 1.42-3.552 2.13-6.065 2.13-2.623 0-4.7-.71-6.23-2.13zm26.884-17.54c1.967 0 3.497.49 4.59 1.475 1.202 1.092 1.803 2.513 1.803 4.262 0 1.53-.437 2.787-1.311 3.77-.765.874-1.858 1.476-3.279 1.803a42.808 42.808 0 012.951 3.607 54.838 54.838 0 012.295 4.426h-4.098c-.874-1.748-1.694-3.224-2.459-4.426-.765-1.093-1.749-2.24-2.95-3.443h-1.968v7.87h-4.426V2.327h8.852zm-.328 8.36c.875 0 1.585-.274 2.131-.82.547-.437.82-1.038.82-1.803 0-.656-.273-1.257-.82-1.804-.546-.546-1.256-.82-2.13-.82h-4.099v5.247h4.098zM63.638 6.59h-.164v15.082h-4.59V2.328h7.377l4.59 15.246h.328V2.328h4.426v19.344h-7.377L63.638 6.59zM83.638 20.852c-1.64-.765-2.896-1.912-3.77-3.442-.984-1.421-1.476-3.17-1.476-5.246 0-2.077.437-3.88 1.312-5.41.983-1.53 2.24-2.732 3.77-3.606C85.114 2.383 86.971 2 89.048 2c.983 0 2.022.11 3.114.328 1.093.218 1.968.492 2.623.82v3.278c-1.858-.656-3.606-.983-5.245-.983-1.858 0-3.388.546-4.59 1.639-1.203 1.202-1.804 2.896-1.804 5.082 0 1.311.273 2.404.82 3.278.656.984 1.475 1.694 2.459 2.131.874.547 1.858.875 2.95.984h.656c.875 0 1.694-.11 2.46-.328.874-.218 1.639-.546 2.294-.983v3.77c-.765.328-1.639.601-2.623.82-.874.109-1.857.164-2.95.164-2.077 0-3.935-.383-5.574-1.148zM102.326 2.328v15.574h7.869v3.77H97.736V2.328h4.59zM116.26 20.852c-1.53-.765-2.677-1.858-3.442-3.279-.765-1.53-1.148-3.333-1.148-5.41 0-1.966.328-3.934 1.148-5.409.765-1.53 1.912-2.732 3.442-3.606C117.681 2.383 119.43 2 121.506 2c1.967 0 3.661.383 5.082 1.148 1.53.874 2.678 2.076 3.443 3.606.874 1.53 1.311 3.333 1.311 5.41 0 2.076-.437 3.88-1.311 5.41a7.901 7.901 0 01-3.279 3.278c-1.53.765-3.279 1.148-5.246 1.148-2.076 0-3.825-.383-5.246-1.148zm1.476-3.934c.874 1.093 2.131 1.64 3.77 1.64 1.53 0 2.733-.547 3.607-1.64.874-1.093 1.311-2.678 1.311-4.754 0-1.312-.164-2.46-.492-3.443-.437-.983-1.038-1.803-1.803-2.459-.765-.546-1.639-.82-2.623-.82-1.093 0-2.022.274-2.787.82-.655.656-1.202 1.476-1.639 2.46-.437.983-.656 2.13-.656 3.442 0 2.076.438 3.66 1.312 4.754zm18.524 2.95c-1.53-1.31-2.295-3.223-2.295-5.737V2.328h4.59V14.13c0 .765.164 1.475.492 2.131.437.546.929.984 1.475 1.311.656.328 1.312.492 1.968.492.765 0 1.42-.164 1.967-.492.655-.327 1.147-.765 1.475-1.31a4.697 4.697 0 00.492-2.132V2.328h4.59V14.13c0 2.514-.765 4.426-2.295 5.738-1.53 1.42-3.607 2.13-6.229 2.13-2.514 0-4.591-.71-6.23-2.13zm18.033-17.54h7.377c2.95 0 5.245.874 6.885 2.623 1.53 1.64 2.295 3.989 2.295 7.049 0 3.114-.82 5.573-2.295 7.213-1.64 1.64-3.989 2.459-7.049 2.459h-7.213V2.328zm7.377 15.901c.765 0 1.475-.273 2.131-.82.765-.437 1.366-1.147 1.803-2.13.437-.984.656-2.077.656-3.28 0-1.31-.328-2.294-.656-3.278-.437-.874-.984-1.584-1.639-2.13-.765-.547-1.53-.82-2.295-.82h-2.787v12.458h2.787z"></path></svg>