<svg fill="currentColor" fill-rule="nonzero" height="1em" style="flex:none;line-height:1" viewBox="0 0 137 24" xmlns="http://www.w3.org/2000/svg"><title>CelestoAI</title><path d="M12.49 23c-1.52 0-2.923-.268-4.207-.803a10.25 10.25 0 01-3.32-2.319 10.334 10.334 0 01-2.192-3.508C2.256 15.022 2 13.546 2 11.94c0-1.605.257-3.072.77-4.4.514-1.327 1.235-2.477 2.164-3.448a9.873 9.873 0 013.319-2.29C9.537 1.269 10.95 1 12.49 1c1.699 0 3.23.337 4.593 1.01a8.828 8.828 0 013.349 2.855c.889 1.209 1.432 2.636 1.63 4.28h-3.794c-.237-1.604-.879-2.833-1.926-3.686-1.047-.872-2.321-1.308-3.823-1.308-1.323 0-2.48.317-3.467.952-.988.634-1.758 1.536-2.311 2.705-.554 1.15-.83 2.517-.83 4.103 0 1.625.276 3.032.83 4.221.553 1.17 1.333 2.081 2.34 2.736 1.008.654 2.164.98 3.468.98 1.462 0 2.716-.425 3.764-1.278 1.047-.872 1.708-2.1 1.985-3.686h3.823c-.237 1.625-.8 3.052-1.69 4.28a8.828 8.828 0 01-3.348 2.855c-1.363.654-2.894.981-4.593.981zM31.756 23c-1.6 0-3.002-.337-4.208-1.01a7.27 7.27 0 01-2.785-2.795c-.652-1.19-.978-2.557-.978-4.103 0-1.546.326-2.904.978-4.073a7.063 7.063 0 012.785-2.765c1.186-.674 2.569-1.01 4.15-1.01 1.5 0 2.805.316 3.911.95a6.436 6.436 0 012.578 2.617c.613 1.13.919 2.448.919 3.954a8.821 8.821 0 01-.118 1.486H26.095v-2.616h10.017l-.77.714c0-1.427-.327-2.498-.979-3.211-.652-.714-1.56-1.07-2.726-1.07-1.264 0-2.272.436-3.023 1.308-.73.872-1.096 2.13-1.096 3.775 0 1.626.365 2.874 1.096 3.746.751.853 1.808 1.279 3.171 1.279.79 0 1.482-.149 2.075-.446a2.743 2.743 0 001.303-1.368h3.527c-.494 1.427-1.334 2.557-2.519 3.39-1.165.832-2.637 1.248-4.415 1.248zM41.9 22.703V1.297h3.734v21.406H41.9zM56.385 23c-1.6 0-3.003-.337-4.209-1.01a7.27 7.27 0 01-2.785-2.795c-.652-1.19-.978-2.557-.978-4.103 0-1.546.326-2.904.978-4.073a7.062 7.062 0 012.785-2.765c1.186-.674 2.569-1.01 4.15-1.01 1.5 0 2.805.316 3.91.95a6.436 6.436 0 012.58 2.617c.612 1.13.918 2.448.918 3.954a8.821 8.821 0 01-.119 1.486h-12.89v-2.616H60.74l-.77.714c0-1.427-.327-2.498-.979-3.211-.652-.714-1.56-1.07-2.726-1.07-1.264 0-2.272.436-3.023 1.308-.73.872-1.096 2.13-1.096 3.775 0 1.626.365 2.874 1.096 3.746.75.853 1.808 1.279 3.171 1.279.79 0 1.482-.149 2.075-.446a2.743 2.743 0 001.303-1.368h3.527c-.494 1.427-1.334 2.557-2.519 3.39-1.166.832-2.637 1.248-4.415 1.248zM72.394 23c-2.095 0-3.764-.436-5.009-1.308-1.244-.892-1.926-2.12-2.044-3.687h3.408c.098.773.464 1.358 1.096 1.755.632.396 1.482.594 2.549.594.968 0 1.689-.149 2.163-.446.494-.317.74-.763.74-1.338 0-.416-.138-.753-.414-1.01-.277-.278-.8-.506-1.57-.684l-2.43-.565c-1.66-.357-2.895-.912-3.705-1.665-.79-.773-1.185-1.734-1.185-2.884 0-1.407.533-2.507 1.6-3.3 1.086-.812 2.578-1.219 4.475-1.219 1.877 0 3.378.407 4.504 1.22 1.146.792 1.778 1.892 1.897 3.3H75.06a1.904 1.904 0 00-.949-1.398c-.513-.317-1.224-.476-2.133-.476-.85 0-1.492.139-1.927.416-.434.258-.652.645-.652 1.16 0 .396.168.733.504 1.01.336.258.9.486 1.69.684l2.607.595c1.482.337 2.598.922 3.349 1.754a4.19 4.19 0 011.156 2.943c0 1.447-.553 2.567-1.66 3.36C75.94 22.604 74.39 23 72.394 23zM88.016 23c-1.857 0-3.23-.436-4.12-1.308-.869-.892-1.303-2.22-1.303-3.984V4.092l3.763-1.397v15.102c0 .734.198 1.279.593 1.635.395.357 1.017.536 1.867.536.336 0 .632-.02.889-.06.277-.06.533-.129.77-.208v2.913c-.237.12-.572.209-1.007.268-.435.08-.919.119-1.452.119zm-8.328-12.516V7.54h10.787v2.943H79.69zM99.68 23c-1.6 0-3.012-.337-4.237-1.01a7.213 7.213 0 01-2.815-2.795c-.672-1.21-1.008-2.587-1.008-4.133 0-1.546.336-2.903 1.008-4.073a7.067 7.067 0 012.815-2.735c1.225-.674 2.638-1.01 4.238-1.01 1.62 0 3.032.336 4.237 1.01a7.065 7.065 0 012.816 2.735c.671 1.17 1.007 2.527 1.007 4.073 0 1.546-.345 2.924-1.037 4.133a7.215 7.215 0 01-2.815 2.794c-1.205.674-2.608 1.011-4.208 1.011zm0-3.003c.791 0 1.502-.198 2.134-.594.633-.416 1.127-.991 1.482-1.725.356-.753.534-1.635.534-2.646 0-1.486-.396-2.655-1.186-3.508-.77-.852-1.758-1.278-2.963-1.278s-2.203.426-2.993 1.278c-.79.853-1.186 2.022-1.186 3.508 0 1.011.178 1.893.534 2.646.375.734.869 1.308 1.481 1.725.633.396 1.354.594 2.164.594zM108.406 22.703l7.853-21.406h3.319l-7.379 21.406h-3.793zm16.092 0l-7.35-21.406h3.497l7.824 21.406h-3.971zm-12.032-8.414h11.676v3.092h-11.676V14.29zM131.148 22.703V1.297H135v21.406h-3.852z"></path></svg>