<svg fill="currentColor" fill-rule="evenodd" height="1em" style="flex:none;line-height:1" viewBox="0 0 107 24" xmlns="http://www.w3.org/2000/svg"><title>CentML</title><path d="M65.843 0v21.315l.025.025h3.933v-8.018c0-1.98-.025-3.68-.127-5.1a51.95 51.95 0 00-.134-1.56l5.615 8.867h2.005l5.784-8.943c-.06.593-.11 1.188-.15 1.788a94.02 94.02 0 00-.128 4.922v8.019H86.6V0h-3.552l-6.768 10.872L69.599 0h-3.756zM90.583 0v21.315h13.804V17.66h-9.845V0h-3.959z"></path><path d="M52.825 8.754V5.278h3.172V1.192h3.756v4.086h3.476v3.476h-3.476v12.56h-3.756V8.754h-3.172z"></path><path clip-rule="evenodd" d="M21.412 20.554c1.294.71 2.79 1.065 4.466 1.065l-.026-.025a8.83 8.83 0 002.284-.305 11.618 11.618 0 002.207-.837 8.225 8.225 0 001.878-1.294L30.37 16.57c-.71.634-1.396 1.066-2.03 1.32a6.065 6.065 0 01-2.08.354c-1.067 0-2.03-.228-2.817-.634a4.465 4.465 0 01-1.853-1.776 5.193 5.193 0 01-.59-1.75H32.88v-1.32a8.452 8.452 0 00-.508-3.147 7.356 7.356 0 00-1.547-2.487 7.866 7.866 0 00-2.386-1.649 7.108 7.108 0 00-2.943-.609c-1.193 0-2.284.203-3.299.634-1.015.432-1.878 1.015-2.588 1.777-.736.761-1.294 1.649-1.7 2.69-.406 1.04-.61 2.182-.61 3.45 0 1.573.381 2.995 1.092 4.213a7.766 7.766 0 003.02 2.918zm-.339-9.034a4.41 4.41 0 01.364-1.09c.355-.711.863-1.27 1.548-1.65.685-.38 1.522-.584 2.512-.584.634 0 1.243.127 1.776.406a3.5 3.5 0 011.32 1.117c.355.456.558 1.015.609 1.649v.152h-8.129z"></path><path d="M36.103 5.28v16.01h3.756v-9.692c0-.482.076-.939.279-1.345.178-.406.457-.787.787-1.091.33-.33.735-.558 1.192-.736.457-.178.939-.254 1.497-.254.66-.025 1.244.102 1.7.356.482.253.812.66 1.04 1.192.23.533.33 1.218.33 2.03v9.54h3.756v-9.794c0-1.471-.228-2.69-.634-3.654s-1.04-1.7-1.853-2.182c-.837-.482-1.852-.736-3.07-.736-.837 0-1.675.203-2.487.558A6.491 6.491 0 0040.29 6.93a5.76 5.76 0 00-.498.592l-.035-2.242h-3.654zM6.06 20.858C7.303 21.62 8.724 22 10.297 22h.026a9.41 9.41 0 003.984-.888 8.73 8.73 0 002.004-1.269l-2.207-2.613a2.683 2.683 0 01-.28.228 4.854 4.854 0 01-1.471.787c-.508.203-1.04.279-1.599.279a4.66 4.66 0 01-2.487-.71c-.76-.457-1.344-1.092-1.776-1.878-.431-.787-.66-1.675-.66-2.665s.204-1.903.635-2.69c.406-.786.99-1.42 1.725-1.877.736-.457 1.574-.685 2.512-.685.533 0 1.092.127 1.65.33a6.667 6.667 0 011.548.862c.05.026.177.127.177.127l2.259-2.664c-.559-.508-1.193-.914-1.929-1.269-1.243-.583-2.537-.863-4.11-.863-1.574 0-2.995.381-4.238 1.142-1.269.762-2.233 1.802-2.969 3.121C2.355 10.125 2 11.597 2 13.271c0 1.675.355 3.147 1.091 4.466.736 1.32 1.726 2.36 2.969 3.121z"></path></svg>