<svg fill="currentColor" height="1em" style="flex:none;line-height:1" viewBox="0 0 24 24" width="1em" xmlns="http://www.w3.org/2000/svg"><title>CentML</title><path d="M13 3.429c2.114 0 4.057.771 5.543 2.042l2.214-2.614A11.918 11.918 0 0013 0C6.386 0 1 5.386 1 12s5.386 12 12 12c2.957 0 5.657-1.071 7.757-2.843l-1.964-2.614c-1.5 1.271-3.679 2.028-5.793 2.028-4.729 0-8.571-3.842-8.571-8.571 0-4.729 3.842-8.571 8.571-8.571z" fill="#00A87B"></path><path d="M10.621 16.271c.7.429 1.5.643 2.386.643h.014c.786 0 1.529-.171 2.243-.5a4.91 4.91 0 001.129-.714l-1.243-1.472c-.043.043-.1.086-.157.129-.257.2-.529.343-.829.443a2.39 2.39 0 01-.9.157c-.514 0-.986-.143-1.4-.4a2.738 2.738 0 01-1-1.057 3.072 3.072 0 01-.371-1.5c0-.557.114-1.072.357-1.515.228-.442.557-.8.971-1.057a2.626 2.626 0 011.415-.385c.3 0 .614.071.928.185.3.115.6.286.872.486.028.014.1.071.1.071l1.271-1.5a4.473 4.473 0 00-1.086-.714c-.7-.328-1.428-.486-2.314-.486-.886 0-1.686.215-2.386.643-.714.429-1.257 1.015-1.671 1.757-.414.743-.614 1.572-.614 2.515 0 .943.2 1.771.614 2.514a4.707 4.707 0 001.671 1.757z"></path></svg>