<svg fill="currentColor" fill-rule="evenodd" height="1em" style="flex:none;line-height:1" viewBox="0 0 53 24" xmlns="http://www.w3.org/2000/svg"><title>Cerebras</title><path clip-rule="evenodd" d="M13 2.701A9.299 9.299 0 0013 21.3V22.7C7.09 22.701 2.299 17.91 2.299 12S7.09 1.299 13 1.299V2.7zm4.752 3.677a7.353 7.353 0 00-9.453 11.265l-.901 1.074A8.755 8.755 0 1118.652 5.304l-.901 1.074zm-2.256.844a5.407 5.407 0 00-5.049 9.563l-.654 1.24a6.81 6.81 0 016.358-12.043l-.655 1.24zM13 8.539a3.461 3.461 0 000 6.922v1.402a4.863 4.863 0 010-9.726v1.402z"></path><path d="M14.286 10.836a2.242 2.242 0 00-.51-.409 1.085 1.085 0 00-.545-.152c-.254 0-.482.047-.683.14a1.582 1.582 0 00-.841.912 1.848 1.848 0 000 1.262 1.595 1.595 0 00.841.913c.2.093.429.14.683.14.217 0 .418-.046.603-.135.187-.09.35-.225.475-.392l.927 1.006c-.139.14-.3.261-.481.363a3.367 3.367 0 01-1.083.38c-.17.026-.317.04-.44.04a3.316 3.316 0 01-1.182-.21 2.826 2.826 0 01-.962-.597 2.813 2.813 0 01-.643-.929 2.986 2.986 0 01-.238-1.21c0-.444.08-.847.238-1.21.15-.35.368-.666.643-.929.277-.261.604-.464.962-.596a3.316 3.316 0 011.181-.21c.355 0 .713.068 1.072.204.362.138.686.36.945.649l-.962.97z"></path><path d="M19.338 11.397c-.008-.414-.136-.738-.383-.976-.247-.237-.59-.356-1.03-.356-.418 0-.749.12-.991.362-.244.242-.393.565-.447.97h2.85zm-2.85 1.052c.045.42.208.748.486.982.278.234.614.351 1.008.351.348 0 .639-.072.875-.217a2.42 2.42 0 00.62-.543l.997.76c-.325.405-.689.694-1.09.865a3.32 3.32 0 01-2.445.047 2.821 2.821 0 01-.962-.597 2.829 2.829 0 01-.643-.929 2.992 2.992 0 01-.237-1.21c0-.444.079-.847.238-1.21.15-.35.368-.666.642-.929.278-.261.605-.464.962-.596a3.32 3.32 0 011.182-.21c.386 0 .74.067 1.06.204.32.136.595.333.823.59.228.258.405.575.533.953.128.379.19.812.19 1.303v.386h-4.24zm4.843-3.296h1.39v.888h.023c.155-.327.375-.58.661-.76a1.812 1.812 0 011.234-.246c.081.016.164.036.25.06v1.355a3.912 3.912 0 00-.343-.076c-.109-.02-.22-.03-.33-.03-.324 0-.585.06-.782.182a1.38 1.38 0 00-.66.883 1.76 1.76 0 00-.053.35v3.005h-1.39V9.152zm7.797 2.244c-.008-.414-.135-.738-.383-.976-.246-.237-.59-.356-1.03-.356-.417 0-.748.12-.99.362-.245.242-.393.565-.447.97h2.85zm-2.85 1.052c.046.42.208.748.487.982.277.234.613.351 1.007.351.348 0 .64-.072.875-.217.236-.144.446-.328.62-.543l.997.76c-.325.405-.688.694-1.09.865a3.319 3.319 0 01-2.445.047 2.823 2.823 0 01-.961-.597 2.829 2.829 0 01-.643-.929 2.984 2.984 0 01-.238-1.21c0-.444.08-.847.238-1.21.158-.362.373-.672.643-.929a2.84 2.84 0 01.962-.596 3.318 3.318 0 011.181-.21c.387 0 .74.067 1.06.204.321.136.596.333.823.59.228.258.406.575.533.953.128.379.192.812.192 1.303v.386h-4.241zm9.225-.49a1.84 1.84 0 00-.11-.632 1.603 1.603 0 00-.84-.912 1.607 1.607 0 00-.684-.14 1.587 1.587 0 00-1.524 1.052 1.83 1.83 0 00-.11.631c0 .218.036.429.11.632a1.583 1.583 0 001.524 1.052 1.591 1.591 0 001.524-1.052c.073-.203.11-.414.11-.632zM30.89 5.925h1.391v3.94h.035a1.99 1.99 0 01.266-.287 2.327 2.327 0 01.927-.485c.201-.054.433-.081.696-.081a2.55 2.55 0 011.94.853c.236.264.42.577.55.935.132.358.198.744.198 1.157 0 .413-.062.8-.186 1.158a2.673 2.673 0 01-.544.935c-.243.267-.539.48-.869.625-.34.152-.723.229-1.147.229a2.613 2.613 0 01-1.1-.235 1.785 1.785 0 01-.812-.748h-.023v.841H30.89V5.927zm6.604 3.227h1.39v.888h.023c.155-.327.376-.58.661-.76a1.815 1.815 0 011.234-.246c.081.016.164.036.25.06v1.355a3.893 3.893 0 00-.343-.076c-.109-.02-.22-.03-.33-.03-.325 0-.585.06-.782.182a1.43 1.43 0 00-.452.415 1.39 1.39 0 00-.209.468 1.788 1.788 0 00-.051.35v3.005h-1.391V9.152zm7.207 3.097h-.29c-.193 0-.409.008-.649.024a3.384 3.384 0 00-.677.11c-.213.06-.393.146-.54.258a.564.564 0 00-.22.473c0 .133.03.244.087.333.058.09.134.166.226.229a.933.933 0 00.313.134c.117.027.232.04.348.04.48 0 .832-.114 1.06-.344.228-.23.342-.544.342-.94v-.317zm.082 1.743h-.036c-.2.32-.456.551-.764.695-.32.146-.668.22-1.02.216-.253 0-.504-.035-.748-.104a2.03 2.03 0 01-.649-.317 1.616 1.616 0 01-.457-.526 1.501 1.501 0 01-.174-.736c0-.305.054-.563.163-.777.103-.21.252-.393.434-.539a2.19 2.19 0 01.632-.344c.242-.087.492-.152.747-.193.258-.043.52-.07.782-.082.247-.011.495-.017.742-.018h.347v-.151c0-.351-.12-.614-.36-.79-.238-.175-.544-.262-.914-.262a2.129 2.129 0 00-1.483.585l-.73-.738a2.7 2.7 0 011.083-.69c.412-.14.845-.21 1.28-.21.394 0 .726.046.997.135.27.09.494.205.672.345.177.14.314.302.411.485.096.183.166.368.21.555.041.187.066.368.074.544.008.175.012.33.012.461v3.227h-1.252v-.771zm5.018-3.286c-.27-.382-.634-.573-1.09-.573a1.16 1.16 0 00-.544.14.478.478 0 00-.266.456c0 .172.073.297.22.375.147.078.332.144.556.198.224.055.465.111.724.17.259.058.5.148.724.268.224.122.41.287.556.498.147.21.22.498.22.864 0 .336-.071.619-.214.848-.139.226-.33.417-.556.556a2.456 2.456 0 01-.77.303c-.282.062-.57.094-.858.094-.432 0-.83-.062-1.194-.187a2.27 2.27 0 01-.973-.678l.928-.877c.177.203.368.368.573.497.204.129.454.193.747.193.101 0 .205-.012.313-.035a.992.992 0 00.301-.117.71.71 0 00.226-.204.482.482 0 00.087-.287c0-.194-.073-.34-.22-.432a1.966 1.966 0 00-.556-.229c-.24-.062-.481-.116-.724-.164a2.794 2.794 0 01-.725-.245 1.523 1.523 0 01-.556-.473c-.146-.203-.22-.483-.22-.841 0-.312.064-.583.191-.813a1.69 1.69 0 01.504-.567c.217-.152.461-.263.719-.327a3.256 3.256 0 011.923.087c.356.123.664.354.881.66l-.927.842z"></path></svg>