<svg fill="currentColor" fill-rule="evenodd" height="1em" style="flex:none;line-height:1" viewBox="0 0 95 24" xmlns="http://www.w3.org/2000/svg"><title>Cerebras</title><path clip-rule="evenodd" d="M17.075 16.717c-.62-.52-.982-1.25-1.085-2.187l9.446.001v-.86c0-1.094-.14-2.06-.425-2.904-.283-.842-.68-1.549-1.188-2.12a5.049 5.049 0 00-1.832-1.317c-.713-.304-1.5-.456-2.361-.456a7.396 7.396 0 00-2.633.469 6.325 6.325 0 00-2.143 1.328 6.309 6.309 0 00-1.431 2.07c-.354.808-.53 1.706-.53 2.696 0 .99.176 1.888.529 2.695.333.78.82 1.483 1.432 2.07a6.288 6.288 0 002.142 1.328 7.396 7.396 0 002.633.469 7.101 7.101 0 002.814-.573c.894-.381 1.704-1.025 2.427-1.926l-2.22-1.693c-.388.48-.855.888-1.381 1.21-.526.322-1.175.483-1.95.483-.877 0-1.625-.261-2.244-.783zm4.413-6.705c.55.53.836 1.254.852 2.175h-6.35c.12-.903.452-1.623.995-2.162.54-.537 1.278-.807 2.207-.807.98 0 1.745.266 2.296.794z"></path><path d="M29.878 7.187H26.78v12.499h3.098v-6.693c0-.172.038-.433.116-.78.077-.348.232-.694.465-1.043.233-.346.568-.654 1.006-.923.44-.27 1.02-.405 1.742-.405.247 0 .493.023.736.066.256.045.51.101.761.169v-3.02a7.03 7.03 0 00-.554-.131 2.962 2.962 0 00-.555-.05c-.827 0-1.559.198-2.194.597-.636.4-1.129.964-1.473 1.693h-.05V7.187z"></path><path clip-rule="evenodd" d="M37.8 14.531c.102.937.465 1.666 1.084 2.186.619.522 1.367.783 2.245.783.775 0 1.424-.161 1.95-.483.525-.322.992-.73 1.38-1.21l2.22 1.693c-.722.901-1.532 1.545-2.426 1.926-.89.38-1.848.576-2.815.573a7.39 7.39 0 01-2.632-.469 6.287 6.287 0 01-2.142-1.328 6.302 6.302 0 01-1.432-2.07c-.353-.807-.53-1.705-.53-2.696 0-.989.177-1.887.53-2.695a6.3 6.3 0 011.432-2.07 6.325 6.325 0 012.142-1.328 7.39 7.39 0 012.633-.469c.86 0 1.648.152 2.361.456a5.05 5.05 0 011.833 1.316c.507.572.904 1.279 1.188 2.121.285.844.426 1.81.426 2.903v.861H37.8zm5.497-4.519c.55.53.834 1.254.852 2.175H37.8c.121-.903.452-1.623.995-2.162.54-.537 1.278-.807 2.207-.807.98 0 1.746.266 2.296.794zM51.173 0h-3.098v19.686h2.944V17.81h.051c.447.765 1.048 1.32 1.808 1.667.77.35 1.606.528 2.45.522.947 0 1.8-.17 2.557-.509a5.714 5.714 0 001.935-1.393 5.954 5.954 0 001.213-2.082 7.835 7.835 0 00.413-2.58c0-.92-.146-1.778-.44-2.576a6.398 6.398 0 00-1.225-2.085 5.68 5.68 0 00-1.896-1.394 5.772 5.772 0 00-2.426-.506 5.93 5.93 0 00-1.55.182 5.18 5.18 0 00-1.187.47c-.344.19-.636.394-.878.61-.241.219-.439.43-.593.638h-.078V0zm6.931 12.031c.163.45.245.92.245 1.405 0 .487-.082.956-.246 1.407a3.545 3.545 0 01-1.87 2.03 3.574 3.574 0 01-1.524.314 3.525 3.525 0 01-3.394-2.343 4.098 4.098 0 01-.245-1.407c-.001-.48.081-.955.245-1.406A3.533 3.533 0 0153.186 10a3.584 3.584 0 011.523-.312c.568 0 1.076.104 1.523.312.434.2.825.482 1.15.833.317.349.557.746.722 1.2z"></path><path d="M65.882 7.187h-3.097v12.499h3.098v-6.693c0-.172.038-.433.115-.78.078-.348.233-.694.466-1.043.232-.346.567-.654 1.006-.923.439-.27 1.019-.405 1.742-.405.246 0 .492.023.735.066.257.045.512.101.763.169v-3.02a7.065 7.065 0 00-.556-.131 2.942 2.942 0 00-.554-.05c-.825 0-1.558.198-2.194.597-.636.4-1.128.964-1.473 1.693h-.051V7.187z"></path><path clip-rule="evenodd" d="M78.943 17.969h.079l-.002 1.718h2.788v-7.188c0-.294-.008-.638-.026-1.028a6.951 6.951 0 00-.166-1.21 5.142 5.142 0 00-.466-1.238 3.4 3.4 0 00-.916-1.08c-.397-.312-.895-.569-1.497-.77-.603-.198-1.343-.299-2.22-.299a8.83 8.83 0 00-2.853.469 6.012 6.012 0 00-2.413 1.536l1.626 1.642a4.743 4.743 0 013.304-1.303c.826 0 1.506.196 2.039.587.533.39.8.976.8 1.757v.338h-.773c-.551.001-1.103.014-1.654.039-.584.026-1.165.088-1.741.182a9.606 9.606 0 00-1.665.43 4.88 4.88 0 00-1.407.768 3.555 3.555 0 00-.967 1.199c-.241.478-.363 1.053-.363 1.731 0 .625.13 1.173.388 1.64.25.461.598.861 1.019 1.173.436.32.925.558 1.446.704a6.019 6.019 0 001.665.233 5.307 5.307 0 002.271-.481c.688-.321 1.257-.838 1.704-1.55zm-.749-3.881h.645v.703c0 .884-.254 1.584-.76 2.096-.51.513-1.295.768-2.362.768-.259 0-.516-.03-.775-.091a2.083 2.083 0 01-.698-.3 1.769 1.769 0 01-.503-.507c-.129-.2-.193-.447-.193-.742 0-.451.164-.803.49-1.055a3.465 3.465 0 011.202-.573 7.534 7.534 0 011.508-.247 22.752 22.752 0 011.446-.052z"></path><path d="M87.774 9.374c1.015 0 1.825.425 2.426 1.276l2.066-1.875a4.013 4.013 0 00-1.963-1.47 7.302 7.302 0 00-2.452-.43c-.618-.001-1.234.078-1.833.234a4.82 4.82 0 00-1.6.73c-.464.33-.839.75-1.123 1.262-.284.512-.425 1.116-.425 1.81 0 .798.163 1.424.49 1.876.322.446.747.807 1.239 1.052a6.22 6.22 0 001.614.547c.54.106 1.079.227 1.613.365.499.131.91.3 1.238.51.328.207.491.529.491.961 0 .245-.065.458-.194.64a1.578 1.578 0 01-.504.454c-.206.122-.429.21-.67.26a3.24 3.24 0 01-.697.079c-.654 0-1.21-.143-1.665-.428a5.852 5.852 0 01-1.277-1.11l-2.066 1.955c.637.729 1.36 1.232 2.168 1.51.81.278 1.696.417 2.66.417.642-.001 1.282-.07 1.91-.209a5.473 5.473 0 001.716-.676 3.78 3.78 0 001.238-1.238c.319-.51.477-1.14.477-1.888 0-.816-.163-1.458-.49-1.926a3.527 3.527 0 00-1.238-1.108 6.356 6.356 0 00-1.613-.598c-.577-.13-1.115-.256-1.614-.378-.5-.121-.911-.269-1.238-.442-.327-.173-.49-.452-.49-.834 0-.47.197-.806.593-1.016.396-.208.8-.312 1.213-.312zM9.95 10.026c.422.246.805.553 1.137.911l2.142-2.162a5.428 5.428 0 00-2.104-1.446 6.713 6.713 0 00-2.388-.455 7.386 7.386 0 00-2.632.468 6.316 6.316 0 00-2.142 1.329 6.266 6.266 0 00-1.432 2.07C2.177 11.55 2 12.449 2 13.437c0 .99.177 1.887.53 2.695.333.78.82 1.484 1.433 2.07a6.294 6.294 0 002.142 1.33 7.384 7.384 0 002.632.467c.276 0 .603-.03.982-.09a7.502 7.502 0 002.413-.846 4.813 4.813 0 001.072-.808l-2.066-2.24c-.278.37-.64.67-1.058.873-.413.198-.86.3-1.343.3-.567 0-1.075-.105-1.521-.312a3.553 3.553 0 01-1.873-2.032 4.107 4.107 0 01-.246-1.407c0-.48.082-.955.245-1.405a3.52 3.52 0 01.724-1.198c.32-.349.701-.625 1.15-.835.446-.207.954-.311 1.521-.311.428.003.846.12 1.214.339z"></path></svg>