<svg fill="currentColor" fill-rule="evenodd" height="1em" style="flex:none;line-height:1" viewBox="0 0 24 24" width="1em" xmlns="http://www.w3.org/2000/svg"><title>Clipdrop</title><path clip-rule="evenodd" d="M1 7.233C1 3.791 3.73 1 7.098 1h1.674c.66 0 1.195.547 1.195 1.222v1.1c0 .675-.535 1.222-1.195 1.222H7.098c-1.387 0-2.87 1.272-2.87 2.69v1.71c0 .675-.535 1.223-1.195 1.223h-.837C1.536 10.167 1 9.619 1 8.944v-1.71zM23 16.767C23 20.209 20.27 23 16.902 23h-1.674c-.66 0-1.195-.547-1.195-1.222v-1.1c0-.675.535-1.223 1.195-1.223h1.674c1.387 0 2.87-1.27 2.87-2.688v-1.711c0-.675.535-1.223 1.195-1.223h.837c.66 0 1.196.547 1.196 1.223v1.71zM16.902 1C20.27 1 23 3.79 23 7.233v1.711c0 .675-.535 1.223-1.196 1.223h-1.076c-.66 0-1.195-.548-1.195-1.223v-1.71c0-1.418-1.244-2.934-2.63-2.934h-1.675c-.66 0-1.195-.547-1.195-1.222v-.856c0-.675.535-1.222 1.195-1.222h1.674zM7.098 23C3.73 23 1 20.21 1 16.767v-1.711c0-.675.535-1.223 1.196-1.223h1.076c.66 0 1.195.547 1.195 1.223v1.71c0 1.418 1.244 2.934 2.63 2.934h1.675c.66 0 1.195.547 1.195 1.222v.856c0 .675-.535 1.222-1.195 1.222H7.098z"></path></svg>