<svg fill="currentColor" fill-rule="evenodd" height="1em" style="flex:none;line-height:1" viewBox="0 0 58 24" xmlns="http://www.w3.org/2000/svg"><title>CodeBuddy</title><path d="M13.9 18.777c0 .314.009.639.028.973.028.324.1.62.216.887.124.267.315.487.573.659.258.162.621.243 1.09.243.468 0 .827-.081 1.076-.243.258-.172.448-.392.573-.659a2.42 2.42 0 00.215-.887c.029-.334.043-.659.043-.973V12.91h2.796v6.253c0 1.68-.386 2.905-1.16 3.678-.765.772-1.946 1.159-3.543 1.159-1.597 0-2.783-.387-3.557-1.16-.774-.772-1.162-1.998-1.162-3.677V12.91H13.9v5.867zM49.797 17.01l1.77 1.454-1.77 1.455L44.045 24v-3.473l3.023-2.077-3.023-2.063v-3.472l5.752 4.095zM57 23.917h-5.504v-2.969H57v2.969z"></path><path clip-rule="evenodd" d="M5.704 12.831c1.874 0 3.393 1.36 3.393 3.228 0 .61-.163 1.183-.448 1.678a3.598 3.598 0 011.22 2.701c0 1.995-1.624 3.458-3.625 3.458H1.54V12.83h4.164zm-1.85 8.76h2.164c.341 0 .667-.141.9-.39a1.226 1.226 0 000-1.68 1.236 1.236 0 00-.9-.389H3.853v2.459zm0-4.457h1.785a.997.997 0 100-1.998H3.853v1.998zM26.293 12.908c3.024 0 5.474 2.443 5.475 5.455 0 3.013-2.451 5.456-5.475 5.456H22.36v-10.91h3.932zm-1.31 8.299h1.31a2.848 2.848 0 002.853-2.844 2.848 2.848 0 00-2.853-2.843h-1.31v5.687zM37.089 12.908c3.023 0 5.475 2.443 5.475 5.455 0 3.013-2.452 5.456-5.475 5.456h-3.933v-10.91h3.933zm-1.311 2.612v5.687h1.31a2.848 2.848 0 002.854-2.844 2.849 2.849 0 00-2.853-2.843h-1.311zM15.793 0c.728 0 1.4.144 2.015.432a4.605 4.605 0 011.582 1.17 5.419 5.419 0 011.043 1.77c.248.669.372 1.393.372 2.173s-.124 1.51-.372 2.188a5.45 5.45 0 01-1.043 1.755c-.44.502-.967.896-1.582 1.184a4.829 4.829 0 01-2.015.418c-.735 0-1.41-.14-2.025-.418a4.8 4.8 0 01-1.571-1.184 5.571 5.571 0 01-1.032-1.755 6.325 6.325 0 01-.37-2.188c0-.78.123-1.504.37-2.173a5.54 5.54 0 011.032-1.77A4.721 4.721 0 0115.793 0zm0 2.647c-.343 0-.671.075-.983.223a2.42 2.42 0 00-.803.599c-.231.26-.415.567-.551.92a3.19 3.19 0 00-.204 1.156c0 .418.068.803.204 1.156.136.353.32.66.552.92.231.26.499.465.802.613.312.14.64.209.983.209.344 0 .668-.07.972-.209.312-.148.583-.353.815-.613.24-.26.428-.567.563-.92.136-.353.204-.738.204-1.156 0-.418-.068-.803-.204-1.156a2.855 2.855 0 00-.563-.92 2.385 2.385 0 00-.815-.599 2.183 2.183 0 00-.972-.223z"></path><path d="M39.472 2.441h-3.403V8.65h3.403v2.441h-6.264V0h6.264v2.441zM9.252 2.69H6.476a2.849 2.849 0 00-2.854 2.842 2.848 2.848 0 002.854 2.843h2.776v2.613H6.476C3.452 10.988 1 8.545 1 5.532 1 2.52 3.452.077 6.476.077h2.776v2.612z"></path><path clip-rule="evenodd" d="M26.293.077c3.024 0 5.475 2.442 5.475 5.455s-2.451 5.456-5.475 5.456H22.36V.077h3.932zm-1.31 8.298h1.31a2.848 2.848 0 002.853-2.843 2.848 2.848 0 00-2.853-2.843h-1.31v5.686z"></path><path d="M42.63 6.53h-3.184V4.166h3.184v2.362z"></path></svg>