<svg fill="currentColor" fill-rule="evenodd" height="1em" style="flex:none;line-height:1" viewBox="0 0 24 24" width="1em" xmlns="http://www.w3.org/2000/svg"><title>CodeFlicker</title><path d="M4.707 6.24V3.5H0v16.977h4.707v-2.74H2.94V6.24h1.766z"></path><path d="M20.868 3.5h-1.575v2.74h1.775v11.497h-1.775v2.74H24V3.5h-3.132zM13.22 3.5l-.55 3.082H9.623l.541-3.082h3.057zM14.395 8.398l-2.133 12.08H9.213l2.125-12.08h3.057z" fill="#32EDDA"></path><path d="M14.395 8.398l-2.133 12.08h7.031v-2.741h1.775V8.398h-6.673z" fill="url(#lobe-icons-code-flicker-fill-0)"></path><path d="M9.622 6.583l1.716 1.816h3.057l-1.724-1.816H9.62z" fill="url(#lobe-icons-code-flicker-fill-1)"></path><path d="M13.22 3.5h6.073v2.74h1.775v2.158h-6.673L12.67 6.582l.55-3.082z" fill="url(#lobe-icons-code-flicker-fill-2)"></path><defs><linearGradient gradientUnits="userSpaceOnUse" id="lobe-icons-code-flicker-fill-0" x1="10.505" x2="20.36" y1="13.772" y2="14.838"><stop stop-color="#32EDDA"></stop><stop offset=".09" stop-color="#48EEDD" stop-opacity=".89"></stop><stop offset=".43" stop-color="#95F5EB" stop-opacity=".51"></stop><stop offset=".7" stop-color="#CEFAF6" stop-opacity=".24"></stop><stop offset=".9" stop-color="#F1FDFC" stop-opacity=".07"></stop><stop offset="1" stop-color="#fff" stop-opacity="0"></stop></linearGradient><linearGradient gradientUnits="userSpaceOnUse" id="lobe-icons-code-flicker-fill-1" x1="11.854" x2="12.321" y1="6.258" y2="9.998"><stop offset=".01" stop-color="#32EDDA"></stop><stop offset=".06" stop-color="#4CEFDE" stop-opacity=".87"></stop><stop offset=".15" stop-color="#76F2E6" stop-opacity=".67"></stop><stop offset=".25" stop-color="#9AF6EC" stop-opacity=".49"></stop><stop offset=".35" stop-color="#B9F8F2" stop-opacity=".34"></stop><stop offset=".45" stop-color="#D3FBF7" stop-opacity=".21"></stop><stop offset=".56" stop-color="#E6FCFA" stop-opacity=".12"></stop><stop offset=".68" stop-color="#F4FEFD" stop-opacity=".05"></stop><stop offset=".82" stop-color="#FCFEFE" stop-opacity=".01"></stop><stop offset="1" stop-color="#fff" stop-opacity="0"></stop></linearGradient><linearGradient gradientUnits="userSpaceOnUse" id="lobe-icons-code-flicker-fill-2" x1="13.112" x2="20.41" y1="2.9" y2="8.873"><stop stop-color="#32EDDA"></stop><stop offset=".1" stop-color="#5BF0E1" stop-opacity=".8"></stop><stop offset=".23" stop-color="#86F4E9" stop-opacity=".59"></stop><stop offset=".35" stop-color="#ABF7EF" stop-opacity=".41"></stop><stop offset=".48" stop-color="#C9FAF5" stop-opacity=".26"></stop><stop offset=".6" stop-color="#E1FCF9" stop-opacity=".15"></stop><stop offset=".73" stop-color="#F1FDFC" stop-opacity=".06"></stop><stop offset=".86" stop-color="#FBFEFE" stop-opacity=".02"></stop><stop offset="1" stop-color="#fff" stop-opacity="0"></stop></linearGradient></defs></svg>