<svg fill="currentColor" fill-rule="evenodd" height="1em" style="flex:none;line-height:1" viewBox="0 0 153 24" xmlns="http://www.w3.org/2000/svg"><title>CodeFlicker</title><path d="M37.94 19.76c-1.08 0-1.95-.87-1.95-1.95v-5.56c0-1.08.87-1.95 1.95-1.95h2.89V7.57h-4.06c-2.15 0-3.9 1.75-3.9 3.9v7.12c0 2.15 1.75 3.9 3.9 3.9h10.26v-2.73h-1.57V4.24h1.57V1.51h-4.69v18.24M66.61 1.51h-3.12v20.98h3.12V1.51zM112.56 19.76h-4.69v2.73h4.69v-2.73zM84.33 19.76h-6.36v2.73h6.36v-2.73z"></path><path d="M79.54 21.38h3.12V1.51H78.44l-.47 2.73h1.57v17.14zM118.81 7.57l-1.31 1.16-4.83 4.26-.03.03-.08.07V1.51H109.44v20.98h3.12v-7.21l5.28 6.28.77.93H122.25v-2.5h-1.92l-.21-.24-4.73-5.53 4.63-3.92.37-.32H122.25V7.57h-3.44zM2.09 5.41v13.18c0 2.15 1.75 3.9 3.9 3.9h11.28V19.5H7.41c-1.08 0-1.95-.87-1.95-1.95V6.45c0-1.08.87-1.95 1.95-1.95h9.85V1.51H5.99c-2.15 0-3.9 1.75-3.9 3.9zM93.81 11.47v7.12c0 2.15 1.75 3.9 3.9 3.9h8.74v-2.73h-7.57c-1.08 0-1.95-.87-1.95-1.95v-5.56c0-1.08.87-1.95 1.95-1.95h7.57V7.57h-8.74c-2.15 0-3.9 1.75-3.9 3.9zM27.49 7.58h-4.84c-2.15 0-3.9 1.75-3.9 3.9v7.12c0 2.15 1.75 3.9 3.9 3.9h4.84c2.15 0 3.9-1.75 3.9-3.9v-7.12c0-2.15-1.75-3.9-3.9-3.9zm.78 10.23c0 1.08-.87 1.95-1.95 1.95h-2.51c-1.08 0-1.95-.87-1.95-1.95v-5.56c0-1.08.87-1.95 1.95-1.95h2.51c1.08 0 1.95.87 1.95 1.95v5.56zM61.22 11.47c0-2.15-1.75-3.9-3.9-3.9h-4.84c-2.15 0-3.9 1.75-3.9 3.9v7.12c0 2.15 1.75 3.9 3.9 3.9h8.24l.51-2.73h-7.57c-1.08 0-1.95-.87-1.95-1.95v-1.16h9.52v-5.17l-.01-.01zm-9.52.78c0-1.08.87-1.95 1.95-1.95h2.58c1.08 0 1.95.87 1.95 1.95v1.66H51.7v-1.66zM147.18 19.75h-8.2v2.73h8.2v-2.73z"></path><path d="M144.08 7.57c-1.52 0-2.75 1.23-2.75 2.75v11.92h3.12V10.96c0-.36.29-.65.65-.65h5.49V7.58h-6.51v-.01zM90.36 1.53h-3.39l-.67 3.8h3.39l.67-3.8zM85.79 22.48h3.39l2.63-14.91h-3.39l-2.63 14.91zM141.33 7.57h-3.38v2.73h3.38V7.57zM65.05 4.24h10.61l.49-2.73h-11.1v2.73zM66.05 13.36h8.2l.48-2.72h-8.68v2.72zM136.42 11.47c0-2.15-1.75-3.9-3.9-3.9h-4.84c-2.15 0-3.9 1.75-3.9 3.9v7.12c0 2.15 1.75 3.9 3.9 3.9h8.24l.51-2.73h-7.57c-1.08 0-1.95-.87-1.95-1.95v-1.16h9.52v-5.17l-.01-.01zm-9.52.78c0-1.08.87-1.95 1.95-1.95h2.58c1.08 0 1.95.87 1.95 1.95v1.66h-6.48v-1.66z"></path></svg>