<svg fill="currentColor" fill-rule="evenodd" height="1em" style="flex:none;line-height:1" viewBox="0 0 103 24" xmlns="http://www.w3.org/2000/svg"><title>CogVideo</title><path clip-rule="evenodd" d="M57.806 3.85c-.417-.415-.604-.957-.604-1.602 0-.666.208-1.207.604-1.624.416-.416.916-.624 1.56-.624.646 0 1.146.208 1.562.624.396.417.604.958.604 1.624 0 .625-.208 1.166-.604 1.582-.416.437-.916.645-1.561.645-.645 0-1.145-.208-1.561-.624zm-.437 14.988a.267.267 0 01-.084-.208V5.974c0-.083.021-.167.084-.229a.267.267 0 01.208-.083h3.538c.084 0 .146.02.209.083.062.062.083.125.083.229V18.63c0 .083-.021.166-.083.208a.267.267 0 01-.209.083h-3.538a.267.267 0 01-.208-.083zM2.833 16.069c.54.979 1.332 1.728 2.33 2.27 1 .52 2.166.79 3.498.79 1.332 0 2.498-.25 3.497-.75.999-.499 1.77-1.227 2.331-2.143.562-.916.833-1.998.833-3.206 0-.083-.021-.145-.083-.187a.267.267 0 00-.209-.083l-3.538-.188c-.188 0-.292.105-.292.292 0 .79-.25 1.415-.707 1.894-.48.479-1.083.708-1.853.708s-1.395-.23-1.852-.708c-.48-.479-.708-1.103-.708-1.894V7.036c0-.791.25-1.416.708-1.915.478-.48 1.082-.729 1.852-.729s1.374.229 1.853.708c.478.479.707 1.103.707 1.915 0 .187.084.291.292.291l3.538-.229c.084 0 .146-.041.209-.083a.267.267 0 00.083-.208c0-1.187-.27-2.248-.833-3.164-.541-.916-1.332-1.624-2.331-2.123-1-.5-2.165-.75-3.497-.75-1.332 0-2.498.25-3.497.791-1 .542-1.77 1.27-2.331 2.248C2.27 4.767 2 5.87 2 7.14v5.537c0 1.29.27 2.414.833 3.392zm13.634-1.498c.333 1.394 1.04 2.518 2.081 3.33 1.04.812 2.31 1.228 3.851 1.25 1.499 0 2.79-.438 3.83-1.27 1.04-.833 1.728-1.978 2.082-3.414.187-.729.27-1.478.27-2.27 0-.873-.125-1.685-.354-2.455-.416-1.333-1.103-2.394-2.123-3.144-.999-.77-2.248-1.144-3.705-1.144-1.478 0-2.727.395-3.768 1.144-1.04.75-1.748 1.811-2.123 3.164-.229.729-.333 1.561-.333 2.498 0 .833.084 1.603.292 2.31zm7.764-.854c-.146.541-.375.979-.687 1.29a1.616 1.616 0 01-1.187.48c-.478 0-.874-.167-1.207-.48-.333-.311-.562-.748-.687-1.29a6.286 6.286 0 01-.146-1.457c0-.562.042-1.061.146-1.478.312-1.103.937-1.665 1.894-1.665.48 0 .875.146 1.187.437.312.292.541.687.666 1.228.104.458.166.958.166 1.478s-.041 1.02-.145 1.457zM37.49 5.745a.267.267 0 01.208-.083h3.539c.083 0 .145.02.208.083.062.062.083.125.083.229v11.47c0 2.351-.645 4.017-1.977 5.036-1.312 1-2.977 1.52-4.975 1.52-.75 0-1.54-.063-2.373-.208-.167-.021-.25-.125-.25-.333l.125-3.185c0-.125.042-.208.104-.25.063-.041.146-.041.25-.02.687.145 1.311.228 1.894.228.937 0 1.686-.229 2.248-.666.562-.437.833-1.144.833-2.102l-.167.187c-.603.625-1.457.916-2.58.916-1.104 0-2.103-.25-3.019-.75-.916-.499-1.561-1.373-1.977-2.622-.271-.812-.396-1.832-.396-3.039 0-1.311.166-2.394.479-3.226.374-1.062.999-1.915 1.831-2.54a4.754 4.754 0 012.915-.957c1.186 0 2.123.374 2.768 1.124.042.041.063.041.104.041.042-.02.042-.041.042-.083v-.562c0-.083.02-.146.083-.208zm-.083 6.411c0-.458-.021-.833-.042-1.082a2.842 2.842 0 00-.208-.75 1.623 1.623 0 00-.645-.874c-.292-.208-.646-.312-1.062-.312-.79 0-1.332.395-1.665 1.207-.25.479-.375 1.103-.375 1.894 0 .833.104 1.457.333 1.853.146.354.375.645.666.874.292.23.646.333 1.062.333.853 0 1.415-.395 1.686-1.186.167-.437.25-1.083.25-1.957zm4.371-10.845l5.017 17.36c.062.167.166.25.312.25h3.788c.167 0 .291-.083.333-.25l5.142-17.36a.256.256 0 00-.021-.25c-.063-.062-.125-.103-.23-.103h-3.725c-.188 0-.313.083-.354.25l-2.81 11.677c-.021.062-.042.083-.083.083-.042 0-.063-.042-.084-.083L46.191 1.207c-.063-.166-.167-.25-.354-.25h-3.81c-.187 0-.27.084-.27.25l.021.104zm46.19 12.156c.207 0 .311-.104.332-.312.042-.853.02-1.52-.104-1.998a7.75 7.75 0 00-1.061-2.935 5.973 5.973 0 00-2.103-2.04c-.853-.479-1.832-.728-2.935-.728-1.353 0-2.54.353-3.518 1.082-.978.729-1.686 1.728-2.123 2.997a8.037 8.037 0 00-.395 2.56c0 1.291.166 2.353.52 3.206.479 1.207 1.228 2.165 2.29 2.831 1.061.687 2.331 1.02 3.85 1.02 1.02 0 1.957-.187 2.81-.52a5.581 5.581 0 002.145-1.478c.062-.063.104-.146.104-.208a.256.256 0 00-.104-.209l-1.915-2.268c-.063-.063-.125-.104-.209-.104a.288.288 0 00-.229.124c-.582.708-1.415 1.062-2.456 1.062-.583 0-1.082-.104-1.478-.333a2.408 2.408 0 01-.895-.874 3.448 3.448 0 01-.25-.75c-.02-.02-.02-.062.021-.083a.545.545 0 00.03-.016.136.136 0 01.075-.026h7.597zm-7.66-2.58a2.87 2.87 0 01.124-.542c.27-.832.832-1.249 1.707-1.27.479 0 .853.105 1.165.334.313.228.542.54.646.978.062.208.104.374.104.52 0 .063-.042.104-.104.104H80.41c-.104 0-.146-.041-.104-.125zM91.338 17.9c-1.04-.812-1.748-1.936-2.081-3.33-.209-.708-.292-1.478-.292-2.31 0-.938.104-1.77.333-2.499.375-1.353 1.083-2.414 2.123-3.164 1.041-.749 2.29-1.144 3.768-1.144 1.457 0 2.706.374 3.705 1.144 1.02.75 1.707 1.811 2.123 3.144.229.77.354 1.581.354 2.456 0 .79-.083 1.54-.271 2.269-.353 1.436-1.04 2.58-2.081 3.413-1.04.833-2.331 1.27-3.83 1.27-1.54-.02-2.81-.437-3.85-1.249zm5.017-2.893c.312-.312.54-.75.687-1.29.104-.438.145-.937.145-1.458 0-.52-.062-1.02-.166-1.478-.146-.54-.354-.936-.666-1.228-.313-.291-.708-.437-1.187-.437-.957 0-1.603.562-1.894 1.665-.104.417-.146.916-.146 1.478 0 .541.042 1.02.146 1.457.125.541.354.979.687 1.29.333.313.728.48 1.207.48.458 0 .854-.167 1.187-.48zM74.686.978c.084 0 .147.021.21.084a.267.267 0 01.082.208v17.36c0 .083-.02.145-.083.208a.267.267 0 01-.208.083h-3.539a.267.267 0 01-.208-.083c-.062-.042-.083-.125-.083-.208v-.854c0-.041 0-.062-.042-.083-.041 0-.062 0-.104.042-.666.936-1.623 1.415-2.872 1.415a4.632 4.632 0 01-2.998-1.062c-.874-.707-1.478-1.665-1.852-2.872-.27-.916-.396-1.915-.396-2.977 0-1.186.167-2.269.52-3.226a5.488 5.488 0 011.832-2.56c.854-.646 1.874-.979 3.06-.979 1.187 0 2.082.396 2.706 1.208.042.041.084.062.104.041a.16.16 0 00.042-.104V1.29c0-.104.02-.166.083-.228a.267.267 0 01.208-.084h3.539zM68.11 14.925l2.665-1.583c.853-.52.853-1.81 0-2.352l-2.665-1.582c-.853-.5-1.935.146-1.935 1.166v3.185c0 1.04 1.082 1.686 1.935 1.165z"></path></svg>