<svg fill="currentColor" fill-rule="evenodd" height="1em" style="flex:none;line-height:1" viewBox="0 0 112 24" xmlns="http://www.w3.org/2000/svg"><title>CometAPI</title><path d="M4.126 3.86C5.974 2.1 8.489 1.617 10.87 2.295c2.497.711 4.172 2.97 4.635 5.482.002.01.002.02-.001.03a.069.069 0 01-.015.027.075.075 0 01-.024.02.076.076 0 01-.03.006h-2.896a.178.178 0 01-.168-.121c-1.392-4.143-6.986-3.355-7.335.986-.154 1.907-.15 4.1.008 6.581.146 2.3 2.04 3.975 4.334 3.64 1.505-.22 2.347-1.242 3.004-2.53a.182.182 0 01.162-.098h2.846a.098.098 0 01.076.035c.009.011.015.025.018.04a.1.1 0 01.001.042c-.83 4.059-4.356 6.28-8.33 5.36-2.838-.657-4.928-3.157-5.061-6.152-.129-2.906-.125-5.395.011-7.465.112-1.701.786-3.14 2.02-4.316zM54.21 8.552a5.625 5.625 0 016.885.6c1.857 1.715 1.814 4.165 1.74 6.665a.1.1 0 01-.1.098h-8.24a.093.093 0 00-.037.006.095.095 0 00-.03.022.093.093 0 00-.02.03.098.098 0 00-.008.037c.014.594.085 1.04.216 1.337.58 1.315 1.59 1.971 3.028 1.969 1.029-.003 1.978-.437 2.848-1.303a.105.105 0 01.071-.03.11.11 0 01.075.026l1.837 1.614a.11.11 0 01.011.154c-1.311 1.519-2.994 2.26-5.047 2.222a6.038 6.038 0 01-3.377-1.087c-1.297-.888-2.095-2.649-2.298-4.128-.368-2.67-.135-6.563 2.446-8.232zm-31.385-.918c3.168-.001 5.332 2.249 5.533 5.36.048.742.073 1.348.075 1.817 0 .47-.024 1.075-.07 1.816-.199 3.112-2.36 5.364-5.53 5.368-3.168.002-5.333-2.249-5.533-5.363a30.426 30.426 0 01-.075-1.814c0-.47.024-1.074.07-1.816.199-3.112 2.36-5.366 5.53-5.368zm45.45-4.05a.107.107 0 01.106.107v4.014a.11.11 0 00.11.11h1.758c.014 0 .03.002.043.008a.112.112 0 01.06.06.113.113 0 01.01.043v1.99a.104.104 0 01-.03.073.105.105 0 01-.073.03h-1.774a.104.104 0 00-.105.104v8.176c0 1.09 1.176.833 1.87.856a.113.113 0 01.111.113v2.46c0 .03-.011.06-.032.081a.114.114 0 01-.078.036c-.595.027-1.178.017-1.746-.03-1.794-.15-2.889-1.548-2.903-3.337a885.558 885.558 0 01-.01-8.334.12.12 0 00-.035-.088.124.124 0 00-.086-.037h-1.14a.09.09 0 01-.064-.025.088.088 0 01-.026-.063V7.927a.114.114 0 01.113-.113h1.124c.03 0 .058-.012.08-.033a.111.111 0 00.033-.08V3.649c0-.017.007-.033.02-.045a.065.065 0 01.045-.02h2.618zm13.037-1.39a.088.088 0 01.08.057l6.877 19.528a.058.058 0 01-.006.05.053.053 0 01-.02.017.052.052 0 01-.024.006H85.31a.118.118 0 01-.111-.08l-1.51-4.286a.068.068 0 00-.025-.03.066.066 0 00-.036-.011h-6.983a.066.066 0 00-.061.043l-1.508 4.287a.117.117 0 01-.112.079l-2.907.002a.055.055 0 01-.025-.006.053.053 0 01-.018-.018.057.057 0 01-.01-.024.058.058 0 01.003-.025l6.87-19.532a.084.084 0 01.031-.04.089.089 0 01.049-.014 97.875 97.875 0 012.354-.002zM33.75 8.778c1.373-1.321 3.76-1.404 5.417-.675.386.17.924.598 1.612 1.285a.107.107 0 00.082.03.11.11 0 00.078-.04c.708-.863 1.726-1.406 3.053-1.628 1.883-.316 3.417.11 4.603 1.278.825.812 1.264 1.903 1.316 3.272.028.74.033 3.886.016 9.439 0 .03-.012.06-.034.082a.116.116 0 01-.082.033h-2.553a.114.114 0 01-.08-.031.114.114 0 01-.033-.078c-.009-.491-.007-2.994.006-7.508.004-1.136-.087-1.89-.27-2.263-.531-1.076-1.638-1.582-2.838-1.452-1.06.114-1.806.65-2.235 1.605-.189.424-.273 1.195-.251 2.313.008.494.009 2.944.002 7.348a.067.067 0 01-.067.066h-2.565a.106.106 0 01-.106-.105c-.008-4.3-.008-6.673.003-7.118.03-1.243-.052-2.085-.246-2.527-.393-.892-1.067-1.41-2.021-1.557-1.44-.221-2.75.43-3.192 1.83-.093.296-.138.83-.135 1.601.011 2.112.013 4.7.005 7.767a.11.11 0 01-.11.109h-2.57a.11.11 0 01-.076-.03.107.107 0 01-.032-.075V7.925a.113.113 0 01.07-.103.114.114 0 01.043-.008h2.57c.029 0 .055.01.075.03.02.02.03.047.03.074v1.197a.06.06 0 00.01.031.058.058 0 00.056.027.06.06 0 00.03-.011 7.02 7.02 0 00.419-.385zM98.26 2.189c.884-.001 1.675.16 2.374.487 1.963.916 3.081 2.47 3.353 4.66.438 3.514-1.926 6.776-5.601 6.808-2.385.022-3.9.027-4.545.017a.124.124 0 00-.09.034.124.124 0 00-.036.088v7.467c0 .028-.01.055-.03.074a.1.1 0 01-.07.029h-2.754a.072.072 0 01-.071-.073V2.245a.056.056 0 01.016-.04.057.057 0 01.04-.016h7.414zm11.719 0c.039 0 .071.032.071.07v19.523a.071.071 0 01-.071.07h-2.783a.07.07 0 01-.07-.07V2.259a.07.07 0 01.07-.07h2.783zm-87.153 8.31c-1.31.002-2.35.774-2.655 2.06-.135.56-.201 1.316-.201 2.264 0 .947.067 1.7.203 2.262.308 1.285 1.347 2.057 2.657 2.057 1.31-.002 2.348-.773 2.654-2.058.135-.562.202-1.317.202-2.265 0-.947-.067-1.701-.203-2.263-.308-1.285-1.347-2.056-2.657-2.056zM80.11 6.367a.06.06 0 00-.021.028l-2.666 8.316a.06.06 0 00-.002.028.06.06 0 00.012.025.061.061 0 00.021.019.059.059 0 00.026.006h5.329c.009 0 .018-.002.027-.006a.063.063 0 00.032-.044.06.06 0 00-.002-.028L80.2 6.395a.06.06 0 00-.09-.028zM57.095 10.33c-.711 0-1.392.314-1.895.872a3.149 3.149 0 00-.785 2.103v.23a.037.037 0 00.01.026.041.041 0 00.013.01l.015.003h5.55c.01 0 .02-.005.027-.012a.038.038 0 00.012-.026v-.23a3.15 3.15 0 00-.785-2.104c-.503-.558-1.185-.872-1.896-.872h-.266zm36.69-5.317a.069.069 0 00-.05.02.07.07 0 00-.02.049v6.173a.068.068 0 00.07.069h4.307a3.052 3.052 0 003.05-3.051v-.209a3.051 3.051 0 00-3.05-3.05h-4.308z"></path></svg>