<svg fill="currentColor" fill-rule="evenodd" height="1em" style="flex:none;line-height:1" viewBox="0 0 83 24" xmlns="http://www.w3.org/2000/svg"><title>ComfyUI</title><path d="M68.127 23c-.429 0-.775-.158-1-.458-.232-.308-.293-.738-.166-1.18l.782-2.729c.258-.902 1.203-1.637 2.105-1.637H71.6a.467.467 0 00.45-.338l.302-1.056a.469.469 0 00-.45-.597l-3.842.001a.449.449 0 00-.064-.004h-1.294c-.43 0-.776-.159-1.001-.458-.232-.308-.293-.738-.166-1.18l.15-.526a.468.468 0 00-.448-.597h-.496a.467.467 0 00-.45.34l-.225.784c-.258.902-1.202 1.637-2.104 1.637h-1.75a.468.468 0 00-.448.337l-.498 1.722-.01.03-.709 2.46a.52.52 0 00-.01.03l-.513 1.781C57.766 22.266 56.822 23 55.92 23h-2.727c-.43 0-.776-.158-1.001-.458-.232-.308-.293-.738-.166-1.179l2.286-7.935.01-.033.16-.557a.468.468 0 00-.449-.597h-.49a.467.467 0 00-.45.338l-.995 3.45a.433.433 0 00-.01.032l-.375 1.302c-.259.903-1.203 1.638-2.105 1.638H46.88c-.429 0-.775-.158-1-.458-.232-.308-.293-.738-.166-1.18l1.657-5.758a.468.468 0 00-.449-.597h-.494a.468.468 0 00-.45.338l-.706 2.463a.526.526 0 00-.01.03l-1.016 3.524c-.26.903-1.204 1.638-2.105 1.638h-2.728c-.429 0-.775-.158-1-.458-.233-.308-.293-.738-.167-1.18l.783-2.729a.488.488 0 00.009-.03l.867-3.004a.468.468 0 00-.449-.597h-.489a.468.468 0 00-.45.338l-.07.245a.737.737 0 00-.01.031l-1.595 5.524-.01.032-.054.192c-.259.901-1.203 1.636-2.105 1.636h-2.727c-.43 0-.776-.158-1.001-.458-.232-.308-.292-.738-.166-1.18l.15-.524a.468.468 0 00-.449-.596h-.494a.467.467 0 00-.45.338l-.225.782c-.259.903-1.203 1.638-2.105 1.638h-1.768a.467.467 0 00-.449.339l-.58 2.023c-.258.903-1.203 1.637-2.105 1.637h-2.727c-.43 0-.775-.158-1-.458-.233-.308-.293-.738-.167-1.18l.506-1.765a.468.468 0 00-.45-.596h-1.455c-.429 0-.775-.158-1-.458-.233-.308-.293-.738-.167-1.179l.15-.525a.468.468 0 00-.449-.596h-.495a.467.467 0 00-.45.338l-.224.783C14.117 18.267 13.173 19 12.27 19l-3.736.006H5.8c-.43 0-.775-.158-1.001-.457-.232-.308-.292-.738-.166-1.18l.508-1.772a.468.468 0 00-.45-.596h-1.46c-.429 0-.775-.159-1-.458-.232-.308-.293-.738-.166-1.18l1.36-4.728.01-.032.439-1.523a.484.484 0 00.01-.033l.118-.412c.259-.903 1.203-1.637 2.105-1.637h1.747a.467.467 0 00.45-.339l.577-2.016c.259-.903 1.203-1.637 2.105-1.637L14.73 1h2.727c.43 0 .775.158 1 .458.233.308.293.738.167 1.179l-.782 2.73c-.259.902-1.203 1.637-2.105 1.637l-3.745.007h-1.746a.468.468 0 00-.45.338l-.77 2.683a.708.708 0 00-.009.03l-.676 2.343a.468.468 0 00.45.597l2.473-.005h2.727c.43 0 .775.159 1.001.458.232.308.292.738.166 1.18l-.156.543a.468.468 0 00.45.597h.495a.468.468 0 00.45-.339l.294-1.024 1.09-3.776c.26-.904 1.203-1.638 2.106-1.638h1.74a.467.467 0 00.45-.339l.578-2.018c.259-.902 1.203-1.637 2.105-1.637h2.727c.43 0 .775.158 1.001.458.232.308.293.738.166 1.179L28.15 8.4a.468.468 0 00.449.597h1.482c.43 0 .775.159 1.001.458.232.308.293.738.166 1.18l-1.306 4.542a.468.468 0 00.449.597h.491a.468.468 0 00.45-.338l.614-2.135.01-.03 1.594-5.524a.637.637 0 00.01-.031l.311-1.08c.26-.903 1.204-1.638 2.105-1.638h6.46c.429 0 .775.159 1 .458.233.308.293.738.167 1.179L43.097 8.4a.467.467 0 00.45.597h.509a.467.467 0 00.449-.338l.578-2.019c.259-.902 1.203-1.637 2.105-1.637h2.727c.43 0 .776.158 1.001.458.232.308.293.738.166 1.18l-.504 1.76a.468.468 0 00.45.596h1.456c.429 0 .775.159 1 .458.232.308.292.738.166 1.18l-.155.541a.467.467 0 00.45.597h.493a.468.468 0 00.45-.338l1.386-4.799c.258-.904 1.203-1.638 2.105-1.638h1.753a.467.467 0 00.45-.339l.58-2.023C61.42 1.734 62.363 1 63.265 1h2.727c.43 0 .776.158 1.001.458.232.308.293.738.166 1.18l-.782 2.729c-.258.903-1.203 1.637-2.105 1.637H62.52a.468.468 0 00-.45.339l-.303 1.059a.468.468 0 00.45.596h1.466c.429 0 .775.159 1 .458.233.308.293.738.167 1.18l-.156.541a.468.468 0 00.45.597h.495a.467.467 0 00.45-.338l1.384-4.799c.259-.903 1.203-1.638 2.105-1.638h2.727c.43 0 .776.158 1.001.458.232.308.293.738.166 1.18l-1.23 4.284a.52.52 0 00-.01.03l-.133.459a.469.469 0 00.45.597h.487a.467.467 0 00.45-.338l1.45-5.032C75.195 5.734 76.14 5 77.041 5h2.728c.428 0 .774.159 1 .458.232.308.293.738.166 1.18l-3.088 10.726c-.259.904-1.203 1.638-2.105 1.638H73.99a.467.467 0 00-.45.339l-.58 2.023c-.258.903-1.202 1.637-2.104 1.637h-2.728zm-44.1-11.992a.468.468 0 00-.45.338l-1.455 5.053a.468.468 0 00.449.597h.494a.467.467 0 00.449-.338l1.455-5.053a.468.468 0 00-.45-.597h-.493z"></path></svg>