<svg fill="currentColor" fill-rule="evenodd" height="1em" style="flex:none;line-height:1" viewBox="0 0 94 24" xmlns="http://www.w3.org/2000/svg"><title>ComfyUI</title><path d="M10.272 19.58C5.284 19.58 2 15.95 2 10.79 2 5.728 5.26 2 10.296 2c4.321 0 6.79 2.74 7.506 5.53l-2.592.618c-.47-2.074-2.074-4.05-4.938-4.05-3.531 0-5.68 2.766-5.68 6.692 0 3.95 2.149 6.692 5.704 6.692 2.914 0 4.47-1.803 5.037-4.173l2.593.617c-.889 3.16-3.482 5.654-7.654 5.654zm14.686 0c-3.704 0-5.975-2.79-5.975-6.395 0-3.58 2.271-6.395 5.975-6.395 3.679 0 5.95 2.815 5.95 6.395 0 3.605-2.271 6.395-5.95 6.395zm-3.481-6.395c0 2.42 1.086 4.42 3.481 4.42 2.37 0 3.457-2 3.457-4.42 0-2.395-1.087-4.42-3.457-4.42-2.395 0-3.481 2-3.481 4.42zm11.498 6.099V7.086h2.395V8.79h.025c.543-.938 1.777-2 3.555-2 1.828 0 3.013.938 3.556 2.296.568-.84 1.778-2.296 4-2.296 2.691 0 4.148 1.803 4.148 4.593v7.901h-2.42v-6.988c0-2.123-.42-3.456-2.345-3.456-1.63 0-2.865 1.407-2.865 3.604v6.84H40.63v-6.938c0-2.198-.395-3.506-2.345-3.506-1.63 0-2.89 1.407-2.89 3.604v6.84h-2.419zm21.205 0V9.062h-2.198V7.086h2.198V4.988c0-2 1.185-2.988 3.21-2.988.666 0 1.11.074 1.53.148v1.926A5.63 5.63 0 0058.032 4c-.939 0-1.432.37-1.432 1.333v1.753h2.444v1.976H56.6v10.222h-2.42zM61.252 24c-.518 0-.84-.05-1.185-.099v-2.05c.37.05.691.1 1.086.1 1.235 0 1.828-.544 2.321-1.704l.42-1.062-4.642-12.099h2.642l3.235 9.358 3.21-9.358h2.642l-5.235 13.655C64.808 23.11 63.4 24 61.252 24zm17.83-4.42c-4.148 0-6.568-2.395-6.568-6.74V2.295h2.543v10.346c0 2.914 1.185 4.765 4.025 4.765 2.963 0 4.049-1.851 4.049-4.765V2.296h2.519V12.84c0 4.346-2.396 6.741-6.568 6.741zm10.014-.296V2.296h2.518v16.988h-2.518z"></path></svg>