<svg fill="currentColor" fill-rule="evenodd" height="1em" style="flex:none;line-height:1" viewBox="0 0 168 24" xmlns="http://www.w3.org/2000/svg"><title>CommandA</title><path d="M145.375 21.333L153.511 0h4.354L166 21.333h-3.655l-2.065-5.558h-9.216l-2.034 5.558h-3.655zm6.769-8.503h7.087l-3.559-9.735-3.528 9.735zM107.12 21.667a.666.666 0 01-.666-.667V6.686c0-.368.298-.666.666-.666h1.351c.362 0 .657.289.665.651l.048 2.084c.432-1.079 1.425-1.863 2.312-2.353.886-.49 1.896-.735 3.03-.735 1.217 0 2.237.264 3.062.794a4.757 4.757 0 011.856 2.117c.433.883.649 1.893.649 3.03V21a.666.666 0 01-.665.667h-1.615a.666.666 0 01-.665-.667v-8.451c0-1.372-.248-2.421-.743-3.147-.474-.745-1.621-1.118-2.776-1.118-1.175 0-2.123.373-2.845 1.118-.701.726-1.384 1.775-1.384 3.147V21a.666.666 0 01-.665.667h-1.615zM94.754 22c-1.601 0-2.883-.372-3.848-1.116-.945-.744-1.417-1.792-1.417-3.144 0-1.331.395-2.38 1.186-3.143.81-.764 2.054-1.312 3.731-1.645l5.294-1.028c0-2.409-1.109-3.613-3.327-3.613-.983 0-1.755.225-2.314.675-.435.351-.766.821-.99 1.41-.116.3-.4.514-.72.493l-1.853-.12c-.397-.027-.686-.396-.574-.78.357-1.224 1.013-2.215 1.968-2.971 1.157-.9 2.651-1.351 4.483-1.351 2.083 0 3.664.568 4.744 1.704 1.1 1.116 1.649 2.692 1.649 4.73v6.08c0 .372.058.636.174.793.135.137.347.206.636.206h.882c.368 0 .666.298.666.666v1.264c0 .314-.221.569-.534.585a38.04 38.04 0 01-1.592.04c-.868 0-1.562-.185-2.083-.558-.521-.372-.839-1.018-.955-1.938-.385.822-1.05 1.488-1.996 1.997-.945.51-2.015.764-3.21.764zm.491-2.468c1.389 0 2.478-.401 3.269-1.204.79-.803 1.186-1.821 1.186-3.055v-.999l-4.513.881c-.925.177-1.58.46-1.967.852-.366.372-.55.852-.55 1.44 0 .666.222 1.184.666 1.557.463.352 1.1.528 1.91.528zM38.592 21.667a.666.666 0 01-.665-.667V6.686c0-.368.298-.666.665-.666h1.386c.361 0 .656.289.665.65l.047 2.026c.417-.941 1.365-1.676 2.178-2.206.813-.549 1.74-.823 2.783-.823 1.23 0 2.262.284 3.096.853.855.568 1.46 1.362 1.814 2.382.375-1.04.97-1.833 1.782-2.382.834-.569 1.845-.853 3.033-.853 1.752 0 3.107.52 4.066 1.558.959 1.02 1.438 2.48 1.438 4.383V21a.666.666 0 01-.665.667h-1.319a.666.666 0 01-.665-.667v-8.627c0-2.726-1.053-4.089-3.824-4.089-1.042 0-1.876.373-2.502 1.118-.625.745-.938 1.775-.938 3.088V21a.666.666 0 01-.665.667h-1.828A.666.666 0 0147.81 21v-8.51c0-1.313-.24-2.343-.72-3.088-.458-.745-1.25-1.118-2.376-1.118-1.063 0-2.24.373-2.866 1.118-.625.745-.938 1.775-.938 3.088V21a.666.666 0 01-.665.667h-1.652zM27.78 22c-1.57 0-2.946-.333-4.125-.999a7.025 7.025 0 01-2.73-2.85c-.641-1.214-.962-2.653-.962-4.318 0-1.664.321-3.104.962-4.318a6.832 6.832 0 012.73-2.82c1.179-.686 2.554-1.028 4.126-1.028 1.572 0 2.947.342 4.126 1.028a6.833 6.833 0 012.73 2.82c.64 1.214.961 2.654.961 4.318 0 1.665-.32 3.104-.961 4.319a7.025 7.025 0 01-2.73 2.85c-1.179.665-2.554.998-4.126.998zm0-2.703c1.407 0 2.826-.48 3.59-1.44.766-.959 1.149-2.3 1.149-4.024 0-1.704-.383-3.035-1.148-3.995-.765-.98-2.184-1.469-3.59-1.469-1.386 0-2.804.49-3.59 1.47-.765.959-1.148 2.29-1.148 3.994 0 1.724.383 3.065 1.148 4.025.786.96 2.204 1.44 3.59 1.44zM10.316 21.314c0 .375-.308.678-.68.641-1.316-.131-2.497-.551-3.544-1.26-1.285-.89-2.288-2.154-3.01-3.795C2.361 15.26 2 13.303 2 11.03c0-2.254.352-4.2 1.056-5.841.15-.346.313-.675.488-.988.204-.365.697-.413.992-.116L5.77 5.32a.708.708 0 01.124.806 8.837 8.837 0 00-.25.575c-.457 1.206-.686 2.649-.686 4.329 0 1.68.229 3.123.686 4.329.476 1.205 1.136 2.124 1.98 2.757a4.653 4.653 0 002.059.88c.352.057.634.346.634.703v1.615zM11.268 21.264c0 .386.326.693.707.639 1.65-.237 3.007-.906 4.07-2.008 1.233-1.278 2.055-2.947 2.464-5.006a.642.642 0 00-.6-.76l-1.65-.098a.698.698 0 00-.715.567c-.267 1.298-.76 2.342-1.479 3.132-.57.615-1.306 1.017-2.205 1.207-.333.07-.592.352-.592.694v1.633zM6.066 1.364a7.74 7.74 0 00-1.105.93.63.63 0 00.019.887l1.147 1.15c.283.283.748.25 1.034-.032.14-.137.285-.266.436-.385.845-.653 1.84-.979 2.983-.979 1.426 0 2.544.415 3.353 1.246.696.713 1.184 1.645 1.464 2.796.08.33.376.568.714.548l1.65-.098a.642.642 0 00.598-.774c-.432-1.948-1.22-3.504-2.366-4.666C14.708.662 12.903 0 10.58 0 8.856 0 7.35.455 6.066 1.364zM81.656 5.667c1.329 0 2.43.299 3.302.897.31.212.315.65.05.917l-1.16 1.161c-.247.248-.64.254-.95.09-.564-.298-1.293-.448-2.211-.448-1.042 0-1.876.373-2.502 1.118-.625.745-.938 1.775-.938 3.088v2.482c0 .408-.362.72-.765.659l-1.828-.278a.666.666 0 01-.565-.66V12.49c0-1.313-.24-2.343-.72-3.088-.458-.745-1.25-1.118-2.376-1.118-1.063 0-2.24.373-2.866 1.118-.625.745-.938 1.775-.938 3.088V21a.666.666 0 01-.665.667h-1.652a.666.666 0 01-.665-.667V6.686c0-.368.298-.666.665-.666h1.386c.361 0 .656.289.665.65l.047 2.026c.417-.941 1.365-1.676 2.178-2.206.813-.549 1.74-.823 2.783-.823 1.23 0 2.262.284 3.096.853.855.568 1.46 1.362 1.814 2.382.375-1.04.969-1.833 1.782-2.382.834-.569 1.845-.853 3.033-.853z"></path><path d="M74.854 16.347a.666.666 0 00-.765.66V21c0 .368.298.667.665.667h1.828a.666.666 0 00.665-.667v-3.716c0-.33-.24-.61-.565-.659l-1.828-.278zM84.51 12.373c0-.819-.094-1.514-.302-2.087-.1-.277-.06-.597.149-.806l1.206-1.208c.291-.292.777-.25.958.12.426.876.64 1.948.64 3.216V21a.666.666 0 01-.666.667h-1.319a.666.666 0 01-.665-.667v-8.627zM129.341 22c-1.413 0-2.639-.335-3.678-1.005-1.039-.67-1.839-1.615-2.4-2.836-.561-1.241-.841-2.699-.841-4.373 0-1.675.28-3.122.841-4.344.078-.17.159-.336.245-.496.207-.383.726-.406 1.007-.073l.988 1.171c.169.2.202.479.116.726-.289.834-.434 1.978-.434 3.016 0 1.674.395 3.014 1.184 4.018.79.985 2.515 1.478 3.844 1.478 1.351 0 2.722-.483 3.449-1.448.728-.965 1.091-2.315 1.091-4.048 0-1.753-.363-3.103-1.091-4.048-.727-.965-2.098-1.448-3.449-1.448-1.104 0-2.688.34-3.419 1.02-.276.255-.725.251-.945-.054l-.955-1.327c-.188-.262-.166-.624.078-.834.217-.189.447-.362.691-.519 1.039-.67 2.265-1.004 3.678-1.004 1.142 0 2.16.226 3.054.68.893.452 1.901 1.083 2.358 1.89V4.843c0-.408.363-.72.765-.659l1.641.25c.325.049.565.329.565.659v15.886a.666.666 0 01-.665.666h-1.448a.666.666 0 01-.665-.64l-.068-1.723c-.457.866-1.486 1.536-2.421 2.009-.914.473-1.953.709-3.116.709zM137.724 2.78c0 .408-.362.72-.765.66l-1.64-.25a.667.667 0 01-.566-.66V.668c0-.369.298-.667.666-.667h1.64c.367 0 .665.298.665.667V2.78z"></path></svg>