<svg height="1em" style="flex:none;line-height:1" viewBox="0 0 24 24" width="1em" xmlns="http://www.w3.org/2000/svg"><title>Coqui</title><path d="M6.014 0c1.75.242 3.099 1.083 4.047 2.522.159.24.306.574.416.778a.077.077 0 00.074.04c.975-.09 1.936-.09 2.882 0a.076.076 0 00.074-.04c.136-.25.294-.603.495-.893.95-1.37 2.273-2.171 3.966-2.407h1.15c.552.103.899.178 1.04.224 1.177.386 2.117 1.07 2.82 2.053a5.374 5.374 0 011.02 3.331c-.026 1.193-.437 2.295-1.234 3.306a.113.113 0 00-.01.126 9.426 9.426 0 011.165 3.35c.043.29.067.623.072.996.007.522.003.856-.011 1.002-.474 4.821-4.392 8.249-8.916 9.274-.657.149-1.376.259-2.157.33H11.09a49.973 49.973 0 01-1.117-.143 12.903 12.903 0 01-2.076-.465c-2.745-.858-5.214-2.641-6.659-5.149-.56-.972-.927-1.95-1.1-2.934a38.037 38.037 0 01-.138-.93v-1.456a9.735 9.735 0 011.239-3.89.103.103 0 00-.01-.117 5.254 5.254 0 01-1.12-2.35C.075 6.383.038 6.208 0 6.03V4.875c.091-.602.222-1.103.392-1.502C1.076 1.765 2.487.51 4.229.131c.212-.046.425-.09.639-.131h1.146zm3.78 5.445a4.344 4.344 0 10-8.687 0 4.344 4.344 0 008.688 0zm13.092 0a4.344 4.344 0 10-8.688 0 4.344 4.344 0 008.688 0zm-10.894 12.55c.165 0 .323-.002.473-.006a31.64 31.64 0 002.6-.183c1.218-.137 2.42-.39 3.604-.759 1.383-.431 3.435-1.327 4.064-2.735.128-.285.175-.651.142-1.097-.099-1.291-.423-2.42-.973-3.39a.036.036 0 00-.039-.017.037.037 0 00-.014.007c-1.017.717-2.076 1.084-3.177 1.1-1.16.018-2.2-.277-3.116-.887-1.41-.938-2.23-2.27-2.458-3.999-.07-.523-.025-.973.058-1.531a.058.058 0 00-.012-.046.06.06 0 00-.042-.023c-.239-.026-.608-.04-1.107-.04-.498 0-.867.014-1.105.04a.062.062 0 00-.042.022.06.06 0 00-.012.046c.082.558.127 1.008.057 1.531-.23 1.728-1.05 3.06-2.46 3.997-.918.609-1.957.904-3.118.886-1.1-.017-2.16-.385-3.176-1.103a.037.037 0 00-.03-.006.036.036 0 00-.023.017c-.55.968-.875 2.097-.974 3.388-.035.446.012.812.14 1.098.628 1.409 2.68 2.305 4.062 2.738 1.185.37 2.386.624 3.604.761.849.097 1.715.158 2.6.185.15.004.308.007.474.007zm.003 4.888c.847 0 1.576-.066 2.473-.239 3.482-.672 6.561-2.855 7.907-6.184a.019.019 0 00-.017-.025c-.004 0-.008.002-.01.004-.43.328-.898.619-1.405.87-1.801.897-3.863 1.387-5.877 1.615-.993.113-2.038.18-3.07.18s-2.076-.067-3.069-.18c-2.014-.23-4.076-.718-5.877-1.615a8.55 8.55 0 01-1.404-.872.02.02 0 00-.011-.003.019.019 0 00-.017.013.019.019 0 000 .012c1.345 3.329 4.424 5.512 7.906 6.184.897.174 1.626.24 2.472.24z" fill="#5EAE91"></path><path d="M5.998 9.24a3.243 3.243 0 100-6.486 3.243 3.243 0 000 6.486zM17.995 9.24a3.243 3.243 0 100-6.486 3.243 3.243 0 000 6.486zM9.228 15.699a.934.934 0 100-1.867.934.934 0 000 1.867zM14.765 15.7a.935.935 0 100-1.87.935.935 0 000 1.87z" fill="#5EAE91"></path></svg>