<svg fill="currentColor" fill-rule="evenodd" height="1em" style="flex:none;line-height:1" viewBox="0 0 79 24" xmlns="http://www.w3.org/2000/svg"><title>Coqui</title><path d="M76.804 1.826L75.167.193a.66.66 0 00-.936.004L72.537 1.91a.667.667 0 00.003.941l1.637 1.633a.66.66 0 00.936-.004l1.695-1.713a.667.667 0 00-.004-.941zM14.804 8.866c-.414.023-.758-.09-1.03-.337-2.674-2.423-6.965-.797-7.215 2.865-.16 2.323 1.618 4.383 3.961 4.537.97.063 1.846-.152 2.626-.645.152-.097.307-.237.463-.378.207-.188.416-.378.626-.47.528-.229.871.001 1.275.4.828.818 1.353 1.351 1.574 1.602.254.288.345.618.274.99-.048.24-.255.515-.622.827-1.54 1.307-3.255 2.043-5.144 2.209a8.854 8.854 0 01-3.267-.342c-3.378-.982-5.863-3.96-6.267-7.46-.455-3.954 1.817-7.701 5.457-9.18 1.42-.579 2.928-.766 4.522-.563 1.586.202 3.059.837 4.418 1.904.513.403.81.762.889 1.076.114.45-.046.872-.48 1.267-.64.582-1.09 1-1.353 1.255-.166.162-.364.3-.594.414a.283.283 0 01-.113.03z"></path><path clip-rule="evenodd" d="M31.52 18.038a8.817 8.817 0 00.13-12.455 8.783 8.783 0 00-12.432-.13 8.816 8.816 0 00-.13 12.455 8.783 8.783 0 0012.432.13zm-3.096-9.361a4.35 4.35 0 010 6.14 4.312 4.312 0 01-6.112 0 4.351 4.351 0 010-6.14 4.313 4.313 0 016.112 0zM48.41 19.444a.015.015 0 00-.009-.006h-.006a.014.014 0 00-.006.002c-2.133 1.16-4.321 1.457-6.563.892-3.478-.876-6.049-3.76-6.56-7.306-.542-3.77 1.462-7.455 4.862-9.122 4.983-2.443 11.124.375 12.41 5.814.302 1.275.282 2.393.25 3.842-.006.312-.01 3.53-.011 9.655 0 .309-.141.782-.51.784-1.848.002-2.967.001-3.356-.002a.305.305 0 01-.16-.049c-.21-.132-.314-.357-.316-.673-.01-1.962-.01-3.183.002-3.664a.405.405 0 00-.028-.167zm-.099-7.635a4.358 4.358 0 00-1.266-3.07 4.321 4.321 0 00-3.056-1.27 4.312 4.312 0 00-3.056 1.27 4.35 4.35 0 000 6.14 4.312 4.312 0 007.05-1.409 4.357 4.357 0 00.328-1.66z"></path><path d="M57.413 5.108c.147.02.357.154.63.405l1.509 1.391c.382.357.581.927.336 1.392a.484.484 0 01-.108.138 4.047 4.047 0 00-1.356 2.408 4.335 4.335 0 004.171 5.09c1.27.032 2.5-.517 3.34-1.467 1.294-1.462 1.43-3.53.403-5.204-.075-.124-.266-.358-.573-.703-.463-.52-.468-1.057-.015-1.61.143-.175.64-.719 1.494-1.63.42-.45.903-.506 1.45-.17a.41.41 0 01.093.079c.103.117.204.23.304.339.288.318.556.614.782.947 1.447 2.131 1.924 4.425 1.429 6.882-.981 4.865-5.975 8.008-10.836 6.71-3.397-.907-5.903-3.64-6.472-7.143-.441-2.722.473-5.54 2.395-7.5a1.15 1.15 0 011.024-.354zM73.418 5.44h2.508c.412 0 .746.335.746.749v13.007c0 .413-.334.749-.746.749h-2.508a.747.747 0 01-.746-.75V6.19c0-.414.334-.75.746-.75z"></path></svg>