<svg fill="currentColor" fill-rule="evenodd" height="1em" style="flex:none;line-height:1" viewBox="0 0 85 24" xmlns="http://www.w3.org/2000/svg"><title>Coze</title><path clip-rule="evenodd" d="M41.947 11.99c0 5.52-4.57 9.993-10.206 9.993-5.636 0-10.206-4.474-10.206-9.991C21.535 6.473 26.105 2 31.741 2c5.637 0 10.206 4.473 10.206 9.99zm-10.204 6.2c-3.223 0-5.835-2.775-5.835-6.2v.002c0-3.424 2.612-6.2 5.835-6.2 3.222 0 5.834 2.775 5.834 6.2 0 3.423-2.612 6.198-5.834 6.198zM74.142 21.987c-5.541 0-9.815-4.02-9.815-9.924v-.072c0-5.47 3.875-9.96 9.344-9.96 6.085 0 9.163 4.78 9.163 10.286 0 .158 0 .358-.024.594l-.01.136a.541.541 0 01-.541.501h-13.55c.47 3.115 2.68 4.853 5.505 4.853 1.963 0 3.407-.672 4.808-1.933a.563.563 0 01.751-.01l1.795 1.592a.526.526 0 01.048.75c-1.779 1.946-4.181 3.187-7.474 3.187zm4.255-11.973h-9.613c.567-2.624 2.367-4.397 4.85-4.397 2.676 0 4.302 1.884 4.763 4.397z"></path><path d="M18.648 19.592a.528.528 0 00-.064-.367l-1.48-2.56c-.193-.336-.666-.369-.944-.098-1.04 1.019-2.428 1.642-3.954 1.642-3.222 0-5.835-2.776-5.835-6.2 0-3.423 2.613-6.199 5.835-6.199 1.598 0 3.047.683 4.1 1.789.274.288.764.262.963-.082l1.493-2.585a.527.527 0 00-.12-.679 10.299 10.299 0 00-6.436-2.235C6.57 2.018 2 6.49 2 12.009S6.57 22 12.206 22c2.255.006 4.45-.728 6.247-2.09a.527.527 0 00.195-.318zM45.699 2.673a.546.546 0 00-.547.546v2.42a.546.546 0 00.547.546h10.296L44.953 18.176a.545.545 0 00-.144.37v2.304a.547.547 0 00.546.547h15.509a.546.546 0 00.546-.547v-2.42a.546.546 0 00-.546-.546h-10.61L61.42 5.757h.002V3.218a.546.546 0 00-.546-.546H45.7z"></path></svg>