<svg fill="currentColor" fill-rule="evenodd" height="1em" style="flex:none;line-height:1" viewBox="0 0 24 24" width="1em" xmlns="http://www.w3.org/2000/svg"><title>CyberCut</title><g clip-path="url(#a)"><path d="M11.651 0a.327.327 0 01.336.327v6.038a.328.328 0 01-.312.326 5.314 5.314 0 00-4.998 5.308 5.314 5.314 0 004.998 5.308c.174.011.312.152.312.326v6.04a.326.326 0 01-.336.327C5.186 23.822 0 18.517 0 12S5.186.178 11.651 0zm1.28 1.755c0 .57.182 1.123.52 1.581l.314.428a.324.324 0 01.064.193v16.107c0 .07-.022.137-.064.193l-.315.427a2.665 2.665 0 00-.52 1.582v1.73h-.288V.024h.289v1.73zm2.06 1.597c0 .568.182 1.123.52 1.58l.315.428a.324.324 0 01.063.194V18.46c0 .07-.022.138-.063.194l-.315.427a2.673 2.673 0 00-.52 1.582v3.047h-.289V.304h.29v3.048zm2.06 1.616c0 .568.182 1.123.52 1.581l.315.428a.323.323 0 01.064.193v9.68c0 .07-.023.137-.064.194l-.315.427a2.664 2.664 0 00-.52 1.581v3.962h-.289V1.006h.29v3.962zm2.061 1.597c0 .57.182 1.124.52 1.581l.314.428a.323.323 0 01.064.193v6.478c0 .07-.022.137-.064.193l-.315.428a2.664 2.664 0 00-.519 1.58v4.387h-.289V2.18h.29v4.386zm2.062 1.61c0 .569.181 1.123.519 1.58l.315.428a.323.323 0 01.064.194v3.266c0 .07-.023.137-.064.194l-.315.427a2.665 2.665 0 00-.52 1.582v4.111h-.289V4.063h.29v4.111zm2.06-.765v2.428c0 .545.167 1.078.48 1.525l.228.328a.33.33 0 01.058.188v.235c0 .066-.02.131-.058.186l-.229.328c-.312.448-.479.98-.479 1.526v2.427h-.29v-9.17h.29z"></path></g><defs><linearGradient gradientUnits="userSpaceOnUse" id="b" x1="9.608" x2="25.856" y1="12.343" y2="12.343"><stop></stop><stop offset=".25" stop-opacity=".9"></stop><stop offset="1" stop-opacity="0"></stop></linearGradient><clipPath id="a"><path d="M0 0h24v24H0z"></path></clipPath></defs></svg>