<svg fill="currentColor" fill-rule="evenodd" height="1em" style="flex:none;line-height:1" viewBox="0 0 84 24" xmlns="http://www.w3.org/2000/svg"><title>DeepL</title><path d="M2 2h7.528c1.837 0 3.469.36 4.896 1.083 1.427.705 2.534 1.714 3.32 3.027.788 1.296 1.182 2.797 1.182 4.503s-.394 3.216-1.181 4.528c-.787 1.296-1.895 2.305-3.321 3.027-1.427.705-3.06 1.058-4.896 1.058H2V2zm7.38 14.519c1.263 0 2.37-.238 3.322-.714.967-.492 1.705-1.18 2.214-2.067.525-.902.787-1.944.787-3.125s-.262-2.215-.787-3.1c-.509-.903-1.247-1.592-2.214-2.068-.952-.492-2.059-.738-3.322-.738H5.198v11.812H9.38zm25-3.79c0 .214-.017.517-.05.91H24.022c.18.969.648 1.74 1.403 2.314.77.558 1.722.837 2.853.837 1.444 0 2.633-.476 3.568-1.428l1.648 1.895a5.553 5.553 0 01-2.239 1.6c-.902.36-1.919.541-3.05.541-1.444 0-2.715-.287-3.814-.861-1.098-.574-1.951-1.37-2.558-2.387-.59-1.034-.886-2.198-.886-3.494 0-1.28.287-2.429.861-3.446A6.258 6.258 0 0124.244 6.8c1.033-.575 2.198-.862 3.493-.862 1.28 0 2.42.287 3.42.862a5.81 5.81 0 012.362 2.387c.574 1.017.86 2.198.86 3.543zM27.736 8.4c-.984 0-1.82.295-2.51.885-.672.574-1.082 1.345-1.23 2.313h7.455c-.131-.951-.533-1.722-1.206-2.313-.672-.59-1.508-.886-2.509-.886zm21.946 4.33c0 .214-.016.517-.049.91H39.326c.18.969.648 1.74 1.402 2.314.771.558 1.722.837 2.854.837 1.444 0 2.633-.476 3.567-1.428l1.649 1.895a5.553 5.553 0 01-2.24 1.6c-.901.36-1.918.541-3.05.541-1.443 0-2.714-.287-3.813-.861-1.099-.574-1.952-1.37-2.558-2.387-.59-1.034-.886-2.198-.886-3.494 0-1.28.287-2.429.861-3.446A6.257 6.257 0 0139.547 6.8c1.034-.575 2.198-.862 3.494-.862 1.28 0 2.419.287 3.42.862a5.809 5.809 0 012.361 2.387c.574 1.017.861 2.198.861 3.543zM43.041 8.4c-.984 0-1.82.295-2.51.885-.672.574-1.082 1.345-1.23 2.313h7.455c-.131-.951-.533-1.722-1.206-2.313-.672-.59-1.509-.886-2.51-.886zm16.878-2.462c1.28 0 2.42.28 3.42.837a6.01 6.01 0 012.386 2.362c.574 1.018.861 2.19.861 3.52 0 1.328-.287 2.51-.861 3.543a6.009 6.009 0 01-2.386 2.362c-1 .558-2.14.837-3.42.837-1.771 0-3.173-.59-4.207-1.772V24h-3.075V6.085h2.928v1.723a4.777 4.777 0 011.87-1.403c.754-.312 1.582-.468 2.484-.468zm-.344 10.828c1.131 0 2.058-.377 2.78-1.132.738-.754 1.107-1.747 1.107-2.977 0-1.23-.37-2.224-1.107-2.978-.722-.755-1.649-1.132-2.78-1.132-.738 0-1.403.172-1.993.517a3.56 3.56 0 00-1.402 1.427c-.345.623-.517 1.345-.517 2.165 0 .82.172 1.543.517 2.166a3.731 3.731 0 001.402 1.452c.59.328 1.255.492 1.993.492zM69.798 2h3.198v14.519H82v2.707H69.798V2z"></path></svg>