<svg fill="currentColor" fill-rule="nonzero" height="1em" style="flex:none;line-height:1" viewBox="0 0 237 42" xmlns="http://www.w3.org/2000/svg"><title>Deep Cogito</title><path d="M48.132 20.707H29.694v-2.94h14.742q-.042-.882-.399-1.911t-1.134-1.932-1.974-1.47-2.961-.567q-2.1 0-3.633 1.071t-2.352 2.919-.819 4.2q0 2.73 1.05 4.536t2.709 2.688 3.465.882q2.352 0 3.885-1.113t2.457-2.751l3.024 1.47q-1.26 2.436-3.612 4.032t-5.88 1.596q-3.108 0-5.523-1.47t-3.78-4.032-1.365-5.838q0-3.066 1.281-5.67t3.612-4.179 5.481-1.575q3.192 0 5.481 1.407t3.528 3.885 1.239 5.67q0 .294-.021.588t-.063.504zm23.562 0H53.256v-2.94h14.742q-.042-.882-.399-1.911t-1.134-1.932-1.974-1.47-2.961-.567q-2.1 0-3.633 1.071t-2.352 2.919-.819 4.2q0 2.73 1.05 4.536t2.709 2.688 3.465.882q2.352 0 3.885-1.113t2.457-2.751l3.024 1.47q-1.26 2.436-3.612 4.032t-5.88 1.596q-3.108 0-5.523-1.47t-3.78-4.032-1.365-5.838q0-3.066 1.281-5.67t3.612-4.179 5.481-1.575q3.192 0 5.481 1.407t3.528 3.885 1.239 5.67q0 .294-.021.588t-.063.504zm64.932-15.792l-2.562 2.478q-1.134-1.386-2.415-2.268t-2.772-1.302-3.255-.42q-3.234 0-5.964 1.512t-4.368 4.263-1.638 6.531q0 3.738 1.638 6.51t4.368 4.284 5.964 1.512q2.94 0 5.229-1.218t4.053-3.276l2.604 2.52q-1.302 1.554-3.129 2.772t-4.032 1.911-4.725.693q-3.318 0-6.153-1.197t-4.956-3.318-3.297-4.998-1.176-6.195q0-3.36 1.176-6.216t3.297-4.977 4.956-3.318 6.153-1.197q2.31 0 4.305.588t3.675 1.68 3.024 2.646zm29.904 29.568l3.276-1.386q.672 1.764 2.289 2.961t3.969 1.197q3.36 0 5.166-1.953t1.806-5.439v-2.394h-.168q-1.008 1.554-2.898 2.625t-4.41 1.071q-2.772 0-5.061-1.428t-3.633-3.969-1.344-5.859 1.344-5.859 3.633-3.969 5.061-1.428q2.52 0 4.41 1.071t2.898 2.667h.168V9.325h3.402v20.58q0 3.57-1.365 5.922t-3.696 3.507-5.313 1.155q-2.73 0-4.683-.903t-3.15-2.289-1.701-2.814zm9.534-6.552q1.89 0 3.486-.945t2.541-2.751.945-4.326q0-2.604-.945-4.389t-2.541-2.709-3.486-.924-3.486.945-2.562 2.73-.966 4.347.966 4.347 2.562 2.73 3.486.945zM79.422 39.817h-3.57V9.325h3.402v3.192h.168q.588-1.008 1.659-1.89t2.499-1.428 3.15-.546q2.94 0 5.25 1.47t3.654 4.032 1.344 5.88-1.344 5.88-3.654 4.032-5.25 1.47q-2.562 0-4.494-1.176t-2.814-2.646h-.168l.168 2.94zm6.93-11.634q1.848 0 3.465-.987t2.604-2.835.987-4.326q0-2.52-.987-4.347t-2.604-2.814-3.465-.987-3.465.987-2.625 2.814-1.008 4.347 1.008 4.347 2.625 2.814 3.465.987zm-77.28 2.562H0V.673h9.072q4.704 0 8.106 1.911t5.25 5.313 1.848 7.812a16 16 0 01-1.848 7.791q-1.848 3.381-5.25 5.313t-8.106 1.932zM3.57 4.075v23.268h5.502q3.528 0 6.132-1.365t4.032-3.969 1.428-6.3-1.428-6.3-4.032-3.969-6.132-1.365zm148.008 27.342q-3.234 0-5.712-1.512t-3.885-4.095-1.407-5.775 1.407-5.775 3.885-4.095 5.712-1.512 5.712 1.533 3.885 4.116 1.407 5.733q0 3.192-1.407 5.775t-3.885 4.095-5.712 1.512zm0-3.234q1.932 0 3.633-.966t2.751-2.793 1.05-4.389-1.05-4.389-2.751-2.793-3.633-.966-3.654.966-2.772 2.793-1.05 4.389 1.05 4.389 2.772 2.793 3.654.966zm74.004 3.234q-3.234 0-5.712-1.512t-3.885-4.095-1.407-5.775 1.407-5.775 3.885-4.095 5.712-1.512 5.712 1.533 3.885 4.116 1.407 5.733q0 3.192-1.407 5.775t-3.885 4.095-5.712 1.512zm0-3.234q1.932 0 3.633-.966t2.751-2.793 1.05-4.389-1.05-4.389-2.751-2.793-3.633-.966-3.654.966-2.772 2.793-1.05 4.389 1.05 4.389 2.772 2.793 3.654.966zm-22.932-3.066V3.277h3.57v20.958q0 1.806.735 2.667t2.205.861q.672 0 1.26-.189t1.134-.525v3.486q-.672.252-1.386.399t-1.554.147q-2.688 0-4.326-1.617t-1.638-4.347zm-7.434 5.628h-3.57V9.325h3.57zm16.254-18.186h-5.46V9.325h5.46zm-18.06-7.182q-1.05 0-1.806-.756t-.756-1.806q0-1.092.756-1.827t1.806-.735q1.092 0 1.827.735t.735 1.827q0 1.05-.735 1.806t-1.827.756zm9.45 7.182h-3.99V9.325h3.99z"></path></svg>