<svg height="1em" style="flex:none;line-height:1" viewBox="0 0 24 24" width="1em" xmlns="http://www.w3.org/2000/svg"><title>Deep Cogito</title><path d="M19.74 21.618l4.213-10.534a.412.412 0 00.027-.1l.003-.03a.404.404 0 00-.02-.167l-.007-.026a.44.44 0 00-.045-.085l-.003-.005L16.528.13c-.002-.003 0-.006-.003-.01h.004v.173h-.01c-.102-.254-.277-.285-.445-.248l-.001-.003c-.001.001-.003-.003-.003-.003h-.006s0-.038-.002-.038L4.466 3.143c-.006.002-.012-.005-.018-.003-.022.007-.044.01-.064.021a.42.42 0 00-.039.022c-.013.008-.026.015-.037.025a.464.464 0 00-.118.154l-.01.017L0 13.919c-.004.013.023.026.023.04v.148c0 .019 0 .038.003.057l-.003.001v.006c0 .049-.011.096.016.139H.03c0 .002-.008.002-.008.002l-.01.001c.007.012.008.023.016.034l7.377 9.486v.005a.063.063 0 00.006.005c.006.008.013.013.02.02a.258.258 0 00.02.02c.008.008.015.017.023.023l.02.014a.564.564 0 00.104.053c.011.003.021.008.032.01.005.002.01.005.016.006a.445.445 0 00.172.004l11.597-2.108a.362.362 0 00.041-.01l.011.001h.001c.005 0 .01-.007.015-.009.01-.003.02-.008.03-.013a.248.248 0 00.025-.012l.01-.007a.448.448 0 00.096-.072c.004-.004.006-.01.01-.013a.419.419 0 00.069-.1l.005-.008.003-.006.001-.003.006-.015zm-.77-.894l-7.315-4.573 8.229-6.4-.915 10.973zm-7.82-5.27l-2.782-10.2 11.127 3.71-8.345 6.49zm9.611-5.883l2.267 1.512-3.022 7.554.755-9.066zm1.133-.278l-1.168-.778-1.556-3.113 2.724 3.891zm-2.35-1.22L8.862 4.514l7.122-3.56 3.56 7.12zM7.71 4.129L6.063 3.58 12.1 1.932 7.71 4.128zm-2.881-.053l2.201.734-5.137 6.605 2.936-7.34zm2.725 1.46l2.754 10.096-9.179-1.835 6.425-8.26zM10.3 16.508L7.633 22.73l-6.223-8 8.89 1.777zm.803.313l7.065 4.417-9.716 1.767 2.65-6.184z" fill="#4E81EE"></path></svg>