<svg fill="currentColor" fill-rule="evenodd" height="1em" style="flex:none;line-height:1" viewBox="0 0 24 24" width="1em" xmlns="http://www.w3.org/2000/svg"><title>Devin</title><path d="M2.033 9.867l2.554 1.483a.589.589 0 00.592 0l2.554-1.483.01-.008a.608.608 0 00.11-.084l.013-.015a.631.631 0 00.076-.1c.003-.005.008-.01.01-.016a.558.558 0 00.052-.125l.007-.028a.611.611 0 00.019-.14V7.868c0-.572.307-1.105.8-1.392a1.595 1.595 0 011.598 0l1.277.742a.54.54 0 00.129.053l.028.01c.044.01.088.015.133.016h.006l.013-.002a.587.587 0 00.27-.074l.011-.004 2.554-1.483a.596.596 0 00.297-.516V2.253a.595.595 0 00-.297-.516L12.293.257a.587.587 0 00-.591 0L9.148 1.737l-.01.01a.609.609 0 00-.109.083l-.014.015a.632.632 0 00-.076.1c-.003.005-.008.01-.01.016a.57.57 0 00-.052.124l-.007.028a.612.612 0 00-.018.14v1.483c0 .572-.307 1.105-.8 1.393a1.597 1.597 0 01-1.599 0l-1.276-.742a.603.603 0 00-.13-.053l-.028-.008a.658.658 0 00-.133-.018h-.02a.57.57 0 00-.269.074c-.003.002-.008.002-.012.005L2.033 5.872a.596.596 0 00-.297.515v2.966c0 .213.113.41.297.515z"></path><path d="M15.943 10.607a1.596 1.596 0 011.599 0l1.276.74c.041.025.085.04.13.055l.028.008c.043.01.088.016.133.018h.005c.005 0 .01-.002.014-.003a.474.474 0 00.122-.016l.021-.005a.616.616 0 00.126-.052c.004-.002.009-.002.013-.005l2.554-1.482a.597.597 0 00.297-.516V6.383a.596.596 0 00-.297-.515l-2.552-1.483a.587.587 0 00-.592 0l-2.553 1.482-.011.008a.61.61 0 00-.108.084l-.014.016a.637.637 0 00-.076.1c-.003.005-.008.01-.01.016a.57.57 0 00-.052.124l-.007.029a.612.612 0 00-.018.14v1.482c0 .572-.307 1.105-.8 1.393a1.597 1.597 0 01-1.599 0l-1.276-.742a.584.584 0 00-.13-.053l-.028-.008a.62.62 0 00-.133-.018h-.02a.587.587 0 00-.269.074l-.012.004L9.15 10a.596.596 0 00-.296.516v2.966c0 .212.112.409.296.515l2.554 1.483s.008.002.012.005c.04.022.082.04.126.052l.02.004a.57.57 0 00.123.017l.014.002h.006c.054 0 .108-.01.16-.025a.587.587 0 00.13-.054l1.277-.741a1.597 1.597 0 012.398 1.392v1.482c0 .049.007.095.019.14l.007.028a.619.619 0 00.051.125c.004.006.008.01.01.016a.6.6 0 00.076.1l.014.015c.033.032.069.06.108.084.004.002.006.006.011.008l2.554 1.483a.59.59 0 00.593 0l2.554-1.483a.597.597 0 00.296-.516v-2.965a.595.595 0 00-.296-.516l-2.554-1.483s-.008-.002-.012-.005a.54.54 0 00-.126-.051c-.007-.003-.013-.003-.02-.005a.635.635 0 00-.125-.017h-.018a.557.557 0 00-.16.026.588.588 0 00-.13.053l-1.276.742a1.595 1.595 0 01-1.598 0 1.615 1.615 0 010-2.785l-.005-.001z"></path><path d="M14.848 18.265l-2.554-1.482-.012-.005a.526.526 0 00-.126-.052c-.007-.002-.014-.002-.02-.005a.64.64 0 00-.124-.017h-.02a.56.56 0 00-.16.026.588.588 0 00-.13.053l-1.276.742a1.594 1.594 0 01-1.598 0c-.493-.286-.8-.82-.8-1.393V14.65a.563.563 0 00-.018-.14l-.008-.028a.604.604 0 00-.051-.124l-.01-.017a.603.603 0 00-.076-.1l-.014-.015a.596.596 0 00-.109-.084c-.003-.002-.005-.006-.01-.008L5.178 12.65a.587.587 0 00-.591 0l-2.554 1.483a.596.596 0 00-.297.516v2.965c0 .213.113.41.297.516l2.554 1.483.012.004a.618.618 0 00.267.074l.016.002h.007a.55.55 0 00.16-.026.584.584 0 00.129-.053l1.277-.742a1.597 1.597 0 012.398 1.393v1.482c0 .05.007.095.019.14l.007.028c.013.044.03.085.051.125l.01.016c.022.036.047.07.076.1l.014.015c.032.032.069.06.109.084l.01.008 2.554 1.483a.587.587 0 00.593 0l2.554-1.483a.596.596 0 00.296-.515v-2.966a.596.596 0 00-.296-.516h-.002z"></path></svg>