<svg fill="currentColor" fill-rule="evenodd" height="1em" style="flex:none;line-height:1" viewBox="0 0 85 24" xmlns="http://www.w3.org/2000/svg"><title>Doc2X</title><path d="M82.813 21.728h-3.978l-4.769-7.766-4.796 7.766h-3.705l6.457-10.082-6.049-9.373h3.842L74.23 9.52l4.386-7.248h3.733l-6.076 9.51 6.54 9.945zM64.413 21.727H51.09v-2.534l4.96-5.013c.98-1 1.78-1.853 2.397-2.562.636-.726 1.099-1.398 1.39-2.016.308-.617.463-1.29.463-2.016 0-.89-.255-1.553-.763-1.99-.509-.453-1.18-.68-2.017-.68-.817 0-1.58.172-2.288.517-.709.327-1.445.8-2.207 1.417l-1.88-2.261c.544-.473 1.126-.9 1.743-1.281a8.213 8.213 0 012.098-.954C55.767 2.118 56.675 2 57.71 2c1.254 0 2.325.227 3.215.681.909.436 1.608 1.045 2.099 1.826.49.78.735 1.69.735 2.725 0 .799-.118 1.544-.354 2.234a8.338 8.338 0 01-1.035 1.989 15.796 15.796 0 01-1.662 1.99 85.399 85.399 0 01-2.208 2.179l-3.079 2.97v.163h8.992v2.97zM44.441 22c-1.399 0-2.616-.264-3.651-.79-1.017-.545-1.807-1.372-2.37-2.48-.546-1.126-.818-2.561-.818-4.305 0-1.817.3-3.288.9-4.414.617-1.145 1.461-1.98 2.533-2.507 1.072-.545 2.298-.817 3.679-.817.926 0 1.753.09 2.48.272.726.182 1.343.4 1.852.654l-1.008 2.697c-.563-.218-1.126-.4-1.69-.544a5.854 5.854 0 00-1.634-.246c-.818 0-1.499.182-2.044.545-.527.364-.917.909-1.172 1.635-.254.709-.381 1.608-.381 2.698 0 1.053.127 1.934.381 2.643.273.708.672 1.244 1.2 1.607.526.346 1.18.518 1.961.518.836 0 1.572-.1 2.207-.3a8.043 8.043 0 001.799-.817v2.97a5.928 5.928 0 01-1.826.736c-.636.163-1.435.245-2.398.245zM34.925 14.316c0 1.235-.164 2.325-.49 3.27-.328.944-.8 1.753-1.418 2.425-.6.654-1.344 1.153-2.234 1.498-.872.327-1.844.49-2.916.49-1.017 0-1.952-.163-2.806-.49a6.455 6.455 0 01-2.235-1.498c-.617-.672-1.099-1.48-1.444-2.425-.345-.945-.517-2.035-.517-3.27 0-1.635.281-3.016.844-4.142.563-1.144 1.372-2.007 2.425-2.588 1.072-.6 2.335-.9 3.788-.9 1.38 0 2.588.3 3.624.9 1.053.581 1.88 1.444 2.48 2.588.599 1.127.899 2.507.899 4.142zm-10.545 0c0 1.035.118 1.925.354 2.67.254.727.636 1.28 1.144 1.662.527.382 1.2.573 2.017.573.835 0 1.507-.191 2.016-.573.527-.381.908-.935 1.144-1.662.236-.745.355-1.635.355-2.67 0-1.054-.128-1.935-.382-2.643-.236-.727-.617-1.272-1.144-1.635-.509-.381-1.172-.572-1.99-.572-1.235 0-2.134.418-2.697 1.253-.545.836-.817 2.035-.817 3.597zM17.913 11.81c0 2.18-.418 4.005-1.254 5.477-.817 1.471-2.007 2.579-3.57 3.324-1.543.745-3.414 1.117-5.612 1.117H2V2.273h6.049c2.016 0 3.76.363 5.232 1.09a7.772 7.772 0 013.406 3.215c.817 1.399 1.226 3.143 1.226 5.232zm-3.651.109c0-1.544-.237-2.816-.709-3.815-.472-1-1.171-1.735-2.098-2.207-.926-.49-2.062-.736-3.406-.736H5.488v13.652h2.098c2.252 0 3.923-.573 5.014-1.717 1.107-1.163 1.662-2.888 1.662-5.177z"></path></svg>