<svg fill="currentColor" fill-rule="evenodd" height="1em" style="flex:none;line-height:1" viewBox="0 0 105 24" xmlns="http://www.w3.org/2000/svg"><title>Doubao</title><path clip-rule="evenodd" d="M84.677 2.935h10.245V4.89h-1.956v2.573h2.423v2.04h-2.423v4.442h-2.125V9.503h-2.21c-.256 2.082-1.042 3.634-2.317 4.697l-1.68-1.467c.978-.744 1.573-1.828 1.829-3.23h-2.338v-2.04h2.465V4.89h-1.913V2.935zm4.06 1.955v2.573h2.104V4.89h-2.104zm7.46-1.253H98.3v7.268h-2.104V3.638zM85.23 15.603h7.205v-1.424h2.21v1.424h7.057v2.04h-7.057v1.764h8.226v2.02H84.04v-2.02h8.395v-1.764H85.23v-2.04zm14.92-1.382h-2.848l-.489-2.083c.914.085 1.786.149 2.593.149.404 0 .617-.34.617-1.02v-8.8h2.146v9.331c0 1.616-.68 2.423-2.019 2.423zM68.928 3.785h2.784v-1.53h2.062v1.53h2.784v-1.53h2.083v1.53h3.06v1.956h-3.06v1.254h-2.083V5.74h-2.784v1.254h-2.062V5.74h-2.784V3.785zm6.079 14.07c-.224.366-.465.72-.723 1.063-.978 1.254-2.72 2.232-5.186 2.954l-.765-1.827c2.019-.553 3.486-1.36 4.378-2.38a3.77 3.77 0 00.191-.256H68.44v-1.998h5.484c.106-.36.19-.744.276-1.126h-4.314V7.463h10.541v6.822h-4.272c-.063.382-.127.765-.212 1.126h5.802v1.998h-4.676c1.148 1.106 2.784 2.04 4.953 2.763l-1.51 1.786c-2.508-1.105-4.357-2.466-5.504-4.102zm-7.822-6.12v10.053h-2.083v-9.225c-.553 1.552-1.19 2.997-1.955 4.336l-.957-2.465c1.318-1.786 2.296-3.805 2.912-6.058v-.191h-2.231v-2.02h2.231V2.32h2.083v3.847h1.998v2.019h-1.998V9.29a60.294 60.294 0 012.636 3.316l-1.17 1.764a68.99 68.99 0 00-1.466-2.635zm11.243.892v-.935h-6.567v.935h6.567zm-6.567-2.55h6.567v-.914h-6.567v.913zm-29.33-2.55h8.055a35.1 35.1 0 00.233-3.423V2.191h2.254v1.403c0 1.382-.086 2.7-.234 3.932h8.523v2.168h-8.013c1.53 4.442 4.357 7.864 8.501 10.287l-1.402 1.828c-3.996-2.466-6.823-5.888-8.438-10.266-1.445 4.74-4.294 8.225-8.544 10.457l-1.424-1.87c4.293-2.083 7.014-5.569 8.161-10.436H42.53V7.526zm-7.694.934v6.972h-7.502v3.273c0 .531.297.807.935.807h9.65c.424-.042.7-.212.85-.53.106-.235.233-.979.36-2.211l2.105.701c-.15 1.275-.319 2.168-.51 2.7-.298.892-.978 1.36-2.083 1.402H27.335c-1.488 0-2.232-.659-2.232-1.976V9.439c-.425.468-.829.914-1.254 1.34l-1.573-1.871C24.104 7.292 25.677 4.976 27.037 2l2.253.51c-.255.595-.531 1.17-.786 1.722h11.52c0 5.653-.128 9.139-.34 10.457-.213 1.317-1.106 1.997-2.679 1.997-.255 0-.722-.042-1.36-.106l-.531-1.976c.595.063 1.105.106 1.53.106.51 0 .808-.34.893-1.02.127-.723.191-3.167.233-7.354H27.335c-.443.73-.918 1.439-1.424 2.125h8.926zm-7.502 4.974h5.27v-2.976h-5.27v2.976zM2.808 3.212h17.64v2.082H2.808V3.212zM2 19.024h5.483a30.518 30.518 0 00-1.636-3.932l1.913-.637c.637 1.254 1.169 2.593 1.636 4.017l-1.211.552h5.207c.68-1.275 1.275-2.826 1.786-4.612l2.167.596a23.133 23.133 0 01-1.764 4.016h5.527v2.169H2v-2.169zM4.805 6.74H18.43v7.375H4.805V6.74zm11.478 5.335V8.78H6.952v3.295h9.33z"></path></svg>