<svg fill="currentColor" fill-rule="evenodd" height="1em" style="flex:none;line-height:1" viewBox="0 0 175 24" xmlns="http://www.w3.org/2000/svg"><title>ElevenLabs</title><path d="M2 1h4.537v21.636H2V1zM11.013 1h4.537v21.636h-4.537V1zM20.025 1h13.428v3.606h-8.89v5.152h8.281v3.606h-8.282v5.666h8.891v3.606H20.025V1zM36.224 1h4.293v21.636h-4.294V1zM43.105 14.515c0-5.909 2.954-8.454 7.551-8.454 4.598 0 7.217 2.515 7.217 8.515v.97H47.338c.152 3.515 1.217 4.696 3.258 4.696 1.613 0 2.618-.94 2.8-2.575h4.294C57.416 21.242 54.432 23 50.596 23c-4.872 0-7.491-2.576-7.491-8.485zm10.535-1.788c-.213-2.97-1.248-3.94-3.044-3.94-1.797 0-2.924 1-3.228 3.94h6.272zM63.171 6.424h-4.385l5.298 16.213h4.72l5.298-16.213h-4.385L66.4 18.637 63.17 6.424zM74.924 14.515c0-5.909 2.954-8.454 7.552-8.454 4.597 0 7.216 2.515 7.216 8.515v.97H79.157c.152 3.515 1.218 4.696 3.258 4.696 1.614 0 2.618-.94 2.801-2.575h4.293C89.235 21.242 86.251 23 82.415 23c-4.872 0-7.49-2.576-7.49-8.485zm10.536-1.788c-.213-2.97-1.249-3.94-3.045-3.94-1.797 0-2.923 1-3.228 3.94h6.273zM96.635 13.09c0-2.545 1.217-3.939 3.105-3.939 1.553 0 2.436.97 2.436 3.061v10.424h4.294v-11.09c0-3.758-2.132-5.485-5.238-5.485-2.1 0-3.836 1.06-4.597 2.454v-2.09H92.28v16.211h4.355v-9.545zM110.031 1h4.537v18.03h8.526v3.606h-13.063V1z"></path><path clip-rule="evenodd" d="M124.16 14.515c0-6.182 2.862-8.454 6.546-8.454 1.827 0 3.502 1.03 4.172 2.12V6.425h4.384v16.212H135v-1.909C134.36 22 132.564 23 130.584 23c-3.897 0-6.424-2.485-6.424-8.485zm7.673-5.273c2.131 0 3.288 1.606 3.288 5.273s-1.157 5.303-3.288 5.303c-2.132 0-3.35-1.636-3.35-5.303s1.218-5.273 3.35-5.273zM146.844 20.727v1.91h-4.263V1h4.294v7.182c.73-1.121 2.436-2.121 4.263-2.121 3.593 0 6.455 2.272 6.455 8.454S154.791 23 151.046 23c-1.979 0-3.593-1-4.202-2.273zm3.076-11.454c2.131 0 3.349 1.575 3.349 5.242s-1.218 5.303-3.349 5.303c-2.132 0-3.289-1.636-3.289-5.303s1.157-5.242 3.289-5.242z"></path><path d="M159.359 17.818h4.293c.061 1.697.975 2.515 2.588 2.515 1.614 0 2.528-.727 2.528-2 0-1.151-.701-1.575-2.223-1.94l-1.31-.332c-3.714-.94-5.572-1.94-5.572-5 0-3.061 2.863-5 6.516-5 3.654 0 6.425 1.424 6.547 4.787h-4.293c-.092-1.484-1.005-2.12-2.314-2.12-1.31 0-2.223.636-2.223 1.848 0 1.12.731 1.545 2.009 1.848l1.34.334c3.532.878 5.755 1.757 5.755 5.03 0 3.273-2.923 5.212-6.881 5.212-4.294 0-6.669-1.606-6.76-5.182z"></path></svg>