<svg fill="currentColor" fill-rule="evenodd" height="1em" style="flex:none;line-height:1" viewBox="0 0 24 24" width="1em" xmlns="http://www.w3.org/2000/svg"><title>Fal</title><path clip-rule="evenodd" d="M15.477 0c.415 0 .749.338.788.752a7.775 7.775 0 006.985 6.984c.413.04.752.373.752.788v6.952c0 .415-.338.748-.752.788a7.775 7.775 0 00-6.985 6.984c-.04.414-.373.752-.788.752H8.525c-.416 0-.749-.338-.789-.752a7.775 7.775 0 00-6.984-6.984c-.414-.04-.752-.373-.752-.788V8.524c0-.415.338-.748.752-.788A7.775 7.775 0 007.736.752C7.776.338 8.11 0 8.526 0h6.95zM4.819 11.98a7.226 7.226 0 007.223 7.23 7.226 7.226 0 007.223-7.23c0-3.994-3.234-7.23-7.223-7.23a7.227 7.227 0 00-7.223 7.23z"></path></svg>