<svg fill="currentColor" fill-rule="evenodd" height="1em" style="flex:none;line-height:1" viewBox="0 0 131 24" xmlns="http://www.w3.org/2000/svg"><title>Firecrawl</title><path d="M0 23.799V.465h14.93v3.4H3.84v6.767h9.152v3.3H3.841v9.867H0zM19.177 4.333c-1.236 0-2.204-.9-2.204-2.166C16.973.9 17.94 0 19.177 0c1.236 0 2.204.9 2.204 2.167 0 1.266-.968 2.166-2.204 2.166zM17.34 23.801V6.732h3.607V23.8H17.34zM32.967 6.734h.802v3.367h-1.604c-3.206 0-4.241 2.5-4.241 5.134V23.8h-3.608V6.734h3.207l.4 2.567c.869-1.433 2.238-2.567 5.044-2.567zM43.128 23.998c-5.378 0-8.751-3.466-8.751-8.7 0-5.267 3.373-8.767 8.417-8.767 4.943 0 8.25 3.134 8.35 8.134 0 .433-.034.9-.1 1.366H38.15v.234c.1 2.9 1.937 4.8 4.776 4.8 2.205 0 3.808-1.1 4.309-3h3.607c-.601 3.366-3.474 5.933-7.715 5.933zm-4.843-10.6h9.118c-.3-2.533-2.071-3.967-4.576-3.967-2.305 0-4.275 1.534-4.542 3.967zM61.74 23.998c-5.178 0-8.484-3.367-8.484-8.7 0-5.267 3.407-8.767 8.584-8.767 4.408 0 7.147 2.434 7.849 6.3h-3.775c-.467-2-1.904-3.233-4.141-3.233-2.906 0-4.81 2.333-4.81 5.7 0 3.333 1.904 5.633 4.81 5.633 2.204 0 3.674-1.266 4.108-3.233h3.808c-.67 3.867-3.574 6.3-7.95 6.3zM80.933 6.734h.802v3.367h-1.603c-3.207 0-4.242 2.5-4.242 5.134V23.8h-3.607V6.734h3.207l.4 2.567c.868-1.433 2.238-2.567 5.043-2.567zM90.65 6.531c4.543 0 7.148 2.167 7.148 6.2v11.067h-3.14l-.3-2.433c-1.17 1.533-2.806 2.633-5.51 2.633-3.742 0-6.246-1.833-6.246-5 0-3.5 2.538-5.467 7.347-5.467h4.276v-1.033c0-1.9-1.37-3.067-3.741-3.067-2.138 0-3.574 1-3.841 2.5h-3.54c.367-3.333 3.24-5.4 7.548-5.4zm-1.202 14.667c3.006 0 4.743-1.767 4.777-4.4v-.6h-4.477c-2.237 0-3.472.833-3.472 2.567 0 1.433 1.201 2.433 3.172 2.433zM104.853 23.801L99.275 6.734h3.808l3.908 13.067 3.908-13.067h3.305l3.741 13.067 4.042-13.067h3.674l-5.678 17.067h-3.875l-3.606-11.6-3.741 11.6h-3.908zM127.393 23.799V.465H131v23.334h-3.607z"></path></svg>