<svg fill="currentColor" fill-rule="evenodd" height="1em" style="flex:none;line-height:1" viewBox="0 0 137 24" xmlns="http://www.w3.org/2000/svg"><title>Fireworks</title><path d="M6.93 6.59h8.04l-1.706 13.953h-2.916L11.806 8.74H6.767L5.39 20.035l-.665 2.734c-.127.399-.312.705-.55.913-.237.214-.567.318-.995.318H2L3.874 8.769l-1.209-.197c-.22-.046-.393-.127-.509-.237-.116-.11-.162-.271-.144-.485l.127-1.26H4.14l.08-.596a7.634 7.634 0 01.672-2.393 5.94 5.94 0 011.4-1.878c.59-.526 1.296-.937 2.123-1.237C9.243.19 10.198.04 11.268.04c.112 0 .229.003.35.01l.182.014c.191.011.376.034.562.057.185.024.358.052.526.081.168.035.312.07.446.116l-.29 1.497c-.046.202-.18.312-.393.324l-.368.016c-.092.003-.191.005-.297.006h-.162c-.805 0-1.493.082-2.072.238-.572.156-1.053.393-1.429.717a3.22 3.22 0 00-.89 1.213c-.215.492-.36 1.064-.446 1.723l-.07.543.012-.005zM33.5 6.202c.758 0 1.366.104 1.904.312.538.209.983.474 1.342.804.359.33.625.694.798 1.087.174.398.266.786.266 1.167 0 .619-.127 1.191-.381 1.705-.255.52-.712.983-1.366 1.4-.66.415-1.556.774-2.701 1.08-1.146.307-2.61.55-4.397.734a.66.66 0 00-.012.116v.243c0 1.173.255 2.058.764 2.659.509.595 1.273.896 2.29.896.637 0 1.17-.087 1.598-.266.428-.174.786-.37 1.087-.578.301-.208.567-.4.793-.578.225-.174.463-.266.717-.266.197 0 .376.092.544.277l.752.914v.017c-.48.491-.955.913-1.417 1.272a7.925 7.925 0 01-1.418.878 6.51 6.51 0 01-1.516.515c-.526.11-1.099.167-1.724.167-.821 0-1.562-.139-2.221-.416a4.85 4.85 0 01-1.69-1.173 5.106 5.106 0 01-1.076-1.833c-.248-.717-.376-1.52-.376-2.404 0-.74.081-1.469.238-2.185a9.789 9.789 0 01.688-2.047c.3-.647.665-1.248 1.1-1.797.427-.55.92-1.023 1.469-1.422a6.846 6.846 0 011.816-.937 6.549 6.549 0 012.13-.34zm-7.26.347l-.544 2.856c-1.175-.474-2.204-.324-3.09.45-.885.775-1.596 2.232-2.129 4.376l-.752 6.312h-2.915l1.706-14.179h1.499c.324 0 .572.081.74.243.174.162.255.416.255.757l-.15 2.676.005.006a10.29 10.29 0 011.175-1.93c.422-.538.862-.96 1.319-1.26.457-.301.931-.486 1.417-.544.486-.058.972.023 1.464.237zm7.11 1.763h-.006c-.52 0-.995.104-1.435.318-.44.214-.833.509-1.18.879-.347.375-.648.82-.902 1.34a7.698 7.698 0 00-.59 1.694c1.278-.167 2.302-.352 3.083-.555.775-.202 1.377-.427 1.794-.664.416-.243.694-.497.833-.77.139-.27.208-.56.208-.866 0-.15-.035-.306-.098-.474a1.159 1.159 0 00-.313-.445 1.687 1.687 0 00-.561-.324 2.375 2.375 0 00-.833-.133zm26.075-1.919l-5.89 14.15h-2.29c-.261 0-.417-.179-.475-.543l-1.528-8.81c-.017-.167-.034-.329-.057-.49-.018-.162-.035-.324-.058-.492l-.168.497a5.22 5.22 0 01-.197.497L45.055 20c-.14.358-.359.543-.654.543h-2.193l-2.441-14.15h2.25c.215 0 .382.052.515.162a.675.675 0 01.238.422l1.052 8.243c.03.37.053.728.07 1.075.017.347.035.693.04 1.046l.388-1.046c.127-.347.266-.705.417-1.075l3.46-8.284a.923.923 0 01.317-.41.853.853 0 01.498-.162h1.25c.214 0 .381.052.509.162a.573.573 0 01.2.329l1.39 8.365c.059.37.105.728.145 1.08.04.353.081.706.116 1.053.104-.341.208-.688.312-1.04.105-.353.226-.718.353-1.1l3.136-8.242a.85.85 0 01.312-.416.853.853 0 01.51-.168h2.163l.018.006zm5.542 14.358a5.815 5.815 0 01-2.152-.393 4.74 4.74 0 01-1.701-1.15 5.276 5.276 0 01-1.117-1.861c-.266-.734-.405-1.572-.405-2.503 0-1.214.191-2.347.579-3.399a8.858 8.858 0 011.574-2.751 7.407 7.407 0 012.337-1.844c.89-.451 1.851-.67 2.87-.67.775 0 1.492.132 2.152.392.66.266 1.22.648 1.695 1.15.474.503.844 1.122 1.11 1.862.267.734.405 1.572.405 2.503 0 .797-.086 1.56-.266 2.3a9.897 9.897 0 01-.734 2.075 8.352 8.352 0 01-1.146 1.758 7.795 7.795 0 01-1.487 1.352 6.844 6.844 0 01-1.759.873 6.209 6.209 0 01-1.955.312v-.006zm.266-2.329c.62 0 1.186-.173 1.695-.52.51-.347.943-.81 1.296-1.393.359-.584.63-1.255.828-2.018.196-.763.289-1.56.289-2.393 0-1.22-.226-2.127-.671-2.71-.452-.59-1.111-.88-1.99-.88-.631 0-1.198.174-1.701.515a4.394 4.394 0 00-1.285 1.376c-.353.572-.625 1.243-.821 2.011a9.7 9.7 0 00-.29 2.417c0 2.404.886 3.607 2.65 3.607v-.012zm12.85-8.376a10.29 10.29 0 011.174-1.93c.422-.538.862-.96 1.319-1.26.457-.301.931-.486 1.417-.544.486-.058.972.023 1.464.237l-.544 2.856c-1.174-.474-2.204-.324-3.09.45-.884.775-1.596 2.232-2.128 4.376l-.752 6.312h-2.916l1.707-14.179h1.498c.324 0 .573.081.74.243.174.162.255.416.255.757l-.15 2.676.005.006zM103.26 6.18c.845 0 1.655.15 2.326.445a5.258 5.258 0 011.713 1.18l-.764 1.08V8.88a.925.925 0 01-.255.277.575.575 0 01-.324.081c-.15 0-.3-.046-.457-.145a10.031 10.031 0 00-.56-.323 4.4 4.4 0 00-.77-.324c-.295-.098-.654-.144-1.07-.144-.388 0-.741.052-1.048.15a2.606 2.606 0 00-.798.416 1.76 1.76 0 00-.51.624 1.752 1.752 0 00-.173.763c0 .307.081.561.243.77.162.207.376.392.648.548.266.156.573.3.914.428.342.127.695.266 1.047.405.36.138.706.3 1.048.48.34.179.648.398.914.653.266.254.48.56.648.924.167.365.243.792.243 1.29a4.82 4.82 0 01-.394 1.913 4.667 4.667 0 01-1.14 1.6 5.746 5.746 0 01-1.793 1.1c-.7.27-1.481.41-2.337.41-.857 0-1.713-.162-2.436-.492-.729-.33-1.307-.74-1.741-1.243l.734-1.138c.093-.139.197-.249.319-.324a.775.775 0 01.445-.116c.168 0 .33.064.486.185.156.128.347.266.561.417.22.15.486.289.799.416.312.127.723.185 1.22.185.417 0 .787-.058 1.111-.174.324-.115.596-.277.822-.48.22-.202.393-.439.515-.705.121-.266.179-.549.179-.844 0-.335-.081-.612-.243-.832a2.18 2.18 0 00-.648-.578 5.077 5.077 0 00-.908-.422l-.687-.246a42.106 42.106 0 01-.355-.13 9.242 9.242 0 01-1.041-.445 3.839 3.839 0 01-.908-.624 2.88 2.88 0 01-.648-.908c-.162-.358-.243-.791-.243-1.312a4.638 4.638 0 011.4-3.312c.451-.445 1.006-.798 1.666-1.07.66-.265 1.406-.404 2.25-.404zM89.111 0l.011.012-1.458 11.901h.388c.202 0 .37-.029.491-.092.122-.064.26-.174.411-.341l4.195-4.538c.15-.185.3-.324.462-.416.162-.092.365-.139.602-.139h2.65l-5.057 5.382c-.289.352-.607.636-.96.844.156.127.295.277.41.445.116.167.226.352.325.555l3.847 6.925h-2.569c-.231 0-.422-.04-.567-.116-.15-.081-.266-.225-.358-.44l-3.153-5.548c-.105-.214-.214-.347-.336-.41-.121-.059-.312-.093-.567-.093h-.474l-.804 6.6h-2.945L86.183 0h2.927zm19.218 18.827c0-.266.047-.52.145-.758.098-.237.231-.439.41-.618.174-.174.383-.312.614-.416.231-.104.486-.15.764-.15a1.888 1.888 0 011.371.566c.173.173.306.381.41.618.105.237.151.486.151.758 0 .271-.052.531-.15.763a2 2 0 01-.411.612 1.873 1.873 0 01-.613.41 1.945 1.945 0 01-.758.145c-.272 0-.533-.046-.764-.144a1.905 1.905 0 01-1.024-1.023 1.929 1.929 0 01-.145-.763zm15.245-1.584a11.349 11.349 0 01-1.036 1.45 7.38 7.38 0 01-1.157 1.105 4.863 4.863 0 01-1.29.705 4.043 4.043 0 01-1.417.248 3.58 3.58 0 01-1.516-.317 3.167 3.167 0 01-1.192-.96c-.335-.428-.596-.948-.787-1.572-.19-.625-.283-1.347-.283-2.174 0-.826.104-1.664.318-2.462.214-.798.515-1.555.903-2.26a9.908 9.908 0 011.4-1.948 9.095 9.095 0 011.834-1.526 8.915 8.915 0 012.186-.994 8.44 8.44 0 012.465-.353c.619 0 1.238.046 1.846.144.607.099 1.209.266 1.793.51l-1.695 13.704h-1.568c-.382 0-.636-.098-.775-.289a1.212 1.212 0 01-.208-.722l.179-2.29zm.943-8.85a10.042 10.042 0 00-.31-.031l-.153-.01c-.15-.011-.307-.011-.463-.011-.798 0-1.544.185-2.244.555-.7.37-1.308.867-1.817 1.497a7.294 7.294 0 00-1.215 2.185 7.723 7.723 0 00-.445 2.613c0 1.052.167 1.832.509 2.335.335.503.815.757 1.434.757.417 0 .822-.138 1.221-.41.4-.272.775-.648 1.134-1.122.359-.474.688-1.04.995-1.687.307-.648.567-1.353.793-2.11l.567-4.567-.006.006zm9.592-2l-1.707 14.15h-2.927l1.695-14.15h2.94zM135 2.121c0 .266-.058.52-.168.763-.11.243-.26.451-.445.63-.185.18-.394.324-.625.428a1.758 1.758 0 01-.723.162c-.249 0-.486-.052-.718-.162a1.91 1.91 0 01-.596-.428 2.254 2.254 0 01-.416-.63 1.9 1.9 0 010-1.531c.104-.243.249-.457.422-.636.174-.18.382-.324.614-.428a1.72 1.72 0 01.705-.162c.238 0 .492.052.73.162a2.036 2.036 0 011.052 1.058c.104.243.162.497.162.774H135z"></path></svg>