<svg fill="currentColor" fill-rule="evenodd" height="1em" style="flex:none;line-height:1" viewBox="0 0 24 24" width="1em" xmlns="http://www.w3.org/2000/svg"><title>Flora</title><path d="M2 17.152c0-2.697 2.202-4.883 4.889-4.883 2.66 0 4.84 2.165 4.84 4.835s-2.156 4.835-4.816 4.835H2v-4.787zM22 22h-4.913c-2.66 0-4.817-2.165-4.817-4.835s2.18-4.835 4.84-4.835c2.688 0 4.89 2.186 4.89 4.883V22zM22 6.848c0 2.697-2.202 4.883-4.889 4.883-2.66 0-4.84-2.165-4.84-4.835s2.156-4.835 4.816-4.835H22v4.787zM2 2h4.913c2.66 0 4.817 2.165 4.817 4.835S9.55 11.67 6.889 11.67C4.202 11.67 2 9.484 2 6.787V2z"></path></svg>