<svg fill="currentColor" fill-rule="evenodd" height="1em" style="flex:none;line-height:1" viewBox="0 0 97 24" xmlns="http://www.w3.org/2000/svg"><title>Flora</title><path clip-rule="evenodd" d="M16.073 4.03h.044c2.08 0 5 .529 6.904.881 1.372.264 3.451.66 4.735.793-2.301 1.41-4.647 3.26-6.417 5.153-.93.969-1.637 1.894-2.257 2.73-.227 0-.504-.004-.791-.008-.61-.01-1.268-.021-1.599.009-1.327.088-1.726.396-1.77.572-.023.113.048.099.276.052.218-.044.58-.118 1.14-.14.531-.044 1.46-.044 2.434-.044a32.696 32.696 0 01-2.7 3.26c-2.743 2.994-5.177 4.492-8.584 4.272-1.284-.044-1.948-.529-1.948-1.278 0-.44.266-.748.576-1.1.442-.485.663-.882.708-1.542.044-.925-.576-1.894-2.036-1.894-1.77 0-2.788 1.41-2.788 2.863C2 20.679 4.39 22 7.709 22c4.16 0 10.577-2.378 14.47-6.739.299-.326.537-.612.741-.858.1-.12.191-.23.278-.33 1.504 0 2.345-.089 3.098-.31a6.222 6.222 0 00-.664 1.234c-.177.44-.266 1.233 0 1.19.082 0 .214-.152.398-.361.113-.13.246-.281.398-.433.713-.709 1.282-1.133 1.962-1.639l.517-.386c1.017-.75 1.106-1.454.398-1.63-.708-.176-1.77.352-2.611 1.497-.885.309-2.08.397-3.186.353.632-.735 1.144-1.41 1.665-2.096.572-.753 1.155-1.52 1.92-2.397.84-1.013 1.814-2.158 2.743-3.039.62.088 2.39.265 3.584.265 2.343 0 3.935-.315 4.176-1.206h.997v3.741H37.34v3.742h-1.253v2.494h-1.253v3.741H33.58v1.247h-2.506v1.247h13.783V20.08h1.253v-2.494h1.253v-2.494h-1.253v2.494h-1.253v1.247h-1.253v1.247h-7.518v-1.247h1.253v-3.741h1.253V11.35h1.253V8.856H41.1V6.362h1.253V5.115h2.506V3.868H37.34v.293c-.479-.474-1.482-.703-2.548-.703-1.549 0-3.319.484-5.177 1.233a214.907 214.907 0 01-5.842-1.497c-2.744-.75-5.62-1.19-7.479-1.19-5.532-.132-9.47 2.775-9.913 6.034-.265 2.335 1.15 4.625 3.762 5.55.354.132.796.176.84.044.028-.081-.028-.096-.177-.136-.094-.025-.226-.06-.398-.129-2.788-1.189-3.274-3.39-2.92-5.109.796-3.215 4.425-4.228 8.585-4.228zm18.63-.132h.045c1.416 0 2.478.397 2.434.925-.044.485-1.106.837-2.257.837-.796 0-2.124-.132-3.806-.573.797-.528 2.301-1.189 3.585-1.189zm23.953 17.43V20.08h2.507v-1.247h1.253V16.34h1.253v-1.247h1.253v-8.73h-1.253V5.115h-1.253V3.868h-7.519v1.247h-2.506v1.247h-1.253V7.61h-1.253v2.495h-1.253v8.73h1.253v1.246h1.253v1.247h7.519zM54.898 5.114v1.247h-1.253V7.61h-1.253v2.495h-1.253v8.73h1.253v1.246h5.012v-1.247h1.254v-1.247h1.253v-1.247h1.253v-2.494h1.253V6.362h-1.253V5.115h-6.266zm18.796 8.73h1.253v7.482h8.776V20.08h-2.505v-1.247h1.252v-1.247h1.253v-1.247H82.47v1.247h-1.252v1.247h-1.254v1.247H77.452v-6.235H76.2v-1.247h1.253V11.35h2.506V7.609h1.253V6.362h-1.253V5.115h-1.252V3.868H68.68v1.247h1.252v3.741h-1.252v2.495h-1.253v3.74h-1.253v2.495h-1.253v2.494h-2.506v1.247h7.517V20.08h-2.505v-2.494h1.253v-2.494h1.252v-1.247h-1.252v-1.247h1.252V11.35h1.254V8.856h1.253v-3.74h5.012v4.988H76.2v1.247h-2.506v2.494zm18.8 2.494H91.24v3.741h-1.252v1.247H95V20.08h-1.253V6.362h-1.254V3.868H91.24v2.494h-1.252V7.61h-1.254v1.247h-1.253v1.248h1.254V8.856h1.253V7.61h1.252v7.483h1.254v1.247zm-6.265-4.988v1.247h-1.252v1.247h-1.254v1.247h1.254v-1.247h1.252v-1.247h1.253V11.35h-1.253z"></path></svg>