<svg fill="currentColor" fill-rule="evenodd" height="1em" style="flex:none;line-height:1" viewBox="0 0 24 24" width="1em" xmlns="http://www.w3.org/2000/svg"><title>Flowith</title><path clip-rule="evenodd" d="M13.152 3c-.64 0-1.158.51-1.158 1.137V18.84c0 .628.519 1.137 1.159 1.137h3.308c.64 0 1.158-.51 1.158-1.137V4.137C17.62 3.51 17.101 3 16.461 3h-3.308zm-6.24.081c-.314 0-.599.123-.807.323-.001.002-.004 0-.003-.002 0-.002-.002-.003-.003-.001l-.035.045a1.134 1.134 0 00-.139.181c-.11.144-.206.296-.287.456L.403 14.36l-.296.654a1.01 1.01 0 00-.016.034l-.032.07c0 .002 0 .002.002.002a1.105 1.105 0 00-.06.369l-.001 3.383A1.14 1.14 0 001.152 20h3.456a1.14 1.14 0 001.152-1.128V13.232c0-2.491 2.063-4.511 4.608-4.511a1.14 1.14 0 001.152-1.128V4.209a1.14 1.14 0 00-1.152-1.128H6.912zm11.328 14.1c0-1.558 1.29-2.82 2.88-2.82 1.59 0 2.88 1.262 2.88 2.82C24 18.736 22.71 20 21.12 20c-1.59 0-2.88-1.262-2.88-2.82z"></path></svg>