<svg fill="currentColor" fill-rule="evenodd" height="1em" style="flex:none;line-height:1" viewBox="0 0 24 24" width="1em" xmlns="http://www.w3.org/2000/svg"><title>GiteeAI</title><path clip-rule="evenodd" d="M15.08 14.637c.218.815.46 1.648.72 2.513.238.79-.472 1.1-.755.356a66.148 66.148 0 01-.864-2.402c-1.542.775-3.08 1.421-4.823 2.148.697 2.563 1.34 4.707 2.34 6.744.1.003.2.004.302.004 6.628 0 12-5.373 12-12 0-2.38-.693-4.598-1.888-6.464-3.117.281-5.881.738-8.42 1.308a39.775 39.775 0 001.077 6.587 97.459 97.459 0 003.64-1.718c.92-.46 1.808-.49.312.683a37.134 37.134 0 01-3.642 2.24zm6.614-9.712A11.993 11.993 0 0013.557.1c-.101 1.617-.07 3.658.052 5.603 2.44-.37 5.094-.627 8.085-.778zM11.962 0a37.821 37.821 0 00.152 5.948c-1.69.298-3.28.656-4.818 1.074-.067-.767-.1-1.467-.1-2.077a.8.8 0 00-1.6 0c0 .742.061 1.594.172 2.518-.767.234-1.524.484-2.276.75a.8.8 0 00.533 1.508c.65-.23 1.306-.458 1.969-.681.32 1.96.807 4.126 1.368 6.21.098.363.202.726.31 1.086-2.067.712-4.176 1.29-6.105 1.597A11.945 11.945 0 010 12C0 5.385 5.352.02 11.962 0zM2.515 19.352a11.985 11.985 0 008.237 4.584c-.797-1.463-1.792-3.706-2.628-6.182-1.86.712-3.769 1.208-5.61 1.598zm11.27-5.484a39.054 39.054 0 01-1.232-5.302 15.441 15.441 0 01-.277-1.388A74.043 74.043 0 007.46 8.556c.248 1.93.666 4.124 1.246 6.277l.264.983v.002l.013.046a56.801 56.801 0 002.134-.849 174.05 174.05 0 002.666-1.147z"></path></svg>