<svg fill="currentColor" fill-rule="evenodd" height="1em" style="flex:none;line-height:1" viewBox="0 0 38 24" xmlns="http://www.w3.org/2000/svg"><title>Glif</title><path d="M18.68 2.14h-3.23V22h3.23V2.14zM23.73 9.266h-3.229V22h3.23V9.266zM33.779 11.515l-2.41-2.41-2.41 2.41 2.41 2.41 2.41-2.41zM24.54 4.41L22.13 2l-2.41 2.41 2.41 2.41 2.41-2.41zM13.626 2.14h-3.23v1.922a5.78 5.78 0 00-2.583-.607A5.817 5.817 0 002 9.266c0 1.4.497 2.687 1.326 3.692H2v3.229h3.23v-1.715a5.779 5.779 0 002.583.607 5.82 5.82 0 005.813-5.813c0-1.498-.57-2.866-1.505-3.897h1.505v-3.23zm-5.813 9.71a2.587 2.587 0 01-2.584-2.584 2.587 2.587 0 012.584-2.583 2.587 2.587 0 012.583 2.583 2.587 2.587 0 01-2.583 2.584zM7.813 16.187H5.229v3.23h2.584A2.587 2.587 0 0110.396 22h3.23a5.82 5.82 0 00-5.813-5.813z"></path><path d="M31.368 5.369c.932 0 1.834.502 2.31 1.427l.128-.128 2.208-2.207a5.822 5.822 0 00-4.646-2.322 5.817 5.817 0 00-5.808 5.652L25.555 22h3.23V7.95a2.587 2.587 0 012.583-2.583v.002z"></path><path d="M33.779 11.515l-2.41-2.41-2.41 2.41 2.41 2.41 2.41-2.41z"></path></svg>