<svg fill="currentColor" fill-rule="evenodd" height="1em" style="flex:none;line-height:1" viewBox="0 0 80 24" xmlns="http://www.w3.org/2000/svg"><title>GLM-V</title><path d="M8.904 2c1.374 0 2.56.285 3.608.853 1.048.567 1.858 1.346 2.433 2.332.576.988.865 2.077.865 3.27v.138a.346.346 0 01-.09.237.287.287 0 01-.219.099h-3.658a.287.287 0 01-.219-.099.338.338 0 01-.09-.237c0-.727-.235-1.346-.708-1.858-.473-.511-1.113-.768-1.92-.768-.807 0-1.426.279-1.906.838-.48.558-.722 1.285-.722 2.178v6.006c0 .893.268 1.62.8 2.179.53.559 1.2.838 2.008.838.756 0 1.365-.22 1.829-.655.464-.437.696-1.049.696-1.83v-.782c0-.093-.044-.138-.13-.138H8.904a.287.287 0 01-.218-.099.338.338 0 01-.09-.237V11.19c0-.093.03-.171.09-.237a.287.287 0 01.218-.099h6.597c.086 0 .159.033.219.1.06.065.09.143.09.236v3.798c0 1.397-.29 2.627-.865 3.688a6.048 6.048 0 01-2.42 2.458c-1.04.577-2.247.865-3.62.865-1.374 0-2.58-.297-3.62-.893a6.179 6.179 0 01-2.42-2.514C2.288 17.513 2 16.263 2 14.849V9.122c0-1.415.287-2.657.864-3.73a6.222 6.222 0 012.421-2.5C6.325 2.298 7.531 2 8.905 2zm58.488.479c.184 0 .302.09.353.273l2.907 12.442c.017.055.043.082.078.082.034 0 .057-.027.076-.082l2.856-12.442c.051-.182.168-.273.355-.273h3.79c.101 0 .178.036.23.109.05.073.057.165.024.274l-5.18 18.485c-.051.182-.161.273-.33.273H68.71c-.168 0-.278-.09-.33-.273h-.003L63.272 2.862l-.026-.11c0-.182.093-.273.277-.273h3.869zm-45.29.003c.084 0 .156.033.216.095a.33.33 0 01.087.232V17.6c0 .09.042.137.126.137h8.063c.084 0 .155.033.216.095a.33.33 0 01.088.232v3.227a.33.33 0 01-.088.231.282.282 0 01-.216.095H18.512a.279.279 0 01-.168-.053l-.045-.04a.332.332 0 01-.088-.232V2.809a.33.33 0 01.088-.232.278.278 0 01.215-.095h3.588zm25.99-.002a.29.29 0 01.216.095.332.332 0 01.087.233v18.484a.33.33 0 01-.087.231.281.281 0 01-.215.095h-3.59a.284.284 0 01-.215-.095.33.33 0 01-.087-.231V10.3c0-.073-.017-.11-.052-.11-.034 0-.067.028-.1.083l-2.173 3.772c-.068.146-.186.22-.354.22h-1.795c-.168 0-.287-.074-.355-.22l-2.198-3.8c-.035-.055-.068-.082-.1-.082-.034 0-.051.036-.051.11v11.019a.33.33 0 01-.088.231.282.282 0 01-.216.095H33.13a.285.285 0 01-.216-.095.33.33 0 01-.088-.231V2.809a.33.33 0 01.088-.232.28.28 0 01.216-.095h3.564c.152 0 .269.073.355.22l3.514 5.96c.05.11.1.11.15 0l3.463-5.96c.067-.147.184-.22.354-.22l-.004-.002h3.566zm12.506 8.496v3.63h-7.416v-3.63h7.416z"></path></svg>