<svg xmlns="http://www.w3.org/2000/svg" width="1em" height="1em" fill="none" style="flex:none;line-height:1" viewBox="0 0 24 24"><title>GPTZZZ</title><defs><radialGradient id="b" cx="0" cy="0" r="1" gradientTransform="rotate(52 -4.116 13.936)scale(11.2)" gradientUnits="userSpaceOnUse"><stop stop-color="#e1dcff"/><stop offset=".28" stop-color="#a99dff"/><stop offset=".64" stop-color="#8375ff"/><stop offset="1" stop-color="#5b49e6"/></radialGradient><linearGradient id="a" x1="1.2" x2="22.8" y1="15" y2="9" gradientUnits="userSpaceOnUse"><stop stop-color="#7c6cff"/><stop offset=".45" stop-color="#3fa0e8"/><stop offset="1" stop-color="#33d6ef"/></linearGradient><clipPath id="c"><path d="M0 12h24v12H0z"/></clipPath></defs><path fill="url(#a)" fill-rule="evenodd" d="M.7 12a11.3 4.05 0 1 1 22.6 0A11.3 4.05 0 1 1 .7 12m1.4 0a9.9 2.55 0 1 0 19.8 0 9.9 2.55 0 1 0-19.8 0" transform="rotate(-22 12 12)"/><circle cx="12" cy="12" r="5.95" fill="url(#b)"/><path fill="url(#a)" fill-rule="evenodd" d="M.7 12a11.3 4.05 0 1 1 22.6 0A11.3 4.05 0 1 1 .7 12m1.4 0a9.9 2.55 0 1 0 19.8 0 9.9 2.55 0 1 0-19.8 0" clip-path="url(#c)" transform="rotate(-22 12 12)"/><circle cx="18.05" cy="10.35" r="1.15" fill="#33d6ef"/></svg>