<svg fill="currentColor" fill-rule="evenodd" height="1em" style="flex:none;line-height:1" viewBox="0 0 24 24" width="1em" xmlns="http://www.w3.org/2000/svg"><title>Gradio</title><path clip-rule="evenodd" d="M11.238 7.603a1.532 1.532 0 011.524 0l10.468 6a1.532 1.532 0 010 2.66l-10.468 6c-.472.27-1.052.27-1.524 0l-10.468-6a1.533 1.533 0 010-2.66l10.468-6zm-6.624 7.33L12 19.166l7.386-4.233L12 10.699l-7.386 4.234z"></path><path clip-rule="evenodd" d="M11.238 1.733a1.533 1.533 0 011.524 0l10.468 6a1.532 1.532 0 010 2.659l-10.468 6c-.472.27-1.052.27-1.524 0l-10.468-6a1.532 1.532 0 010-2.659l10.468-6zm-6.624 7.33L12 13.296l7.386-4.233L12 4.829 4.614 9.063z"></path><path clip-rule="evenodd" d="M12.784 10.265L2.291 16.239.774 13.575l10.494-5.974 1.516 2.664z"></path></svg>