<svg height="1em" style="flex:none;line-height:1" viewBox="0 0 24 24" width="1em" xmlns="http://www.w3.org/2000/svg"><title>Greptile</title><path clip-rule="evenodd" d="M3.353.004a6.074 6.074 0 01-.265.045C2.63.12 2.092.348 1.71.633 1.426.846.717 1.575.557 1.819a3.359 3.359 0 00-.23 3.296c.154.322.35.59.71.972.187.198.434.486.55.64a6.629 6.629 0 011.305 3.546c.01.138.035 1.607.057 3.264.043 3.273.038 3.18.203 3.485.266.494.94.79 1.474.648.29-.077.463-.204 1.353-.986.957-.84 1.092-.932 1.446-.98.124-.017.631 0 1.66.053 1.513.08 1.622.079 1.85-.016.393-.164.539-.4.661-1.074.247-1.36 1.296-2.56 2.64-3.022.116-.04.373-.104.572-.144.198-.04.426-.102.506-.138.296-.136.515-.424.566-.744.017-.11-.007-.549-.089-1.602-.091-1.179-.107-1.483-.083-1.621.057-.342.139-.46 1.01-1.448.447-.506.85-.976.895-1.043.262-.39.288-.91.068-1.345a1.44 1.44 0 00-.822-.67c-.1-.029-.834-.037-3.544-.038H9.897l-.335-.063c-.958-.179-1.765-.49-2.484-.958-.362-.236-.583-.41-1.018-.804-.408-.37-.59-.502-.921-.67A3.018 3.018 0 003.744.005a3.942 3.942 0 00-.391 0zm15.728 5.858c-.132.049-.217.127-.48.44-.592.707-.74 1.336-.531 2.256.106.466.163.572.361.673.105.054.169.055 2.637.046l2.53-.009.118-.063a.551.551 0 00.095-.895 184.88 184.88 0 00-2.223-1.254c-2.293-1.282-2.281-1.276-2.507-1.194zm-3.216 6.71a9.258 9.258 0 00-1.364.696c-.844.557-1.454 1.36-1.923 2.53-.211.525-.202.75.04.935.111.087 6.478 3.14 6.667 3.198.153.047.27.027.43-.074a.538.538 0 00.24-.434c0-.06-.03-.18-.065-.264-.156-.368-3.098-6.467-3.158-6.545-.168-.222-.394-.232-.867-.042zm-8.48 5.457c-.453.102-.83.32-1.285.745-.296.277-.336.468-.167.798.053.103.61 1.104 1.236 2.224 1.297 2.317 1.22 2.206 1.558 2.202.152-.002.198-.015.296-.084a.662.662 0 00.173-.193c.058-.11.06-.152.08-2.595.018-1.93.015-2.51-.011-2.606a.569.569 0 00-.138-.227c-.09-.091-.14-.112-.406-.176-.582-.138-.992-.165-1.336-.088z" fill="#44A775" fill-rule="evenodd"></path></svg>