<svg fill="currentColor" fill-rule="evenodd" height="1em" style="flex:none;line-height:1" viewBox="0 0 63 24" xmlns="http://www.w3.org/2000/svg"><title>Grok</title><path d="M47.419 21.645V2.457h3.033V15.12l6.415-7.369h3.678l-5.772 6.316 5.825 7.578h-3.624l-4.717-6.512-1.805-.012v6.524h-3.033zM38.22 21.968c-4.51 0-6.952-3.198-6.952-7.283 0-4.112 2.443-7.283 6.952-7.283 4.537 0 6.952 3.17 6.952 7.283 0 4.085-2.415 7.283-6.952 7.283zm-3.785-7.283c0 3.17 1.718 4.756 3.785 4.756 2.094 0 3.785-1.585 3.785-4.756 0-3.172-1.691-4.784-3.785-4.784-2.067 0-3.785 1.612-3.785 4.784zM22.826 21.645V9.955l2.55-2.204h5.422v2.58H25.86v11.314h-3.033zM11.228 22C5.447 22 2 17.802 2 12.078 2 6.3 5.57 2 11.341 2c4.51 0 7.811 2.311 8.59 6.611h-3.463c-.51-2.445-2.55-3.816-5.127-3.816-4.16 0-5.986 3.601-5.986 7.283 0 3.682 1.826 7.256 5.986 7.256 3.973 0 5.717-2.876 5.852-5.267h-5.986v-2.783h9.046l-.015 1.455c0 5.406-2.203 9.261-9.01 9.261z"></path></svg>