<svg height="1em" style="flex:none;line-height:1" viewBox="0 0 24 24" width="1em" xmlns="http://www.w3.org/2000/svg"><title>Hailuo</title><path d="M24 12C24 5.373 18.6-.017 11.97 0 5.39.017.015 5.39 0 11.97-.017 18.6 5.373 24 12 24h7.885a4.108 4.108 0 004.108-4.108V12.4c.004-.133.007-.266.007-.4zM5.829 18.664c-1.91-1.63-3.088-4.24-3.033-6.9.004-.186.013-.372.03-.558v-.012c.277-3.174 2.327-6.134 5.2-7.509 2.874-1.375 6.466-1.112 9.11.664 2.644 1.777 4.243 5.004 4.056 8.184a11.38 11.38 0 01-.329 2.063c-.066.27-.147.549-.338.75-.19.201-.524.295-.75.134-.216-.154-.248-.456-.266-.72-.15-2.134-.72-4.335-2.162-5.915A6.636 6.636 0 0013.1 6.743a6.858 6.858 0 00-4.577 1.252c-1.099.787-1.962 1.914-2.38 3.2-.416 1.285-.374 2.726.175 3.962a5.24 5.24 0 001.9 2.24c1.467.963 3.475 1.1 5 .23 1.524-.87 2.435-2.758 2.047-4.47-.389-1.712-2.124-3.047-3.87-2.866-.266.027-.648-.002-.657-.27-.008-.207.241-.316.445-.353 1.771-.318 3.67.582 4.64 2.097.973 1.515 1.022 3.544.229 5.16-.794 1.615-2.37 2.795-4.118 3.221-2.357.575-4.491-.105-6.103-1.482h-.002z" fill="url(#lobe-icons-hailuo-fill)"></path><defs><linearGradient gradientUnits="userSpaceOnUse" id="lobe-icons-hailuo-fill" x1=".539" x2="27.487" y1=".884" y2="27.022"><stop offset=".09" stop-color="#FFAB0C"></stop><stop offset=".31" stop-color="#FF5538"></stop><stop offset=".46" stop-color="#E9405D"></stop><stop offset=".75" stop-color="#D266DA"></stop><stop offset=".89" stop-color="#D584EF"></stop></linearGradient></defs></svg>