<svg fill="none" height="1em" style="flex:none;line-height:1" viewBox="0 0 153 24" xmlns="http://www.w3.org/2000/svg"><title>Hedra</title><path d="M40.473 17.519a6.058 6.058 0 110-12.116 6.058 6.058 0 010 12.116zM65.664 5.403L70.446 17.2M75.861 5.403L68.209 22.62M120.502 5.403v12.116M125.923 5.403a5.42 5.42 0 00-5.421 5.42v6.696M.62.62V17.52M12.414 8.591H1.254M12.414.62V17.52M88.297.62V17.52M100.097 8.591h-11.16M100.098.62V17.52M23.173 17.519a6.058 6.058 0 100-12.116 6.058 6.058 0 000 12.116zM29.23 5.403v12.116M34.416 5.403V22.62M56.733 17.519a6.058 6.058 0 110-12.116 6.058 6.058 0 010 12.116zM50.672 5.403V22.62M151.121 14.412c-.537.932-1.862 3.107-5.587 3.107-3.727 0-5.899-2.796-5.899-6.213 0-2.486 1.862-5.903 5.899-5.903 4.579 0 5.855 3.906 5.897 5.808a.094.094 0 01-.095.095H140.1M110.3 17.519a6.058 6.058 0 100-12.116 6.058 6.058 0 000 12.116zM135.943 7.7c0-.981-1.224-2.617-3.483-2.617-2.26 0-3.539 1.636-3.539 2.944s.225 2.354 3.539 3.27c3.314.915 3.86 2.289 3.86 3.433 0 1.145-.999 3.107-3.86 3.107-2.862 0-3.86-1.962-3.86-3.27" stroke="currentColor" stroke-linecap="round"></path></svg>