<svg fill="currentColor" fill-rule="evenodd" height="1em" style="flex:none;line-height:1" viewBox="0 0 81 24" xmlns="http://www.w3.org/2000/svg"><title>Hedra</title><path clip-rule="evenodd" d="M2 0l2.588 1.763v5.66H4.9A5.841 5.841 0 019.858 4.8c3.991 0 6.548 2.906 6.548 6.937v9.469h-2.588v-9.469c0-2.687-1.59-4.593-4.303-4.593-2.65 0-4.926 2.031-4.926 4.843v9.219H2L2 0zm16.251 13.112c0-4.813 3.493-8.313 8.357-8.313 4.802 0 8.263 3.5 8.263 8.344 0 .313 0 .688-.03 1.03H20.9c.374 3.188 2.682 5.313 5.894 5.313 2.339 0 4.397-1.187 5.394-3.062l2.152 1.093c-1.278 2.687-4.117 4.313-7.608 4.313-4.927 0-8.482-3.656-8.482-8.719zm13.907-1.22c-.468-2.843-2.681-4.75-5.675-4.75-2.9 0-5.114 1.907-5.55 4.75h11.225zM44.297 4.8c-4.615 0-8.139 3.563-8.139 8.5 0 4.937 3.555 8.53 8.17 8.53 2.557 0 4.584-1.124 5.737-3.062h.312v2.438h2.588V0l-2.588 1.763v6.005h-.312c-1.153-1.906-3.242-2.969-5.768-2.969zm.312 2.344c3.367 0 5.83 2.687 5.83 6.156s-2.463 6.187-5.83 6.187c-3.368 0-5.863-2.656-5.863-6.187 0-3.469 2.464-6.156 5.863-6.156zm11.265-1.72H58.4V7.55h.28c.718-1.438 2.464-2.438 4.21-2.438a4.428 4.428 0 011.934.406v2.406a6.453 6.453 0 00-2.339-.469c-2.37 0-4.022 2.125-4.022 5.25v8.5h-2.588l-.001-15.78zm16.173 6.407C67.37 12.361 65 14.424 65 17.205c0 2.719 2.245 4.5 5.642 4.5 2.526 0 4.366-1 5.488-2.813h.282v2.313H79V10.737c0-3.594-2.588-5.907-6.673-5.907-3.96 0-6.548 2.125-6.548 5.469h2.62c-.032-1.969 1.527-3.125 3.897-3.125 2.59 0 4.117 1.375 4.117 3.5v.625l-4.366.531zm4.366 1.688v1.406c0 2.656-2.183 4.625-5.394 4.625-2.121 0-3.43-.907-3.43-2.407 0-1.468 1.247-2.719 4.458-3.124l4.366-.5z"></path></svg>