<svg fill="currentColor" fill-rule="evenodd" height="1em" style="flex:none;line-height:1" viewBox="0 0 66 24" xmlns="http://www.w3.org/2000/svg"><title>HuaweiCloud</title><path d="M5.12 9.182a39.768 39.768 0 01-1.924 1.695L2 8.695a23.043 23.043 0 003.077-3.136C6.045 4.387 6.843 3.201 7.469 2l2.286.975a32.886 32.886 0 01-2.05 3.262v7.521H5.118V9.183zm3.482-1.186c.925-.24 1.965-.544 3.119-.911V2.487h2.606v3.58a37.323 37.323 0 005.299-2.86l1.196 2.14a32.806 32.806 0 01-6.495 3.39v.911c0 .438.079.735.235.89.171.155.47.247.898.276.213.014.534.02.961.02.527 0 .926-.013 1.197-.042.512-.042.847-.134 1.004-.275.17-.141.285-.43.341-.869.072-.678.107-1.3.107-1.864l2.372.678c-.043.763-.093 1.44-.15 2.034-.114.72-.277 1.257-.491 1.61-.2.353-.506.607-.919.763-.399.14-.997.24-1.795.296a27.91 27.91 0 01-3.76 0c-.64-.056-1.146-.162-1.517-.317a1.703 1.703 0 01-.833-.806c-.17-.381-.256-.91-.256-1.589v-.762c-.655.226-1.431.466-2.329.72l-.79-2.415zm4.572 6.991h8.29v2.543h-8.29v4.428h-2.65V17.53H2.278v-2.543h8.246v-1.695h2.65v1.695zM41.995 6.83v.636c0 2.048-.05 4.047-.15 5.996-.1 1.935-.264 3.602-.492 5-.128.763-.327 1.356-.598 1.78-.27.437-.662.755-1.175.953-.498.198-1.182.296-2.05.296-1.268 0-2.465-.077-3.59-.232l-.534-2.564c.527.07 1.09.134 1.688.19.612.057 1.225.092 1.837.106.442 0 .776-.042 1.004-.127.228-.099.406-.268.534-.508s.242-.615.342-1.123c.128-.72.235-1.758.32-3.114.1-1.37.15-2.613.15-3.73 0-.465-.007-.797-.021-.995h-6.068c-.285 1.85-.719 3.482-1.303 4.894-.57 1.398-1.389 2.72-2.457 3.962-1.054 1.243-2.45 2.493-4.187 3.75l-1.86-2.076c1.51-1.031 2.728-2.062 3.654-3.093.94-1.032 1.667-2.133 2.18-3.306.526-1.186.925-2.563 1.196-4.13h-6.217V6.83h3.653a45.037 45.037 0 00-1.431-1.59 27.68 27.68 0 00-1.282-1.334l1.901-1.59c.356.326.805.77 1.346 1.336a39.291 39.291 0 011.517 1.673l-1.73 1.505h2.585c.07-.763.135-1.597.192-2.5.071-.919.114-1.575.128-1.97h2.692c0 .832-.1 2.323-.299 4.47h8.525zm-5.812 9.45c-.356-.523-.861-1.18-1.517-1.97a31.758 31.758 0 00-1.602-1.823l1.901-1.61c.442.438.976 1.017 1.603 1.737.64.707 1.175 1.356 1.602 1.95l-1.987 1.716zM46.78 3.208h15.532V5.75H46.78V3.208zm8.012 8.284a49.782 49.782 0 01-2.329 3.707c-.883 1.286-1.666 2.31-2.35 3.072 3.49-.325 6.395-.614 8.717-.869a128.143 128.143 0 00-2.308-3.326l2.18-1.313c.712.932 1.573 2.14 2.585 3.623a99.573 99.573 0 012.606 3.94l-2.222 1.526-1.26-2.034-11.089.974-2.756.233-.769-2.648c.413-.155.734-.304.962-.445.228-.155.477-.381.748-.678a32.379 32.379 0 002.093-2.648 37.28 37.28 0 002.03-3.114h-6.538V8.948H64v2.543h-9.208z"></path></svg>