<svg height="1em" style="flex:none;line-height:1" viewBox="0 0 24 24" width="1em" xmlns="http://www.w3.org/2000/svg"><title>Huawei</title><path d="M10.341 17.042s.062-.061 0-.061C7.516 10.902 3.646 6.22 3.646 6.22S1.557 8.168 1.68 10.174c.061 1.52 1.228 2.37 1.228 2.37 1.843 1.763 6.266 4.012 7.31 4.499h.123zm-.737 1.52c0-.061-.123-.061-.123-.061l-7.371.243c.798 1.398 2.15 2.492 3.563 2.188.983-.243 3.194-1.763 3.87-2.25.123-.12.061-.12.061-.12zm.123-.67c.062-.06 0-.12 0-.12C6.471 15.581.206 12.3.206 12.3c-.553 1.763.184 3.161.184 3.161.798 1.702 2.334 2.189 2.334 2.189.676.303 1.413.303 1.413.303h5.529c.061 0 .061-.06.061-.06zm.492-14.831c-.308 0-1.168.243-1.168.243-1.965.486-2.395 2.249-2.395 2.249-.369 1.094 0 2.31 0 2.31.675 2.857 3.87 7.598 4.545 8.57l.062.062c.061 0 .061-.061.061-.061C12.43 5.796 10.22 3.06 10.22 3.06zm2.457 13.373c.061 0 .123-.061.123-.061.737-1.033 3.87-5.714 4.545-8.57 0 0 .369-1.399 0-2.31 0 0-.491-1.764-2.457-2.25 0 0-.553-.121-1.167-.243 0 0-2.211 2.796-1.106 13.312 0 .122.062.122.062.122zm1.72 2.067s-.062 0-.062.06v.122c.738.486 2.826 2.006 3.87 2.249 0 0 1.905.669 3.563-2.188l-7.371-.243zm9.398-6.261s-6.265 3.343-9.521 5.531c0 0-.062.06-.062.122 0 0 0 .06.062.06h5.651s.553 0 1.29-.303c0 0 1.536-.487 2.396-2.25 0-.06.737-1.458.184-3.16zM13.66 17.042s.061.06.122 0c1.045-.547 5.468-2.736 7.31-4.499 0 0 1.168-.911 1.23-2.37.122-2.067-1.967-3.951-1.967-3.951s-3.87 4.559-6.695 10.698c0 0-.062.06 0 .122z" fill="#C7000B"></path></svg>