<svg fill="currentColor" fill-rule="evenodd" height="1em" style="flex:none;line-height:1" viewBox="0 0 121 24" xmlns="http://www.w3.org/2000/svg"><title>Hyperbolic</title><path d="M2 19.792V2.475h2.304v7.67h8.793v-7.67h2.304v17.32h-2.304v-7.596H4.304v7.595H2v-.002zM26.81 6.186h2.451l-6.688 16.552A1.962 1.962 0 0120.715 24h-4.136v-1.929h3.988l1.215-3.017-5.2-12.865h2.45l3.89 10.342L26.81 6.189v-.003zm5.802.99c0 .52 0 .964-.05 1.533h.05c.965-1.782 2.7-2.87 4.904-2.87 3.395 0 6.266 2.498 6.266 7.076 0 4.578-2.874 7.225-6.266 7.225-2.204 0-3.938-1.089-4.904-2.87h-.05c.05.569.05 1.014.05 1.533v5.195h-2.23V6.186h2.23v.99zm4.385 11.033c2.625.025 4.458-2.128 4.458-5.294 0-3.167-1.833-5.17-4.458-5.145-2.65.024-4.41 2.127-4.41 5.12 0 2.993 1.76 5.294 4.41 5.319zm20.622-6.259v1.782H46.97c.272 2.797 1.957 4.48 4.285 4.48 1.834 0 3.295-1.04 3.84-2.598h2.4c-.57 2.622-2.995 4.528-6.24 4.528-3.963 0-6.638-2.845-6.638-7.15S47.34 5.84 51.255 5.84c3.665 0 6.364 2.622 6.364 6.112v-.003zm-6.364-4.18c-2.38 0-3.99 1.757-4.26 3.984h8.37c-.249-2.327-1.809-3.984-4.11-3.984zm8.022 12.022V6.184h2.18V8.56h.05c.643-1.312 1.882-2.721 4.06-2.721h1.314v1.928h-1.61c-2.28 0-3.765 1.51-3.765 4.355v7.67h-2.23zM70.218 7.176c0 .52 0 .964-.05 1.533h.05c.965-1.782 2.7-2.87 4.904-2.87 3.394 0 6.266 2.498 6.266 7.076 0 4.578-2.874 7.225-6.266 7.225-2.205 0-3.939-1.089-4.904-2.87h-.05c.05.569.05 1.014.05 1.533v.99h-2.23V0h2.23v7.176zm4.384 11.033c2.625.025 4.459-2.128 4.459-5.294 0-3.167-1.834-5.17-4.46-5.145-2.65.024-4.408 2.127-4.408 5.12 0 2.993 1.759 5.294 4.409 5.319zm14.834 1.931c-3.764 0-6.762-2.597-6.762-7.15 0-4.554 2.996-7.151 6.762-7.151 3.767 0 6.761 2.572 6.761 7.15s-2.996 7.151-6.76 7.151zm0-1.931c2.476-.025 4.435-1.782 4.435-5.22 0-3.437-1.956-5.195-4.434-5.22-2.476-.024-4.434 1.758-4.434 5.22 0 3.463 1.955 5.245 4.433 5.22zm7.977 1.583V0h2.23v19.792h-2.23zm4.627-15.907V1.558h2.328v2.327h-2.328zm.049 15.907V6.184h2.23v13.608h-2.23zm10.621.348c-4.039 0-6.763-2.846-6.763-7.176s2.525-7.125 6.763-7.125c3.864 0 5.994 2.498 6.29 5.542h-2.329c-.15-1.929-1.535-3.611-3.964-3.611-2.749 0-4.434 2.152-4.434 5.194 0 3.217 1.931 5.245 4.434 5.245s3.74-1.832 3.964-3.34H119c-.371 2.77-2.55 5.269-6.29 5.269v.002z"></path></svg>