<svg height="1em" style="flex:none;line-height:1" viewBox="0 0 24 24" width="1em" xmlns="http://www.w3.org/2000/svg"><title>Image 2</title><path d="M6.05 2.25h10.42c2.92 0 5.28 2.36 5.28 5.28v10.42c0 2.92-2.36 5.28-5.28 5.28H6.05A5.28 5.28 0 01.77 17.95V7.53c0-2.92 2.36-5.28 5.28-5.28z" fill="#94c21a"></path><path d="M18.78 4.17a.55.55 0 00-1.06 0l-.2.68a2.1 2.1 0 01-1.41 1.41l-.68.2a.55.55 0 000 1.06l.68.2a2.1 2.1 0 011.41 1.41l.2.68a.55.55 0 001.06 0l.2-.68a2.1 2.1 0 011.41-1.41l.68-.2a.55.55 0 000-1.06l-.68-.2a2.1 2.1 0 01-1.41-1.41l-.2-.68zM8.42 8.1h7.22a3.04 3.04 0 013.04 3.04v4.38a3.04 3.04 0 01-3.04 3.04H8.42a3.04 3.04 0 01-3.04-3.04v-4.38A3.04 3.04 0 018.42 8.1zm0 1.9c-.63 0-1.14.51-1.14 1.14v4.38c0 .63.51 1.14 1.14 1.14h7.22c.63 0 1.14-.51 1.14-1.14v-4.38c0-.63-.51-1.14-1.14-1.14H8.42zM10.18 12.19a1.27 1.27 0 100 2.54 1.27 1.27 0 000-2.54zm4.13 0a1.27 1.27 0 100 2.54 1.27 1.27 0 000-2.54z" fill="#fff"></path></svg>