<svg fill="currentColor" fill-rule="evenodd" height="1em" style="flex:none;line-height:1" viewBox="0 0 142 24" xmlns="http://www.w3.org/2000/svg"><title>Infermatic</title><path d="M35.85 2.574a.36.36 0 01-.261.346.35.35 0 01-.153.007c-3.282-.55-3.202 1.218-3.142 3.502a.396.396 0 00.391.384h2.675a.504.504 0 01.505.504v1.685a.41.41 0 01-.41.41h-2.85a.35.35 0 00-.246.1.343.343 0 00-.103.245v11.496a.429.429 0 01-.428.43h-2.664a.439.439 0 01-.44-.445V9.894a.484.484 0 00-.478-.482h-1.707a.404.404 0 01-.285-.117.396.396 0 01-.118-.282V7.336a.505.505 0 01.505-.504h1.67a.42.42 0 00.39-.266.41.41 0 00.027-.163c-.114-3.328.569-6.215 4.534-6.39.959-.043 1.69.018 2.197.182a.568.568 0 01.39.543v1.836zM5.353.599L2.507.574a.474.474 0 00-.478.47L2.004 3.89a.474.474 0 00.47.478l2.846.025a.474.474 0 00.478-.47l.025-2.846A.474.474 0 005.353.6zM122.226.587l-2.914.006a.414.414 0 00-.413.414l.005 2.914c0 .228.186.413.414.413l2.914-.005a.413.413 0 00.413-.415L122.64 1a.413.413 0 00-.414-.413zM109.04 2.867l2.649-1.021a.312.312 0 01.292.034.312.312 0 01.136.262v4.28a.425.425 0 00.429.425h2.656a.588.588 0 01.588.588v1.434a.5.5 0 01-.501.497h-2.811a.346.346 0 00-.345.342c-.038 2.924-.037 5.3.003 7.129.053 2.22 1.742 1.965 3.347 1.954a.3.3 0 01.206.084.281.281 0 01.086.204v2.258a.358.358 0 01-.3.353c-3.593.61-6.78.117-6.901-4.254-.079-2.8-.064-5.366.045-7.698a.29.29 0 00-.082-.217.299.299 0 00-.214-.09h-1.98a.464.464 0 01-.463-.463V7.446a.653.653 0 01.648-.652h1.746a.306.306 0 00.28-.185.301.301 0 00.023-.115V3.55a.73.73 0 01.463-.683zM13.79 8.79a.175.175 0 00.319.083c.03-.043.363-.409.998-1.097 1.297-1.404 3.707-1.548 5.44-1.024 2.034.61 2.914 2.792 2.952 4.716.059 2.691.051 5.957-.022 9.797a.442.442 0 01-.44.429h-2.531a.466.466 0 01-.429-.287.455.455 0 01-.034-.176c.03-3.802.018-6.839-.038-9.11-.033-1.361-.603-2.24-1.711-2.637-.731-.263-1.495-.228-2.292.106-1.745.729-2.11 2.69-2.113 4.432-.005 2.572-.003 4.956.007 7.152a.536.536 0 01-.535.538h-2.485a.554.554 0 01-.554-.553V7.378a.567.567 0 01.562-.565h2.356a.4.4 0 01.402.368l.148 1.608zM41.021 15.19a.33.33 0 00-.315.237.319.319 0 00-.008.14c.345 2.212 1.473 3.423 3.385 3.63 1.514.163 3.297-.523 3.9-2.01a.554.554 0 01.79-.27l1.836 1.058a.459.459 0 01.209.525.447.447 0 01-.099.174c-1.658 1.825-2.758 3.084-5.335 3.274-4.53.339-7.223-1.643-8.078-5.945-.341-1.705-.158-3.465.55-5.278 1.08-2.77 3.16-4.193 6.238-4.269 2.634-.066 4.54.778 5.718 2.531 1.313 1.95 1.378 3.764 1.26 5.934a.284.284 0 01-.285.27h-9.766zm.03-2.458l6.291.007a.254.254 0 00.255-.25v-.364a3.306 3.306 0 00-.232-1.225 3.21 3.21 0 00-.666-1.04 3.077 3.077 0 00-.997-.695 2.983 2.983 0 00-1.179-.246h-.637a3.024 3.024 0 00-2.181.931 3.261 3.261 0 00-.908 2.26v.364a.255.255 0 00.254.258zM78.28 9.116c.228-.255.55-.96.911-1.31 1.753-1.71 4.872-1.889 6.61-.094.933.96 1.403 2.275 1.411 3.942.003.536.001 3.71-.004 9.523a.546.546 0 01-.546.547h-2.353a.553.553 0 01-.509-.34.543.543 0 01-.04-.21c.017-4.892.012-7.814-.016-8.765-.03-1.093-.364-2.72-1.635-2.933-3.483-.577-3.749 1.764-3.749 4.66 0 1.95-.001 4.32-.004 7.113a.46.46 0 01-.459.46h-2.58a.455.455 0 01-.455-.444c-.073-2.53-.089-5.48-.046-8.849.02-1.434-.258-2.887-1.992-3.046-2.432-.22-3.21 1.821-3.213 3.92-.003 2.14 0 4.763.011 7.872a.556.556 0 01-.55.554H66.59a.55.55 0 01-.55-.55V7.264a.44.44 0 01.44-.44h2.504a.44.44 0 01.44.44v1.468a.22.22 0 00.398.13c.086-.122.29-.424.611-.908 1.427-2.158 5.707-1.927 6.981.266.268.46.457.756.566.888a.197.197 0 00.3.008zM100.374 19.69a.226.226 0 00-.304-.13.232.232 0 00-.094.077c-.448.615-.79 1.24-1.544 1.616-2.823 1.393-7.22 1.029-8.021-2.735-.577-2.717 1.236-4.527 3.722-5.08 1.864-.42 3.75-.7 5.657-.84a.331.331 0 00.307-.33c.003-.465-.073-1.04-.227-1.726-.369-1.635-2.782-1.692-3.958-1.233-1.225.478-1.165 1.123-1.521 2.136a.329.329 0 01-.315.224h-2.967a.31.31 0 01-.3-.231c-.099-.387.033-.953.395-1.696 1.62-3.343 5.755-3.81 8.939-2.918 2.565.717 3.589 3.028 3.536 5.49a98.09 98.09 0 00.201 9.072.272.272 0 01-.073.21.276.276 0 01-.204.09h-2.622a.356.356 0 01-.36-.338c-.041-.781-.123-1.334-.247-1.658zm-.106-4.545a.394.394 0 00-.276-.398.398.398 0 00-.172-.016c-1.931.243-5.55.372-5.85 2.208-.566 3.506 5.091 3.078 5.907.433a8.897 8.897 0 00.391-2.227zM129.578 14.223c.004 2.375.877 4.925 3.658 4.947 1.242.008 2.15-.5 2.724-1.525a.243.243 0 00.023-.053l.402-1.207a.433.433 0 01.49-.288l2.443.478a.386.386 0 01.307.444c-.285 1.667-1.032 2.918-2.238 3.752-2.258 1.564-6.359 1.734-8.636-.166-2.003-1.674-2.785-3.844-2.789-6.379-.003-2.53.771-4.704 2.77-6.382 2.269-1.912 6.371-1.752 8.636-.197 1.209.832 1.959 2.08 2.25 3.745a.387.387 0 01-.307.448l-2.444.485a.427.427 0 01-.489-.288l-.406-1.207a.244.244 0 00-.023-.053c-.577-1.021-1.486-1.526-2.728-1.513-2.781.03-3.646 2.58-3.643 4.959zM63.103 9.518a.318.318 0 01-.31.318c-2.869.066-4.37 1.524-4.504 4.375-.04.863-.048 3.206-.023 7.03a.471.471 0 01-.285.435.46.46 0 01-.178.036H55.2a.452.452 0 01-.451-.451V7.199a.377.377 0 01.375-.375h2.542a.387.387 0 01.387.387v2.045a.235.235 0 00.456.087c.746-1.874 2.17-2.832 4.272-2.872a.315.315 0 01.322.315v2.732zM5.287 6.763H2.586a.429.429 0 00-.43.429v14.076c0 .237.193.43.43.43h2.701a.429.429 0 00.429-.43V7.192a.429.429 0 00-.429-.429zM122.044 6.763l-2.573.009a.509.509 0 00-.507.51l.049 13.925c.001.28.229.507.51.506l2.573-.009a.508.508 0 00.506-.51l-.048-13.925a.509.509 0 00-.51-.506z"></path></svg>