<svg height="1em" style="flex:none;line-height:1" viewBox="0 0 24 24" width="1em" xmlns="http://www.w3.org/2000/svg"><title>Jina</title><path d="M1.80913 16.9737C2.65296 16.9737 3.33701 16.2897 3.33701 15.4459C3.33701 14.602 2.65296 13.918 1.80913 13.918C0.965306 13.918 0.28125 14.602 0.28125 15.4459C0.28125 16.2897 0.965306 16.9737 1.80913 16.9737Z" fill="#EB6161"></path><path d="M6.62248 10.6329C6.82221 10.6329 6.98198 10.7927 6.98198 10.9924L6.96201 13.9184C6.96201 15.5861 5.62387 16.9442 3.95618 16.9741H3.90625V13.9284H3.91624L3.92622 11.0024C3.92622 10.8027 4.086 10.6429 4.28572 10.6429H6.62248V10.6329ZM11.316 10.6329C11.5157 10.6329 11.6755 10.7927 11.6755 10.9924V15.0868C11.6755 15.2865 11.5157 15.4463 11.316 15.4463H8.97922C8.77949 15.4463 8.61971 15.2865 8.61971 15.0868V10.9924C8.61971 10.7927 8.77949 10.6329 8.97922 10.6329H11.316ZM14.9909 10.623H15.0408C16.5387 10.6429 17.757 11.8512 17.797 13.3492V15.0768C17.797 15.2765 17.6372 15.4363 17.4375 15.4363H13.6627C13.463 15.4363 13.3032 15.2765 13.3032 15.0768V10.9825C13.3032 10.7827 13.463 10.623 13.6627 10.623H14.9909ZM21.1723 15.3963C19.9141 15.3164 18.9055 14.2679 18.9055 12.9897C18.9055 11.6615 19.984 10.583 21.3121 10.583C22.5903 10.583 23.6389 11.5816 23.7188 12.8499V15.0368C23.7188 15.2366 23.559 15.3963 23.3593 15.3963H21.1723Z" fill="#009191"></path><path d="M10.1426 10.0636C10.9865 10.0636 11.6705 9.37952 11.6705 8.53569C11.6705 7.69187 10.9865 7.00781 10.1426 7.00781C9.2988 7.00781 8.61475 7.69187 8.61475 8.53569C8.61475 9.37952 9.2988 10.0636 10.1426 10.0636Z" fill="#FBCB67"></path></svg>