<svg fill="currentColor" fill-rule="evenodd" height="1em" style="flex:none;line-height:1" viewBox="0 0 24 24" width="1em" xmlns="http://www.w3.org/2000/svg"><title>Kagi</title><path d="M14.498 18.392h-5.14c-1.39 0-1.632-1.508-1.39-2.11.12-.302.423-.724.664-1.026a6.81 6.81 0 003.326.845 6.945 6.945 0 006.954-6.935c0-2.05-.907-3.86-2.298-5.186l.181-.181c.363-.362.907-.603 1.451-.543l.847.06V0h-1.451c-1.693 0-3.084 1.025-3.689 2.472a6.83 6.83 0 00-1.934-.301 6.945 6.945 0 00-6.954 6.935c0 1.507.484 2.954 1.33 4.1a1.84 1.84 0 01-.423.302l-.181.18c-1.391 1.327-2.056 3.015-1.693 4.945.181 1.025 1.088 2.11 1.995 2.714.605.422 1.39.603 2.177.603l5.804-.242c.665 0 1.27.302 1.633.905L16.432 24 20 22.794l-.605-1.327a5.425 5.425 0 00-4.897-3.075zm-2.48-12.543c1.814 0 3.326 1.508 3.326 3.317 0 1.809-1.512 3.316-3.325 3.316-1.814 0-3.326-1.507-3.326-3.316 0-1.87 1.451-3.317 3.325-3.317z"></path></svg>