<svg fill="currentColor" fill-rule="evenodd" height="1em" style="flex:none;line-height:1" viewBox="0 0 47 24" xmlns="http://www.w3.org/2000/svg"><title>Kagi</title><path d="M41.856 16.824v.983h2.879V6.357h-2.879v10.467zM43.27 4.735a1.86 1.86 0 001.855-1.868A1.86 1.86 0 0043.27 1a1.86 1.86 0 00-1.854 1.867 1.86 1.86 0 001.854 1.868zM35.514 19.43h-4.146c-1.122 0-1.317-1.23-1.122-1.72.097-.246.341-.59.536-.836.781.442 1.708.688 2.683.688 3.123 0 5.61-2.556 5.61-5.652 0-1.67-.731-3.145-1.853-4.226l.146-.147c.293-.295.732-.492 1.17-.443l.684.05V4.44h-1.17c-1.367 0-2.489.836-2.977 2.015a5.46 5.46 0 00-1.56-.245c-3.123 0-5.61 2.555-5.61 5.651 0 1.229.39 2.408 1.072 3.342a1.484 1.484 0 01-.341.246l-.146.147c-1.122 1.081-1.659 2.457-1.366 4.03.146.835.878 1.72 1.61 2.212.487.344 1.122.491 1.756.491l4.683-.197c.537 0 1.024.246 1.317.738l.585 1.13 2.879-.983-.488-1.081c-.732-1.524-2.244-2.507-3.952-2.507zm-2-10.223c1.464 0 2.683 1.229 2.683 2.703 0 1.475-1.22 2.703-2.683 2.703-1.463 0-2.683-1.228-2.683-2.703 0-1.523 1.17-2.703 2.683-2.703zM19.172 6.16c-2.927.147-5.366 2.506-5.561 5.454-.244 3.49 2.488 6.39 5.854 6.39 1.122 0 2.146-.64 3.024-1.18v1.032h2.878V11.86c-.146-3.293-2.878-5.848-6.195-5.7zm.293 9.091c-1.757 0-3.122-1.425-3.122-3.145a3.124 3.124 0 013.122-3.145c1.756 0 3.122 1.425 3.122 3.145.049 1.72-1.366 3.145-3.122 3.145z"></path><path d="M13.66 6.357H9.61L6.098 9.895l-1.22 1.229V4.342H2v13.515h2.878v-5.062l1.22 1.228v-.049l3.805 3.883h4.049l-6.196-5.898 5.903-5.602z"></path></svg>