<svg fill="currentColor" height="1em" style="flex:none;line-height:1" viewBox="0 0 24 24" width="1em" xmlns="http://www.w3.org/2000/svg"><title>Kluster</title><path d="M5.631 2a.1.1 0 00.065 0h.867c.019.008.028.008.03 0h.025l.794.115c.004 0 .007.002.009.005a.015.015 0 01.004.01v1.353a.012.012 0 01-.007.01l-.005.002a102.72 102.72 0 00-1.455.001 2.679 2.679 0 00-1 .196 1.606 1.606 0 00-.991 1.127c-.064.24-.097.451-.097.635l-.002 3.335c-.001.325-.038.636-.11.931-.208.845-.73 1.386-1.566 1.623a.012.012 0 00-.005.004.01.01 0 000 .013.01.01 0 00.005.004c.923.248 1.454.918 1.608 1.845.045.272.068.477.068.617l.002 3.935c0 .324.051.622.154.896.315.834 1.14 1.152 1.97 1.161a271.304 271.304 0 001.424.002.01.01 0 01.007.01v1.354a.012.012 0 01-.01.012c-.503.07-1.01.112-1.519.126h-.255c-.847-.037-1.672-.245-2.333-.758-.862-.67-1.189-1.716-1.195-2.776-.002-.288-.002-1.535-.002-3.742 0-.598-.07-1.256-.595-1.629-.319-.226-.738-.33-1.122-.328A6.36 6.36 0 010 12.083v-1.435c.537.002 1.03-.01 1.49-.314.353-.233.542-.674.597-1.103.017-.13.025-.318.025-.562-.002-1.733-.001-2.778.001-3.135.005-.692.145-1.401.495-1.984.54-.899 1.496-1.385 2.536-1.504.154-.017.309-.033.465-.046h.022zM17.406 2c.02.008.03.008.026 0h.902c.626.037 1.212.134 1.773.4.51.242.912.585 1.204 1.03.392.597.572 1.342.573 2.058l.002 3.355c0 .82.305 1.525 1.165 1.73.31.073.594.075.937.072.003 0 .006.002.008.004a.012.012 0 01.004.009v1.41a.023.023 0 01-.023.022c-.495-.006-1.006.001-1.436.287-.517.343-.655.95-.656 1.547a1350.33 1350.33 0 000 3.536c.002.63-.029 1.105-.197 1.645-.195.63-.559 1.14-1.091 1.529-.64.467-1.445.652-2.246.688h-.01c-.02-.008-.029-.008-.027 0h-.212a13.625 13.625 0 01-1.52-.126.013.013 0 01-.008-.004.012.012 0 01-.003-.008v-1.355a.01.01 0 010-.004.01.01 0 01.007-.006h.004a124.5 124.5 0 001.433-.002 2.643 2.643 0 001.046-.212c.739-.324 1.058-1.018 1.063-1.799.003-.49.004-1.813.004-3.968a3.9 3.9 0 01.097-.773c.18-.864.719-1.472 1.58-1.7a.009.009 0 00.006-.009l-.001-.005a.01.01 0 00-.005-.004c-.74-.217-1.269-.68-1.508-1.424a3.582 3.582 0 01-.166-1.062c-.004-.311-.006-1.435-.005-3.372 0-.303-.056-.598-.167-.886-.317-.822-1.183-1.109-2.006-1.11h-1.361a.02.02 0 01-.015-.006.021.021 0 01-.006-.015V2.141a.022.022 0 01.019-.022L17.376 2h.03z" fill="#6525F7"></path><path d="M13.168 11.608l2.635 3.895a.011.011 0 01-.01.018H13.75c-.002 0-.004 0-.006-.002a.011.011 0 01-.004-.003l-2.005-2.964a.01.01 0 00-.005-.004.011.011 0 00-.005-.001H9.896a.011.011 0 00-.008.003.011.011 0 00-.003.008v2.951a.012.012 0 01-.004.008.012.012 0 01-.008.004H8.165a.012.012 0 01-.008-.004.012.012 0 01-.003-.008V7.813a.011.011 0 01.011-.012h1.708a.011.011 0 01.012.012v3.04c0 .004 0 .006.003.008a.011.011 0 00.008.004h1.817a.012.012 0 00.01-.005l2.046-3.054a.011.011 0 01.01-.005h2.043c.003 0 .005 0 .006.002a.011.011 0 01.005.01l-.001.006-2.664 3.776a.012.012 0 00-.002.007c0 .002 0 .005.002.006z"></path></svg>