<svg fill="currentColor" fill-rule="evenodd" height="1em" style="flex:none;line-height:1" viewBox="0 0 130 24" xmlns="http://www.w3.org/2000/svg"><title>Kluster</title><path d="M14.54 21.675L9.456 14.69a.027.027 0 00-.022-.011H4.95a.027.027 0 00-.027.027v6.954a.027.027 0 01-.027.027H2.027A.027.027 0 012 21.66V.027A.027.027 0 012.027 0h2.869a.027.027 0 01.027.027v11.8a.027.027 0 00.027.027h4.51a.028.028 0 00.021-.01l5.033-6.507a.027.027 0 01.022-.01h3.455a.027.027 0 01.028.03c0 .005-.003.01-.006.014l-6.121 7.785a.027.027 0 000 .033l6.055 8.454a.027.027 0 01.005.014c0 .005 0 .01-.003.014a.027.027 0 01-.024.015h-3.363a.027.027 0 01-.012-.003.027.027 0 01-.01-.008zM18.58 2.738V.026c0-.007.002-.014.007-.018A.026.026 0 0118.605 0h2.658c.732 0 1.341.42 1.59 1.103.062.17.093.495.093.977-.001 5.515-.002 12.038 0 19.572a.034.034 0 01-.035.034h-2.863a.026.026 0 01-.026-.026V2.843a.05.05 0 00-.015-.035.051.051 0 00-.036-.014h-1.336a.056.056 0 01-.056-.056zM69.882 5.349v2.628a.027.027 0 01-.008.019.026.026 0 01-.018.007h-5.939a.043.043 0 00-.043.044l.001 8.516c0 .318.041.642.123.973.104.424.332.737.684.938.507.291 1.253.392 1.847.395 1.413.007 2.52.007 3.324.002a.05.05 0 01.035.014c.01.01.014.022.014.035v2.74a.024.024 0 01-.007.017.026.026 0 01-.017.007c-1.344.006-2.644.005-3.9-.005-1.25-.009-2.483-.348-3.478-1.096-1.136-.853-1.55-2.477-1.558-3.895a1015.38 1015.38 0 01-.007-8.637.05.05 0 00-.05-.05h-2.606a.031.031 0 01-.03-.031V5.329c0-.009.002-.017.008-.023a.03.03 0 01.022-.01h2.608a.044.044 0 00.044-.043v-5.2A.053.053 0 0160.984 0h2.842a.048.048 0 01.048.047v5.224a.025.025 0 00.025.025h5.93a.052.052 0 01.053.052zM128.41 0h-2.808a.053.053 0 00-.053.053v2.93c0 .029.024.053.053.053h2.808a.053.053 0 00.053-.053V.053A.053.053 0 00128.41 0zM73.275 14.536c.145 1.759.868 3.54 2.525 4.276a6.285 6.285 0 002.122.506c1.035.073 1.95.034 2.749-.116a3.567 3.567 0 001.1-.405c1.013-.575 1.708-1.443 2.084-2.603.018-.057.08-.3.186-.731a.057.057 0 01.056-.044h2.685a.046.046 0 01.035.016l.01.017a.046.046 0 010 .02 8.502 8.502 0 01-1.089 3.148 5.586 5.586 0 01-1.193 1.435c-1.011.87-2.144 1.438-3.4 1.705-.744.158-1.618.226-2.622.203-1.327-.03-2.629-.257-3.736-.796-2.053-1-3.491-2.834-4.02-5.054a11.31 11.31 0 01-.231-3.922c.252-2.224 1.217-4.136 2.95-5.524 1.292-1.033 2.884-1.566 4.554-1.672 1.003-.064 1.897-.026 2.681.112 2.242.394 4.077 1.806 5.165 3.813.924 1.705 1.22 3.59 1.06 5.532a.04.04 0 01-.04.036H73.32a.043.043 0 00-.018.004.045.045 0 00-.025.026.043.043 0 00-.002.018zm.098-2.17h10.585a.028.028 0 00.02-.009.027.027 0 00.009-.019c.012-1.088-.197-2.182-.883-3.048-.87-1.097-2.256-1.563-3.683-1.652-1.31-.082-2.613.072-3.77.642-.22.109-.41.223-.57.344-1.114.843-1.663 2.322-1.76 3.686a.053.053 0 00.014.039.052.052 0 00.038.016zM45.46 15.683c.01.537-.01 1.156.158 1.733.21.72.677 1.216 1.399 1.485.422.158.828.265 1.22.322.945.139 1.963.18 3.054.125.99-.05 2.328-.174 2.92-1.081.311-.478.35-1.136.244-1.7a1.245 1.245 0 00-.636-.886c-.716-.41-1.598-.632-2.386-.752-.523-.081-2.023-.305-4.499-.671-1.1-.163-2.302-.558-3.172-1.253-1.303-1.04-1.5-2.916-1.15-4.45.06-.267.204-.565.431-.894 1.778-2.577 5.567-2.929 8.383-2.54a8.553 8.553 0 013.04 1c1.975 1.105 2.77 2.961 2.676 5.211a.055.055 0 01-.055.052h-2.839a.032.032 0 01-.03-.026v-.014c.005-.016.007-.21.004-.58-.004-.806-.202-1.614-.797-2.166-.716-.663-1.848-.86-2.862-.93a13.383 13.383 0 00-3.122.145c-.431.072-1.08.252-1.418.533-.627.52-.714 1.251-.627 2.042.042.386.216.7.521.94.107.085.338.194.694.327.469.176 1.057.32 1.764.434.423.067 1.807.266 4.154.597.42.059.962.193 1.628.4.893.279 1.89.79 2.472 1.537.695.89.863 2.067.742 3.187-.102.946-.478 1.542-1.122 2.213-1.122 1.169-2.774 1.705-4.37 1.885a14.544 14.544 0 01-3.867-.08c-1.205-.187-2.495-.622-3.448-1.337-1.548-1.161-2.089-2.878-2.02-4.816a.047.047 0 01.048-.046h2.813a.055.055 0 01.055.054zM120.273 18.587a.018.018 0 00-.003-.01.024.024 0 00-.009-.007.017.017 0 00-.011 0 .015.015 0 00-.008.008c-1.279 2.195-3.613 3.252-6.098 3.373-.553.027-.853.04-.9.04-1.179-.004-2.439-.288-3.425-.953-1.488-1.006-1.891-2.474-1.722-4.207.037-.384.138-.718.303-1a4.277 4.277 0 011.93-1.749c.829-.387 1.767-.643 2.817-.77 1.595-.192 3.913-.459 6.955-.8a.043.043 0 00.026-.013.038.038 0 00.011-.026c.038-1.464.051-3.362-1.422-4.155-.76-.408-1.755-.52-2.649-.536-1.327-.023-2.913.137-3.93 1.1-.767.728-.878 1.813-.854 2.812a.043.043 0 01-.004.02.04.04 0 01-.011.016.043.043 0 01-.016.01.046.046 0 01-.019.005h-2.851a.016.016 0 01-.016-.016c-.121-2.356.973-4.352 2.979-5.56 1.515-.912 3.246-1.221 5.016-1.172 1.559.043 3.01.354 4.219 1.235 1.36.99 2.047 2.406 2.315 4.027.062.37.092.922.091 1.656v9.7a.067.067 0 01-.004.02.06.06 0 01-.012.017.041.041 0 01-.017.011.05.05 0 01-.019.004h-2.611a.052.052 0 01-.036-.015.05.05 0 01-.015-.036v-3.03zm-.164-3.814c-1.619.188-3.505.408-5.66.661-.229.027-.47.046-.723.058-.245.01-.646.083-1.202.218-.326.08-.628.2-.903.362-.679.4-.759 1.317-.59 2.014.126.525.442.895.948 1.111.341.145.691.236 1.052.27a9.559 9.559 0 003.725-.373c1.147-.347 2.286-1.175 2.843-2.233a4.697 4.697 0 00.534-2.074c-.002-.003-.003-.006-.006-.008a.02.02 0 00-.008-.005h-.01zM91.307 8.012c0 .004.001.008.004.011a.017.017 0 00.01.006c.004.001.008 0 .012-.001a.019.019 0 00.009-.009c.477-1.07 1.3-1.88 2.34-2.408 1.186-.604 2.654-.724 3.96-.487.705.127 1.32.374 1.848.742 1.95 1.361 2.437 3.618 2.345 5.852a.032.032 0 01-.009.019.027.027 0 01-.019.008h-2.841a.048.048 0 01-.034-.015.047.047 0 01-.01-.015.048.048 0 01-.004-.019c.02-.904-.047-1.768-.4-2.546-.505-1.116-1.66-1.387-2.796-1.417-.906-.023-1.864.176-2.619.688-1.215.826-1.575 2.724-1.579 4.106a1619.944 1619.944 0 00-.005 9.14.031.031 0 01-.028.02h-2.83a.036.036 0 01-.025-.012.037.037 0 01-.01-.026V5.365c0-.01.004-.02.01-.027a.037.037 0 01.027-.012h2.595a.05.05 0 01.035.015c.01.01.014.022.014.036v2.635zM37.89 18.295c-.025.037-.13.21-.314.521-1.041 1.761-2.92 2.882-4.937 3.107-1.109.124-2.17.083-3.28-.242a5.592 5.592 0 01-2.314-1.328 6.66 6.66 0 01-1.763-2.762c-.351-1.055-.447-2.049-.436-3.291.002-.26.003-3.25 0-8.97a.033.033 0 01.034-.033h2.846c.012 0 .024.005.033.013.009.01.014.021.014.033a4452.65 4452.65 0 000 9.404c0 1.121.351 2.374 1.13 3.245.829.93 2.19 1.194 3.403 1.218.991.02 2.058-.152 2.908-.598.923-.484 1.59-1.259 2-2.323.428-1.107.516-2.186.5-3.437l-.001-7.497c0-.013.005-.025.014-.034a.047.047 0 01.033-.015h2.821a.056.056 0 01.055.056v16.259a.045.045 0 01-.013.032.047.047 0 01-.033.013h-2.633a.034.034 0 01-.034-.033v-3.328a.018.018 0 00-.003-.01.019.019 0 00-.02-.006.019.019 0 00-.01.006zM128.426 5.297h-2.84a.037.037 0 00-.037.037v16.297c0 .02.016.037.037.037h2.84c.02 0 .037-.017.037-.037V5.334a.037.037 0 00-.037-.037zM106.452 18.114h-3.364a.034.034 0 00-.034.033v3.506c0 .018.015.033.034.033h3.364a.034.034 0 00.034-.034v-3.505a.034.034 0 00-.034-.033z"></path></svg>