<svg fill="currentColor" fill-rule="evenodd" height="1em" style="flex:none;line-height:1" viewBox="0 0 118 24" xmlns="http://www.w3.org/2000/svg"><title>Kwaipilot</title><path clip-rule="evenodd" d="M62.811 5.778a.49.49 0 01.488.49v.937c2.205-1.652 5.138-1.882 7.797-.596h-.008a6.281 6.281 0 012.916 2.946c1.176 2.474 1.06 5.139-.306 7.305a7.176 7.176 0 01-6.1 3.372 7.158 7.158 0 01-4.299-1.43v4.708a.49.49 0 01-.488.49H60.88a.488.488 0 01-.488-.49V6.268a.49.49 0 01.488-.49h1.931zm4.681 2.914c-1.217 0-2.261.564-2.94 1.245-1.078 1.079-1.874 3.104-.558 5.255.354.578.84 1.064 1.418 1.42 2.146 1.311 4.16.523 5.237-.556l.007-.009c1.077-1.071 1.864-3.097.555-5.247a4.462 4.462 0 00-1.416-1.419c-.804-.49-1.583-.689-2.303-.689z"></path><path d="M110.777 2.05a.25.25 0 01.253.255v4.138a.251.251 0 00.156.236.253.253 0 00.096.017h4.464a.252.252 0 01.254.254v2.283l-.018.095a.245.245 0 01-.236.157h-4.464a.25.25 0 00-.252.254v4.83c.001 1.64 1.161 2.953 2.785 2.953h1.931a.252.252 0 01.254.254v2.281a.264.264 0 01-.073.18.248.248 0 01-.181.074h-2.758a5.129 5.129 0 01-4.733-3.17 5.137 5.137 0 01-.387-1.961V9.739a.252.252 0 00-.255-.254h-2.116a.252.252 0 01-.254-.255V6.95a.252.252 0 01.254-.254h2.124a.251.251 0 00.254-.255V2.305a.252.252 0 01.073-.181.246.246 0 01.181-.074h2.648zM5.034 2.017a.28.28 0 01.261.174c.014.034.02.072.02.11v5.48a.284.284 0 00.17.26.281.281 0 00.304-.052l4.942-5.897a.268.268 0 01.193-.075h3.24l-.01.008c.257 0 .382.307.2.48l-6.338 8.442a.28.28 0 000 .407l8.398 8.44c.182.173.057.48-.2.48l-3.974-.058a.263.263 0 01-.19-.074l-6.26-5.83a.281.281 0 00-.474.206V20a.28.28 0 01-.282.283H2.281A.28.28 0 012 20V2.3a.285.285 0 01.281-.283h2.753z"></path><path clip-rule="evenodd" d="M41.558 6.086c2.27-.656 4.615-.234 6.446 1.153 2.709 2.052 2.844 4.766 2.873 5.326a.346.346 0 00.01.103v7.554l-.473.058h-2.387l-.056-.472v-1.004a7.23 7.23 0 01-4.3 1.428 7.16 7.16 0 01-5.76-2.873c-1.383-1.826-1.805-4.185-1.16-6.459a7.033 7.033 0 014.807-4.814zm1.988 2.623c-1.218 0-2.262.565-2.941 1.245-1.077 1.08-1.865 3.114-.547 5.264a4.273 4.273 0 001.4 1.402c2.145 1.32 4.167.532 5.245-.548l.008-.016c1.077-1.08 1.865-3.106.547-5.255a4.276 4.276 0 00-1.4-1.404c-.804-.49-1.592-.688-2.312-.688zM97.007 5.818c3.977 0 7.217 3.245 7.217 7.23 0 3.985-3.24 7.23-7.217 7.23-3.976 0-7.215-3.245-7.215-7.23 0-3.985 3.239-7.23 7.215-7.23zm0 2.922a4.31 4.31 0 00-4.299 4.307 4.31 4.31 0 004.3 4.31 4.31 4.31 0 004.3-4.308 4.315 4.315 0 00-4.3-4.309z"></path><path d="M18.872 6.1c.307 0 .57.2.655.49l2.37 8.062c.034.125.214.125.247 0l2.048-6.858a.812.812 0 01.78-.582h1.426a.809.809 0 01.778.582l2.047 6.868c.034.124.216.123.25 0l2.395-8.13a.594.594 0 01.571-.432h2.089c.19 0 .364.093.48.242H35c.115.15.148.348.099.532L31.246 20a.383.383 0 01-.365.274h-2.585A.384.384 0 0127.92 20l-2.237-7.556L23.429 20a.381.381 0 01-.135.198.383.383 0 01-.229.076h-2.57a.38.38 0 01-.364-.274L16.27 6.871a.608.608 0 01.092-.532.608.608 0 01.481-.239h2.03zM56.917 8.09c.266 0 .481.195.481.427v11.329c0 .24-.214.425-.48.425h-2.335c-.266 0-.481-.193-.481-.425V8.516c0-.24.215-.426.48-.426h2.335zM80.005 8.09c.266 0 .481.193.481.426v11.33c0 .24-.215.425-.48.425h-2.337c-.265 0-.48-.193-.48-.425V8.517c0-.24.215-.425.48-.426l2.336-.001zM86.43 2a.58.58 0 01.536.359.58.58 0 01.042.223V19.69a.579.579 0 01-.355.538.582.582 0 01-.224.043h-2.146a.577.577 0 01-.58-.581V2.582a.584.584 0 01.58-.582h2.147zM55.752 2a1.98 1.98 0 011.971 1.975 1.978 1.978 0 01-1.971 1.975 1.977 1.977 0 01-1.972-1.975C53.78 2.888 54.666 2 55.75 2zM78.84 2c1.088 0 1.971.884 1.971 1.975a1.974 1.974 0 01-3.366 1.397A1.975 1.975 0 0178.839 2z"></path></svg>