<svg fill="currentColor" fill-rule="evenodd" height="1em" style="flex:none;line-height:1" viewBox="0 0 117 24" xmlns="http://www.w3.org/2000/svg"><title>LangChain</title><path d="M99.476 0c-1.04 0-1.795.755-1.795 1.794 0 1.04.755 1.795 1.795 1.795 1.039 0 1.794-.755 1.794-1.795S100.515 0 99.476 0zM74.402 6.575c.933-.696 2.122-1.063 3.459-1.063l.001.003c3.194 0 5.257 2.008 5.257 5.117v8.373H80.32v-8c0-1.921-.842-2.855-2.575-2.855-1.61 0-3.343 1.09-3.343 3.481v7.372h-2.799V.4h2.799v6.175zM67.41 13.62c-.58 1.875-2.07 2.91-4.193 2.91-3.035 0-4.923-2.306-4.923-6.016s1.904-6.016 4.97-6.016c2.122 0 3.344.832 3.967 2.695l.29.872 2.642-1.24-.248-.699c-1.006-2.835-3.33-4.332-6.72-4.332-2.304 0-4.26.832-5.656 2.405-1.381 1.557-2.113 3.74-2.113 6.316 0 5.297 3.058 8.72 7.791 8.72 3.336 0 5.92-1.744 6.911-4.668l.253-.748-2.714-1.032-.257.832zM4.798 2.027H2v16.975h12.003v-2.704H4.798V2.027zM28.074 19.002h2.794v-.03h.037l.005-.125c.001-.036.012-.376-.04-.9V11.63c0-2.377 1.733-3.459 3.343-3.459 1.732 0 2.575.934 2.575 2.855v7.976h2.799v-8.348c0-3.171-2.015-5.142-5.257-5.142-1.377 0-2.607.392-3.572 1.135l-.026-.902h-2.658v13.257z"></path><path clip-rule="evenodd" d="M47.342 5.512c1.41 0 2.661.417 3.634 1.207h.002l.056-.974h2.588v11.86c0 2.038-.571 3.633-1.7 4.74C50.804 23.444 49.201 24 47.157 24c-3.012 0-5.083-1.321-5.542-3.535l-.024-.111 2.719-.83.025.139c.206 1.113 1.21 1.678 2.985 1.678 2.11 0 3.397-1.22 3.477-3.275-.936.69-2.124 1.052-3.455 1.052-3.773 0-6.117-2.626-6.117-6.815 0-4.188 2.344-6.79 6.117-6.79zm.163 10.949c2.064 0 3.296-1.512 3.296-4.04v-.327c-.02-2.42-1.282-3.923-3.296-3.923-2.213 0-3.482 1.492-3.482 4.133s1.269 4.157 3.482 4.157z"></path><path d="M105.869 6.647c.966-.743 2.194-1.135 3.572-1.135h.003c3.242 0 5.257 1.97 5.257 5.142v8.348h-2.799v-7.976c0-1.921-.843-2.855-2.575-2.855-1.611 0-3.343 1.082-3.343 3.459v7.372h-2.799V5.745h2.657l.027.902zM100.833 5.745H98.05v6.572a7.787 7.787 0 00-2.71-1.46v-.669c0-2.928-1.922-4.676-5.142-4.676-2.615 0-4.572 1.229-5.369 3.369l-.214.577 2.243 1.654.385-1.003c.507-1.323 1.447-1.94 2.955-1.94 1.51 0 2.344.727 2.344 2.157v.075a9.34 9.34 0 00-.271-.008c-2.996-.048-5.182.653-6.496 2.08-1.345 1.46-1.228 3.1-1.21 3.28l.013.126h.012c.21 2.042 1.993 3.354 4.586 3.354 1.427 0 2.747-.398 3.744-1.124l.011.892h2.41v-4.147l-.053-.038c-.34-.25-.934-.571-1.828-.684a6.523 6.523 0 00-.403-.039 4.706 4.706 0 00-.392-.01h-.125v.382c0 .877-1.008 2.111-3.25 2.111-1.654 0-1.901-.696-1.901-1.11v-.043a1.73 1.73 0 01.502-1.066c.522-.54 1.698-1.172 4.334-1.131 1.908.03 3.373.563 4.353 1.586 1.203 1.256 1.43 2.975 1.47 3.648v.542h2.785V5.745z"></path><path clip-rule="evenodd" d="M15.466 8.823c.796-2.14 2.753-3.368 5.368-3.368 3.22 0 5.14 1.747 5.14 4.675v8.813h-2.407l-.012-.892c-.998.726-2.316 1.124-3.745 1.124-2.798 0-4.606-1.52-4.606-3.77s1.713-3.694 5.092-4.292l2.882-.508v-.337c0-1.43-.835-2.156-2.344-2.156-1.508 0-2.447.616-2.955 1.939l-.385 1.003L15.251 9.4l.215-.577zm7.712 5.585v-1.181l-2.22.406c-2.931.544-2.931 1.407-2.931 1.776 0 .415.245 1.11 1.9 1.11 2.242 0 3.25-1.234 3.25-2.11z"></path></svg>