<svg fill="currentColor" fill-rule="nonzero" height="1em" style="flex:none;line-height:1" viewBox="0 0 108 24" xmlns="http://www.w3.org/2000/svg"><title>LeptonAI</title><path d="M105.633 2v17.171h-3.63V2h3.63zM87.773 19.171h-3.89L89.81 2h4.679l5.919 17.171h-3.89L92.217 5.924h-.135l-4.31 13.247zm-.243-6.75h9.189v2.835h-9.19v-2.834zM69.11 11.725v7.446h-3.572V6.292h3.404v2.272h.152a3.592 3.592 0 011.433-1.777c.671-.442 1.484-.662 2.44-.662.894 0 1.674.195 2.34.586a3.99 3.99 0 011.55 1.677c.37.721.554 1.582.554 2.583v8.2h-3.572v-7.563c.006-.788-.196-1.403-.604-1.845-.408-.447-.97-.67-1.685-.67-.48 0-.905.103-1.274.31a2.162 2.162 0 00-.855.905c-.202.392-.305.864-.31 1.417zM57.35 19.422c-1.303 0-2.43-.276-3.38-.83a5.68 5.68 0 01-2.188-2.33c-.514-1.001-.771-2.161-.771-3.48 0-1.33.257-2.493.771-3.488a5.612 5.612 0 012.189-2.331c.95-.559 2.076-.838 3.379-.838 1.302 0 2.425.279 3.37.838a5.597 5.597 0 012.197 2.33c.514.996.771 2.158.771 3.489 0 1.319-.257 2.479-.771 3.48a5.664 5.664 0 01-2.197 2.33c-.944.554-2.068.83-3.37.83zm.016-2.767c.593 0 1.088-.167 1.484-.503.397-.34.696-.805.898-1.392.206-.586.31-1.254.31-2.003 0-.75-.104-1.417-.31-2.004-.202-.587-.5-1.051-.898-1.392-.396-.341-.891-.512-1.484-.512-.598 0-1.1.17-1.509.512-.402.34-.707.805-.914 1.392-.2.587-.302 1.255-.302 2.004 0 .749.101 1.417.302 2.004.207.586.512 1.05.914 1.391.408.336.911.503 1.51.503zM49.815 6.292v2.683h-7.756V6.292h7.756zM43.82 3.207h3.572v12.006c0 .33.05.587.15.771.101.18.24.305.42.378.184.072.397.109.637.109.168 0 .335-.014.503-.042l.386-.076.562 2.658c-.18.056-.43.12-.755.193a6.058 6.058 0 01-1.182.143c-.861.033-1.616-.081-2.264-.344a3.16 3.16 0 01-1.501-1.224c-.358-.554-.534-1.252-.528-2.096V3.207zM28.496 24V6.292h3.521v2.163h.16c.156-.346.382-.698.678-1.056a3.581 3.581 0 011.174-.906c.487-.246 1.09-.368 1.811-.368.94 0 1.806.245 2.6.737.793.487 1.428 1.222 1.903 2.205.475.979.712 2.206.712 3.681 0 1.437-.231 2.65-.695 3.64-.459.983-1.085 1.73-1.879 2.238-.788.503-1.67.754-2.649.754-.693 0-1.283-.114-1.77-.343a3.66 3.66 0 01-1.181-.864 4.384 4.384 0 01-.705-1.065h-.109V24h-3.571zm3.496-11.268c0 .765.106 1.433.318 2.003.213.57.52 1.015.923 1.334.402.313.891.469 1.467.469.581 0 1.073-.16 1.476-.478.402-.324.707-.771.914-1.341.212-.576.318-1.239.318-1.987 0-.744-.103-1.398-.31-1.962-.207-.565-.511-1.007-.914-1.325-.402-.319-.897-.478-1.484-.478-.581 0-1.073.154-1.476.461-.396.307-.701.743-.913 1.308-.213.564-.32 1.23-.32 1.995zM20.726 19.422c-1.325 0-2.465-.268-3.42-.805a5.513 5.513 0 01-2.198-2.297c-.514-.995-.771-2.172-.771-3.53 0-1.325.257-2.487.771-3.488.515-1 1.238-1.78 2.172-2.339.939-.559 2.04-.838 3.303-.838.85 0 1.641.136 2.373.41.738.269 1.38.674 1.929 1.216.553.542.983 1.224 1.29 2.046.308.816.462 1.772.462 2.867v.981H15.762v-2.213h7.513c0-.514-.112-.97-.335-1.367a2.402 2.402 0 00-.931-.93c-.392-.23-.847-.344-1.367-.344-.542 0-1.023.126-1.442.377a2.646 2.646 0 00-.973.998 2.818 2.818 0 00-.36 1.383v2.105c0 .637.117 1.188.352 1.652.24.463.579.821 1.015 1.073.435.251.953.377 1.55.377.398 0 .76-.056 1.09-.168.33-.111.613-.28.848-.503.234-.223.413-.497.536-.821l3.304.218a4.511 4.511 0 01-1.032 2.079c-.514.587-1.18 1.045-1.995 1.375-.81.324-1.747.486-2.809.486zM2 19.171V2h3.63v14.178h7.362v2.993H2z"></path></svg>