<svg fill="currentColor" fill-rule="evenodd" height="1em" style="flex:none;line-height:1" viewBox="0 0 87 24" xmlns="http://www.w3.org/2000/svg"><title>Lightricks</title><path d="M52.606 10.775a.15.15 0 00.117-.037.16.16 0 00.054-.114l.059-1.505a.39.39 0 00-.312-.406c-1.426-.276-2.727.414-3.389 1.559v-.978a.39.39 0 00-.383-.398h-1.204a.39.39 0 00-.383.398v9.282c0 .22.171.398.383.398h1.204a.39.39 0 00.383-.398v-4.66c0-1.063.23-1.852.685-2.35.665-.732 1.881-.894 2.786-.79zM12.524 18.977a.39.39 0 01-.383-.398V9.296a.39.39 0 01.383-.397h1.204a.39.39 0 01.383.397v9.283a.39.39 0 01-.383.398h-1.204zm.6-12.17c-.736 0-1.336-.628-1.336-1.389 0-.76.603-1.389 1.336-1.389.739 0 1.34.634 1.34 1.39-.003.763-.609 1.388-1.34 1.388zM54.908 18.977a.39.39 0 01-.383-.398V9.296a.39.39 0 01.383-.397h1.204a.39.39 0 01.383.397v9.283a.39.39 0 01-.383.398h-1.204zM74.962 18.977a.378.378 0 01-.286-.133l-4.214-4.888v4.623a.39.39 0 01-.383.398h-1.204a.39.39 0 01-.384-.398V4.398A.39.39 0 0168.874 4h1.205a.39.39 0 01.383.398v8.697l3.895-4.059a.375.375 0 01.27-.116h2.209c.06 0 .117.04.14.098a.16.16 0 01-.036.172l-4.27 4.31 4.67 5.21c.042.044.055.113.029.171a.15.15 0 01-.14.096h-2.267zM35.849 18.977a.39.39 0 01-.384-.398v-5.54c0-1.458-.69-2.473-2.103-2.473-1.786 0-2.586 1.35-2.586 3.226v4.787a.39.39 0 01-.383.398h-1.204a.39.39 0 01-.383-.398V4.398A.39.39 0 0129.189 4h1.204a.39.39 0 01.383.398v5.855c.598-1.092 1.888-1.609 3.11-1.609 2.111 0 3.547 1.386 3.547 3.867v6.066a.39.39 0 01-.383.397h-1.201v.003zM2.383 18.977A.39.39 0 012 18.579V4.398A.39.39 0 012.383 4h1.324a.39.39 0 01.383.398v12.535h6.175a.39.39 0 01.383.398v1.248a.39.39 0 01-.383.398H2.383zM66.802 17.357a.403.403 0 01.112.286.416.416 0 01-.12.284c-.937.922-2.098 1.317-3.463 1.317-2.91 0-5.08-2.043-5.08-5.248 0-3.054 1.999-5.312 5.08-5.312 1.312 0 2.52.424 3.486 1.346a.41.41 0 010 .589l-.86.814a.375.375 0 01-.51.01 3.33 3.33 0 00-2.195-.843c-1.911 0-2.91 1.601-2.91 3.436 0 1.792 1.165 3.29 3.01 3.29.757 0 1.492-.263 2.077-.807.082-.071.146-.13.281-.13.108 0 .203.046.272.117l.82.851zM80.257 11.592c0-.536.53-1.029 1.526-1.029.688 0 1.324.297 1.797.73a.37.37 0 00.485.018l.872-.684a.406.406 0 00.15-.273.395.395 0 00-.09-.3c-.725-.89-1.77-1.407-3.11-1.407-1.967 0-3.716 1.13-3.716 3.152 0 .951.435 2.03 1.877 2.547 1.47.528 3.358.53 3.358 1.787 0 .803-.959 1.177-1.86 1.177-.706 0-1.542-.329-2.125-.91a.372.372 0 00-.508-.02l-.826.704a.402.402 0 00-.137.276.402.402 0 00.094.294c.826.968 2.032 1.588 3.481 1.588 2.08 0 3.976-1.047 3.976-3.205-.002-3.93-5.244-2.316-5.244-4.445zM42.733 15.947c-.012-.268-.02-.543-.02-.822v-4.418h2.218a.39.39 0 00.384-.398v-.997a.39.39 0 00-.384-.397h-2.218V6.529a.39.39 0 00-.383-.398h-1.204a.39.39 0 00-.383.398v2.386h-1.715a.39.39 0 00-.383.397v.997c0 .22.17.398.383.398h1.715v5.089c0 1.227.04 2.219.853 2.87.918.738 2.648.682 3.532.33a.397.397 0 00.245-.372v-1.333a.16.16 0 00-.066-.13.148.148 0 00-.14-.018c-1.222.46-2.362.227-2.434-1.196zM24.788 8.899a.39.39 0 00-.383.397v.918c-.749-1.021-2.075-1.567-3.292-1.567-3.023 0-4.94 2.338-4.94 5.29 0 2.967 2.096 5.167 4.94 5.167 1.278 0 2.564-.525 3.292-1.662 0 1.395.376 4.642-3.373 4.642a4.408 4.408 0 01-3.172-1.28.373.373 0 00-.562.04l-.782 1.012a.406.406 0 00.05.551C17.728 23.425 19.062 24 21.073 24c3.072 0 5.303-2.04 5.303-5.185V9.3a.39.39 0 00-.383-.398h-1.204V8.9zm-3.455 8.286c-1.922 0-3.072-1.304-3.072-3.247 0-2.065 1.273-3.375 3.072-3.375 1.81 0 3.072 1.32 3.072 3.375 0 1.943-1.148 3.247-3.072 3.247zM55.509 6.807c-.736 0-1.337-.628-1.337-1.389 0-.76.604-1.389 1.337-1.389.738 0 1.339.634 1.339 1.39 0 .763-.606 1.388-1.339 1.388z"></path></svg>