<svg fill="currentColor" fill-rule="evenodd" height="1em" style="flex:none;line-height:1" viewBox="0 0 61 24" xmlns="http://www.w3.org/2000/svg"><title>Liquid</title><path d="M2 19.59V2h3.136v14.846h8.28v2.744H2zM14.128 5.013V2h3.038v3.013h-3.038zm2.989 1.715V19.59h-2.94V6.728h2.94zM23.517 19.86c-3.602 0-5.66-3.038-5.66-6.688s2.058-6.689 5.66-6.689c1.665 0 2.89.662 3.699 1.617V6.728h2.94V24h-2.94v-5.757c-.809.955-2.034 1.617-3.7 1.617zm3.772-7.056c0-2.425-1.372-3.748-3.185-3.748-2.131 0-3.282 1.666-3.282 4.116 0 2.45 1.151 4.115 3.282 4.115 1.813 0 3.185-1.347 3.185-3.723v-.76zM41.85 6.729V19.59h-2.94v-1.372c-.735.858-1.837 1.642-3.503 1.642-2.695 0-4.361-1.838-4.361-4.606V6.73h2.94v7.888c0 1.568.686 2.572 2.278 2.572 1.323 0 2.646-.98 2.646-2.817V6.73h2.94zM42.728 5.013V2h3.038v3.013h-3.038zm2.99 1.715V19.59h-2.94V6.728h2.94zM52.196 19.86c-3.602 0-5.66-3.038-5.66-6.689 0-3.65 2.058-6.688 5.66-6.688 1.665 0 2.89.662 3.699 1.617V2h2.94v17.59h-2.94v-1.347c-.809.955-2.034 1.617-3.7 1.617zm3.772-7.056c0-2.425-1.372-3.748-3.185-3.748-2.13 0-3.282 1.666-3.282 4.115 0 2.45 1.151 4.116 3.282 4.116 1.813 0 3.185-1.347 3.185-3.724v-.76z"></path></svg>