<svg fill="currentColor" fill-rule="evenodd" height="1em" style="flex:none;line-height:1" viewBox="0 0 73 24" xmlns="http://www.w3.org/2000/svg"><title>Magic</title><path d="M2 .365h3.887L11.73 14.74 17.47.365h3.808v18.261h-2.895V5.191l-5.479 13.435h-2.53L4.896 5.191v13.435H2V.366zM28.17 18.783c-2.922 0-4.878-1.435-4.878-3.913 0-2.74 1.982-4.279 5.739-4.279h3.34v-.808c0-1.487-1.07-2.4-2.923-2.4-1.67 0-2.79.782-3 1.956h-2.765c.287-2.609 2.53-4.226 5.896-4.226 3.548 0 5.582 1.696 5.582 4.852v8.661H32.71l-.235-1.904c-.913 1.2-2.19 2.06-4.304 2.06zm-2.009-4.096c0 1.122.94 1.904 2.479 1.904 2.348 0 3.704-1.382 3.73-3.443v-.47h-3.496c-1.747 0-2.713.652-2.713 2.009zM40.175 19.357c.34 1.486 1.644 2.347 3.627 2.347 2.452 0 3.834-1.174 3.834-3.73v-1.487c-.886 1.33-2.27 2.191-4.356 2.191-3.626 0-6.313-2.53-6.313-6.782 0-4.096 2.687-6.783 6.313-6.783 2.087 0 3.521.913 4.383 2.244l.313-2.087h2.451v12.808c0 3.626-2.034 5.922-6.834 5.922-3.548 0-6.026-1.643-6.287-4.643h2.87zm-.313-7.461c0 2.608 1.54 4.408 3.887 4.408 2.348 0 3.887-1.8 3.887-4.356 0-2.635-1.539-4.461-3.887-4.461s-3.887 1.826-3.887 4.409zM52.92 5.27h2.817v13.356H52.92V5.27zm-.287-3.574C52.633.704 53.39 0 54.355 0s1.722.704 1.722 1.696c0 .991-.757 1.695-1.722 1.695s-1.722-.704-1.722-1.695zM64.368 18.783c-4.043 0-6.626-2.635-6.626-6.809 0-4.122 2.661-6.86 6.705-6.86 3.443 0 5.582 1.903 6.13 4.93H67.63c-.366-1.566-1.487-2.53-3.235-2.53-2.27 0-3.757 1.825-3.757 4.46 0 2.609 1.487 4.409 3.757 4.409 1.721 0 2.87-.992 3.209-2.53h2.973c-.522 3.025-2.79 4.93-6.209 4.93z"></path></svg>