<svg fill="currentColor" fill-rule="evenodd" height="1em" style="flex:none;line-height:1" viewBox="0 0 24 24" width="1em" xmlns="http://www.w3.org/2000/svg"><title>Make</title><path d="M6.989 4.036L.062 17.818a.577.577 0 00.257.774l3.733 1.876a.577.577 0 00.775-.256L11.753 6.43a.577.577 0 00-.257-.775L7.763 3.78a.575.575 0 00-.774.257z"></path><path d="M19.245 3.832h4.179c.318 0 .577.26.577.577v15.425a.578.578 0 01-.577.578h-4.179a.578.578 0 01-.577-.578V4.41c0-.318.259-.577.577-.577z"></path><path d="M12.815 4.085L9.85 19.108a.576.576 0 00.453.677l4.095.826c.314.063.62-.14.681-.454l2.964-15.022a.577.577 0 00-.453-.677l-4.096-.827a.577.577 0 00-.68.454z"></path></svg>