<svg fill="currentColor" fill-rule="evenodd" height="1em" style="flex:none;line-height:1" viewBox="0 0 103 24" xmlns="http://www.w3.org/2000/svg"><title>Meta</title><path d="M38.337 2.641h3.752l6.38 11.57 6.38-11.57h3.671v19.011H55.46V7.082l-5.594 10.09h-2.872l-5.595-10.09v14.57h-3.06V2.642zm30.058 19.353c-1.418 0-2.664-.314-3.739-.944a6.594 6.594 0 01-2.513-2.614c-.6-1.113-.9-2.39-.9-3.829 0-1.457.293-2.748.88-3.87.587-1.123 1.402-2 2.445-2.635 1.043-.633 2.242-.95 3.596-.95 1.346 0 2.504.319 3.475.957.97.638 1.718 1.532 2.242 2.682.523 1.15.785 2.499.785 4.047v.842h-10.39c.19 1.159.658 2.07 1.403 2.736.745.665 1.686.998 2.824.998.912 0 1.698-.136 2.357-.407a5.997 5.997 0 001.856-1.236l1.625 1.996c-1.616 1.485-3.599 2.227-5.946 2.227zm2.235-11.278c-.642-.656-1.481-.984-2.52-.984-1.011 0-1.858.335-2.54 1.005-.681.67-1.113 1.57-1.293 2.702h7.45c-.09-1.159-.456-2.066-1.097-2.723zm7.748-.712h-2.817V7.492h2.817V3.337h2.953v4.155h4.28v2.512h-4.28v6.369c0 1.059.18 1.815.542 2.267.36.453.98.68 1.855.68.389 0 .718-.016.99-.048l.426-.056c.15-.022.305-.046.467-.073v2.485a8.88 8.88 0 01-2.452.34c-3.187 0-4.781-1.748-4.781-5.242v-6.722zM101 21.654h-2.899v-1.982a5.24 5.24 0 01-1.964 1.718c-.795.403-1.698.604-2.71.604-1.245 0-2.35-.319-3.311-.957-.962-.638-1.718-1.517-2.269-2.635-.55-1.118-.826-2.396-.826-3.836 0-1.448.28-2.73.84-3.843.56-1.113 1.334-1.987 2.323-2.62.989-.634 2.124-.951 3.406-.951.967 0 1.834.188 2.601.563a5.145 5.145 0 011.91 1.596V7.49H101v14.164zm-2.953-9.206c-.316-.806-.815-1.442-1.497-1.908-.682-.466-1.47-.7-2.363-.7-1.265 0-2.272.426-3.021 1.277-.75.851-1.125 2-1.124 3.45 0 1.457.36 2.611 1.083 3.462.722.851 1.702 1.276 2.94 1.276.911 0 1.724-.235 2.438-.706a3.987 3.987 0 001.544-1.9v-4.251zM10.627 2c2.396 0 4.398 1.165 6.792 4.22.375-.507.758-.99 1.153-1.438l.318-.352C20.249 2.984 21.755 2 23.546 2c1.604 0 3.11.706 4.395 1.92l.245.24c2.173 2.215 3.66 5.914 3.821 10.078l.012.446.002.311c0 1.896-.358 3.48-1.042 4.66l-.157.254-.134.19a4.45 4.45 0 01-1.629 1.41l-.17.08a4.372 4.372 0 01-.377.148c-.505.17-1.06.26-1.664.26-.656 0-1.246-.084-1.8-.27-.784-.26-1.485-.72-2.206-1.443l-.236-.245c-.942-1.015-1.92-2.47-3.119-4.482l-1.472-2.481c-.171-.29-.338-.57-.5-.839l-.497-.812-2.209 3.913-.377.652-.373.623C11.374 21.023 9.701 22 7.449 22c-1.528 0-2.78-.534-3.696-1.501l-.187-.207c-.617-.729-1.063-1.673-1.318-2.797l-.07-.338a10.856 10.856 0 01-.17-1.61L2 15.084c.002-.97.08-1.941.235-2.902l.107-.603C2.72 9.643 3.396 7.837 4.3 6.327l.226-.366c1.482-2.303 3.514-3.836 5.816-3.954L10.627 2zm.114 3.272l-.183-.003c-1.13.012-2.19.784-3.06 2.01l-.153.222-.012.022c-.774 1.175-1.383 2.714-1.738 4.386l-.089.448c-.17.93-.257 1.873-.259 2.818l.003.235c.005.224.022.45.05.675l.054.364c.117.639.328 1.15.621 1.528l.113.133.02.02c.379.404.873.615 1.464.615 1.348 0 2.21-.811 4.482-4.333l2.286-3.578 1.144-1.767-.25-.354c-1.744-2.429-2.965-3.32-4.34-3.432l-.153-.009zm12.599-.693l-.204.007c-.88.062-1.687.526-2.518 1.393l-.02.023c-.549.576-1.11 1.329-1.71 2.258.352.52.715 1.082 1.09 1.683l.298.48 1.746 2.92.748 1.2.527.83c.607.946 1.085 1.641 1.5 2.146l.124.146c.358.416.672.686.989.852l.108.051c.284.125.572.174.899.174.22.002.437-.03.647-.092.43-.132.774-.409 1.03-.815l.106-.185.087-.181c.25-.576.373-1.336.373-2.253l-.002-.266-.006-.292c-.102-3.612-1.185-6.752-2.78-8.53l-.193-.206c-.838-.855-1.805-1.343-2.84-1.343z"></path></svg>