<svg fill="currentColor" fill-rule="evenodd" height="1em" style="flex:none;line-height:1" viewBox="0 0 108 24" xmlns="http://www.w3.org/2000/svg"><title>Azure</title><path clip-rule="evenodd" d="M21.881 3.355V21.68h-3.19V7.316h-.051l-5.7 14.364h-2.114L4.984 7.316h-.038V21.68H2V3.355h4.573L11.85 16.94h.076L17.5 3.355h4.381zm2.667 1.393c0-.511.186-.939.558-1.284.356-.34.832-.526 1.325-.518.546 0 1 .177 1.358.53.359.354.538.778.538 1.272 0 .502-.184.925-.55 1.264-.368.342-.816.512-1.346.512-.529 0-.976-.172-1.338-.517a1.667 1.667 0 01-.545-1.259zm.32 16.932h3.1V8.543h-3.1V21.68zm12.503-2.25c.461 0 .97-.104 1.524-.318a6.417 6.417 0 001.538-.844v2.876a6.289 6.289 0 01-1.685.639A9.217 9.217 0 0136.68 22c-1.94 0-3.515-.611-4.728-1.834-1.212-1.221-1.819-2.783-1.819-4.683 0-2.113.62-3.853 1.858-5.22 1.238-1.368 2.993-2.051 5.265-2.051.58 0 1.168.074 1.761.223.594.148 1.065.32 1.416.518v2.964a6.39 6.39 0 00-1.468-.812 4.234 4.234 0 00-1.53-.287c-1.22 0-2.207.396-2.96 1.189-.75.792-1.126 1.862-1.126 3.207 0 1.329.36 2.365 1.082 3.105.722.742 1.701 1.111 2.94 1.111zM49.258 8.327c.248 0 .471.017.667.051.195.034.363.076.5.128v3.131c-.163-.12-.4-.232-.711-.338-.313-.108-.69-.16-1.134-.16-.76 0-1.403.32-1.928.958-.525.64-.787 1.624-.787 2.952v6.632h-3.1V8.544h3.1v2.07h.05c.282-.716.709-1.276 1.281-1.681.572-.404 1.26-.606 2.062-.606zm1.335 6.977c0-2.172.614-3.893 1.843-5.162 1.231-1.27 2.939-1.904 5.124-1.904 2.06 0 3.666.611 4.824 1.834 1.157 1.223 1.735 2.873 1.735 4.952 0 2.13-.614 3.825-1.844 5.085C61.045 21.371 59.371 22 57.253 22c-2.041 0-3.661-.598-4.86-1.795-1.201-1.197-1.8-2.829-1.8-4.901zm3.228-.101c0 1.37.31 2.42.935 3.143.622.724 1.515 1.086 2.677 1.086 1.128 0 1.985-.362 2.574-1.086.59-.723.884-1.797.884-3.22 0-1.415-.305-2.482-.915-3.2-.611-.721-1.468-1.082-2.568-1.082-1.137 0-2.019.377-2.646 1.132-.628.754-.941 1.829-.941 3.227zm14.91-3.208c0 .443.141.79.422 1.042.283.25.905.568 1.871.951 1.238.495 2.108 1.051 2.607 1.67.5.615.749 1.364.749 2.24 0 1.237-.476 2.23-1.428 2.979-.951.75-2.24 1.124-3.862 1.124a9.277 9.277 0 01-1.813-.198c-.662-.132-1.223-.3-1.685-.506v-3.04c.564.391 1.17.703 1.82.933.649.23 1.238.344 1.768.344.699 0 1.216-.097 1.55-.294.331-.195.499-.523.499-.982 0-.427-.172-.787-.519-1.081-.346-.294-1-.633-1.966-1.016-1.144-.477-1.956-1.014-2.434-1.61-.477-.596-.718-1.354-.718-2.275 0-1.185.473-2.158 1.416-2.92.944-.763 2.167-1.143 3.67-1.143.46 0 .978.05 1.55.152.573.103 1.051.235 1.435.396v2.94a6.63 6.63 0 00-1.435-.703 4.797 4.797 0 00-1.626-.294c-.59 0-1.049.115-1.378.345-.328.23-.493.546-.493.946zm6.982 3.31c0-2.173.614-3.894 1.844-5.163 1.23-1.27 2.937-1.904 5.124-1.904 2.059 0 3.666.611 4.824 1.834 1.157 1.223 1.735 2.873 1.735 4.952 0 2.13-.616 3.825-1.844 5.085C86.166 21.371 84.491 22 82.373 22c-2.04 0-3.66-.598-4.861-1.795-1.2-1.197-1.799-2.83-1.799-4.902v.002zm3.227-.102c0 1.37.313 2.42.935 3.143.625.724 1.517 1.086 2.677 1.086 1.128 0 1.987-.362 2.576-1.086.588-.723.883-1.797.883-3.22 0-1.415-.304-2.482-.916-3.2-.609-.721-1.467-1.082-2.567-1.082-1.136 0-2.018.377-2.646 1.132-.628.754-.942 1.829-.942 3.227zm20.584-4.128h-4.618V21.68H91.77V11.074h-2.203v-2.53h2.203V6.716c0-1.38.45-2.511 1.352-3.393C94.021 2.44 95.177 2 96.586 2c.376 0 .708.02.998.058.292.038.548.095.77.172v2.672a3.233 3.233 0 00-.54-.218 2.792 2.792 0 00-.883-.128c-.648 0-1.148.202-1.498.607-.35.405-.527 1.004-.527 1.795v1.586h4.618V5.592l3.113-.946v3.898h3.138v2.53h-3.138v6.146c0 .81.147 1.38.442 1.712.294.334.758.499 1.391.499.178 0 .394-.042.647-.128.25-.085.47-.186.658-.306v2.556c-.196.112-.523.213-.98.307-.457.093-.906.14-1.35.14-1.308 0-2.287-.347-2.942-1.043-.653-.692-.98-1.739-.98-3.136v-6.747l.001.001z"></path></svg>