<svg fill="currentColor" fill-rule="evenodd" height="1em" style="flex:none;line-height:1" viewBox="0 0 24 24" width="1em" xmlns="http://www.w3.org/2000/svg"><title>Monica</title><path clip-rule="evenodd" d="M12 24c6.627 0 12-5.373 12-12S18.627 0 12 0 0 5.373 0 12s5.373 12 12 12zm0-3.563c5.385 0 9.75-3.777 9.75-8.437 0-4.66-4.365-8.438-9.75-8.438S2.25 7.34 2.25 12s4.365 8.438 9.75 8.438z"></path><path d="M16.207 10.195a.96.96 0 111.357 1.357l-1.114 1.114 1.473.85a.96.96 0 11-.96 1.662l-2.444-1.411a1.003 1.003 0 01-.072-.046.962.962 0 01-.236-1.53l1.996-1.996zM7.688 9.937a1.5 1.5 0 00-1.5 1.5v2.25a1.5 1.5 0 003 0v-2.25a1.5 1.5 0 00-1.5-1.5z"></path></svg>