<svg fill="currentColor" fill-rule="evenodd" height="1em" style="flex:none;line-height:1" viewBox="0 0 65 24" xmlns="http://www.w3.org/2000/svg"><title>Moxt</title><path d="M51.87 6.849s.565-.027.295.444l-4.57 7.31a.8.8 0 000 .811l4.55 7.115h-.05c.144.359-.088.467-.098.471h-3.763a.694.694 0 01-.615-.366l-2.361-4.003a.356.356 0 00-.614 0l-2.336 4.003a.694.694 0 01-.616.366H37.56c-.073-.026-.22-.105-.097-.419l4.623-7.141a.798.798 0 000-.811L37.487 7.33c-.295-.47.295-.47.295-.47h3.664c.246 0 .468.13.591.34l2.36 3.845a.356.356 0 00.616 0l2.504-3.883c.147-.183.37-.313.59-.313h3.762zm7.11-4.358c.37 0 .689.314.689.733v3.61h2.706v.025c.369 0 .663.315.663.707v2.067c0 .392-.294.706-.663.706h-2.706v7.246c-.049 1.588 1.558 1.596 1.574 1.596h1.23c.196 0 .565.131.565.811v2.276c0 .392-.295.732-.688.732h-3.148c-1.918 0-3.492-1.674-3.492-3.715V10.34h-1.525c-.368 0-.663-.314-.663-.706V7.566c0-.392.295-.707.663-.707h1.5V3.224c0-.393.296-.733.689-.733h2.606zM29.52 6.075c4.386 0 7.943 3.783 7.943 8.45 0 4.666-3.557 8.45-7.944 8.45-4.386 0-7.943-3.784-7.943-8.45 0-4.667 3.557-8.45 7.944-8.45zM5.934 1c.12 0 .29.153.294.157l4.255 7.115c.123.21.443.21.566 0l4.328-7.115c.048-.102.26-.155.27-.157h3.173c.37 0 .689.314.689.732V22.19c0 .393-.295.733-.689.733h-2.828c-.369 0-.688-.314-.688-.733V9.005c0-.55-.345 0-.345 0l-3.64 6.068a.667.667 0 01-1.155 0l-3.64-5.937s-.27-.419-.32 0v13.053a.752.752 0 01-.688.76H2.64C2.28 22.93 2 22.606 2 22.214V1.732C2 1.34 2.295 1 2.688 1h3.247zm23.584 9.209c-2.241 0-4.058 1.933-4.058 4.316 0 2.384 1.817 4.316 4.058 4.316 2.24 0 4.058-1.932 4.058-4.316 0-2.383-1.817-4.316-4.058-4.316z"></path></svg>