<svg fill="currentColor" fill-rule="evenodd" height="1em" style="flex:none;line-height:1" viewBox="0 0 194 24" xmlns="http://www.w3.org/2000/svg"><title>Nova</title><path d="M183.349 22c-1.461 0-2.636-.415-3.525-1.244-.869-.83-1.303-1.935-1.303-3.317 0-1.462.533-2.627 1.599-3.495 1.086-.889 2.518-1.333 4.295-1.333.948 0 1.995.128 3.14.385v-1.481c0-.909-.188-1.53-.563-1.866-.375-.336-1.066-.504-2.073-.504-.691 0-1.422.07-2.192.208-.77.118-1.55.286-2.34.503-.158.04-.267.06-.326.06-.336 0-.503-.228-.503-.682V7.901c0-.316.039-.533.118-.651.099-.119.277-.237.533-.356.691-.296 1.531-.523 2.518-.681a16.69 16.69 0 012.962-.267c2.034 0 3.515.415 4.443 1.244.948.81 1.422 2.093 1.422 3.85v9.746c0 .493-.247.74-.741.74h-2.014c-.435 0-.711-.217-.829-.651l-.178-.682a7.346 7.346 0 01-2.133 1.333c-.79.316-1.56.474-2.31.474zm1.214-2.903c1.027 0 2.024-.404 2.992-1.214v-2.577c-.375-.06-.77-.109-1.185-.148-.415-.04-.8-.06-1.155-.06-1.718 0-2.577.692-2.577 2.074 0 .612.168 1.086.504 1.422.335.335.809.503 1.421.503zM170.756 21.526h-2.577c-.276 0-.494-.05-.652-.148-.158-.1-.296-.306-.414-.622l-5.065-13.181a11.554 11.554 0 01-.148-.415 1.023 1.023 0 01-.059-.326c0-.296.197-.444.592-.444h2.962c.553 0 .898.257 1.037.77l3.05 10.485 3.11-10.485c.139-.513.484-.77 1.037-.77h2.873c.395 0 .593.148.593.444 0 .1-.02.208-.06.326-.039.119-.089.257-.148.415l-5.065 13.18c-.118.317-.256.524-.414.623-.158.098-.376.148-.652.148zM153.044 21.97c-2.31 0-4.137-.69-5.48-2.073-1.342-1.402-2.014-3.386-2.014-5.953 0-2.548.672-4.512 2.014-5.895 1.343-1.402 3.17-2.103 5.48-2.103 2.31 0 4.137.701 5.48 2.103 1.342 1.383 2.014 3.347 2.014 5.895 0 2.567-.672 4.551-2.014 5.953-1.343 1.382-3.17 2.073-5.48 2.073zm0-3.317c.987 0 1.748-.365 2.281-1.096.553-.75.829-1.955.829-3.613 0-1.64-.276-2.824-.829-3.555-.533-.75-1.294-1.125-2.281-1.125-.968 0-1.728.375-2.281 1.125-.553.73-.829 1.916-.829 3.555 0 1.658.276 2.863.829 3.613.553.73 1.313 1.096 2.281 1.096zM128.034 21.526h-2.429c-.493 0-.74-.247-.74-.74V1.74c0-.493.247-.74.74-.74h3.288c.316 0 .533.05.652.148.138.08.276.227.414.444l7.998 13.774V1.74c0-.493.246-.74.74-.74h2.429c.493 0 .74.247.74.74v19.046c0 .493-.247.74-.74.74h-3.288c-.316 0-.543-.04-.681-.118a2.05 2.05 0 01-.385-.474l-7.998-13.655v13.507c0 .493-.246.74-.74.74zM102.264 21.526h-2.843c-.494 0-.74-.247-.74-.74V7.13c0-.494.246-.74.74-.74h2.133c.454 0 .73.217.829.651l.266.978c1.778-1.383 3.673-2.074 5.687-2.074 1.402 0 2.479.385 3.229 1.155.77.75 1.155 1.827 1.155 3.229v10.456c0 .493-.247.74-.74.74h-2.844c-.494 0-.74-.247-.74-.74v-9.182c0-1.56-.721-2.34-2.163-2.34-1.086 0-2.162.335-3.228 1.007v10.515c0 .493-.247.74-.741.74zM87.817 21.97c-2.31 0-4.136-.69-5.48-2.073-1.342-1.402-2.013-3.386-2.013-5.953 0-2.548.671-4.512 2.014-5.895 1.343-1.402 3.17-2.103 5.48-2.103 2.31 0 4.136.701 5.48 2.103 1.342 1.383 2.013 3.347 2.013 5.895 0 2.567-.671 4.551-2.014 5.953-1.343 1.382-3.17 2.073-5.48 2.073zm0-3.317c.988 0 1.748-.365 2.281-1.096.553-.75.83-1.955.83-3.613 0-1.64-.277-2.824-.83-3.555-.533-.75-1.293-1.125-2.28-1.125-.968 0-1.728.375-2.281 1.125-.553.73-.83 1.916-.83 3.555 0 1.658.277 2.863.83 3.613.553.73 1.313 1.096 2.28 1.096zM77.617 21.526H66.39c-.494 0-.74-.247-.74-.74v-1.511c0-.297.029-.534.088-.711.06-.178.188-.375.385-.593L73.44 9.59h-6.753c-.494 0-.74-.247-.74-.74V7.13c0-.494.246-.74.74-.74h10.782c.493 0 .74.246.74.74V8.7c0 .296-.03.533-.089.71-.06.178-.188.376-.385.593l-7.405 8.323h7.287c.493 0 .74.247.74.74v1.718c0 .494-.247.74-.74.74zM54.487 22c-1.462 0-2.636-.415-3.525-1.244-.869-.83-1.303-1.935-1.303-3.317 0-1.462.533-2.627 1.6-3.495 1.085-.889 2.517-1.333 4.294-1.333.948 0 1.994.128 3.14.385v-1.481c0-.909-.188-1.53-.563-1.866-.375-.336-1.066-.504-2.074-.504-.69 0-1.421.07-2.191.208-.77.118-1.55.286-2.34.503-.158.04-.267.06-.326.06-.336 0-.504-.228-.504-.682V7.901c0-.316.04-.533.119-.651.099-.119.276-.237.533-.356.691-.296 1.53-.523 2.518-.681a16.689 16.689 0 012.962-.267c2.034 0 3.515.415 4.443 1.244.947.81 1.421 2.093 1.421 3.85v9.746c0 .493-.247.74-.74.74h-2.014c-.435 0-.711-.217-.83-.651l-.177-.682a7.35 7.35 0 01-2.133 1.333c-.79.316-1.56.474-2.31.474zm1.214-2.903c1.027 0 2.024-.404 2.992-1.214v-2.577c-.375-.06-.77-.109-1.185-.148-.415-.04-.8-.06-1.155-.06-1.718 0-2.577.692-2.577 2.074 0 .612.168 1.086.503 1.422.336.335.81.503 1.422.503zM27.03 21.526h-2.844c-.494 0-.74-.247-.74-.74V7.13c0-.494.246-.74.74-.74h2.133c.454 0 .73.217.83.651l.236.8c1.027-.671 1.955-1.155 2.784-1.451a7.947 7.947 0 012.636-.445c1.778 0 3.032.632 3.762 1.896 1.007-.671 1.955-1.155 2.844-1.451a8.654 8.654 0 012.754-.445c1.382 0 2.449.385 3.2 1.155.77.75 1.154 1.827 1.154 3.229v10.456c0 .493-.247.74-.74.74h-2.844c-.493 0-.74-.247-.74-.74v-9.508c0-1.343-.602-2.014-1.807-2.014-1.066 0-2.142.256-3.228.77v10.752c0 .493-.247.74-.741.74h-2.843c-.494 0-.74-.247-.74-.74v-9.508c0-1.343-.603-2.014-1.808-2.014-.533 0-1.066.069-1.6.207a7.649 7.649 0 00-1.658.592v10.723c0 .493-.247.74-.74.74zM2.592 21.526c-.395 0-.592-.148-.592-.444 0-.099.02-.217.06-.355.058-.158.118-.326.177-.504L8.812 1.77c.119-.316.257-.523.415-.622C9.385 1.05 9.602 1 9.88 1h3.288c.276 0 .493.05.651.148.178.099.316.306.415.622l6.575 18.453c.06.178.109.346.148.504.06.138.09.256.09.355 0 .296-.198.444-.593.444h-3.258c-.316 0-.543-.059-.681-.177-.139-.119-.257-.316-.356-.593l-1.214-3.91h-7.08l-1.154 3.91c-.08.277-.198.474-.356.593-.138.118-.375.177-.71.177H2.591zm6.22-7.878h5.213l-2.636-8.59-2.577 8.59z"></path></svg>