<svg fill="currentColor" fill-rule="evenodd" height="1em" style="flex:none;line-height:1" viewBox="0 0 106 24" xmlns="http://www.w3.org/2000/svg"><title>NovelAI</title><path d="M22.72 3.21c-.598.367-1.372.759-2.331 1.168l-.118 17.051-4.056.375L7.134 7.691l.429 3.577v8.287l2.533.375-.025 1.482H2.168L2 20.484c.555-.366 1.372-.767 2.44-1.193V4.08l-2.01-.324.024-1.482h6.38l-.025.025 8.878 14.054-.429-3.697V4.165l-2.786-.41.026-1.481h8.045l.169.928.008.009zM22.19 14.411c0-2.189.664-3.977 1.986-5.349 1.338-1.38 3.013-2.07 4.999-2.07 1.986 0 3.635.708 4.915 2.121 1.304 1.397 1.952 3.211 1.952 5.443 0 2.231-.64 4.054-1.927 5.408C32.852 21.32 31.228 22 29.259 22c-1.97 0-3.695-.716-5.058-2.155-1.338-1.44-2.012-3.245-2.012-5.442v.008zm8.247 5.06c.9-.64 1.355-2.164 1.355-4.566 0-1.593-.236-2.887-.715-3.9-.463-1.031-1.17-1.542-2.13-1.542-.572 0-1.06.136-1.464.408-.69.929-1.035 2.428-1.035 4.48 0 1.55.253 2.82.749 3.807.497.971 1.254 1.457 2.272 1.457a3.3 3.3 0 00.976-.145h-.008zM51.84 8.883l-1.498.759c-2.012 5.348-3.527 9.25-4.545 11.694-.673.212-1.498.323-2.474.323-.648 0-1.246-.05-1.784-.145L37.432 9.906l-1.75-.784V7.606h7.472l.085 1.277-1.406.724 1.75 5.613.405 2.53h.513c.572-2.35 1.178-5.042 1.81-8.091l-1.465-.554.025-1.516h6.868l.084 1.277.017.017zM62.688 14.496l-7.33-.085c.075 1.44.52 2.547 1.32 3.347.809.792 1.827 1.193 3.072 1.193 1.035 0 2.264-.35 3.678-1.048l.606 1.542-4.511 2.359-.917.06c-2.104 0-3.846-.673-5.201-2.01-1.364-1.355-2.037-3.075-2.037-5.153 0-2.079.69-3.995 2.07-5.468 1.38-1.49 3.055-2.24 5.033-2.24 1.725 0 3.13.545 4.225 1.626 1.11 1.065 1.666 2.462 1.666 4.19l-1.666 1.687h-.008zM57.46 9.2c-.993.579-1.64 1.652-1.927 3.202l4.974-.264c-.135-.835-.488-1.533-1.06-2.095-.556-.562-1.221-.843-1.987-.843z"></path><path d="M70.708 19.121c.9.29 1.599.58 2.095.87l-.117 1.422h-8.248l-.084-.989c.572-.332 1.304-.647 2.188-.962V2.649l-2.155-.23-.201-1.397C65.835.383 67.543.042 69.302 0l1.406 1.278V19.12zM95.182 19.939l-.026 1.482H86.1l-.176-.928c.539-.333 1.372-.741 2.5-1.218l-1.204-3.143h-6.842l-1.263 3.432 2.643.375-.025 1.482h-7.819l-.176-.928c.572-.367 1.371-.758 2.39-1.167l6.354-15.8-.345-.903 3.762-1.047 7.245 18.065 2.046.29-.008.008zm-8.804-6.022l-2.583-6.865-2.584 6.865h5.175-.008z"></path><path d="M104.304 19.939l-.025 1.482h-9.257l-.178-.929c.556-.366 1.372-.766 2.441-1.192V4.088l-2.213-.324.025-1.482h8.794l.177.929a17.35 17.35 0 01-2.415 1.192v15.16l2.643.376h.008z"></path></svg>