<svg height="1em" style="flex:none;line-height:1" viewBox="0 0 24 24" width="1em" xmlns="http://www.w3.org/2000/svg"><title>novita.ai</title><path clip-rule="evenodd" d="M2.371 0C1.614 0 1 .614 1 1.371v18.522c0 .758.614 1.372 1.371 1.372h2.397l7.21 2.691a.686.686 0 00.926-.642V7.756c0-.572-.355-1.084-.891-1.284L4.768 3.765h13.72v17.5h2.398c.757 0 1.371-.614 1.371-1.372V1.371C22.257.614 21.643 0 20.886 0H2.37zm8.612 16.183c.31.15.562-.037.562-.42 0-.385-.251-.818-.562-.968-.31-.152-.561.037-.561.42s.251.816.561.968z" fill="url(#lobe-icons-novita.ai-fill)" fill-rule="evenodd"></path><defs><linearGradient gradientUnits="userSpaceOnUse" id="lobe-icons-novita.ai-fill" x1="0" x2="24.5" y1="0" y2="24"><stop stop-color="#2622FF"></stop><stop offset="1" stop-color="#A717FF"></stop></linearGradient></defs></svg>