<svg fill="currentColor" fill-rule="evenodd" height="1em" style="flex:none;line-height:1" viewBox="0 0 126 24" xmlns="http://www.w3.org/2000/svg"><title>novita.ai</title><path d="M59.34 2.062a2.05 2.05 0 01-2.072 2.061c-1.18 0-2.1-.903-2.1-2.061S56.088 0 57.268 0a2.05 2.05 0 012.071 2.062zM58.878 21.746h-3.28V6.185h3.28v15.56zM13.249 21.746h3.25v-9.179c0-4.349-2.79-6.636-6.501-6.636-1.899 0-3.654.762-4.718 2.033v-1.78H2v15.562h3.28v-8.699c0-2.852 1.582-4.32 3.999-4.32 2.387 0 3.97 1.468 3.97 4.32v8.699z"></path><path clip-rule="evenodd" d="M27.693 5.93c4.516 0 8.084 3.136 8.084 8.021 0 4.886-3.683 8.049-8.228 8.049-4.517 0-7.94-3.163-7.94-8.049 0-4.885 3.567-8.02 8.084-8.02zm-.057 2.797c-2.474 0-4.689 1.694-4.689 5.224 0 3.53 2.129 5.253 4.603 5.253 2.445 0 4.862-1.723 4.862-5.253 0-3.53-2.33-5.224-4.776-5.224z"></path><path d="M43.169 21.746L37.156 6.185h3.51l4.488 12.68 4.488-12.68h3.48l-6.04 15.56h-3.913zM68.286 21.746c-2.82 0-4.575-1.158-4.575-4.321V8.81h-1.87V6.185h1.87v-3.87h3.309v3.87h3.855V8.81H67.02v8.614c0 1.158.46 1.638 1.84 1.638h2.015v2.683h-2.589z"></path><path clip-rule="evenodd" d="M80.224 22c-4.114 0-7.423-3.304-7.423-8.105s3.309-7.964 7.48-7.964c2.676 0 4.517 1.242 5.495 2.513v-2.26h3.309v15.562h-3.309V19.43C84.77 20.757 82.87 22 80.224 22zm.747-2.796c2.474 0 4.804-1.892 4.804-5.253 0-3.332-2.33-5.224-4.804-5.224-2.445 0-4.804 1.807-4.804 5.168 0 3.36 2.36 5.31 4.804 5.31z"></path><path d="M94.725 17.82a2.05 2.05 0 012.071 2.062 2.05 2.05 0 01-2.071 2.062c-1.18 0-2.1-.904-2.1-2.062s.92-2.062 2.1-2.062z"></path><path clip-rule="evenodd" d="M106.662 22c-4.114 0-7.422-3.304-7.422-8.105s3.308-7.964 7.479-7.964c2.676 0 4.517 1.242 5.495 2.513v-2.26h3.309v15.562h-3.309V19.43c-1.007 1.327-2.905 2.57-5.552 2.57zm.747-2.796c2.474 0 4.804-1.892 4.804-5.253 0-3.332-2.33-5.224-4.804-5.224-2.445 0-4.804 1.807-4.804 5.168 0 3.36 2.359 5.31 4.804 5.31z"></path><path d="M121.508 4.123a2.05 2.05 0 002.071-2.061A2.05 2.05 0 00121.508 0c-1.18 0-2.1.904-2.1 2.062s.92 2.061 2.1 2.061zM119.839 21.746h3.279V6.185h-3.279v15.56z"></path></svg>