<svg fill="currentColor" fill-rule="evenodd" height="1em" style="flex:none;line-height:1" viewBox="0 0 86 24" xmlns="http://www.w3.org/2000/svg"><title>OpenAI</title><path d="M10.703 2C5.916 2 2 5.916 2 10.703c0 4.787 3.916 8.704 8.703 8.704 4.787 0 8.704-3.893 8.704-8.704A8.698 8.698 0 0010.703 2zm0 14.288c-2.973 0-5.367-2.442-5.367-5.585S7.73 5.12 10.703 5.12c2.974 0 5.367 2.441 5.367 5.584s-2.393 5.585-5.367 5.585zM28.206 6.835c-1.57 0-3.094.629-3.892 1.693v-1.45h-3.143V24h3.143v-6.116c.798.99 2.273 1.523 3.892 1.523 3.385 0 6.045-2.66 6.045-6.286 0-3.626-2.66-6.286-6.044-6.286zm-.531 9.84c-1.79 0-3.385-1.402-3.385-3.554s1.596-3.554 3.385-3.554c1.789 0 3.384 1.402 3.384 3.554s-1.595 3.554-3.384 3.554zM41.649 6.835c-3.433 0-6.141 2.684-6.141 6.286 0 3.602 2.37 6.286 6.237 6.286 3.167 0 5.198-1.91 5.827-4.062h-3.07c-.388.895-1.475 1.523-2.78 1.523-1.62 0-2.854-1.136-3.144-2.756h9.139V12.88c0-3.288-2.297-6.044-6.068-6.044zm-3.047 5.053c.339-1.523 1.596-2.514 3.12-2.514 1.619 0 2.852 1.064 2.997 2.514h-6.117zM56.081 6.835c-1.402 0-2.877.629-3.553 1.669V7.077h-3.143v12.088h3.143v-6.503c0-1.886 1.015-3.119 2.659-3.119 1.523 0 2.345 1.16 2.345 2.78v6.842h3.143v-7.35c0-2.997-1.838-4.98-4.594-4.98zM68.724 2.242l-6.841 16.923h3.36l1.45-3.699h7.785l1.45 3.7h3.41L72.543 2.241h-3.82zm-.943 10.42l2.805-7.084 2.78 7.084H67.78zM83.81 2.242h-3.191v16.923h3.19V2.242z"></path></svg>