<svg fill="currentColor" fill-rule="evenodd" height="1em" style="flex:none;line-height:1" viewBox="0 0 143 24" xmlns="http://www.w3.org/2000/svg"><title>OpenRouter</title><path d="M9.623 2c1.46 0 2.763.35 3.91 1.05 1.149.699 2.053 1.7 2.714 3.002.66 1.303.991 2.861.991 4.675 0 1.814-.33 3.372-.991 4.675-.66 1.302-1.565 2.303-2.713 3.003-1.148.7-2.452 1.049-3.91 1.049-1.465 0-2.772-.35-3.92-1.05-1.148-.699-2.052-1.701-2.713-3.007-.66-1.305-.991-2.862-.991-4.67 0-1.814.33-3.372.991-4.675.66-1.302 1.565-2.303 2.713-3.003C6.852 2.35 8.16 2 9.624 2zm0 2.34c-.974 0-1.844.244-2.61.734-.765.489-1.37 1.208-1.813 2.156-.443.949-.664 2.114-.664 3.497s.221 2.548.664 3.497c.444.948 1.048 1.667 1.813 2.156.766.49 1.636.735 2.61.735.97 0 1.838-.245 2.606-.735.768-.489 1.374-1.208 1.817-2.156.443-.949.665-2.114.665-3.497s-.222-2.548-.665-3.497c-.443-.948-1.049-1.667-1.817-2.156-.768-.49-1.637-.735-2.606-.735zm16.32 1.974c1.024 0 1.938.26 2.742.78s1.436 1.269 1.896 2.248c.46.979.69 2.156.69 3.534 0 1.377-.23 2.556-.686 3.538-.457.981-1.085 1.736-1.883 2.264-.799.529-1.71.793-2.734.793-.771 0-1.4-.13-1.887-.39-.488-.26-.869-.564-1.144-.913a6.908 6.908 0 01-.636-.929h-.149V24h-2.47V6.48h2.412v2.065h.207c.143-.265.35-.572.62-.92.27-.349.643-.655 1.123-.917.479-.263 1.112-.394 1.9-.394zm-.528 2.107c-.716 0-1.32.185-1.813.556-.493.37-.866.887-1.12 1.55-.253.665-.38 1.439-.38 2.324 0 .896.13 1.68.389 2.356.259.674.633 1.201 1.123 1.58s1.09.568 1.8.568c.738 0 1.355-.198 1.85-.593.496-.395.872-.933 1.128-1.613.256-.68.384-1.447.384-2.298 0-.84-.125-1.596-.376-2.265-.25-.67-.625-1.197-1.123-1.584-.498-.388-1.12-.581-1.862-.581zm13.387-2.107c.716 0 1.41.119 2.082.356a5.037 5.037 0 011.809 1.12c.534.51.955 1.169 1.263 1.979.309.81.463 1.793.463 2.949v.88l-9.016-.001.002.105c.03.732.178 1.364.445 1.895.3.597.72 1.052 1.26 1.364.539.313 1.17.469 1.89.469.469 0 .895-.068 1.28-.203a2.716 2.716 0 001-.61c.281-.271.496-.606.644-1.004l2.338.423a4.247 4.247 0 01-1.004 1.813c-.482.517-1.084.918-1.808 1.203-.725.284-1.549.427-2.474.427-1.25 0-2.325-.27-3.225-.809-.9-.54-1.594-1.3-2.082-2.281-.487-.982-.73-2.134-.73-3.455 0-1.306.243-2.456.73-3.451.488-.996 1.17-1.773 2.049-2.331.878-.559 1.906-.838 3.084-.838zm.017 2.049c-.694 0-1.298.17-1.813.51-.515.34-.911.782-1.19 1.327a3.778 3.778 0 00-.39 1.303l-.02.236h6.593c0-.653-.132-1.232-.397-1.738a3.022 3.022 0 00-1.11-1.199c-.477-.293-1.034-.44-1.673-.44zm10.29 3.293v7.566H46.64V6.48h2.37v2.074h.158a3.63 3.63 0 011.375-1.626c.625-.41 1.413-.614 2.366-.614.864 0 1.622.18 2.271.543.65.362 1.154.9 1.512 1.614.358.713.537 1.595.537 2.646v8.105h-2.47v-7.806c0-.924-.24-1.647-.718-2.17-.48-.522-1.137-.784-1.974-.784-.573 0-1.081.125-1.524.374a2.65 2.65 0 00-1.05 1.09c-.255.479-.383 1.055-.383 1.73zm17.122-9.424c1.31 0 2.4.227 3.266.68.868.454 1.516 1.08 1.945 1.88.43.799.645 1.72.645 2.766 0 1.04-.216 1.954-.649 2.742-.432.788-1.082 1.4-1.949 1.837a5.1 5.1 0 01-.501.22l3.743 6.865h-2.907l-3.436-6.43h-3.634v6.43h-2.552V2.232h6.029zm-.273 2.199h-3.204v6.155h3.237c.826 0 1.5-.119 2.02-.357s.901-.583 1.144-1.037c.242-.453.363-.998.363-1.634 0-.641-.122-1.197-.367-1.667-.246-.47-.628-.831-1.148-1.083-.52-.252-1.202-.377-2.045-.377zM79.66 6.314c1.19 0 2.227.273 3.114.821.886.548 1.575 1.316 2.065 2.306s.735 2.146.735 3.468c0 1.316-.245 2.466-.735 3.45-.49.985-1.179 1.751-2.065 2.299-.887.547-1.924.82-3.114.82s-2.227-.273-3.113-.82c-.887-.548-1.575-1.314-2.065-2.298-.49-.985-.735-2.135-.735-3.451 0-1.322.245-2.478.735-3.468.49-.99 1.178-1.758 2.065-2.306.886-.548 1.924-.821 3.113-.821zm.008 2.074c-.776 0-1.419.207-1.928.622-.51.415-.887.963-1.132 1.646a6.602 6.602 0 00-.367 2.244c0 .819.122 1.568.367 2.249.245.68.623 1.225 1.132 1.634.51.41 1.152.614 1.928.614.771 0 1.41-.205 1.917-.614.506-.41.882-.954 1.127-1.634.245-.68.367-1.43.367-2.249 0-.813-.122-1.56-.367-2.244-.245-.683-.62-1.231-1.127-1.646-.507-.415-1.146-.622-1.917-.622zm16.164 5.55V6.48h2.477v12.742h-2.428v-2.207h-.132a3.956 3.956 0 01-1.4 1.697c-.641.45-1.438.676-2.391.676-.815 0-1.535-.181-2.16-.544-.625-.362-1.115-.9-1.47-1.613-.355-.714-.533-1.596-.533-2.647V6.48h2.47v7.806c0 .868.24 1.56.718 2.074.48.514 1.102.771 1.867.771.462 0 .924-.116 1.383-.348.46-.232.843-.584 1.148-1.054.306-.47.456-1.067.45-1.792zm8.58-10.511v3.052h2.602v1.992h-2.602v7.01c0 .48.072.841.215 1.082.144.24.33.404.558.49.228.085.478.128.747.128.199 0 .372-.014.52-.041l.348-.067.446 2.05a4.42 4.42 0 01-.612.17c-.264.057-.594.09-.99.095a4.331 4.331 0 01-1.818-.349 3.12 3.12 0 01-1.362-1.128c-.347-.509-.52-1.148-.52-1.916l-.002-7.525h-1.857V6.48h1.857l.001-3.053h2.47zm9.961 2.887c.716 0 1.41.119 2.081.356a5.037 5.037 0 011.81 1.12c.533.51.954 1.169 1.263 1.979.308.81.462 1.793.462 2.949v.88l-9.016-.001.003.105c.03.732.178 1.364.445 1.895.3.597.72 1.052 1.259 1.364.54.313 1.17.469 1.891.469.468 0 .895-.068 1.28-.203a2.716 2.716 0 001-.61c.28-.271.495-.606.644-1.004l2.337.423a4.247 4.247 0 01-1.003 1.813c-.482.517-1.085.918-1.809 1.203-.724.284-1.548.427-2.473.427-1.25 0-2.325-.27-3.226-.809-.9-.54-1.594-1.3-2.08-2.281-.488-.982-.732-2.134-.732-3.455 0-1.306.244-2.456.731-3.451.487-.996 1.17-1.773 2.048-2.331.879-.559 1.907-.838 3.085-.838zm.017 2.049c-.694 0-1.298.17-1.813.51-.515.34-.911.782-1.19 1.327a3.778 3.778 0 00-.39 1.303l-.02.236h6.592c0-.653-.132-1.232-.396-1.738a3.022 3.022 0 00-1.11-1.199c-.477-.293-1.035-.44-1.673-.44zm7.821 10.859V6.48h2.387v2.024h.132a3.092 3.092 0 011.227-1.622 3.485 3.485 0 011.994-.593l.396.01.153.006c.212.011.379.025.5.042v2.372c-.1-.027-.275-.059-.529-.095a5.4 5.4 0 00-.76-.054c-.583 0-1.102.123-1.556.37a2.799 2.799 0 00-1.078 1.02 2.79 2.79 0 00-.397 1.48v7.782h-2.469z"></path></svg>