<svg fill="currentColor" fill-rule="nonzero" height="1em" style="flex:none;line-height:1" viewBox="0 0 140 24" xmlns="http://www.w3.org/2000/svg"><title>OpenClaw</title><path d="M122.59 19.6h-6.082l-3.287-13.044h5.047l.932 4.71.492 4.659h.336l1.087-5.177 1.294-4.192h6.264l1.294 4.192 1.087 5.177h.336l.518-4.659.906-4.71h4.969L134.341 19.6h-6.082l-1.683-5.228-.957-3.908h-.337l-.983 3.908-1.709 5.228zM112.685 19.6h-4.555v-2.899h-.259v-4.633c0-.655-.173-1.07-.518-1.242-.328-.19-.923-.285-1.786-.285-.793 0-1.345.095-1.656.285-.293.19-.44.561-.44 1.113v.104h-4.866v-.052c0-1.156.302-2.157.906-3.002.604-.863 1.458-1.527 2.562-1.993 1.105-.466 2.39-.7 3.857-.7 1.518 0 2.778.242 3.779.726 1 .465 1.742 1.138 2.225 2.018.501.863.751 1.907.751 3.132V19.6zm-9.732.259c-1.466 0-2.605-.32-3.416-.958-.794-.638-1.19-1.51-1.19-2.614 0-.62.146-1.173.44-1.656.293-.483.75-.872 1.371-1.165.621-.31 1.424-.518 2.407-.621l5.565-.543v2.691l-4.271.492c-.224.017-.388.069-.491.155a.453.453 0 00-.13.337c0 .207.095.345.285.414.207.052.5.078.88.078.863 0 1.544-.044 2.044-.13.501-.104.863-.285 1.087-.543.225-.26.337-.63.337-1.113l.362-.104v2.278h-.362c-.242.914-.768 1.648-1.579 2.2-.811.535-1.924.802-3.339.802zM97.18 19.6h-4.865V2.26h4.865V19.6zM81.715 19.858c-2.001 0-3.718-.362-5.15-1.087-1.432-.742-2.528-1.777-3.287-3.105-.76-1.346-1.14-2.925-1.14-4.737 0-1.811.38-3.382 1.14-4.71.759-1.346 1.855-2.381 3.287-3.106C77.997 2.37 79.714 2 81.715 2c1.95 0 3.615.293 4.995.88 1.398.587 2.468 1.432 3.21 2.536.742 1.105 1.113 2.433 1.113 3.986v.44h-5.436v-.44c0-.983-.276-1.682-.828-2.096-.552-.432-1.544-.647-2.976-.647-1.174 0-2.088.12-2.744.362a2.179 2.179 0 00-1.346 1.268c-.258.604-.388 1.484-.388 2.64 0 1.139.13 2.019.389 2.64a2.266 2.266 0 001.345 1.294c.656.225 1.57.337 2.744.337 1.432 0 2.424-.207 2.976-.621.552-.432.828-1.14.828-2.123v-.44h5.436v.44c0 1.536-.371 2.864-1.113 3.986-.742 1.104-1.812 1.95-3.21 2.537-1.38.586-3.045.88-4.995.88zM70.96 19.6h-4.866v-6.574c0-.914-.199-1.535-.596-1.863-.397-.345-1.13-.518-2.2-.518-1.07 0-1.786.164-2.148.492-.345.31-.518.888-.518 1.734h-.491l-.414-2.355h.854a5.758 5.758 0 01.698-2.045c.38-.638.932-1.156 1.657-1.553.742-.414 1.69-.621 2.847-.621 1.173 0 2.14.216 2.899.647.776.431 1.346 1.018 1.708 1.76.38.742.57 1.587.57 2.536v8.36zm-10.328 0h-4.865V6.556h4.555v4.011l.31.13V19.6zM47.192 19.859c-1.467 0-2.77-.224-3.908-.673-1.14-.449-2.028-1.173-2.666-2.174-.639-1-.958-2.312-.958-3.934 0-1.415.32-2.623.958-3.624a6.219 6.219 0 012.614-2.329c1.121-.552 2.407-.828 3.856-.828 1.501 0 2.804.25 3.908.75 1.105.484 1.959 1.208 2.563 2.175.604.949.906 2.122.906 3.52 0 .224-.009.43-.026.62 0 .173-.017.38-.052.622H42.844v-2.459h8.023l-1.061 1.527v-.906c0-.794-.207-1.346-.621-1.656-.397-.31-1.13-.466-2.2-.466-1.105 0-1.855.172-2.252.518-.38.345-.57.966-.57 1.863v1.242c0 .915.199 1.536.596 1.864.397.328 1.147.492 2.252.492.983 0 1.639-.087 1.967-.26.345-.189.517-.474.517-.853v-.285h4.866v.31c0 .967-.293 1.82-.88 2.563-.587.742-1.415 1.328-2.485 1.76-1.07.414-2.338.621-3.804.621zM32.648 19.859c-1.536 0-2.692-.328-3.469-.984-.776-.672-1.26-1.552-1.449-2.64h-.75v-3.002h.491c0 .604.112 1.07.337 1.398.241.31.595.526 1.06.647.484.103 1.088.155 1.813.155.759 0 1.354-.078 1.785-.233.449-.155.768-.405.958-.75.19-.345.285-.803.285-1.372 0-.587-.095-1.044-.285-1.372-.19-.345-.509-.586-.958-.724-.431-.156-1.026-.233-1.786-.233-1.087 0-1.898.146-2.432.44-.518.293-.777.914-.777 1.863h-.492l-.362-2.976h.802c.207-1.294.716-2.243 1.527-2.847.811-.622 1.976-.932 3.494-.932 1.33 0 2.45.276 3.365.828.932.535 1.63 1.311 2.096 2.33.484 1 .725 2.208.725 3.623s-.233 2.631-.699 3.65c-.465 1-1.147 1.776-2.044 2.329-.88.535-1.959.802-3.236.802zM27.47 24h-4.866V6.556h4.556v3.675l.31.336V24zM11.602 19.858c-2.001 0-3.727-.362-5.176-1.087-1.432-.742-2.528-1.777-3.287-3.105C2.379 14.32 2 12.74 2 10.929c0-1.811.38-3.382 1.139-4.71.759-1.346 1.855-2.381 3.287-3.106C7.876 2.37 9.6 2 11.602 2c2.07 0 3.822.371 5.254 1.113 1.45.725 2.554 1.76 3.313 3.106.76 1.328 1.139 2.899 1.139 4.71 0 1.812-.38 3.39-1.139 4.737-.76 1.328-1.863 2.363-3.313 3.105-1.432.725-3.183 1.087-5.254 1.087zm0-4.658c1.173 0 2.088-.112 2.744-.337.655-.241 1.113-.673 1.371-1.294.276-.621.414-1.501.414-2.64 0-1.156-.138-2.036-.414-2.64-.258-.62-.716-1.044-1.371-1.268-.656-.241-1.57-.362-2.744-.362-1.173 0-2.079.12-2.717.362A2.179 2.179 0 007.539 8.29c-.242.604-.363 1.484-.363 2.64 0 1.139.121 2.019.363 2.64a2.266 2.266 0 001.346 1.294c.638.225 1.544.337 2.717.337z"></path></svg>