<svg fill="currentColor" fill-rule="nonzero" height="1em" style="flex:none;line-height:1" viewBox="0 0 128 24" xmlns="http://www.w3.org/2000/svg"><title>PixVerse</title><path d="M118.225 22c-1.764 0-3.309-.327-4.633-.98-1.305-.654-2.32-1.545-3.044-2.674-.723-1.147-1.084-2.435-1.084-3.865 0-1.464.352-2.76 1.057-3.891a7.493 7.493 0 012.939-2.647c1.253-.636 2.656-.952 4.21-.952 1.428 0 2.744.282 3.944.846a6.85 6.85 0 012.912 2.514c.741 1.113 1.111 2.49 1.111 4.13 0 .212-.009.45-.027.716-.018.246-.034.475-.052.687h-11.145v-2.885h7.967l-2.248.768c0-.566-.107-1.041-.318-1.43a2.115 2.115 0 00-.821-.927 2.282 2.282 0 00-1.271-.343c-.495 0-.927.114-1.297.345-.36.22-.646.542-.821.925-.193.389-.291.864-.291 1.43v.9c0 .617.123 1.146.371 1.587.247.441.6.777 1.059 1.007.459.212 1.014.318 1.668.318.671 0 1.217-.09 1.641-.265.441-.176.9-.442 1.376-.796l3.123 3.15a6.964 6.964 0 01-2.621 1.748c-1.023.39-2.257.584-3.705.584z"></path><path d="M100.931 22c-1.235 0-2.453-.134-3.653-.398-1.2-.265-2.17-.609-2.91-1.032l1.64-3.945c.688.406 1.481.724 2.382.954.918.23 1.809.345 2.673.345.724 0 1.209-.063 1.456-.186.265-.125.398-.293.398-.504 0-.21-.15-.36-.45-.45a5.427 5.427 0 00-1.191-.239c-.495-.052-1.041-.114-1.641-.184a16.67 16.67 0 01-1.775-.37 5.723 5.723 0 01-1.641-.715 3.586 3.586 0 01-1.191-1.27c-.3-.548-.45-1.237-.45-2.066 0-.917.274-1.746.82-2.487.566-.743 1.395-1.334 2.489-1.775 1.112-.46 2.48-.687 4.103-.687 1.059 0 2.118.096 3.176.29 1.059.196 1.968.496 2.727.9l-1.641 3.945a7.61 7.61 0 00-2.198-.82 9.054 9.054 0 00-1.985-.24c-.759 0-1.279.071-1.561.212-.266.141-.398.3-.398.477 0 .21.15.37.45.476.3.105.698.186 1.191.24.495.052 1.033.123 1.616.21.6.07 1.191.195 1.773.37.6.16 1.146.398 1.642.716.493.318.891.75 1.191 1.296.3.53.45 1.21.45 2.04 0 .864-.275 1.676-.821 2.434-.547.74-1.377 1.342-2.489 1.8-1.111.441-2.505.663-4.182.663z"></path><path d="M83.193 21.735V7.255h5.69v4.367l-.926-1.244c.441-1.13 1.146-1.976 2.117-2.541.97-.564 2.136-.846 3.496-.846v5.294a14.695 14.695 0 00-.716-.08 6.731 6.731 0 00-.61-.027c-.9 0-1.64.239-2.222.716-.566.457-.848 1.26-.848 2.408v6.433h-5.981z"></path><path d="M73.893 22c-1.766 0-3.31-.327-4.633-.98-1.305-.654-2.32-1.545-3.045-2.674-.723-1.147-1.084-2.435-1.084-3.865 0-1.464.354-2.76 1.059-3.891a7.479 7.479 0 012.939-2.647c1.252-.636 2.655-.952 4.207-.952 1.43 0 2.746.282 3.946.846a6.834 6.834 0 012.91 2.514c.743 1.113 1.114 2.49 1.114 4.13 0 .212-.01.45-.028.716l-.052.687H70.08v-2.885h7.969l-2.25.768c0-.566-.106-1.041-.319-1.43a2.106 2.106 0 00-.819-.927 2.28 2.28 0 00-1.27-.343c-.496 0-.928.114-1.298.345-.36.22-.646.542-.82.925-.196.389-.292.864-.292 1.43v.9c0 .617.123 1.146.37 1.587.248.441.6.777 1.06 1.007.457.212 1.014.318 1.667.318.67 0 1.218-.09 1.64-.265.442-.176.9-.442 1.378-.796l3.123 3.15a6.98 6.98 0 01-2.62 1.748c-1.024.39-2.26.584-3.706.584z"></path><path d="M52.548 21.736L44.71 3.206h6.724l6.38 15.644h-3.998l6.566-15.644h6.14l-7.835 18.53h-6.139z"></path><path d="M28.56 21.732l6.831-8.947-.159 3.441-6.512-8.974h6.75l3.203 4.792-2.49.184 3.523-4.976h6.273l-6.539 8.683v-3.31l6.671 9.107h-6.855l-3.31-5.108 2.514.343-3.414 4.765h-6.485z"></path><path d="M21.49 21.733V7.253h5.983v14.48H21.49zM24.482 6.09c-1.095 0-1.968-.292-2.621-.874a2.79 2.79 0 01-.98-2.171c0-.864.327-1.587.98-2.17C22.513.29 23.388 0 24.48 0c1.096 0 1.969.273 2.621.82.653.548.98 1.253.98 2.119 0 .916-.327 1.676-.98 2.276-.652.582-1.527.873-2.62.873"></path><path d="M2 21.736V3.206h8.922c1.728 0 3.219.282 4.472.846 1.272.565 2.25 1.377 2.94 2.436.687 1.041 1.03 2.276 1.03 3.706 0 1.43-.345 2.665-1.032 3.705-.688 1.043-1.666 1.854-2.938 2.436-1.253.564-2.744.848-4.472.848H5.465l2.78-2.675v7.228H2zm6.247-6.54l-2.779-2.832h5.056c.864 0 1.5-.195 1.905-.582.425-.388.636-.918.636-1.588s-.211-1.2-.636-1.589c-.405-.387-1.04-.582-1.905-.582H5.468L8.247 5.19v10.006z"></path></svg>