<svg fill="currentColor" fill-rule="evenodd" height="1em" style="flex:none;line-height:1" viewBox="0 0 154 24" xmlns="http://www.w3.org/2000/svg"><title>Player2</title><path d="M18.076 13.532c0 .744-.093 1.409-.279 1.995a5.628 5.628 0 01-.749 1.548 5.3 5.3 0 01-1.095 1.151 6.425 6.425 0 01-2.655 1.219 6.78 6.78 0 01-1.292.133H4.593v-3.26h7.413c.42-.034.801-.12 1.142-.256.34-.14.634-.328.878-.56.245-.234.434-.517.569-.849.134-.33.2-.703.2-1.12V12.05a4.253 4.253 0 00-.262-1.13 2.756 2.756 0 00-.553-.88 2.433 2.433 0 00-.837-.57 2.922 2.922 0 00-1.137-.206H4.62c-.438 0-.77.111-.998.334-.227.226-.34.553-.34.982V24H0V10.581c0-.836.153-1.548.46-2.134.306-.586.689-1.059 1.147-1.419.458-.36.957-.622 1.498-.786A5.209 5.209 0 014.593 6h7.413c.74 0 1.405.094 1.994.283a5.788 5.788 0 011.555.75c.451.316.836.677 1.152 1.085.314.412.574.842.78 1.29.207.446.357.897.45 1.353.093.456.14.886.14 1.29v1.481zM37.486 24H22.525a1.67 1.67 0 01-1.178-.473 1.581 1.581 0 01-.347-.52 1.71 1.71 0 01-.123-.652V6h3.275v14.735h13.334V24zm20.153 0h-3.28v-4.422H42.832V24h-3.28v-9.003c0-1.312.227-2.52.681-3.624a8.482 8.482 0 011.891-2.854 8.744 8.744 0 012.862-1.856C46.09 6.221 47.293 6 48.598 6h7.388a1.602 1.602 0 011.173.478 1.594 1.594 0 01.48 1.167V24zm-14.806-7.681h11.526V9.265h-5.76c-.104 0-.318.013-.641.04a7.012 7.012 0 00-2.464.76 4.694 4.694 0 00-1.297 1.004c-.396.429-.724.962-.982 1.6-.255.64-.382 1.417-.382 2.328v1.322zm35.843-4.293c0 .744-.093 1.408-.28 1.995a5.74 5.74 0 01-.754 1.547c-.31.45-.673.833-1.09 1.152a7.048 7.048 0 01-1.291.781c-.448.206-.9.355-1.359.448a6.541 6.541 0 01-1.291.138h-1.323V24h-3.306v-5.913h-1.313a6.541 6.541 0 01-2.655-.586 6.827 6.827 0 01-1.291-.781 5.202 5.202 0 01-1.09-1.152 5.631 5.631 0 01-.76-1.553c-.186-.593-.279-1.256-.279-1.99V6h3.276v6.026c0 .425.067.807.2 1.146.135.34.325.63.57.874.244.24.54.425.888.556.351.13.74.195 1.167.195h5.916c.313-.048.633-.113.96-.196a2.55 2.55 0 00.894-.406c.269-.192.491-.459.667-.802.179-.342.268-.798.268-1.367V6h3.276v6.026zm17.823 4.617H86.146v-3.29h10.353v3.29zM97.977 24H86.146c-.455 0-.95-.08-1.488-.242a4.357 4.357 0 01-1.498-.781 4.383 4.383 0 01-1.147-1.42c-.306-.582-.46-1.295-.46-2.138V7.645c0-.226.043-.44.13-.642.082-.203.197-.377.346-.525.144-.15.318-.269.521-.355.204-.082.422-.123.657-.123h14.77v3.265H84.834v10.154c0 .425.114.75.34.977.228.226.56.34.998.34h11.805V24zm21.238-11.949c0 .744-.093 1.41-.279 1.995a5.448 5.448 0 01-.749 1.548 5.223 5.223 0 01-1.09 1.152 6.843 6.843 0 01-1.292.781 6.535 6.535 0 01-2.655.586L120 24h-5.073l-6.835-5.887h-2.361v-3.265h7.419c.41-.034.785-.12 1.126-.257.341-.137.635-.324.883-.56.248-.233.439-.516.574-.849a2.98 2.98 0 00.201-1.13V9.99c0-.185-.022-.326-.067-.422a.47.47 0 00-.176-.21.48.48 0 00-.227-.083 2.578 2.578 0 00-.222-.01h-10.823V24h-3.276V7.645c0-.226.042-.44.124-.642.083-.203.198-.377.347-.525.148-.15.323-.269.527-.355.199-.082.416-.123.65-.123h12.451c.734 0 1.352.132 1.855.396a3.73 3.73 0 011.229.992c.317.394.544.823.682 1.286.138.459.207.889.207 1.29v2.087zM154 24h-22v-8.055c0-.411.048-.848.144-1.31.096-.465.241-.927.438-1.384a6.1 6.1 0 01.78-1.302 5.472 5.472 0 011.149-1.097c.452-.32.974-.574 1.567-.761.589-.192 1.257-.288 2.005-.288h9.786c.593 0 1.031-.146 1.314-.439.282-.297.424-.729.424-1.295V6.142c0-.594-.144-1.042-.431-1.343-.292-.297-.716-.446-1.273-.446h-13.946V0h13.946c.734 0 1.398.094 1.991.281a5.886 5.886 0 011.56.761c.452.32.84.686 1.164 1.097.319.416.584.848.794 1.295A6.516 6.516 0 01154 6.108v1.96c0 1.125-.203 2.075-.609 2.852-.406.773-.915 1.403-1.526 1.892a5.941 5.941 0 01-1.978 1.05c-.711.219-1.373.328-1.984.328h-9.82c-.355 0-.641.05-.855.151-.21.1-.374.235-.493.405-.114.164-.2.354-.26.569-.054.21-.098.42-.13.63v3.702H154V24z"></path></svg>