<svg fill="currentColor" fill-rule="evenodd" height="1em" style="flex:none;line-height:1" viewBox="0 0 49 24" xmlns="http://www.w3.org/2000/svg"><title>Poe</title><path d="M2 0h6.557c3.06 0 5.768 2.102 6.383 5.001.102.49.158.974.163 1.439.046 3.352-2.793 6.465-6.552 6.465-.825.012-3.303.005-3.303.005l.02 6.798H2V0zm3.25 9.802h3.218c2.271 0 3.392-1.906 3.392-3.423 0-1.83-1.535-3.304-3.303-3.304H5.25v6.73-.003zm18.145-4.254c4.097-.013 7.284 3.138 7.294 7.212.005 4.081-3.146 7.227-7.258 7.24-4.135.01-7.312-3.126-7.314-7.225-.003-4.071 3.164-7.217 7.278-7.227zm.013 2.879c-2.353-.003-4.153 1.86-4.168 4.31-.015 2.498 1.779 4.386 4.176 4.386 2.325.003 4.127-1.896 4.124-4.35 0-2.455-1.794-4.341-4.132-4.346zm20.516 6.366c-.315.927-1.464 2.389-3.924 2.389-2.33 0-4.092-1.982-4.018-3.896 0 0 10.684-.01 10.697 0 .673-4.823-2.313-7.736-6.59-7.736-5.113 0-7.253 4.076-7.253 7.078 0 5.306 4.117 7.37 7.151 7.37 3.32 0 5.878-1.579 7.07-4.583l-3.133-.622zM40.04 8.399c2.427 0 3.603 1.482 3.542 2.673H36.27c0-.942 1.482-2.673 3.772-2.673z"></path></svg>