<svg fill="currentColor" fill-rule="evenodd" height="1em" style="flex:none;line-height:1" viewBox="0 0 133 24" xmlns="http://www.w3.org/2000/svg"><title>Pollinations</title><path d="M2 6.707c3.097.142 2.245-.736 2.436 2.32 1.43-3.952 7.777-3.033 8.545.905.917 3.007-.18 7.226-3.797 7.58-2.02.318-3.79-.454-4.683-2.307V24H2V6.707zm2.494 5.315c-.008 2.296.983 4.81 3.632 4.596 2.565-.276 2.542-3.61 2.43-5.582l-.004-.115c-.1-1.88-.957-3.85-3.124-3.48-2.14.288-2.968 2.69-2.934 4.58zm70.24 5.264H72.36V15.17l-.041-.01c-.886 2.413-3.668 2.852-5.862 2.078-2.29-.882-2.24-3.611-1.13-4.723 1.833-1.687 4.534-1.361 6.847-1.562l-.001-.171c0-1.341.149-3.36-1.586-3.494l-.125-.015c-1.76-.178-2.58.546-2.629 2.393h-2.62c.105-3.476 4.89-3.608 7.388-2.78 1.544.453 2.195 1.909 2.138 3.434l.007 1.99c.006 1.658.009 3.316-.01 4.975l-.002.001zm-2.61-5.557l-.214.002c-1.642.009-3.996-.072-4.621 1.755-.34 1.174-.052 2.813 1.362 3.04 2.913.454 3.687-2.48 3.473-4.797zm36.282 5.554V6.733h2.308v2.685l.046.011c.482-1.45 1.403-2.54 2.967-2.83 1.17-.226 2.334-.202 3.403.395l.074.042c1.292.711 1.546 2.194 1.501 3.546.005 2.234.002 4.465.004 6.7h-2.5c0-2.337.011-4.674-.008-7.012l.001-.095c.008-1.197-.37-2.59-1.807-2.63-4.718-.049-3.254 6.645-3.506 9.736h-2.481l-.002.002zm-54.865-7.87c.818-2.607 3.383-3.458 5.851-2.664 1.957.692 2.181 2.506 2.108 4.321.006 2.072.002 4.14.002 6.215h-2.493l.001-3.525c0-1.175 0-2.35-.005-3.526.073-1.183-.409-2.649-1.794-2.68-4.74-.138-3.28 6.67-3.523 9.734h-2.485V6.737h2.303v2.681c.01 0 .023-.003.034-.005h.001zm51.454 2.658c-.04 1.483-.435 2.824-1.438 3.945-1.853 1.826-4.914 2.05-7.247 1.089-4.368-1.784-3.879-9.328.773-10.41 4.103-1.12 7.89.842 7.912 5.376zm-2.706-.245h.002l-.005-.22c-.055-1.788-.387-4.275-2.895-4.384-2.414-.22-3.294 1.943-3.372 3.968l-.013.445c-.048 2.075.1 4.867 2.71 5.186 2.945.355 3.662-2.433 3.573-4.995zm-74.674.233c-.016 2.199-1.131 4.483-3.35 5.154-1.71.58-3.427.624-5.12-.02-4.517-1.578-4.211-9.244.42-10.458 4.091-1.189 7.932.68 8.048 5.187l.002.137zm-2.695.007h-.002l.001-.121c.01-2-.464-4.716-2.955-4.722-2.24-.212-3.234 1.8-3.31 3.804l-.016.264c-.11 2.153.031 5.26 2.723 5.534 2.892.328 3.6-2.375 3.56-4.759zm96.846 2.033h2.383c.047 2.322 1.505 3.091 3.645 2.482 1.281-.419 1.663-2.186.443-2.835-1.855-1.072-4.672-.709-5.884-2.74-1.112-2.372 1.059-4.492 3.611-4.51 2.139-.217 4.604.717 4.707 3.168h-2.33l-.017-.238c-.07-.88-.226-1.82-1.24-2.039-.686-.187-1.368-.185-2.023.118-.77.358-1.128 1.126-.88 1.865.368.998 1.573 1.17 2.47 1.427l.223.06c1.633.422 3.757.828 4.077 2.77.247 1.507-.455 2.792-1.856 3.439-2.564 1.106-7.201.6-7.326-2.863l-.003-.104zm-88.275 3.19h-2.483c0-5.674 0-11.347-.005-17.018 0-.204.05-.27.244-.271h.027c.743.016 1.475.004 2.217.006v17.282zm6.758 0h-2.472V.015c.753-.032 1.503 0 2.256-.016.166 0 .232.03.232.218-.018 5.689.02 11.38-.018 17.068l.002.002zm44.466-1.043c-.045.258.12.79-.121.909l-.235.056c-.977.23-1.96.409-2.975.3-1.756-.135-2.561-1.764-2.445-3.376-.005-2.18-.002-4.351-.004-6.53H77c.048-.257-.147-.868.185-.884.59-.009 1.152-.004 1.744-.005V3.749l1.66-.393.837-.198v3.556h3.317v.871h-3.29c.027 2.637-.152 5.308.096 7.93.313 1.531 2.067.918 3.165.73l.002.001zM46.95 17.29h-2.466V6.737h2.466V17.29zM87.398 6.73h2.466v10.56h-2.466V6.73zm2.88-4.756c.02 2.133-3.83 1.791-3.205-.445.405-1.554 3.34-1.326 3.205.445zm-46.166-.02c-.091-1.973 3.462-1.959 3.252.126-.041 1.797-3.37 1.746-3.252-.127z"></path></svg>