<svg fill="currentColor" fill-rule="evenodd" height="1em" style="flex:none;line-height:1" viewBox="0 0 24 24" width="1em" xmlns="http://www.w3.org/2000/svg"><title>Pollinations</title><path d="M11.823 22.145c.127.192.217.402.276.627.099.336.037.713-.377.725-.279.028-.506-.126-.54-.397-.066-.39.105-.75.299-1.083l.011-.018c.025-.037.057-.073.095-.078h.008c.074-.007.159.122.228.224zm1.596-1.247c.75.31.95 1.246-.084 1.256h-.015c-.52.017-.906-.472-.587-.92.15-.212.417-.42.686-.336zm-3.989-.594c.256.033.512.1.762.16l.037.011c.21.058.458.11.55.297.26.585-.47 1.093-.976 1.103h-.028v-.001c-.413.01-.809-.126-.942-.535-.11-.28-.085-.603.128-.827l.014-.015c.117-.124.282-.212.455-.193zm6.094.237v.014c-.004.302-.148.608-.42.751-.186.093-.417-.01-.588-.15-.171-.147-.283-.356-.382-.568l-.04-.087c-.193-.405.088-.552.405-.627l.04-.01c.058-.012.116-.022.173-.032l.042-.008c.578-.105.792.15.77.717zM2.827 2.991c1.15.86 2.286 1.734 3.376 2.67 2.476 2.166 3.346 5.568 3.452 8.766.048 1.103.108 2.205.199 3.306l.004.04c.019.182.078.563.25.522l.007-.003c.057-.04.086-.123.109-.192.114-.336.194-.693.323-1.026.09-.216.204-.344.377-.411.3-.12.702-.062.87.246.037.05.073.123.11.202l.036.078.02.044.015.03.013.026.013.026c.1.189.223.344.42.264.117-.059.221-.19.319-.283.2-.22.505-.292.713-.053.524.616.5 1.486 0 2.106-.451.585-1.182.7-1.862.586l-.054-.01c-.972-.162-1.555-.96-2.015-1.779l-.03-.055a141.48 141.48 0 00-1.583-2.577l-.03-.045c-.116-.165-.264-.35-.43-.445-.07-.015-.006.127.009.173.467 1.253 1.07 2.425 1.961 3.427l.011.02c.086.168-.045.122-.19.041l-.016-.01-.027-.015-.019-.011a3.561 3.561 0 01-.126-.082l-.075-.05a4.532 4.532 0 01-.78-.67c-.772-.87-1.42-1.838-2.054-2.816l-.375-.58-.165-.255a32.793 32.793 0 00-1.11-1.623c-.415-.567-.89-1.092-1.298-1.666-.774-1.071-1.251-2.312-1.519-3.61-.137-.56-.297-1.114-.438-1.672l-.06-.24c-.094-.38-.166-.784-.129-1.173.083-.894.815-1.97 1.778-1.222zm18.27 14.434c-1.048 1.176-3.299 2.527-4.609 2.154l.002-.002c.014-.019.125-.043.177-.055.838-.192 1.555-.639 2.285-1.058.556-.295 1.048-.682 1.525-1.1l.04-.032c.106-.089.223-.18.352-.214.226-.053.428.11.228.307zM2.012 11.4c1.647.403 2.589 1.718 3.455 3.08l.108.17.226.358c.25.398.502.79.77 1.155.213.305.442.598.666.894.048.058.115.21.05.216h-.011c-.051 0-.127-.062-.172-.106a41.465 41.465 0 01-.727-.698l-.24-.236a26.247 26.247 0 00-1.103-1.032c-.165-.079-.093.137-.027.238.187.286.463.497.695.747.353.352.711.7 1.094 1.018.805.66 1.68 1.232 2.534 1.832l.056.042c.099.074.211.172.205.28-.005.288-1.397.287-1.663.275H7.92c-1.797-.073-3.27-1.012-4.66-2.055l-.138-.105-.097-.073a68.65 68.65 0 01-.287-.22l-.501-.387c-.286-.224-.573-.443-.848-.681C.464 15.3.032 14.098.01 12.882c-.117-1.32.826-1.809 2.003-1.482zm20.708.695l.064.014c.369.078.673.288.899.618.253.37.387.827.28 1.26-.266.87-.806 1.621-1.446 2.26-.15.147-.309.283-.47.418-.178.135-.345.331-.571.376-.19.034-.402-.135-.597-.129-.158 0-.29.092-.41.193-.806.767-1.78 1.286-2.772 1.765l-.186.089-.186.089-.248.117-.017.007c-.189.076-.786.402-.87.234l-.004-.007c-.034-.07.03-.211.091-.298.968-1.244 1.618-2.666 2.246-4.097l.213-.486.255-.576.123-.26c.19-.4.397-.807.726-1.098.77-.65 1.924-.691 2.88-.49zM21.197 4.78c.161.335.22.69.327 1.054.022.084.04.171.04.257v.012a.977.977 0 01-.027.217l-.073.3a7.983 7.983 0 01-.331 1.104c-.32.797-.632 1.597-.942 2.399l-.373.962c-.688 1.776-1.381 3.551-2.15 5.292-.453.953-1.084 1.814-1.791 2.59-.197.227-.453.404-.777.323-.51-.124-.59-.456-.416-.918.187-.546.42-1.08.567-1.636.286-1.186.382-2.408.2-3.628-.094-.72-.458-.813-.943-1.199a.586.586 0 01-.207-.52c.034-.337.158-.684.264-1.01l.015-.046c.353-1.092 1.013-2.015 1.707-2.912l.08-.103.08-.103.162-.206c.12-.154.241-.308.36-.463.222-.296.529-.5.84-.688.48-.32.792-.816 1.258-1.146.566-.437 1.708-.666 2.13.068zM11.21 18.728c.007.54.965.728.996.052v-.013c.037-.614-.95-.599-.996-.04zm-5.78-.884h-.002c.8.623 1.737 1.182 2.757 1.33 0-.02-.09-.059-.123-.076-.876-.411-1.752-.862-2.632-1.254zM.76 14.145l.009.02c.88 1.917 2.523 3.067 4.354 3.903l.055.026.001-.001-.253-.159-.152-.095-.1-.064-.096-.06c-1.466-.93-2.883-1.934-3.767-3.51l-.049-.088c-.048-.083-.047-.07-.002.028zm14.154-1.55c.293.401.325.933.331 1.411v.013a7.8 7.8 0 01-.267 1.831c-.028.081-.05.171-.074.261l-.011.042-.012.04c-.052.18-.122.351-.274.444-.317.166-.444-.222-.414-.482.028-1 .078-2.002.128-3 .016-.199.013-.403.06-.6.02-.077.055-.143.106-.173.163-.077.33.093.427.212zm1.373-9.036c.609.393.956 1.003 1.052 1.716l.005.034a.666.666 0 01-.184.569c-2.37 2.286-3.416 5.563-3.605 8.805l-.026.204c-.045.34-.094.68-.165 1.014-.09.377-.438.46-.66.124-.112-.17-.122-.388-.138-.587a98.335 98.335 0 01-.098-1.872c-.044-.646.108-.898.588-1.298.259-.263.3-.595.232-.955l-.022-.102c-.077-.352-.167-.715-.4-.996-.362-.432-1.06-.554-1.495-.158-.556.515-.644 1.344-.361 2.021l.01.025c.232.546.445 1.108.533 1.695l.009.061c.064.427.05.867-.01 1.293l-.013.096c-.026.193-.042.423-.163.554-.089.1-.257.129-.389.082-.173-.055-.201-.263-.203-.427-.002-.637-.154-1.246-.32-1.852l-.084-.304a17.057 17.057 0 01-.174-.669l-.22-.949c-.2-.87-.396-1.742-.565-2.62-.504-1.985.138-3.798 1.852-4.934.37-.228.792-.434 1.236-.434.573-.004 1.156.34 1.4.88.082.188.093.394.086.597V5.2c-.031.816-.071 1.633-.11 2.45l-.02.412-.013.274c-.023.458-.042.915-.036 1.374.003.113-.005.24.016.347.01.047.023.07.037.06l.003-.001-.002-.002c.028-.024.05-.149.054-.208.019-.184.038-.369.054-.553.102-1.29.162-2.582.28-3.87.075-.899.953-2.621 2.03-1.925zM1.84 3.237c-.33.095-.365.509-.32.804l.02.167c.045.39.099.78.187 1.16l.054.224c.05.203.093.407.078.617-.03.253-.088.499-.007.746.177.7.449 1.363.78 1.999l.014.02c.107.15.073-.046.033-.135l-.195-.482c-.065-.16-.13-.321-.19-.483l-.082-.217c-.165-.446-.307-.895-.203-1.38.082-.268.08-.537-.037-.796-.228-.605-.363-1.25-.23-1.89.23-.935 1.874.88 2.082 1.23.205.29.379.614.512.948.257.655.505 1.304.743 1.964.849 2.276 1.312 4.665 1.713 7.065l.001.001a1.37 1.37 0 00-.011-.274l-.002-.012c-.07-.573-.135-1.15-.209-1.722-.245-2.102-.837-4.132-1.562-6.113l-.037-.103a6.717 6.717 0 00-1.063-1.937l-.023-.027C3.506 4.15 2.44 3.075 1.84 3.237zm5.688 10.665c.119.666.373.617.964.656h.013c.317.03.503-.115.559-.422l.003-.019c.146-.84-.385-1.915-1.262-2.068-.781-.079-.347 1.417-.277 1.853zm.67-1.185c.214.21.4.555.353.899l-.003.011c-.066.216-.397.167-.52.054a.392.392 0 01-.088-.172c-.07-.245-.134-.507-.127-.764.023-.264.264-.158.385-.028zm4.026-2.251c.4.147.491.734.273 1.078-.328.499-1.009.373-.966-.299v-.015c.006-.369.274-.886.693-.764zm7.163-5.23v.01c-.014.173.01.355.028.529.148 1.259.17 2.518-.015 3.775-.04.28-.093.555-.15.832-.024.175-.108.41-.094.571l.002.002c.01.009.036-.032.063-.101.054-.14.092-.3.126-.448.364-1.723.499-3.504.304-5.255-.075-.246-.25-.12-.264.085zm-.962.684c.271.565.321 1.175.35 1.784l.011.278c.008.172.016.342.03.511h.001c.14-.862.114-1.766-.35-2.544l-.02-.035c-.053-.084-.064-.09-.022.006zm2.225-.994c-.021.01-.02.095-.024.133-.027.705-.073 1.37-.086 2.033h.001l.054-.243c.124-.57.231-1.16.103-1.79l-.009-.036c-.01-.04-.023-.09-.039-.097zm-12.524-2.2c.281.257.521.567.68.917.282.646-.196 1.064-.811 1.063h-.032c-.55.015-1.096-.403-1.18-.955l-.002-.02c-.11-.691.705-1.576 1.345-1.005zm5.76-1.494l.007.012c.094.15.17.315.247.475l.017.036c.064.136.131.253.098.395l-.002.01v.001l-.017.064c-.037.139-.087.302-.187.404-.227.264-.684.22-.867-.073l-.009-.015c-.239-.394-.148-1.039.19-1.344.147-.133.41-.141.523.035zM20.337.5c.96.022.681 1.21-.15 1.16a.568.568 0 01-.493-.65c.035-.33.279-.505.61-.51h.033z"></path></svg>