<svg height="1em" style="flex:none;line-height:1" viewBox="0 0 24 24" width="1em" xmlns="http://www.w3.org/2000/svg"><title>PPIO</title><path clip-rule="evenodd" d="M12.002 0C5.377 0 0 5.37 0 11.994c0 3.266 1.309 6.232 3.43 8.395v-8.383c0-2.288.893-4.447 2.51-6.063a8.513 8.513 0 016.066-2.509h.07l-.074.008c4.735 0 8.575 3.84 8.575 8.571 0 .413-.03.818-.087 1.219l-4.844-4.86A5.12 5.12 0 0012.01 6.87a5.126 5.126 0 00-3.637 1.503 5.107 5.107 0 00-1.507 3.641c0 1.376.536 2.666 1.507 3.64a5.12 5.12 0 003.637 1.504 5.126 5.126 0 003.637-1.503 5.114 5.114 0 001.496-3.348l2.842 2.853c-1.256 3.18-4.353 5.433-7.978 5.433-1.879 0-3.671-.6-5.145-1.714v3.967c1.56.742 3.3 1.155 5.137 1.155C18.623 24 24 18.63 24 12.006 24.008 5.373 18.635.004 12.006.004L12.002 0z" fill="#2874FF" fill-rule="evenodd"></path></svg>