<svg fill="currentColor" fill-rule="evenodd" height="1em" style="flex:none;line-height:1" viewBox="0 0 130 24" xmlns="http://www.w3.org/2000/svg"><title>PrunaAI</title><path d="M10.29 1c4.313 0 7.61 3.165 7.61 7.405 0 4.241-3.266 7.405-7.61 7.405H6.654v6.699H2V1h8.29zm-.217 10.508c1.85 0 3.113-1.32 3.113-3.103 0-1.784-1.263-3.072-3.113-3.072H6.654v6.175h3.42zm19.294-5.683h1.478v4.24h-1.971c-2.528 0-3.514 1.135-3.514 3.84v8.604H20.86V5.916h2.867l.8 2.058c1.202-1.473 2.681-2.15 4.839-2.15zM40.992 23c-4.685 0-7.828-3.011-7.828-7.497V5.916h4.499v9.096c0 2.366 1.265 3.747 3.329 3.747 2.094 0 3.327-1.413 3.327-3.747V5.916h4.5v9.587c0 4.486-3.114 7.497-7.827 7.497zM62.37 5.548c3.79 0 6.165 2.703 6.165 6.912v10.049h-4.502v-9.31c0-2.52-.954-3.72-2.895-3.72-2.312 0-3.729 1.66-3.729 4.334v8.696h-4.5V5.916h3.083l.864 2.058c1.261-1.473 3.265-2.426 5.514-2.426zm23.841.368h3.359V22.51h-3.513L85.657 21c-1.417 1.26-3.267 1.997-5.393 1.997-4.992 0-8.72-3.78-8.72-8.787 0-5.008 3.728-8.758 8.72-8.758 2.157 0 4.037.768 5.485 2.03l.463-1.57v.003zM80.634 18.76c2.62 0 4.531-1.935 4.531-4.545 0-2.614-1.911-4.55-4.53-4.55-2.62 0-4.53 1.935-4.53 4.548 0 2.58 1.91 4.548 4.53 4.548v-.001zm34.462 3.75l-1.51-4.057h-8.567l-1.477 4.056h-4.964L107.054 1h4.405l8.721 21.509h-5.084zm-5.793-15.824l-2.835 7.71h5.67l-2.835-7.71zm13.614 15.824V1.002h4.653v21.507h-4.653z"></path></svg>