<svg fill="currentColor" fill-rule="evenodd" height="1em" style="flex:none;line-height:1" viewBox="0 0 122 24" xmlns="http://www.w3.org/2000/svg"><title>PydanticAI</title><path d="M2 19.349V3.116h7.302c.745 0 1.411.124 2 .372a4.05 4.05 0 011.535 1.024c.419.434.737.96.954 1.581a6.16 6.16 0 01.325 2.046c0 .76-.108 1.45-.325 2.07a4.547 4.547 0 01-.954 1.582c-.418.434-.93.775-1.535 1.023-.589.232-1.255.349-2 .349H5.07v6.186H2zm3.07-8.837h3.953c.59 0 1.055-.155 1.396-.466.34-.325.511-.782.511-1.372v-1.07c0-.589-.17-1.038-.511-1.348-.341-.31-.807-.465-1.396-.465H5.07v4.72zM24.154 7.209h2.79l-4.883 14.302a5.345 5.345 0 01-.535 1.117c-.186.325-.41.589-.674.79a2.579 2.579 0 01-.954.442c-.372.093-.806.14-1.302.14h-1.79v-2.372h2.185l.558-1.698-4.348-12.721h2.953l2.116 6.419.791 3.07h.14l.837-3.07 2.116-6.419zM36.284 17.326h-.116A3.106 3.106 0 0134.935 19c-.604.419-1.31.628-2.116.628-1.535 0-2.713-.55-3.535-1.651-.806-1.1-1.209-2.675-1.209-4.721 0-2.031.403-3.59 1.21-4.674.821-1.101 2-1.652 3.534-1.652.806 0 1.512.21 2.116.628a2.998 2.998 0 011.233 1.651h.116V2.14h2.977v17.21h-2.977v-2.023zm-2.511-.163c.713 0 1.31-.17 1.79-.512.481-.34.721-.83.721-1.465v-3.86c0-.59-.24-1.062-.72-1.419-.481-.356-1.078-.535-1.791-.535-.776 0-1.403.264-1.884.79-.465.513-.698 1.202-.698 2.07v2.094c0 .868.233 1.558.698 2.07.48.511 1.109.767 1.884.767zM51.624 19.349c-.651 0-1.17-.186-1.558-.558-.372-.388-.605-.9-.698-1.535h-.14c-.2.79-.612 1.387-1.232 1.79-.62.388-1.388.582-2.302.582-1.24 0-2.194-.326-2.86-.977-.667-.651-1-1.52-1-2.604 0-1.256.449-2.187 1.348-2.791.9-.62 2.178-.93 3.837-.93h2.07v-.884c0-.682-.178-1.21-.535-1.582-.356-.372-.93-.558-1.72-.558-.698 0-1.264.155-1.698.465a4.384 4.384 0 00-1.07 1.07l-1.768-1.581A5.022 5.022 0 0144.09 7.58c.744-.434 1.729-.65 2.954-.65 1.643 0 2.891.371 3.744 1.115.852.745 1.279 1.814 1.279 3.21v5.72h1.21v2.373h-1.652zm-4.93-1.884c.666 0 1.232-.147 1.697-.442.466-.294.698-.728.698-1.302v-1.605h-1.907c-1.55 0-2.326.496-2.326 1.489V16c0 .496.156.868.466 1.116.325.233.783.35 1.372.35zM55.684 19.349V7.209h2.977v2.024h.116a3.842 3.842 0 011.163-1.628c.543-.45 1.287-.675 2.233-.675 1.256 0 2.217.411 2.883 1.233.667.821 1 1.992 1 3.511v7.675H63.08v-7.372c0-.869-.155-1.52-.465-1.954-.31-.434-.822-.65-1.535-.65-.31 0-.613.046-.907.139a2.351 2.351 0 00-.768.372 1.836 1.836 0 00-.535.604c-.14.233-.209.512-.209.838v8.023h-2.977zM73.147 19.349c-1.023 0-1.806-.264-2.349-.79-.527-.543-.79-1.31-.79-2.303V9.581h-1.791V7.21h.93c.45 0 .752-.1.907-.302.17-.217.256-.535.256-.953v-2.07h2.674v3.325h2.488v2.373h-2.488v7.395h2.302v2.372h-2.14zM79.543 5.442c-.62 0-1.07-.14-1.349-.419-.263-.279-.395-.635-.395-1.07v-.465c0-.434.132-.79.395-1.07.28-.278.729-.418 1.349-.418.605 0 1.046.14 1.326.419.279.279.418.635.418 1.07v.465c0 .434-.14.79-.418 1.07-.28.278-.721.418-1.326.418zm-1.488 1.767h2.976v12.14h-2.976V7.209zM89.273 19.628c-.9 0-1.698-.147-2.396-.442a4.721 4.721 0 01-1.767-1.279c-.465-.558-.822-1.225-1.07-2-.248-.79-.372-1.674-.372-2.651 0-.977.124-1.853.372-2.628.248-.775.605-1.434 1.07-1.977a4.72 4.72 0 011.767-1.279c.698-.295 1.496-.442 2.396-.442 1.225 0 2.232.272 3.023.814.806.543 1.387 1.295 1.744 2.256l-2.442 1.093a2.434 2.434 0 00-.79-1.256c-.373-.34-.884-.511-1.535-.511-.838 0-1.465.263-1.884.79-.403.527-.605 1.217-.605 2.07v2.21c0 .852.202 1.542.605 2.07.419.51 1.046.767 1.884.767.713 0 1.263-.179 1.65-.535.388-.372.69-.83.908-1.372l2.279 1.093c-.403 1.07-1.016 1.876-1.837 2.418-.822.527-1.822.79-3 .79zM107.704 19.349l-1.303-4.14h-5.767l-1.28 4.14H96.24l5.441-16.233h3.814l5.396 16.233h-3.186zm-4.14-13.442h-.116l-2.07 6.674h4.279l-2.093-6.674zM112.608 19.349v-2.465h2.14V5.58h-2.14V3.116h7.372v2.465h-2.163v11.303h2.163v2.465h-7.372z"></path></svg>