<svg fill="currentColor" fill-rule="evenodd" height="1em" style="flex:none;line-height:1" viewBox="0 0 100 24" xmlns="http://www.w3.org/2000/svg"><title>Relace</title><path d="M72.78 6.374c4.534 0 6.583 2.15 7.221 5.911l-3.393.639c-.47-2.015-1.41-3.36-3.896-3.36-2.586 0-4.198 1.647-4.198 5.106 0 3.19 1.477 5.138 4.299 5.139 2.552 0 3.426-1.578 3.896-3.493l3.325.806C79.396 20.783 77.18 23 72.847 23c-4.971 0-8.028-2.889-8.028-8.195 0-5.307 3.124-8.431 7.96-8.431zm-43.378 0c4.77 0 7.087 2.889 7.087 7.222 0 .604.001 1.31-.066 2.115H25.036c.269 2.855 1.713 4.3 4.4 4.3 2.52 0 3.392-1.21 3.829-2.721l3.09.873c-.739 2.855-2.72 4.803-6.953 4.803-4.836 0-7.96-2.821-7.96-8.094 0-5.34 3.023-8.498 7.96-8.498zm61.269 0c4.77 0 7.087 2.889 7.087 7.222 0 .604 0 1.31-.067 2.115H86.305c.268 2.855 1.713 4.3 4.4 4.3 2.519 0 3.393-1.21 3.83-2.721l3.089.873c-.739 2.855-2.721 4.803-6.953 4.803-4.836 0-7.96-2.821-7.96-8.094 0-5.34 3.023-8.498 7.96-8.498zm-35.796.033c4.568 0 6.517 2.15 6.517 6.08v10.077h-3.426v-3.762h-.37c-.806 2.552-2.62 4.097-5.407 4.097-2.822 0-4.804-1.343-4.804-4.433 0-2.821 1.713-4.87 5.71-4.87h4.703V12.52c0-2.05-.84-3.225-3.057-3.225-1.847 0-2.922.94-3.325 2.788l-3.426-.772c.605-2.99 2.855-4.905 6.885-4.905zM10.464 2.41c5.038 0 7.423 2.117 7.423 6.113 0 3.158-1.613 5.24-4.434 6.08l5.61 7.59v.37h-4.467L9.59 15.007H5.829v7.558H2V2.41h8.464zm33.34 20.154h-3.626V1h3.627v21.564zM53.7 15.98c-1.814 0-2.855.672-2.855 1.982 0 1.142.705 2.116 2.754 2.116 2.519 0 4.199-1.478 4.199-3.46v-.637H53.7zM29.302 9.162c-2.452 0-3.897 1.31-4.233 4.131h8.095c-.135-2.72-1.343-4.13-3.862-4.13zm61.268 0c-2.451 0-3.895 1.31-4.231 4.131h8.094c-.135-2.72-1.344-4.13-3.863-4.13zm-84.74 2.62h4.298c2.62 0 3.997-1.008 3.997-3.158 0-2.049-1.041-2.99-3.93-2.99H5.83v6.147z"></path></svg>