<svg fill="currentColor" fill-rule="evenodd" height="1em" style="flex:none;line-height:1" viewBox="0 0 24 24" width="1em" xmlns="http://www.w3.org/2000/svg"><title>Relace</title><path d="M23 23H1V1h22v22zM2.962 15.232c1.969.3 5.028.42 7.78-.171.904-.195 1.743-.46 2.49-.803-1.395-3.4-1.675-5.766-1.264-7.378.466-1.823 1.799-2.59 2.998-2.602h.01c.688 0 2.117.177 3.081 1.35 1.003 1.22 1.216 3.152.26 5.991-.504 1.493-1.437 2.616-2.594 3.456 1.323 2.993 2.11 4.498 2.588 5.284.223.367.372.564.467.679h2.26V2.962H2.962v12.27zm11.05.827c-.912.413-1.887.711-2.857.92-2.91.626-6.059.527-8.193.234v3.825h13.471c-.527-.92-1.287-2.424-2.421-4.98zm.97-9.82c-.323.005-.87.181-1.112 1.127-.25.975-.161 2.776 1.055 5.84.705-.598 1.233-1.329 1.531-2.213.868-2.576.455-3.67.086-4.119-.406-.494-1.09-.633-1.56-.634z"></path></svg>