<svg fill="currentColor" fill-rule="evenodd" height="1em" style="flex:none;line-height:1" viewBox="0 0 24 24" width="1em" xmlns="http://www.w3.org/2000/svg"><title>Reve</title><path d="M15.297 4.162h-.792V2h.792v2.162zm-1.45 10.811h-.792v4.865h.791v-4.865zm0-9.73h-.792v1.622h.791V5.243zm5.801 9.73h-.79v4.324h.79v-4.324zm1.45.54h-.79v2.163h.79v-2.162zm-7.252-6.486h-.791v3.243h.791V9.027zm1.45-1.622h-.79v5.946h.79V7.405zM21.1 4.162h-.791v7.568h.79V4.162zm1.45.54h-.79v4.325h.79V4.703zM24 5.244h-.791v1.622H24V5.243zM12.396 7.946h-.792v9.19h.792v-9.19zm0 0h-.792v9.19h.792v-9.19zm4.351-1.622h-.791v2.162h.791V6.324zm1.45-1.08h-.79v2.161h.79V5.243zm1.451-1.082h-.79v4.324h.79V4.162zm-2.9 5.946h-.792v3.243h.791v-3.243zm1.45 1.081h-.791v2.162h.79V11.19zm1.45-1.08h-.79v3.242h.79v-3.243zm-4.351 4.323h-.792v2.703h.792v-2.703zm1.45 0h-.791v1.622h.791v-1.622zm1.45 0h-.79v2.703h.79v-2.703zm-2.9 3.784h-.792v3.243h.792v-3.243zm1.45 1.081h-.791V22h.791v-2.703zm1.45-1.08h-.79v2.702h.79v-2.703zM9.496 2h-.792v2.162h.792V2zm1.45 12.973h-.791v4.865h.791v-4.865zm0-9.73h-.791v1.622h.791V5.243zm-5.802 9.73h-.791v4.324h.79v-4.324zm-1.45.54H2.9v2.163h.791v-2.162zm7.252-6.486h-.791v3.243h.791V9.027zm-1.45-1.622h-.792v5.946h.792V7.405zM3.692 4.162h-.79v7.568h.79V4.162zm-1.45.54H1.45v4.325h.79V4.703zm-1.45.541H0v1.622h.791V5.243zm7.252 1.081h-.791v2.162h.791V6.324zm-1.45-1.08h-.792v2.161h.791V5.243zM5.142 4.161h-.791v4.324h.79V4.162zm2.901 5.946h-.791v3.243h.791v-3.243zm-1.45 1.081h-.792v2.162h.791V11.19zm-1.451-1.08h-.791v3.242h.79v-3.243zm4.352 4.323h-.792v2.703h.792v-2.703zm-1.451 0h-.791v1.622h.791v-1.622zm-1.45 0h-.792v2.703h.791v-2.703zm2.9 3.784h-.79v3.243h.79v-3.243zm-1.45 1.081h-.791V22h.791v-2.703zm-1.45-1.08h-.792v2.702h.791v-2.703z"></path></svg>