<svg fill="currentColor" fill-rule="evenodd" height="1em" style="flex:none;line-height:1" viewBox="0 0 24 24" width="1em" xmlns="http://www.w3.org/2000/svg"><title>Runway</title><path d="M17.86 22.992c-2.669.245-4.887-2.876-6.597-4.454C10.398 24.759 1 24.177 1 17.86V6.15c0-.921.244-1.861.733-2.65C2.635 1.977 4.383.98 6.15 1h11.71c6.316 0 6.918 9.398.677 10.243l2.97 2.951c3.252 3.064.808 8.929-3.646 8.797zm-1.428-3.721c1.842 1.898 4.774-1.034 2.876-2.876l-5.132-5.132H11.3v2.876l4.436 4.436.696.696zM4.12 17.842c-.037 2.632 4.117 2.632 4.06 0V6.132c.038-1.316-1.353-2.35-2.612-1.955-.057.019-.113.037-.15.056-.79.301-1.335 1.09-1.317 1.936v11.673h.02zm13.74-9.68c2.632.037 2.632-4.098 0-4.06h-6.973c.526 1.109.395 2.857.413 4.06h6.56z"></path></svg>