<svg fill="currentColor" fill-rule="evenodd" height="1em" style="flex:none;line-height:1" viewBox="0 0 24 24" width="1em" xmlns="http://www.w3.org/2000/svg"><title>SearchApi</title><path d="M12.822 22.133H11.18V14.15h1.643v7.982zm-3.288-4.456A3.128 3.128 0 016.41 20.8H5.59v-1.645h.821c.816 0 1.48-.664 1.48-1.48v-4.41h1.644v4.41zm6.575 0c0 .815.664 1.48 1.48 1.48h.821V20.8h-.821a3.127 3.127 0 01-3.123-3.124v-4.411h1.643v4.41zM12 1c4.08 0 7.396 3.318 7.396 7.396v7.11a1.481 1.481 0 002.96 0V11.56H24v3.947c0 1.722-1.4 3.123-3.123 3.123a3.127 3.127 0 01-3.124-3.123v-7.11A5.76 5.76 0 0012 2.643a5.76 5.76 0 00-5.753 5.752v7.11a3.128 3.128 0 01-3.125 3.124A3.126 3.126 0 010 15.507V11.56h1.644v3.947c0 .815.663 1.48 1.478 1.48.817 0 1.48-.665 1.48-1.48v-7.11C4.603 4.317 7.922 1 12 1zm-1.174 10.56H8.941V8.566h1.885v2.995zm4.232-2.995v2.995h-1.883V8.566h1.883z"></path></svg>