<svg width="16" height="16" viewBox="0 0 16 16" fill="none" xmlns="http://www.w3.org/2000/svg">
<g clip-path="url(#clip0_11151_6657)">
<path d="M15.3043 4.34753H8.34775C7.96363 4.34753 7.65225 4.65892 7.65225 5.0433V7.13035C7.65225 7.51473 7.34111 7.82589 6.95653 7.82589H0.695721C0.311598 7.82589 0 8.1375 0 8.52165V11.3045C0 11.6886 0.311598 12 0.695721 12H7.65225C8.03638 12 8.34775 11.6886 8.34775 11.3045V9.21741C8.34775 8.83281 8.65889 8.52165 9.04347 8.52165H15.3043C15.6884 8.52165 16 8.21026 16 7.82589V5.0433C16 4.65892 15.6884 4.34753 15.3043 4.34753Z" fill="#6E29F6"/>
</g>
<defs>
<clipPath id="clip0_11151_6657">
<rect width="16" height="16" fill="white"/>
</clipPath>
</defs>
</svg>
