<svg width="12" height="12" viewBox="0 0 12 12" fill="none" xmlns="http://www.w3.org/2000/svg">
<path d="M11.4782 3.26066H6.26081C5.97272 3.26066 5.73919 3.4942 5.73919 3.78248V5.34777C5.73919 5.63605 5.50583 5.86942 5.2174 5.86942H0.521791C0.233699 5.86942 0 6.10313 0 6.39124V8.47835C0 8.76646 0.233699 9 0.521791 9H5.73919C6.02728 9 6.26081 8.76646 6.26081 8.47835V6.91306C6.26081 6.62461 6.49417 6.39124 6.7826 6.39124H11.4782C11.7663 6.39124 12 6.1577 12 5.86942V3.78248C12 3.4942 11.7663 3.26066 11.4782 3.26066Z" fill="black"/>
</svg>
