<svg width="16" height="16" viewBox="0 0 16 16" fill="none" xmlns="http://www.w3.org/2000/svg">
<path d="M15.3043 3.99988H8.34775C7.96362 3.99988 7.65225 4.31127 7.65225 4.69565V6.7827C7.65225 7.16707 7.34111 7.47823 6.95653 7.47823H0.695721C0.311598 7.47823 0 7.78985 0 8.17399V10.9568C0 11.341 0.311598 11.6523 0.695721 11.6523H7.65225C8.03638 11.6523 8.34775 11.341 8.34775 10.9568V8.86976C8.34775 8.48515 8.65889 8.17399 9.04347 8.17399H15.3043C15.6884 8.17399 16 7.86261 16 7.47823V4.69565C16 4.31127 15.6884 3.99988 15.3043 3.99988Z" fill="black"/>
</svg>
