<svg fill="currentColor" fill-rule="evenodd" height="1em" style="flex:none;line-height:1" viewBox="0 0 140 24" xmlns="http://www.w3.org/2000/svg"><title>SiliconCloud</title><path clip-rule="evenodd" d="M13.075 16.36c0-4.47-10.605-.758-10.605-8.238 0-3.93 3.527-5.746 6.673-5.746 2.333 0 4.313.731 6.184 2.276l-1.438 2.44c-1.438-1.355-2.956-1.979-4.746-1.979-1.628 0-3.553.895-3.553 2.9 0 4.472 10.605.758 10.605 8.238 0 4.012-3.608 5.746-6.954 5.746-2.848 0-5.506-1.056-7.241-3.278l1.501-2.575c1.735 2.168 3.58 3.116 5.722 3.116 1.817 0 3.852-.84 3.852-2.9zm5.495-8.236h2.984v13.551h-2.983V8.125zM20.063 2c1.004 0 1.763.732 1.763 1.762s-.76 1.761-1.763 1.761c-1.004 0-1.763-.732-1.763-1.761 0-1.03.76-1.762 1.763-1.762zm4.648.703h2.983v18.972H24.71V2.703zm6.146 5.421h2.983v13.551h-2.983V8.125zM32.347 2c1.004 0 1.763.732 1.763 1.762s-.76 1.761-1.763 1.761c-1.004 0-1.763-.732-1.763-1.761 0-1.03.76-1.762 1.763-1.762zm3.855 12.897c0-4.12 3.064-7.1 7.268-7.1 2.333 0 4.367 1.003 5.615 2.522l-2.224 1.813c-.732-.921-1.953-1.571-3.39-1.571-2.468 0-4.285 1.788-4.285 4.336s1.817 4.337 4.284 4.337c1.438 0 2.658-.65 3.39-1.572l2.225 1.817C47.837 20.995 45.695 22 43.47 22c-4.204 0-7.268-2.981-7.268-7.101v-.002zm21.01-4.336c-2.495 0-4.285 1.896-4.285 4.336 0 2.44 1.79 4.337 4.285 4.337s4.285-1.897 4.285-4.337c0-2.44-1.79-4.336-4.285-4.336zm0-2.765c4.122 0 7.268 3.01 7.268 7.101 0 4.093-3.146 7.101-7.268 7.101-4.123 0-7.268-3.008-7.268-7.1 0-4.093 3.145-7.102 7.268-7.102zm12.57 6.589v7.29H66.8V8.125h2.983v2.14C70.568 8.64 72.303 7.8 74.094 7.8c3.064 0 5.397 2.114 5.397 6.097v7.29h-2.984v-7.67c0-2.194-1.302-3.388-3.2-3.388-2.034 0-3.526 1.355-3.526 3.768l.001.488zm16.017 7.29h-3.118V2.703h12.07V5.55H85.8v5.42h7.974v2.792H85.8v7.914zM96.592 2.703h2.983v18.972h-2.983V2.703zm12.555 7.858c-2.495 0-4.285 1.896-4.285 4.336 0 2.44 1.79 4.337 4.285 4.337s4.284-1.897 4.284-4.337c0-2.44-1.789-4.336-4.284-4.336zm0-2.765c4.122 0 7.268 3.01 7.268 7.101 0 4.093-3.146 7.101-7.268 7.101-4.123 0-7.268-3.008-7.268-7.1 0-4.093 3.145-7.102 7.268-7.102zm25.933.328H138l-3.701 13.551h-3.961l-2.603-10.083-2.775 10.083h-3.961l-3.556-13.551h2.977l2.661 10.816 2.949-10.817h3.412l2.833 10.816 2.805-10.815z"></path></svg>