<svg width="164" height="24" viewBox="0 0 164 24" fill="none" xmlns="http://www.w3.org/2000/svg">
<g clip-path="url(#clip0_11151_6658)">
<path d="M13.3023 17.2351C13.3023 11.8685 0.585372 16.3244 0.585372 7.3479C0.585372 2.6313 4.81367 0.452356 8.5866 0.452356C11.3835 0.452356 13.7576 1.33047 16.0018 3.18471L14.2777 6.11174C12.5542 4.48554 10.7327 3.73744 8.5866 3.73744C6.63513 3.73744 4.32563 4.81091 4.32563 7.21721C4.32563 12.5839 17.0425 8.12799 17.0425 17.1051C17.0425 21.9184 12.7169 24 8.68394 24C5.26904 24 2.08148 22.7318 0 20.0648L1.82146 16.9751C3.90294 19.5768 6.11442 20.7149 8.68394 20.7149C10.8627 20.7149 13.3023 19.7068 13.3023 17.2351Z" fill="black"/>
<path d="M19.8918 7.35075H23.4694V23.6128H19.8918V7.35075ZM21.6806 -0.000196537C22.884 -0.000196537 23.7947 0.877905 23.7947 2.11407C23.7947 3.35023 22.884 4.22835 21.6806 4.22835C20.4771 4.22835 19.5664 3.35023 19.5664 2.11407C19.5664 0.877905 20.4771 -0.000196537 21.6806 -0.000196537Z" fill="black"/>
<path d="M27.2539 0.845249H30.8315V23.6128H27.2539V0.845249Z" fill="black"/>
<path d="M34.6242 7.35075H38.2018V23.6128H34.6242V7.35075ZM36.413 -0.000196537C37.6164 -0.000196537 38.5271 0.877905 38.5271 2.11407C38.5271 3.35023 37.6164 4.22835 36.413 4.22835C35.2096 4.22835 34.2988 3.35023 34.2988 2.11407C34.2988 0.877905 35.2096 -0.000196537 36.413 -0.000196537Z" fill="black"/>
<path d="M41.0352 15.4789C41.0352 10.535 44.7101 6.95717 49.7511 6.95717C52.5479 6.95717 54.9875 8.16066 56.4836 9.98223L53.8167 12.1612C52.9386 11.055 51.4752 10.2749 49.7511 10.2749C46.7916 10.2749 44.6127 12.4212 44.6127 15.4789C44.6127 18.536 46.7916 20.6829 49.7511 20.6829C51.4752 20.6829 52.9386 19.9022 53.8167 18.796L56.4836 20.9756C54.9875 22.7965 52.5479 24 49.7511 24C44.7101 24 41.0352 20.4222 41.0352 15.4789Z" fill="black"/>
<path d="M66.2296 10.2749C63.2374 10.2749 61.0913 12.5512 61.0913 15.4789C61.0913 18.406 63.2374 20.6829 66.2296 20.6829C69.2218 20.6829 71.3686 18.406 71.3686 15.4789C71.3686 12.5512 69.2218 10.2749 66.2296 10.2749ZM66.2296 6.95717C71.1733 6.95717 74.9462 10.5676 74.9462 15.4789C74.9462 20.3902 71.1733 24 66.2296 24C61.2859 24 57.5137 20.3902 57.5137 15.4789C57.5137 10.5676 61.2859 6.95717 66.2296 6.95717Z" fill="black"/>
<path d="M81.3041 14.8637V23.6128H77.7266V7.35074H81.3041V9.91972C82.2469 7.96814 84.3283 6.96001 86.4752 6.96001C90.1501 6.96001 92.9469 9.497 92.9469 14.2783V23.6128H89.3694V14.4083C89.3694 11.774 87.8086 10.3424 85.5318 10.3424C83.0929 10.3424 81.3041 11.9686 81.3041 14.8637Z" fill="black"/>
<path d="M100.511 23.6128H96.7715V0.845243H111.244V4.26034H100.511V10.7652H110.073V14.1156H100.511V23.6128Z" fill="black"/>
<path d="M113.453 0.845249H117.031V23.6128H113.453V0.845249Z" fill="black"/>
<path d="M128.509 10.2749C125.517 10.2749 123.371 12.5512 123.371 15.4789C123.371 18.406 125.517 20.6829 128.509 20.6829C131.501 20.6829 133.648 18.406 133.648 15.4789C133.648 12.5512 131.501 10.2749 128.509 10.2749ZM128.509 6.95717C133.453 6.95717 137.226 10.5676 137.226 15.4789C137.226 20.3902 133.453 24 128.509 24C123.565 24 119.793 20.3902 119.793 15.4789C119.793 10.5676 123.565 6.95717 128.509 6.95717Z" fill="black"/>
<path d="M159.607 7.35006H163.109L158.671 23.6128H153.921L150.8 11.5126L147.472 23.6128H142.722L138.457 7.35006H142.028L145.218 20.3318L148.755 7.35006H152.846L156.244 20.3318L159.607 7.35006Z" fill="black"/>
</g>
<defs>
<clipPath id="clip0_11151_6658">
<rect width="164" height="24.0002" fill="white"/>
</clipPath>
</defs>
</svg>
