<svg fill="currentColor" fill-rule="evenodd" height="1em" style="flex:none;line-height:1" viewBox="0 0 24 24" width="1em" xmlns="http://www.w3.org/2000/svg"><title>SillyTavern</title><path d="M8.14 15.866c-1.457-.071-1.384-.028-1.384-.722 0-.315.029-.558.058-.537.029.022.809.058 1.734.08 2.033.056 1.96.078 1.96-.694v-.523H9.233c-1.829 0-2.215-.15-2.456-.958-.174-.58-.109-1.752.11-2.102.313-.494.56-.58 1.829-.637.707-.028 1.144-.043 2.842.036v1.123H10.18c-1.334 0-1.72.05-1.844.236-.095.143-.066.73.044.872.255.343 2.28-.021 3.024.386.503.272.575.615.605 1.53.029.902-.015 1.224-.321 1.531-.445.443-.925.493-3.563.365l.014.014zm5.75-.05c.036-1.616-.022-3.232-.03-4.849l-1.858.015v-1.23h5.283l.044 1.173-1.865.042c-.037 1.588.036 3.254-.022 4.849-.022.236-1.552.164-1.552 0z"></path><path d="M13.29 15.816a.64.64 0 00.229.487c.05.043.102.073.145.095-.307.108-.557.168-.65.104-.163-.167-.089-.36.275-.69v.004zM12.36 12.546a1.55 1.55 0 00-.667-.646 1.64 1.64 0 00-.222-.1l-.003-.215.892-.007v.968z"></path><path clip-rule="evenodd" d="M21.73 1.599c.474-.765 1.874-.943 2.223.344.365 1.323-1.494 2.066-2.222.936l-.146-.228H18.67c-.816.93-1.625 1.866-2.441 2.796.728 1 .27 1.215.918 1.551.408.23.758.558 1.108.865.656 0 1.668.072 1.697-.807-.073-1.209 1.524-1.695 2.216-.8.881 1.129-.627 2.38-1.553 1.816-.123-.08-.196-.043-.583.243-.386.371-.838.336-1.326.336.095 1.43.656 1.959.657 2.695.029.293 1.617.136 1.96.165l.123-.207c.496-.822 2.215-.666 2.215.7 0 1.473-1.908 1.502-2.33.508l-.089-.215h-1.865c-.415 1.73-.721 1.26-.539 1.853.182.679-.16 1.165.88 1.08.883 0 .832.05 1.583.636 2.142-.758 2.411 1.544 1.333 2.08-.853.43-1.814-.12-1.814-1.043-.11-.987-1.203-.901-1.975-.887-.918 1.68-2.063 1.273-2.157 1.566-.146.43-.371.802-.67 1.145l2.332 2.652h2.236l.161-.25c.51-.808 2.135-.75 2.244.566.11 1.322-1.581 1.744-2.237.743l-.175-.272-2.637-.007c-.817-.93-1.64-1.86-2.457-2.789-.123-.143-.13-.143-.633-.021-1.603.379-2.63-.787-2.842-1.059-.97 1.044-1.844 1.43-3.33 1.044-.124-.028-.38.222-1.422 1.402L5.99 22.173c-.881 0-1.785-.05-2.66.065 0 .143-.414.536-.691.658-1.035.457-2.136-.68-1.553-1.68.503-.86 1.633-.773 2.092-.094l.175.265h2.23l2.324-2.604c-.735-.865-.394-1.2-1.056-1.287-.853-.107-1.363-.75-1.75-1.437-.531-.022-1.136-.15-1.573.215-.336.25-.343.272-.343.636 0 .916-.962 1.473-1.815 1.044-1.078-.536-.648-2.667 1.334-2.08l.874-.638c1.086 0 1.443.337 1.581-.958.183-.707-.145-.114-.56-1.938l-1.764-.043-.21.308c-.81 1.18-2.282.586-2.282-.58 0-1.143 1.297-1.651 2.157-.75l.306.314 1.785-.042c.481-2.002.671-1.838.744-2.775.05-.114 0-.13-.452-.13-1.21 0-1.02-.806-1.566-.528-.27.136-.751.129-1.057-.014-.882-.415-.897-1.702-.03-2.153.788-.407 1.771.036 1.8 1.051.124.973 1.093.866 1.866.859.313-.286.619-.58.983-.794.248-.143.314-.222.35-.45.095-.43.335-.802.532-1.188L5.283 2.636H2.42l-.132.23c-.634 1.164-2.513.45-2.265-.844.204-1.066 1.66-1.33 2.25-.409l.147.229 3.228.008c.881.987 1.757 1.98 2.653 2.968.124.128.138.128.48-.037.401-.193 1.858-.471 2.893.601.328.329.358.35.43.222.416-.751 2.078-1.58 3.55-.7l2.659-3.047 3.279-.007.139-.251zm-6.135 4.256c-.787-.858-2.004-.709-2.682-.015-.48.493-.524.665-.553 2.367v.945h-.931l-.046-2.826c-.138-1.05-2.42-1.63-3.265-.043-.517.966-.029 2.196 1.006 2.546.728.243.204-1.036.86-1.037.565 0 .189.198.237 1.368a20.158 20.158 0 00-1.53.013l-.002.001c-.154.007-.3.014-.436.023-.741-.544-1.042-1.476-1.075-1.476-.064.003-1.464.825-1.202 2.16.055.28.19.332.365.277-.09.168-.143.362-.177.527a4.618 4.618 0 00-.079.658c-.016.303-.008.643.036.952l-.021.002c-.313 0-.386-.142-.364-.728.072-2.189-.765.542-.08 1.586.042.065.32-.098.614-.271.062.168.144.334.26.485.037.048.078.092.119.133-.32.186-.633.46-.753.848-.11.372-.11 1.173 0 1.545.182.6 1.29 1.38 1.391.672.007-.05.015-.1.024-.147.185.014.421.026.703.04-.44 1.44.864 2.345 1.765 2.345 1.072 0 1.778-.85 1.786-1.273l-.02-1.23a1.78 1.78 0 00.568-.392c.103-.103.188-.212.257-.33.017 1.822.04 1.893.179 2.16.437.858 1.385 1.258 2.288.958 1.22-.408 1.42-1.701 1.066-2.485a.64.64 0 00.136-.342l.002-.033c.008-.208.013-.417.017-.627.603.558.53 1.791 1.286 1.456.838-.372 1.137-1.53.663-2.554-.255-.55-.853-.886-1.4-.786-.582.107-.56-.471-.276-.65.35-.229 1.34-.015 1.807.386.867.414.22-3.854.117-1.61.015.48-.008.623-.102.716-.19.186-.648.157-.576-.508a.338.338 0 00-.023-.142l.397-.009-.052-1.378c.592-1.329-.94-2.497-1.087-2.497-.05.001-.306.95-1.099 1.517h-1.932c.009-.214.001-.428-.037-.645-.109-.579-.05-.722.3-.722.785 0-.096 1.416.983.937.371-.165.859-.7.968-1.066.204-.664.066-1.294-.4-1.801z"></path></svg>