<svg fill="currentColor" fill-rule="evenodd" height="1em" style="flex:none;line-height:1" viewBox="0 0 91 24" xmlns="http://www.w3.org/2000/svg"><title>Skywork</title><path d="M22.631 18.812l-5.806-5.576.013 5.576h-1.49L15.304 1.29h1.492l.028 11.102 5.874-5.753h1.98l-6.354 6.128 6.354 6.045h-2.047zM37.024 6.635l-7.72 16.783h-1.616l2.712-5.64-4.863-11.143h1.636l4.04 9.517 4.171-9.517h1.64zM55.19 6.637L50.829 18.81h-.927l-.03-.079-3.294-9.389-3.3 9.468h-.93L37.94 6.64h1.556l3.324 9.625 3.305-9.629h.904l3.319 9.629 3.288-9.629h1.556zM62.064 6.634c-2.524 0-5.98 2.036-5.98 6.1 0 4.445 3.834 6.065 6.007 6.065 4.39 0 6.107-3.691 6.107-6.076 0-2.671-1.987-6.09-6.134-6.09zm-.008 10.787c-2.432 0-4.639-2.191-4.61-4.686.034-3.17 2.735-4.683 4.696-4.683 2.737 0 4.666 2.233 4.666 4.67 0 2.439-2.003 4.699-4.75 4.699h-.002zM86.566 18.814L80.75 13.24l.015 5.573h-1.492L79.229 1.29h1.49l.03 11.1 5.874-5.755h1.98l-6.354 6.133 6.364 6.045h-2.047zM12.496 11.616c-.308-.566-.967-1.217-1.846-1.727-1.172-.678-2.884-1.02-3.586-1.237a8.617 8.617 0 01-1.617-.712A3.542 3.542 0 014.29 6.94c-.286-.388-.43-.908-.434-1.543-.002-.768.202-1.378.677-1.855A4.169 4.169 0 017.444 2.36c1.651 0 3.082.963 3.764 2.357h1.47A5.547 5.547 0 007.446 1C5.49 1 3.618 2.03 2.785 3.543c-.274.52-.433 1.23-.432 1.928.002.85.161 1.559.47 2.103.31.54.723.994 1.23 1.35a8.735 8.735 0 001.659.877c.9.37 2.177.505 3.388 1.052 1.137.511 1.655.944 1.964 1.361.309.418.62.903.581 1.688-.005.084-.014.17-.026.253a4.201 4.201 0 01-4.144 3.562c-2.095 0-3.676-1.409-4.091-3.287H2a5.552 5.552 0 005.475 4.645c2.756 0 5.199-2.151 5.514-4.921.014-.132.023-.262.023-.392 0-1.031-.202-1.579-.512-2.146h-.004zM75.624 6.629a5.85 5.85 0 00-5.847 5.857l.027 6.313h1.502l-.025-6.313a4.35 4.35 0 014.343-4.344c.746 0 1.449.19 2.064.523V7.004a5.85 5.85 0 00-2.064-.375z"></path></svg>