<svg height="1em" style="flex:none;line-height:1" viewBox="0 0 24 24" width="1em" xmlns="http://www.w3.org/2000/svg"><title>Smithery</title><path d="M9.09 5.11c.271-.33.543-.732.812-1.08.1-.13.2-.27.313-.382a.448.448 0 01.335-.139c.333-.017.672-.002 1.006-.001h7.692l3.122.001.832-.004c.15 0 .312-.017.46.013a.35.35 0 01.256.182.678.678 0 01.07.276c.022.304-.003.634-.002.942 0 .274.033 1.283-.003 1.476a.5.5 0 01-.12.251c-.119.13-.282.214-.42.304-.341.224-.707.428-1.036.678l-.012.01-3.232 2.098-1.277.817c-.245.156-.5.303-.734.482-.172.698-.3 1.42-.446 2.128-.057.28-.104.582-.183.852.107.238.528.705.708.93.431.542.865 1.083 1.301 1.62.222.276.46.62.695.866.142.262.616.649.713.93.023.066.025.153.029.224.022.433.005.88.005 1.314 0 .284.029.65-.012.921a.506.506 0 01-.094.216c-.086.122-.233.148-.356.157-.246.017-.497.003-.743.002H17.41l-4.27-.004-3.76.002H8.172c-.214 0-.435.012-.648-.006a.334.334 0 01-.237-.123c-.112-.137-.118-.285-.119-.47-.002-.367-.036-2.033.038-2.26.057-.176 3.008-3.874 3.347-4.315-.463-.947-.93-1.89-1.403-2.83a11.17 11.17 0 01-1.193-.143c-2.693-.511-4.733-2.012-6.812-4.189C.918 6.617.182 5.88.043 5.626a.39.39 0 01-.038-.239c.022-.123.102-.188.18-.25.344-.014.689-.005 1.032-.005l1.799-.002 6.074-.02z" fill="#80350B"></path><path d="M10.52 3.554l11.345.015c.188 0 1.787-.025 1.83 0a.5.5 0 01.244.238c0 .38.055 2.416-.006 2.65-.026.097-.122.183-.186.235-.226.187-.495.325-.736.48-.502.323-1.001.652-1.498.988l-2.579 1.668c-.56.36-1.154.7-1.698 1.094a.621.621 0 00-.158.15c-.845.034-1.696.009-2.543.009h-4.239l-.003-.032c-.054-.508-.021-1.196-.021-1.73V5.96c0-.205-.014-2.283.015-2.322.053-.07.161-.072.233-.083zM10.583 13.998c.854-.025 1.714 0 2.568 0 1.053 0 2.109-.019 3.162-.004.037 0 .112-.004.142.02.094.077.207.279.292.388l.877 1.105c.485.616.981 1.221 1.472 1.83.223.275.451.545.667.83.053.07.139.172.158.267.042.2.015.544.015.759.001.546 0 1.093-.005 1.64-.027.058-.054.12-.092.169a.326.326 0 01-.172.12c-.257.051-.673.013-.95.013h-2.03v-2.708l-.443-.567c-.129-.168-.256-.351-.397-.503H12.96c-.552-.001-1.104-.01-1.655.003-.104.108-.194.25-.288.37-.17.22-.35.427-.51.66l.001 2.745c-1.022 0-2.048.024-3.07-.006a.462.462 0 01-.21-.29c-.064-.233-.02-.773-.022-1.041 0-.294-.037-1.197.028-1.412.037-.122.146-.253.216-.347.205-.279.43-.538.641-.809l1.873-2.382c.176-.225.516-.575.62-.85zM8.82 5.162c.105 0 .21-.001.314-.005l.002 5.97c-1.813-.043-3.67-.79-5.255-1.896-.433-.302-.835-.654-1.253-.985A41.094 41.094 0 01.702 6.323C.5 6.108.233 5.875.08 5.605a.285.285 0 01-.038-.202c.018-.106.101-.173.17-.222l6.053-.001 1.712-.001c.272 0 .577.034.844-.017z" fill="#EA580C"></path></svg>