<svg fill="currentColor" fill-rule="evenodd" height="1em" style="flex:none;line-height:1" viewBox="0 0 79 24" xmlns="http://www.w3.org/2000/svg"><title>SophNet</title><path d="M29.535 6.82c.866-.96 1.837-1.552 3.096-1.407 1.071.12 2.167.813 2.371 1.938.111.608.167 1.239.167 1.892.002 3.258 0 5.707-.005 7.349-.001.58-.134 1.907-.528 2.477-.423.609-1.029.975-1.818 1.099-1.346.209-2.416-.325-3.269-1.33a.041.041 0 00-.02-.012.04.04 0 00-.024 0 .04.04 0 00-.018.016.04.04 0 00-.007.022v3.067a.068.068 0 01-.069.069h-4.266a.047.047 0 01-.034-.014.05.05 0 01-.013-.034V5.72c0-.015.006-.03.017-.04a.06.06 0 01.042-.017h4.251a.07.07 0 01.05.02.07.07 0 01.015.023.07.07 0 01.006.026V6.8c0 .006.002.012.006.017.003.005.01.01.015.012a.033.033 0 00.035-.009zM4.65 2.367a7.78 7.78 0 014.293-.124c.983.243 1.954.66 2.521 1.504.186.28.328.685.427 1.215.15.811.198 1.725.141 2.74a.091.091 0 01-.091.085l-4.033.002a.096.096 0 01-.094-.093c-.028-.713.096-1.496-.13-2.287a.248.248 0 00-.08-.124c-.325-.265-.657-.262-.996.008-.439.349-.38 1.439-.274 1.968.161.803.92 1.308 1.65 1.675 1.213.606 2.374 1.493 3.484 2.66.05.053.094.111.13.174.427.74.685 1.54.774 2.397a10.902 10.902 0 01-.127 3.212c-.155.805-.548 1.427-1.18 1.865-2.003 1.39-5.333 1.419-7.301.058-1.771-1.223-1.648-3.773-1.597-5.647a.088.088 0 01.088-.085H6.28c.023 0 .046.009.062.024a.087.087 0 01.026.061c.017.883-.104 2.111.142 3.208a.275.275 0 00.073.13c.343.338.726.359 1.148.063.15-.105.257-.348.319-.73.116-.714.073-1.372-.13-1.973-.2-.592-.49-.762-1.013-1.178-.844-.672-1.951-1.304-2.345-1.592-.73-.531-1.438-1.024-1.832-1.65C2.122 8.963 1.994 7.79 2 6.597c.01-1.935.573-3.576 2.649-4.231zm56.258 4.66c1.41-1.827 4.652-1.896 6.542-1.072 2.902 1.264 2.583 4.51 2.576 7.057a.055.055 0 01-.054.054h-5.542a.069.069 0 00-.07.066c-.005 1.521-.005 2.68 0 3.477.002.195.04.43.113.703a.453.453 0 00.258.3c.34.15.64.088.9-.182a.273.273 0 00.068-.123c.282-1.033.165-2.3.168-3.158a.115.115 0 01.113-.113h3.949c.024 0 .047.009.064.025.018.017.028.04.029.064.038 1.26.079 2.721-.523 3.858-1.107 2.089-3.307 2.514-5.493 2.216-1.787-.243-3.291-1.143-3.77-2.908a7.957 7.957 0 01-.254-2.005c-.01-1.031-.011-2.71-.004-5.035.003-1.022.281-2.382.93-3.224zM17.823 5.376c1.498-.117 3.308.172 4.409 1.192.87.806 1.317 1.824 1.337 3.054.02 1.206.028 2.808.025 4.806-.002.978-.006 2.321-.371 3.18-.342.8-.861 1.426-1.557 1.876-1.47.953-3.977.894-5.612.37-2.2-.706-2.468-2.851-2.465-4.924l.003-4.67c.002-.65.153-1.456.317-2.043.512-1.822 2.114-2.701 3.914-2.841zM75.99 3.76a.062.062 0 01.061.06v2.09a.085.085 0 00.085.086h.975a.095.095 0 01.096.096V8.18c0 .024-.01.046-.027.063a.092.092 0 01-.064.026h-.983a.08.08 0 00-.056.023.08.08 0 00-.023.055c-.006.264-.008 3.037-.006 8.317 0 .294.046.573.14.837a.179.179 0 00.167.119h.941c.026 0 .051.01.07.028a.098.098 0 01.028.069v2.15c0 .024-.01.047-.026.063a.085.085 0 01-.06.026c-1.502.035-2.666.01-3.49-.075-.723-.075-1.298-.387-1.723-.936-.427-.554-.445-1.847-.44-2.504.013-1.607.017-4.3.012-8.076a.092.092 0 00-.093-.093h-.771a.086.086 0 01-.086-.086V6.082c0-.022.009-.044.024-.06a.084.084 0 01.059-.024h.786a.083.083 0 00.059-.024.083.083 0 00.023-.058V3.848a.093.093 0 01.026-.062.088.088 0 01.028-.02.086.086 0 01.033-.005h4.234zM40.834 2.492a.06.06 0 01.06.06v3.727a.056.056 0 00.029.049c.009.005.02.007.03.007.01 0 .02-.004.028-.01.186-.12.334-.217.444-.291 1.19-.793 2.426-.884 3.709-.273.594.282 1.022.762 1.283 1.437.1.26.163.893.19 1.896.017.628.02 4.227.01 10.797a.056.056 0 01-.016.04.059.059 0 01-.04.016h-4.245a.06.06 0 01-.06-.06c.001-4.51 0-8.009-.003-10.495 0-.377-.037-.753-.11-1.128a.454.454 0 00-.341-.353c-.441-.105-.708.055-.8.48-.064.288-.106.63-.106.89v10.572a.058.058 0 01-.059.058h-4.22a.088.088 0 01-.087-.088V2.56c0-.018.007-.035.02-.048a.072.072 0 01.05-.02h4.234zm11.138 0a.129.129 0 01.122.088L54.53 10.1a.038.038 0 00.042.025.035.035 0 00.02-.011.036.036 0 00.009-.024V2.576c0-.022.01-.044.025-.06a.083.083 0 01.059-.024h3.63c.024 0 .047.01.064.026.017.017.026.04.026.065V19.9a.046.046 0 01-.046.047H54.52a.124.124 0 01-.118-.087l-2.289-7.694a.024.024 0 00-.01-.012.025.025 0 00-.016-.004.024.024 0 00-.014.008.024.024 0 00-.006.014v7.691a.084.084 0 01-.083.084h-3.675a.048.048 0 01-.033-.014.048.048 0 01-.014-.033V2.543a.052.052 0 01.05-.051h3.66zM30.517 8.033c-.378-.179-.683-.143-.917.107a.29.29 0 00-.07.138c-.094.452-.138.814-.132 1.085.006.374.009 1.523.008 3.446a295.7 295.7 0 01-.011 3.447c-.005.271.04.633.132 1.085.01.051.034.098.069.136.234.25.54.288.918.11a.155.155 0 00.085-.11c.08-.39.118-.753.116-1.089-.003-.484-.004-1.677-.004-3.579.001-1.9.003-3.093.006-3.578a5.25 5.25 0 00-.115-1.089.154.154 0 00-.085-.109zm-11.935-.097c-.604 0-.61.574-.628 1.016-.01.256-.014 1.542-.014 3.858 0 2.317.004 3.603.014 3.858.018.441.024 1.015.628 1.015s.61-.574.628-1.015c.01-.255.016-1.541.016-3.858 0-2.316-.006-3.602-.016-3.858-.018-.442-.024-1.016-.628-1.016zm46.241.005c-.124 0-.242.089-.33.244a1.222 1.222 0 00-.134.586l.006 1.92c0 .011.004.023.012.031.008.009.02.013.032.013l1.166-.003a.046.046 0 00.033-.012.046.046 0 00.012-.033l-.005-1.919c0-.108-.013-.217-.037-.317a1.026 1.026 0 00-.102-.269.567.567 0 00-.153-.18.302.302 0 00-.18-.06h-.32z"></path></svg>