<svg fill="currentColor" fill-rule="evenodd" height="1em" style="flex:none;line-height:1" viewBox="0 0 61 24" xmlns="http://www.w3.org/2000/svg"><title>Sora</title><path d="M51.144 21.972c-1.424 0-2.58-.388-3.468-1.165-.869-.776-1.303-1.793-1.303-3.05 0-1.332.471-2.359 1.414-3.08.944-.721 2.34-1.165 4.189-1.331l3.44-.306v-.388c0-.702-.24-1.248-.722-1.636-.48-.389-1.11-.583-1.886-.583h-.083c-.684 0-1.258.148-1.72.444-.444.296-.721.684-.832 1.165h-3.495c.11-.832.425-1.59.943-2.275.536-.684 1.248-1.23 2.136-1.636.888-.407 1.904-.61 3.051-.61 1.923 0 3.412.49 4.466 1.47 1.054.98 1.581 2.293 1.581 3.939v5.658c0 1.184.065 2.22.194 3.107h-3.328a8.484 8.484 0 01-.167-1.72c-.444.573-1.054 1.054-1.83 1.443-.777.37-1.637.554-2.58.554zm.832-2.884c.943 0 1.748-.278 2.413-.833.684-.554 1.026-1.331 1.026-2.33v-.305l-3.162.25c-1.645.13-2.468.703-2.468 1.72 0 .444.184.804.554 1.082.389.277.907.416 1.554.416h.083zM36.884 7.826h3.578v2.58a4 4 0 011.526-1.998c.721-.5 1.581-.749 2.58-.749h.61v3.329h-.999c-1.183 0-2.099.36-2.746 1.082-.629.72-.943 1.738-.943 3.05v6.575h-3.606V7.825zM26.872 22c-1.331 0-2.543-.314-3.634-.943a6.97 6.97 0 01-2.524-2.607c-.61-1.11-.915-2.349-.915-3.717 0-1.35.305-2.57.915-3.662a6.71 6.71 0 012.524-2.607c1.091-.63 2.303-.943 3.634-.943 1.35 0 2.561.314 3.634.943a6.711 6.711 0 012.524 2.607c.61 1.091.915 2.312.915 3.662 0 1.368-.305 2.607-.915 3.717a6.97 6.97 0 01-2.524 2.607c-1.073.629-2.284.943-3.634.943zm.055-2.996c1.018 0 1.831-.388 2.442-1.165.628-.776.943-1.812.943-3.106 0-1.276-.315-2.293-.944-3.052-.61-.776-1.423-1.165-2.44-1.165h-.14c-.998 0-1.811.389-2.44 1.165-.629.759-.943 1.776-.943 3.052 0 1.294.314 2.33.943 3.106.629.777 1.442 1.165 2.44 1.165h.14zM9.933 21.972c-2.552 0-4.503-.592-5.853-1.775C2.75 19.013 2.055 17.349 2 15.204h3.717c.037 1.072.398 1.914 1.082 2.524.703.61 1.729.915 3.079.915h.25c1.072 0 1.923-.212 2.551-.638.648-.425.971-.998.971-1.72 0-.591-.203-1.081-.61-1.47-.407-.388-1.082-.675-2.025-.86l-3.329-.638C4.302 12.67 2.61 10.84 2.61 7.825c0-1.054.296-2.025.888-2.912.592-.888 1.433-1.59 2.524-2.109C7.132 2.268 8.426 2 9.906 2c1.516 0 2.829.268 3.938.804 1.129.537 1.988 1.286 2.58 2.247.61.943.934 2.044.971 3.301H13.65c-.11-.961-.499-1.701-1.165-2.219-.665-.536-1.553-.804-2.663-.804h-.25c-.942 0-1.72.23-2.33.693-.61.462-.915 1.026-.915 1.692 0 .61.185 1.082.555 1.415.388.314 1.017.545 1.886.693l3.246.583c1.757.314 3.106.962 4.05 1.942.961.98 1.442 2.246 1.442 3.8 0 1.146-.305 2.163-.915 3.051-.61.87-1.49 1.553-2.636 2.053-1.146.48-2.487.72-4.022.72z"></path></svg>