<svg fill="currentColor" fill-rule="evenodd" height="1em" style="flex:none;line-height:1" viewBox="0 0 160 24" xmlns="http://www.w3.org/2000/svg"><title>StreamLake</title><path d="M48.504 4.769c1.642 0 3.096.39 4.378 1.172a7.996 7.996 0 012.955 3.128c.688 1.314 1.032 2.752 1.032 4.331 0 .282-.016.61-.047 1.017 0 .063-.062.11-.125.11v.03H43.562s-.078.047-.078.079c.22 1.282.767 2.298 1.642 3.049.907.766 2.018 1.157 3.362 1.157.657 0 1.25-.094 1.83-.281a4.682 4.682 0 002.517-2.001.245.245 0 01.203-.126h3.253c.078 0 .14.094.11.172-.657 1.673-1.674 2.971-3.034 3.925-1.423.985-3.05 1.47-4.863 1.47-2.408 0-4.426-.829-6.036-2.47-1.61-1.643-2.424-3.691-2.424-6.146s.813-4.504 2.424-6.146c1.61-1.642 3.628-2.47 6.036-2.47zm101.468 0c1.641 0 3.096.39 4.378 1.172a7.998 7.998 0 012.955 3.128c.688 1.314 1.032 2.752 1.032 4.331 0 .282-.016.61-.047 1.017 0 .062-.063.11-.125.11v.03H145.03s-.078.047-.078.079c.219 1.282.766 2.298 1.642 3.049.907.766 2.017 1.157 3.361 1.157a5.82 5.82 0 001.83-.281 4.682 4.682 0 002.518-2.001.245.245 0 01.203-.126h3.253c.078 0 .14.094.109.172-.657 1.673-1.674 2.971-3.034 3.925-1.423.985-3.049 1.47-4.862 1.47-2.408 0-4.426-.829-6.036-2.47-1.611-1.643-2.424-3.691-2.424-6.146s.813-4.504 2.424-6.146c1.61-1.641 3.628-2.47 6.036-2.47zM9.74 0c2.267 0 4.113.578 5.41 1.751 1.251 1.126 1.892 2.627 1.939 4.52 0 .14-.11.25-.234.25h-2.987a.24.24 0 01-.234-.235c-.047-.907-.423-1.626-1.11-2.158-.735-.579-1.69-.86-2.846-.86-1.157 0-2.049.235-2.783.72-.735.484-1.11 1.141-1.11 1.986 0 .359.093.703.28 1 .188.297.391.547.641.75.25.188.61.376 1.095.563.484.188.891.314 1.235.407.328.094.829.219 1.47.375l1.142.282c.25.062.625.171 1.11.312.485.156.86.282 1.126.392.266.11.594.265 1 .468.407.204.72.408.94.61.218.204.468.454.75.766.28.298.484.626.625.955.14.328.266.719.36 1.157.093.438.156.891.156 1.391 0 2.064-.735 3.675-2.19 4.817-1.454 1.141-3.299 1.72-5.535 1.72-1.595 0-3.002-.282-4.221-.845l.046-.016c-1.204-.563-2.142-1.392-2.814-2.455-.625-1-.97-2.157-1.001-3.486 0-.141.11-.25.234-.25h3.05c.124 0 .235.109.235.234.047 1.032.468 1.845 1.25 2.455.844.657 1.908.985 3.206.985 1.172 0 2.173-.281 2.986-.86.813-.578 1.22-1.33 1.22-2.267 0-.344-.063-.657-.172-.939a1.783 1.783 0 00-.547-.734c-.25-.204-.5-.376-.735-.532-.235-.157-.58-.297-1.033-.438a15.28 15.28 0 00-1.11-.313l-1.282-.313c-.625-.14-1.11-.265-1.423-.344a42.68 42.68 0 01-1.36-.422c-.579-.187-1.032-.375-1.345-.563a13.99 13.99 0 01-1.11-.75c-.423-.313-.75-.657-.954-1.001a5.578 5.578 0 01-.563-1.298 5.744 5.744 0 01-.25-1.704c0-1.908.673-3.394 2.017-4.473C5.66.532 7.474 0 9.74 0zm57.184 4.676c2.173 0 4.128.813 5.66 2.127l-.016-.016c1.736 1.486 2.863 3.784 2.863 6.333v8.053c0 .125-.11.234-.236.234h-2.204a.235.235 0 01-.234-.203l-.22-1.5c0-.048-.062-.079-.11-.048-1.485 1.267-3.408 2.142-5.503 2.142h-.203c-2.377 0-4.363-.813-5.943-2.455-1.563-1.61-2.36-3.628-2.377-6.051v-.063c0-2.454.798-4.488 2.377-6.114 1.58-1.626 3.566-2.44 5.943-2.44h.203zm52.337 0c2.173 0 4.128.813 5.66 2.127l-.016-.016c1.736 1.486 2.862 3.784 2.862 6.333v8.053a.241.241 0 01-.235.234h-2.205a.235.235 0 01-.234-.203l-.219-1.5c0-.048-.062-.079-.109-.048-1.486 1.267-3.409 2.142-5.504 2.142h-.203c-2.377 0-4.363-.813-5.943-2.455-1.563-1.61-2.361-3.627-2.377-6.051v-.063c0-2.454.798-4.488 2.377-6.114 1.58-1.626 3.566-2.44 5.943-2.44h.203zM24.329 1.329s.125.047.125.125v3.597s.047.125.125.125h4.504a.24.24 0 01.234.234v2.408a.24.24 0 01-.234.235H24.61c-.003.001-.124.048-.125.125v7.302c0 .97.267 1.72.798 2.252.532.532 1.283.798 2.283.798h1.61a.24.24 0 01.235.235h-.016v2.595a.24.24 0 01-.234.235H26.91c-1.204 0-2.235-.235-3.095-.704-.86-.47-1.549-1.141-2.003-2.017-.469-.876-.703-1.924-.703-3.112V8.178c-.002-.007-.05-.125-.126-.125h-2.705c-.008-.003-.125-.05-.125-.125v-.39c0-.001 0-.063.032-.079L23.86 1.36a.198.198 0 01.094-.03h.375zM40.31 5.113a.24.24 0 01.235.235v2.69a.24.24 0 01-.235.233h-1.533c-2.798 0-4.206 1.518-4.206 4.567v8.522a.24.24 0 01-.234.235h-2.893a.24.24 0 01-.234-.235V5.41a.24.24 0 01.234-.234h1.86a.25.25 0 01.235.187l.501 1.94c.006.005.095.076.125.031 1.173-1.486 2.815-2.22 4.926-2.22h1.22zm62.282-4.018a.24.24 0 01.234.234v16.888s.047.126.125.126h7.115c.157 0 .313.078.391.203h.031l1.814 2.674a.24.24 0 01-.203.375H99.464c-.007-.003-.125-.05-.125-.125V1.33a.24.24 0 01.234-.235h3.019zM132.505.89a.24.24 0 01.234.235v9.788s.078.094.125.047l6.255-5.879a.505.505 0 01.328-.125h3.269c.219 0 .312.25.172.406l-7.162 7.397c-.003.008-.046.126 0 .172l7.74 8.068c.141.156.031.406-.172.406h-3.377a.427.427 0 01-.329-.14l-6.708-6.505c-.006 0-.125.001-.125.047h-.016v6.348a.24.24 0 01-.234.235h-2.893a.24.24 0 01-.234-.235V1.126a.24.24 0 01.234-.235h2.893zM82.889 5.207c1.688 0 3.175.657 4.238 1.72.016.015.047.015.063 0 1.06-1.061 2.559-1.718 4.228-1.72 3.28.004 5.857 2.786 5.857 5.974v10.21h-2.971a.241.241 0 01-.235-.234V10.915c0-1.423-1.141-2.486-2.658-2.486s-2.658 1.079-2.658 2.517v10.211a.24.24 0 01-.234.235h-2.737a.24.24 0 01-.234-.235v-10.21c0-1.44-1.143-2.518-2.66-2.518-1.516 0-2.657 1.063-2.657 2.486v10.242a.24.24 0 01-.235.235H77.26a.24.24 0 01-.235-.235v-9.976c0-3.206 2.58-5.974 5.864-5.974zm-15.95 2.674c-1.438 0-2.69.501-3.737 1.517-.985 1.08-1.47 2.315-1.47 3.847s.5 2.815 1.486 3.831c.985 1.017 2.22 1.532 3.737 1.532s2.752-.516 3.722-1.532c.97-1.016 1.454-2.299 1.454-3.847 0-1.547-.485-2.814-1.454-3.83-.985-1.017-2.299-1.518-3.738-1.518zm52.353 0c-1.439 0-2.69.501-3.737 1.517-.985 1.08-1.47 2.315-1.47 3.847s.5 2.815 1.485 3.831c.985 1.016 2.221 1.532 3.738 1.532 1.516 0 2.752-.515 3.721-1.532.97-1.016 1.454-2.299 1.454-3.847 0-1.547-.484-2.814-1.454-3.83-.985-1.017-2.298-1.518-3.737-1.518zm-70.804-.047c-1.25 0-2.33.36-3.206 1.063-.86.688-1.438 1.642-1.735 2.83 0 .047.031.094.078.094h9.758c.005-.003.078-.048.078-.094a5.432 5.432 0 00-.985-2.048 4.795 4.795 0 00-1.72-1.376c-.688-.329-1.44-.469-2.268-.469zm101.467 0c-1.251 0-2.329.36-3.205 1.063-.86.688-1.438 1.642-1.735 2.83 0 .047.031.094.078.094h9.757s.077-.047.078-.094c-.204-.797-.531-1.47-.985-2.048a4.79 4.79 0 00-1.72-1.376c-.688-.329-1.439-.469-2.268-.469z"></path></svg>