<svg height="1em" style="flex:none;line-height:1" viewBox="0 0 24 24" width="1em" xmlns="http://www.w3.org/2000/svg"><title>SubModel</title><path d="M23.314 7.947c.206.504.491 1.709.602 2.538.134 1 .06 3-.143 3.938a12.13 12.13 0 01-3.278 6.053c-1.635 1.645-3.678 2.762-6.027 3.294-.712.16-3.534.264-4.062.149-.878-.192-1.255-.82-.897-1.494.074-.139 1.31-1.425 2.746-2.858l2.611-2.603.793-.025c.53-.017.895-.08 1.097-.187.423-.225.895-.718 1.104-1.152.2-.415.292-1.377.163-1.716-.078-.21-.025-.266.725-.768 1.657-1.108 3.122-2.773 4.002-4.545l.45-.905.114.281z" fill="url(#lobe-icons-sub-model-fill-0)"></path><path d="M.833 7.787c.031.004.239.382.459.84.748 1.554 2.214 3.267 3.682 4.303 2.034 1.437 4.303 2.194 6.964 2.322l1.203.06-2.937 2.939c-3.255 3.258-3.448 3.407-4.433 3.403-.362-.002-.716-.07-.978-.188-.505-.23-1.726-1.402-2.422-2.326-.955-1.267-1.74-3.002-2.15-4.75-.266-1.143-.243-3.813.044-4.968.23-.928.478-1.642.568-1.635z" fill="url(#lobe-icons-sub-model-fill-1)"></path><path clip-rule="evenodd" d="M11.484.028c2.054-.088 2.932.167 3.08.895.1.501-.269.957-2.883 3.57L9.105 7.064l-.731.01c-.555.008-.824.058-1.108.21-1.114.593-1.62 1.858-1.216 3.041.328.964 1.3 1.636 2.34 1.62.215-.005.476-.039.678-.087l-.023.009.089-.03c.924-.268 1.66-1.31 1.665-2.357.002-.344.063-.625.176-.808.095-.156 1.45-1.556 3.012-3.113 3.134-3.122 3.251-3.21 4.287-3.213.823-.003 1.257.225 2.194 1.16a11.968 11.968 0 012.73 4.162l-.447.903c-.88 1.772-2.347 3.437-4.003 4.545-.75.502-.803.559-.725.768.044.114.063.299.06.51a2.444 2.444 0 00-.629-1.478c-1.163-1.287-3.25-1.005-4.008.542-.2.41-.248.64-.244 1.151l.007.639-.067.063-1.204-.06c-1.644-.079-3.139-.398-4.521-.97h-.001a12.485 12.485 0 01-2.442-1.351C3.6 11.96 2.23 10.4 1.446 8.931l-.154-.305c-.22-.459-.428-.836-.459-.84-.032-.003-.082.084-.145.237.015-.062.035-.128.06-.196 1.04-2.842 3.136-5.177 5.88-6.553C8.253.461 9.62.11 11.484.028z" fill="url(#lobe-icons-sub-model-fill-2)" fill-rule="evenodd"></path><defs><linearGradient gradientUnits="userSpaceOnUse" id="lobe-icons-sub-model-fill-0" x1="0" x2="24" y1="14.5" y2="14.5"><stop stop-color="#E560FC"></stop><stop offset="1" stop-color="#673CFF"></stop></linearGradient><linearGradient gradientUnits="userSpaceOnUse" id="lobe-icons-sub-model-fill-1" x1="0" x2="24" y1="14.5" y2="14.5"><stop stop-color="#E560FC"></stop><stop offset="1" stop-color="#673CFF"></stop></linearGradient><linearGradient gradientUnits="userSpaceOnUse" id="lobe-icons-sub-model-fill-2" x1=".5" x2="23" y1="8" y2="7.5"><stop stop-color="#0ED1FC"></stop><stop offset="1" stop-color="#3171F5"></stop></linearGradient></defs></svg>