<svg fill="currentColor" fill-rule="evenodd" height="1em" style="flex:none;line-height:1" viewBox="0 0 25 25" width="1em" xmlns="http://www.w3.org/2000/svg"><title>Targon</title><path clip-rule="evenodd" d="M20.297.7H5.289A4.496 4.496 0 00.793 5.195v15.007a4.496 4.496 0 004.496 4.496h15.008a4.496 4.496 0 004.496-4.496V5.196A4.497 4.497 0 0020.297.699zm-.518 5.134a.03.03 0 01.036-.01.03.03 0 01.018.024c.005.04.009.08.01.12.012.61.015 1.221.01 1.832a4.442 4.442 0 01-.547 2.138 4.162 4.162 0 01-2.277 1.882c-.34.12-.691.189-1.053.205-3.392.004-6.784.004-10.177 0-.071-.004-.149-.04-.159-.11a.156.156 0 01-.001-.014c-.03-1.067.317-1.988 1.042-2.764a3.855 3.855 0 012.43-1.208c2.016-.016 4.033-.025 6.05-.026.484-.025.963-.09 1.437-.195a5.856 5.856 0 001.737-.632c.208-.11.409-.233.6-.368.205-.156.394-.33.566-.524.094-.116.186-.233.278-.35zm.023 6.28c-.006-.042-.056-.05-.08-.016a4.68 4.68 0 01-.199.252 4.758 4.758 0 01-1.098.887 7.493 7.493 0 01-3.343.89l-5.907.05a2.735 2.735 0 00-.687.078 3.83 3.83 0 00-.76.293 4.08 4.08 0 00-1.536 1.398 4.007 4.007 0 00-.605 2.117c.002.037.01.074.021.11.022.048.06.074.113.076 3.417.004 6.834.004 10.25 0a7.12 7.12 0 00.327-.031 4.264 4.264 0 001.627-.627 4.071 4.071 0 001.761-2.498c.094-.425.137-.855.132-1.29 0-.563-.005-1.127-.016-1.69z"></path></svg>