<svg fill="currentColor" fill-rule="evenodd" height="1em" style="flex:none;line-height:1" viewBox="0 0 110 24" xmlns="http://www.w3.org/2000/svg"><title>Targon</title><path d="M107.893 2.31V21.69h-4.575l-7.666-11.19v11.19H91.17V2.31h4.544l7.697 11.622V2.31h4.482zM88.865 11.985c0 3.524-.721 6.079-2.164 7.666C85.279 21.217 82.96 22 79.746 22c-3.36 0-5.719-.742-7.08-2.226-1.36-1.483-2.04-4.08-2.04-7.79 0-3.523.712-6.068 2.134-7.635C74.202 2.783 76.53 2 79.746 2c3.359 0 5.718.742 7.079 2.226 1.36 1.483 2.04 4.07 2.04 7.759zm-12.798 4.142c.268.515.66.876 1.175 1.082.536.206 1.37.309 2.504.309 1.133 0 1.958-.103 2.473-.31a2.215 2.215 0 001.205-1.081c.206-.412.35-.948.433-1.608.103-.66.155-1.504.155-2.534 0-1.051-.052-1.907-.155-2.566-.082-.68-.227-1.226-.433-1.638a2.075 2.075 0 00-1.174-1.113c-.516-.227-1.35-.34-2.504-.34s-2 .113-2.535.34c-.515.206-.897.577-1.144 1.113-.206.412-.36.958-.463 1.638-.083.66-.124 1.514-.124 2.566 0 1.03.041 1.875.123 2.534.104.66.258 1.196.464 1.608zM64.379 14.488H61.04v-3.864h7.82v10.201c-.576.268-1.607.536-3.09.804-1.484.247-2.834.371-4.05.371-3.359 0-5.698-.773-7.017-2.318-1.298-1.546-1.947-4.112-1.947-7.697 0-3.463.762-5.987 2.287-7.574C56.568 2.804 59 2 62.338 2c1.216 0 2.298.03 3.246.093.969.041 1.71.113 2.226.216v4.204a36.188 36.188 0 00-2.442-.124 68.55 68.55 0 00-3.03-.061c-1.174 0-2.05.103-2.627.309a2.34 2.34 0 00-1.267 1.082c-.268.412-.464.968-.588 1.669-.103.68-.154 1.546-.154 2.597 0 1.01.051 1.854.154 2.534.103.68.268 1.226.495 1.639.288.556.69.948 1.205 1.174.536.227 1.36.34 2.473.34.371 0 .752-.01 1.144-.03.412-.042.814-.093 1.206-.155v-2.999zM40.567 15.447v6.244h-4.791V2.31h7.078c2.989 0 5.111.504 6.368 1.514 1.257 1.01 1.886 2.69 1.886 5.039 0 1.587-.34 2.885-1.02 3.895-.66.989-1.67 1.71-3.03 2.164l4.73 6.77h-5.75l-4.018-6.245h-1.453zm5.688-6.584c0-.824-.248-1.401-.742-1.731-.495-.33-1.38-.495-2.658-.495h-2.288v4.946h2.288c1.277 0 2.163-.196 2.658-.587.495-.412.742-1.123.742-2.133zM20.22 21.691h-5.04L22.353 2.31h4.977l6.986 19.381h-5.007l-1.02-3.245H21.24l-1.02 3.245zM24.733 7.07c-.165.577-.35 1.195-.557 1.855-.185.639-.505 1.69-.958 3.153l-.804 2.565h4.668l-.804-2.565a88.43 88.43 0 01-.803-2.473c-.268-.886-.516-1.731-.742-2.535zM17.363 2.31v4.327h-5.286v15.054H7.286V6.637H2V2.31h15.363z"></path></svg>