<svg fill="currentColor" fill-rule="evenodd" height="1em" style="flex:none;line-height:1" viewBox="0 0 85 24" xmlns="http://www.w3.org/2000/svg"><title>TRAE</title><path d="M20.12 2.012c.002 0 .004.002.005.003a.015.015 0 01.003.005v4.046l-.003.004a.015.015 0 01-.005.003l-.005.002h-6.749a.014.014 0 00-.01.003c-.002.003-.004.007-.004.01v15.898a.014.014 0 01-.004.01.014.014 0 01-.01.003H8.75a.014.014 0 01-.01-.003.014.014 0 01-.004-.01V6.088a.014.014 0 00-.004-.01.015.015 0 00-.01-.003H2.015l-.005-.001a.016.016 0 01-.005-.003A.015.015 0 012 6.06V2.025l.001-.005c0-.002.002-.004.003-.005a.016.016 0 01.01-.004h18.101l.005.001zm63.123-.01c.003 0 .006 0 .008.002s.003.006.003.009v4.038a.016.016 0 01-.005.01.016.016 0 01-.01.006l-11.636-.001a.012.012 0 00-.007.004.013.013 0 00-.004.008 9521.218 9521.218 0 00.003 11.846.014.014 0 00.008.004h11.634c.005 0 .009.002.012.005a.016.016 0 01.005.01v4.039a.014.014 0 01-.004.009.012.012 0 01-.008.003H66.981a.013.013 0 01-.01-.004.013.013 0 01-.003-.01 47458.37 47458.37 0 01.002-19.972c0-.001 0-.004.002-.005l.005-.002H83.243zM34.048 2c.875 0 1.744.026 2.612.164.935.15 1.863.416 2.623 1 .433.331.776.745 1.03 1.238.155.3.285.633.388.999.115.407.197.854.245 1.342.099.997.105 1.987.02 2.966-.022.242-.073.527-.115.76-.058.318-.151.645-.28.982a4.048 4.048 0 01-1.425 1.858 6.349 6.349 0 01-1.581.814 299.29 299.29 0 00-.474.168l-.003.005-.002.007c0 .002 0 .005.002.007l3.954 7.663.002.006a.011.011 0 01-.002.005.012.012 0 01-.004.004H35.99c-.004 0-.008 0-.011-.002a.025.025 0 01-.01-.01l-3.652-7.153a.03.03 0 00-.01-.012.03.03 0 00-.015-.004h-4.9a.012.012 0 00-.008.004.013.013 0 00-.004.009v7.16a.012.012 0 01-.004.009.013.013 0 01-.009.003h-4.509a.012.012 0 01-.003-.003.015.015 0 01-.003-.005.011.011 0 01-.001-.005V2.017A.017.017 0 0122.866 2h11.182zm23.003.016a.027.027 0 01.01.012l7.851 19.948.001.006-.003.006a.011.011 0 01-.004.003.011.011 0 01-.006.002h-4.788a.026.026 0 01-.014-.005.027.027 0 01-.011-.012l-1.91-4.713a.021.021 0 00-.007-.01.023.023 0 00-.013-.004h-8.55a.03.03 0 00-.018.005.031.031 0 00-.01.015l-1.747 4.706a.026.026 0 01-.01.013.028.028 0 01-.015.005h-4.995l-.002-.002-.003-.001-.001-.003v-.004l8.108-19.961a.017.017 0 01.007-.008.018.018 0 01.01-.003h6.105c.005 0 .01.002.015.005zm22.606 6.843l3.578 3.178a.024.024 0 01.006.008.025.025 0 010 .02.025.025 0 01-.006.008l-3.579 3.177a.025.025 0 01-.032 0l-3.367-3.178a.025.025 0 01-.006-.008.025.025 0 01-.002-.01.024.024 0 01.008-.017l3.368-3.178a.023.023 0 01.016-.006c.006 0 .012.002.016.006zm-26.022-2.41a.015.015 0 00-.005.007L51 13.658a.013.013 0 00-.001.005.015.015 0 00.007.011l.007.001h5.877a.015.015 0 00.005-.006l.002-.006v-.005l-2.664-7.202a.015.015 0 00-.005-.006.014.014 0 00-.007-.002h-.578c-.003 0-.006 0-.008.002zm-26.252-.46a.015.015 0 00-.004.01 2309.791 2309.791 0 00.003 4.935c0 .004.001.007.004.01a.014.014 0 00.01.004c2.4 0 4.506-.001 6.318-.006.388-.001.767-.05 1.135-.148.644-.17 1.188-.527 1.364-1.196.031-.119.048-.307.05-.564l-.001-.572v-.571a2.504 2.504 0 00-.05-.564c-.177-.669-.72-1.026-1.365-1.196a4.469 4.469 0 00-1.136-.146c-1.812-.003-3.918-.004-6.318 0a.016.016 0 00-.01.005z"></path></svg>