<svg fill="currentColor" fill-rule="evenodd" height="1em" style="flex:none;line-height:1" viewBox="0 0 24 24" width="1em" xmlns="http://www.w3.org/2000/svg"><title>TuriX</title><path d="M21.098 4.62L13.903.507a3.832 3.832 0 00-3.806 0L2.902 4.62A3.76 3.76 0 001 7.885v8.23c0 1.347.725 2.592 1.902 3.264l7.195 4.115a3.832 3.832 0 003.806 0l7.195-4.115A3.757 3.757 0 0023 16.115v-8.23a3.763 3.763 0 00-1.902-3.264zm.605 11.378l-8.34 4.77c-.018.01-.036.015-.055.023-.005.002-.008.007-.015.013-.828.469-1.7.518-2.507.046-.005-.002-.013-.01-.018-.013-.016-.008-.032-.013-.045-.02l-8.432-4.821a.874.874 0 01-.324-1.202l.02-.033a.892.892 0 011.213-.322l3.9 2.231v-3.298l-4.206-2.405A.895.895 0 012.56 9.74.913.913 0 013.8 9.41l4.676 2.675a.696.696 0 01.437.647v4.976l2.229 1.274v-8.617l-4.29-2.454a.894.894 0 01-.333-1.227.912.912 0 011.239-.33l3.384 1.936V4.756c0-.496.406-.898.906-.898s.907.402.907.898v3.48l3.29-1.882a.91.91 0 011.238.33.892.892 0 01-.332 1.227l-4.196 2.4v8.614l2.16-1.235v-4.958c0-.294.181-.542.438-.646l4.675-2.676a.91.91 0 011.24.33.893.893 0 01-.333 1.227l-4.207 2.405v3.278l3.864-2.211a.895.895 0 011.215.322l.018.03c.247.421.1.96-.324 1.205l.002.002z"></path></svg>