<svg fill="currentColor" fill-rule="evenodd" height="1em" style="flex:none;line-height:1" viewBox="0 0 54 24" xmlns="http://www.w3.org/2000/svg"><title>Udio</title><path clip-rule="evenodd" d="M25.856 7.189c-.883-.69-2.086-1.087-3.396-1.087-3.689 0-6.337 2.864-6.337 6.711 0 3.847 2.646 6.711 6.337 6.711 1.336 0 2.566-.452 3.476-1.194v.928h4.01V0l-4.09 1.01V7.19zm-2.675 8.673c-1.684 0-2.914-1.274-2.914-3.05 0-1.778 1.23-3.052 2.941-3.052 1.711 0 2.887 1.246 2.887 3.051 0 1.805-1.175 3.05-2.914 3.051z"></path><path d="M36.466 5.96l-4.09 1.011v12.285h4.09V5.96zM32.215 2.36c0-1.247.935-2.229 2.219-2.229 1.283 0 2.192.982 2.192 2.23 0 1.247-.909 2.228-2.192 2.228-1.284 0-2.219-.98-2.219-2.229z"></path><path clip-rule="evenodd" d="M45.133 6.074c-4.064 0-7.111 2.892-7.111 6.711 0 3.82 3.075 6.765 7.11 6.765 4.037 0 7.112-2.918 7.112-6.765 0-3.847-3.075-6.71-7.111-6.71zm0 9.788c-1.737 0-2.94-1.246-2.94-3.05 0-1.806 1.203-3.052 2.94-3.052 1.737 0 2.94 1.22 2.94 3.024 0 1.803-1.175 3.076-2.94 3.076v.002z"></path><path d="M8.656 15.942c1.23 0 1.978-.796 1.978-2.15V6.365h4.09v7.455c0 3.068-2.03 5.27-5.064 5.663l-3.57-3.541h2.566zM6.09 15.942V20L2 15.942h4.09zM6.09 6.365v9.577L2 11.882V6.365h4.09z"></path></svg>