<svg height="1em" style="flex:none;line-height:1" viewBox="0 0 24 24" width="1em" xmlns="http://www.w3.org/2000/svg"><title>Udio</title><path d="M15.763 1.02c.212-.021.44.002.654.004l1.21.001c1.68.001 3.373.043 5.052-.025l-.001 8.93v2.652c0 .744.013 1.486-.065 2.227a9.643 9.643 0 01-.585 2.453 8.895 8.895 0 01-3.215 4.14c-.289.201-.602.422-.925.564a10.01 10.01 0 01-2.582.976c-.361.083-.728.131-1.088.216-.381-.311-.725-.694-1.072-1.043l-1.893-1.893c-.722-.716-1.455-1.417-2.171-2.14-.303-.304-.639-.604-.907-.938.106.694.047 1.75.047 2.486.007 1.457.003 2.913-.013 4.37a.906.906 0 01-.046-.035c-.236-.185-.447-.428-.66-.642-.41-.415-.823-.827-1.239-1.237l-2.991-2.979c-.54-.54-1.098-1.07-1.624-1.623-.07-.074-.215-.21-.228-.311a.348.348 0 01.129.001l-.005-.012c.869-.05 1.76-.013 2.63-.013 1.332 0 2.665-.018 3.996.001a597.835 597.835 0 01-6.839-6.807c-.047-.357-.02-.74-.02-1.101l.001-1.915L1.3 1.178c0-.04.01-.075.028-.112.059-.04.104-.038.175-.042.52-.03 1.06 0 1.582.001 1.512 0 3.036.042 4.546-.006.197-.014.397-.011.594-.015l-.003 10.581c.009 1.859.003 3.717-.018 5.575.426-.044.89-.01 1.32-.01h2.772c.964-.007 1.857-.19 2.558-.904.538-.548.764-1.256.88-2 .08-.51.042-1.08.041-1.597l-.002-2.645c-.001-2.994.026-5.99-.01-8.984z" fill="#E30A5D"></path></svg>