<svg height="1em" style="flex:none;line-height:1" viewBox="0 0 24 24" width="1em" xmlns="http://www.w3.org/2000/svg"><title>Unstructured</title><path d="M0 0h24v24H0z" fill="#0ADDF8"></path><path clip-rule="evenodd" d="M14.316 7.13c.16.065.331.097.512.097.205 0 .383-.036.536-.108a.907.907 0 00.365-.307.793.793 0 00.132-.45.727.727 0 00-.175-.493c-.114-.135-.287-.24-.52-.315l-.555-.178a.442.442 0 01-.198-.117.268.268 0 01-.066-.178.27.27 0 01.05-.163.315.315 0 01.144-.113.55.55 0 01.213-.039.66.66 0 01.584.36l.446-.319a1.1 1.1 0 00-.549-.475 1.274 1.274 0 00-.48-.09c-.197 0-.372.037-.525.11a.86.86 0 00-.353.302.816.816 0 00-.124.45c0 .194.058.361.175.5.116.138.29.244.52.32l.566.185a.413.413 0 01.195.117.248.248 0 01.062.17.27.27 0 01-.05.164.344.344 0 01-.14.104.533.533 0 01-.214.04.728.728 0 01-.427-.137.894.894 0 01-.27-.313l-.47.291a1.16 1.16 0 00.616.585zm-9.768-.068c.178.096.381.144.61.144.227 0 .43-.048.608-.144a1.075 1.075 0 00.575-.963V4.267h-.602v1.794a.628.628 0 01-.077.31.565.565 0 01-.505.291.578.578 0 01-.508-.29.655.655 0 01-.074-.311V4.267h-.602V6.1c0 .213.05.403.152.57.103.167.244.297.423.393zm4.765 6.49c.179.096.382.144.61.144.227 0 .43-.048.609-.143a1.075 1.075 0 00.574-.963v-1.832h-.601v1.793a.63.63 0 01-.078.31.566.566 0 01-.505.291.573.573 0 01-.582-.602V10.76H8.74v1.832c0 .212.05.402.151.57.104.166.245.297.423.393zM5.05 20.166a1.27 1.27 0 01-.61-.143 1.104 1.104 0 01-.422-.392 1.087 1.087 0 01-.152-.57v-1.833h.602v1.793a.572.572 0 00.582.602.565.565 0 00.505-.291.629.629 0 00.078-.31v-1.794h.601v1.832a1.066 1.066 0 01-.574.963 1.27 1.27 0 01-.61.143zM8.774 4.267V7.16h.601V5.402l1.3 1.757h.466V4.267h-.601v1.719L9.236 4.267h-.462zM8.709 17.27v2.849h.602v-.92h.424l.502.92h.676l-.574-1.024a.852.852 0 00.365-.31c.09-.14.136-.351.136-.548a.923.923 0 00-.132-.508c-.088-.138-.21-.284-.365-.354a1.258 1.258 0 00-.528-.105H8.71zm1.11 1.363h-.508v-.796h.508c.085 0 .16.017.221.05.062.034.11.08.144.14.036.06.054.13.054.21a.388.388 0 01-.198.345.458.458 0 01-.22.05zm-5.808-4.981v-2.849h1.106c.2 0 .375.035.528.105.155.07.277.216.365.354a.923.923 0 01.132.508c0 .197-.046.408-.136.548a.853.853 0 01-.365.31l.574 1.024h-.676l-.502-.919h-.425v.919h-.601zm.601-1.486h.509c.085 0 .159-.017.221-.05a.387.387 0 00.198-.346c0-.08-.018-.15-.054-.21a.355.355 0 00-.144-.14.458.458 0 00-.221-.05h-.509v.796zm9.723 1.44c.178.074.371.112.578.112.21 0 .397-.035.563-.105a1.298 1.298 0 00.719-.71l-.532-.257a.682.682 0 01-.26.328.876.876 0 01-.49.157c-.17 0-.32-.018-.45-.099a.822.822 0 01-.303-.333 1.02 1.02 0 01-.104-.476c0-.189.034-.331.104-.471a.822.822 0 01.303-.334c.13-.08.28-.12.45-.12.176 0 .325.025.447.118.124.09.232.227.281.367l.532-.256a1.152 1.152 0 00-.27-.41 1.3 1.3 0 00-.427-.28 1.435 1.435 0 00-.563-.104c-.21 0-.403.037-.582.112-.176.073-.33.176-.462.311-.132.132-.234.29-.306.473-.073.182-.11.38-.11.594a1.477 1.477 0 00.42 1.067c.132.135.286.24.462.315zm-.408 6.513v-2.892h1.794v.589h-1.192v.57h.942v.567h-.942v.577h1.192v.589h-1.794zm4.054-2.892v2.892h.943c.314 0 .585-.062.816-.187.23-.124.408-.295.535-.512.127-.22.19-.47.19-.75 0-.279-.063-.527-.19-.744a1.344 1.344 0 00-.535-.513 1.693 1.693 0 00-.816-.186h-.943zm.959 2.325h-.357v-1.736h.357c.189 0 .352.016.489.09.137.076.243.16.318.297a.895.895 0 01.117.468.908.908 0 01-.117.467.759.759 0 01-.318.301c-.137.075-.3.113-.49.113zm-.094-12.307V4.9h-.82v-.567h2.252v.567h-.83v2.346h-.602zm.066 4.104v2.346h.601v-2.346h.83v-.567h-2.251v.567h.82z" fill="#000" fill-rule="evenodd"></path></svg>