<svg fill="currentColor" fill-rule="evenodd" height="1em" style="flex:none;line-height:1" viewBox="0 0 86 24" xmlns="http://www.w3.org/2000/svg"><title>Volcengine</title><path d="M33.855 2.306h-2.031c-.123 0-.223.1-.223.222V21.07c0 .123.1.222.223.222h2.031c.123 0 .223-.1.223-.222V2.528c0-.122-.1-.222-.223-.222zM60.948 2.382h-2.134c-.124 0-.225.101-.225.226v19.16c0 .125.1.226.225.226h2.134c.125 0 .226-.101.226-.226V2.608c0-.125-.101-.226-.226-.226zM26.66 4.625h-2.027a.225.225 0 00-.225.226v16.78c0 .125.1.226.225.226h2.026a.225.225 0 00.225-.225V4.85c0-.125-.1-.226-.225-.226zM41.057 4.625h-2.026a.225.225 0 00-.225.226v16.78c0 .125.1.226.225.226h2.026a.225.225 0 00.226-.225V4.85c0-.125-.101-.226-.226-.226z"></path><path d="M41.166 19.383v2.06a.416.416 0 01-.417.417H24.933a.417.417 0 01-.417-.417v-2.06h16.65zM75.17 4.53V2.923a.111.111 0 00-.112-.112h-9.67a.111.111 0 00-.111.112V4.53c0 .061.05.111.111.111h9.67c.062 0 .111-.05.111-.111zM83.938 3.392V5.14a.112.112 0 01-.111.11h-6.175a.228.228 0 01-.228-.227V3.506a.228.228 0 01.228-.228h6.175a.112.112 0 01.111.111v.003zM16.846 5.074c-.037.973-.17 3.204-.63 6.717a.23.23 0 00.225.26h2.34a.232.232 0 00.225-.203c.454-3.539.571-5.773.617-6.757a.224.224 0 00-.229-.234h-2.32a.226.226 0 00-.228.217zM5.627 5.077c.04.978.171 3.227.633 6.765a.228.228 0 01-.225.263H3.678a.234.234 0 01-.228-.203c-.457-3.567-.585-5.818-.622-6.808a.228.228 0 01.23-.237h2.34a.227.227 0 01.229.22zM65.069 6.286a.118.118 0 00-.106.114v1.87a.11.11 0 00.123.114c1.675-.158 2.91-1.359 3.076-3.176a.112.112 0 00-.03-.087.114.114 0 00-.085-.036H66.17a.111.111 0 00-.111.1c-.135.964-.674 1.087-.99 1.101zM78.377 6.44h-1.932a.12.12 0 00-.089.043.118.118 0 00-.025.094c.628 3.536 3.672 5.764 7.861 5.756a.12.12 0 00.117-.117v-1.892a.114.114 0 00-.114-.114c-2.414 0-5.048-.97-5.707-3.681a.117.117 0 00-.111-.089z"></path><path d="M68.98 2.382h-2.157a.111.111 0 00-.11.112v2.25c0 .062.049.112.11.112h2.158c.061 0 .11-.05.11-.111V2.494a.111.111 0 00-.11-.112zM73.623 2.382h-2.157a.111.111 0 00-.111.112v2.25c0 .062.05.112.11.112h2.158c.062 0 .111-.05.111-.111V2.494a.111.111 0 00-.11-.112zM83.094 4.914v-.166h-2.175v.226c.02.733.066 2.448-1.101 3.66-.888.922-2.343 1.41-4.329 1.453a.114.114 0 00-.114.117l.023 1.937a.12.12 0 00.12.12c2.59-.051 4.565-.764 5.866-2.117 1.798-1.875 1.732-4.311 1.71-5.23zM79.124 2.357h-1.937a.114.114 0 00-.111.108 1.873 1.873 0 01-1.604 1.798.114.114 0 00-.097.111v1.94a.114.114 0 00.12.114 3.994 3.994 0 003.74-3.957.111.111 0 00-.11-.114zM45.186 3.053v2.03a.226.226 0 00.225.225h6.974a.108.108 0 01.109.108v2.283a.11.11 0 01-.109.111h-6.974a.226.226 0 00-.225.225v6.797a.225.225 0 00.225.225h6.974a.112.112 0 01.109.112v3.79a.224.224 0 01-.137.207.224.224 0 01-.086.018h-5.136a.226.226 0 00-.22.17l-.499 2.17a.112.112 0 00.108.136h7.77a.673.673 0 00.674-.673v-8.19a.225.225 0 00-.226-.225h-6.968a.108.108 0 01-.111-.111v-2.072a.111.111 0 01.111-.11h6.974a.225.225 0 00.225-.226v-7a.228.228 0 00-.225-.225H45.41a.226.226 0 00-.225.225zM74.57 5.632h-7.727a.112.112 0 00-.11.112v1.36a.106.106 0 00.03.08.109.109 0 00.08.032h5.739a.106.106 0 01.08.032.108.108 0 01.03.08v3.055a.112.112 0 01-.11.112h-.665a.11.11 0 00-.109.085l-.374 1.615a.113.113 0 00.022.095.112.112 0 00.087.042h2.337a.913.913 0 00.913-.913V5.858a.223.223 0 00-.223-.226zM73.358 13.62v6.417a.222.222 0 01-.226.223h-1.555a.226.226 0 00-.22.168l-.388 1.427a.114.114 0 00.112.145h4.029a.895.895 0 00.893-.896V13.62h-2.645z"></path><path d="M65.81 7.984v3.156a.224.224 0 00.226.222h5.025a.222.222 0 00.222-.222V7.984a.22.22 0 00-.064-.16.224.224 0 00-.158-.066h-5.025a.225.225 0 00-.225.226zm3.587 2.111h-1.712a.114.114 0 01-.111-.111v-.859a.114.114 0 01.111-.111h1.712a.111.111 0 01.111.111v.856a.112.112 0 01-.11.114zM83.564 14.321v-1.403a.111.111 0 00-.111-.112H65.907a.111.111 0 00-.11.112v1.403c0 .062.049.112.11.112h17.546c.061 0 .111-.05.111-.112zM83.29 16.744V15.34a.111.111 0 00-.111-.111H66.184a.111.111 0 00-.111.111v1.404c0 .061.05.111.111.111H83.18c.062 0 .111-.05.111-.111zM84.212 19.15v-1.404a.111.111 0 00-.111-.112H65.263a.111.111 0 00-.112.111v1.404c0 .062.05.112.112.112H84.1c.061 0 .111-.05.111-.112zM9.97 9.724c.1 5.678-4.823 9.476-7.756 9.673A.222.222 0 002 19.62v2.06a.224.224 0 00.143.208c.028.01.058.016.088.014 2.189-.13 4.671-1.312 6.549-3.138 1.689-1.635 3.71-4.531 3.71-9.043V2.223A.222.222 0 0012.266 2H10.2a.223.223 0 00-.223.223L9.97 9.724z"></path><path d="M12.475 9.724c-.103 5.678 4.83 9.476 7.753 9.673a.226.226 0 01.216.223v2.06a.225.225 0 01-.069.161.223.223 0 01-.165.061c-2.185-.13-4.67-1.312-6.545-3.138-1.69-1.635-3.71-4.531-3.71-9.043V2.223A.223.223 0 0110.178 2h2.066a.223.223 0 01.225.223l.006 7.501z"></path></svg>