<svg fill="currentColor" fill-rule="evenodd" height="1em" style="flex:none;line-height:1" viewBox="0 0 167 24" xmlns="http://www.w3.org/2000/svg"><title>XiaomiMiMo</title><path clip-rule="evenodd" d="M34.192 6.736c5.13 0 5.87 4.168 5.87 5.733v9.174h-3.171v-1.497C35.99 21.344 34.147 22 32.18 22c-.46 0-4.46-.107-4.788-3.936-.283-3.23 2.335-5.58 7.103-5.58h2.395c0-1.948-1.27-3.068-3.405-3.068a6.746 6.746 0 00-4.152 1.586l-1.248-2.298c1.679-1.313 3.505-1.968 6.106-1.968zm1.156 8.115c-3.65 0-4.7 1.425-4.588 2.566.11 1.141 1.12 1.861 2.622 1.861a3.5 3.5 0 003.509-3.353l.005-1.074h-1.548zM49.511 7.083c4.373 0 7.21 3.362 7.21 7.454 0 4.09-2.85 7.458-7.21 7.458-4.358 0-7.21-3.367-7.21-7.456 0-4.088 2.835-7.456 7.21-7.456zm0 2.885c-2.294 0-4.093 1.686-4.093 4.571 0 2.884 1.8 4.573 4.093 4.573 2.295 0 4.093-1.693 4.093-4.573 0-2.881-1.797-4.57-4.093-4.57z"></path><path d="M109.72 2.376a1.58 1.58 0 01.923.082 1.583 1.583 0 01.991 1.475v16.47a1.593 1.593 0 01-.463 1.126 1.59 1.59 0 01-2.714-1.125V7.847l-5.769 5.966a1.596 1.596 0 01-2.268.057 1.593 1.593 0 01-.228-.285L91.914 5.04a1.593 1.593 0 01.075-2.206 1.59 1.59 0 012.203-.008l7.354 7.58 7.362-7.58c.219-.228.502-.385.812-.45zM116.876 2.391c.413 0 .81.16 1.107.449.295.288.466.68.477 1.093v16.476a1.584 1.584 0 01-2.706 1.12 1.591 1.591 0 01-.465-1.123V3.933a1.585 1.585 0 011.587-1.542zM123.707 9.366a1.587 1.587 0 011.585 1.589v9.449a1.593 1.593 0 01-.463 1.125 1.59 1.59 0 01-2.246 0 1.596 1.596 0 01-.463-1.125v-9.45a1.588 1.588 0 011.587-1.588zM123.712 2.282a1.591 1.591 0 011.132.545l7.366 7.59 7.352-7.59a1.583 1.583 0 012.441.228c.176.26.27.567.272.88v16.471a1.598 1.598 0 01-1.577 1.589 1.587 1.587 0 01-1.585-1.589V7.85l-5.769 5.966a1.597 1.597 0 01-1.117.481 1.592 1.592 0 01-1.129-.448l-.019-.023-.015-.012-8.496-8.775a1.597 1.597 0 01-.51-1.148 1.6 1.6 0 01.481-1.16c.154-.15.34-.267.542-.344.201-.077.416-.113.631-.104zM93.056 9.426a1.592 1.592 0 011.59 1.529v9.449a1.6 1.6 0 01-.469 1.125 1.59 1.59 0 01-.517.342 1.587 1.587 0 01-2.191-1.467v-9.45a1.592 1.592 0 011.587-1.528zM147.235 6.461a1.587 1.587 0 011.832 2.256 6.82 6.82 0 00-.772 4.238 6.819 6.819 0 001.926 3.855 6.803 6.803 0 008.082 1.155 1.595 1.595 0 012.157.624 1.603 1.603 0 01-.151 1.76c-.13.163-.291.299-.473.4a9.903 9.903 0 01-4.777 1.224 9.962 9.962 0 01-7.014-2.853 9.98 9.98 0 01-2.989-6.96 9.993 9.993 0 011.231-4.973 1.59 1.59 0 01.948-.726zM73.054 7.138c2.354 0 4.157 1.608 4.14 5.361v9.154h-3.167v-8.257c0-1.08-.004-3.395-2.181-3.395-2.174 0-2.174 2.314-2.174 2.905v8.745h-3.078v-8.745c0-.591-.003-2.905-2.179-2.905-2.175 0-2.174 2.316-2.174 3.395v8.257h-3.172V7.69h3.172v1.232a4.222 4.222 0 013.276-1.784c1.38 0 2.632.667 3.4 2.377a4.567 4.567 0 014.138-2.377zM10.431 10.16l5.044-6.143h3.94l-6.953 8.618 7.4 9.016h-4.189l-5.242-6.5-5.239 6.5H1l7.399-9.018-6.95-8.616h3.939l5.043 6.142zM24.793 21.65h-3.17V7.694h3.17v13.958zM83.595 21.65h-3.17V7.694h3.17v13.958zM150.224 3.236a9.975 9.975 0 016.21-1.13 9.98 9.98 0 018.465 8.475 10.003 10.003 0 01-1.126 6.216 1.592 1.592 0 01-1.392.828 1.59 1.59 0 01-1.391-2.357 6.819 6.819 0 00-1.154-8.093 6.802 6.802 0 00-8.085-1.155 1.582 1.582 0 01-1.223.158 1.588 1.588 0 01-1.159-1.365 1.596 1.596 0 01.364-1.183c.136-.162.302-.297.491-.394zM23.208 2.004a1.964 1.964 0 012.03 2.013 2.038 2.038 0 01-.594 1.438 2.034 2.034 0 01-1.436.597 2.033 2.033 0 01-1.877-1.257 2.037 2.037 0 01-.156-.778 1.97 1.97 0 012.033-2.013zM82.013 2.002A1.963 1.963 0 0184.06 4.02a2.03 2.03 0 11-4.063 0 1.97 1.97 0 012.016-2.018z"></path></svg>