<svg fill="currentColor" fill-rule="evenodd" height="1em" style="flex:none;line-height:1" viewBox="0 0 24 24" width="1em" xmlns="http://www.w3.org/2000/svg"><title>xpay</title><path d="M8.041 2.045v1.76a.024.024 0 01-.024.024c-.44-.003-.841-.001-1.202.005-.739.013-1.476.277-1.926.884-.246.332-.32.764-.32 1.22l.001 2.348c.01.75-.018 1.283-.084 1.599a3.896 3.896 0 01-1.275 2.183.02.02 0 000 .015c0 .002.002.004.004.006.916.927 1.345 2.262 1.35 3.548.005 1.185.006 2.274.003 3.266 0 .338.054.681.237 1.026.23.431.756.758 1.2.889.607.18 1.274.142 2.016.134a.02.02 0 01.014.006.02.02 0 01.006.014v1.768a.023.023 0 01-.023.024c-.582-.007-1.346.044-1.935-.053-.844-.138-1.56-.468-2.146-.988-.78-.694-1.177-1.586-1.19-2.674a173.556 173.556 0 01-.006-3.368c.01-1.182-.579-2.848-2.06-2.772-.035.001-.25 0-.648-.004A.034.034 0 010 12.871v-1.754c0-.009.004-.017.01-.024a.034.034 0 01.024-.01c.673.002 1.188.056 1.675-.197.495-.258.839-.77.972-1.307.047-.188.067-.478.061-.871-.01-.74-.008-1.733.005-2.98.013-1.193.494-2.152 1.445-2.878a3.853 3.853 0 011.478-.692c.778-.181 1.36-.162 2.333-.152a.039.039 0 01.038.039zM16 22.726v-1.74c0-.01.004-.018.01-.025a.036.036 0 01.026-.01c.53.005 1.034.023 1.535-.058.549-.088 1.068-.351 1.403-.76.233-.286.355-.649.365-1.09l.02-3.45c.005-1.006.26-1.93.764-2.77.11-.185.299-.427.567-.727a.032.032 0 00-.003-.045 3.902 3.902 0 01-1.249-2.142c-.068-.32-.099-.831-.093-1.534.007-.801.008-1.601.005-2.4-.002-.473-.058-.877-.318-1.253-.43-.62-1.24-.887-1.987-.891l-1.012-.005A.034.034 0 0116 3.792V2.038a.031.031 0 01.02-.029 5.412 5.412 0 012.608.258c.5.163.957.433 1.372.809.762.691 1.153 1.57 1.173 2.635.005.307.007 1.423.005 3.348 0 .728.386 1.513 1.061 1.84.24.117.5.176.778.18a48.113 48.113 0 001.012.004.02.02 0 01.006.005.02.02 0 01.006.014v1.785a.022.022 0 01-.021.021c-.2-.003-.511-.003-.932 0-.533.004-.953.22-1.262.65-.25.347-.437.777-.563 1.29-.066.27-.095.74-.085 1.412.004.345.003 1.259-.004 2.74-.006 1.24-.497 2.222-1.474 2.946-.628.466-1.373.735-2.234.807-.186.015-.664.017-1.434.005a.032.032 0 01-.023-.01.032.032 0 01-.009-.022z"></path><path d="M10 13.821c.005 0 .01-.004.016-.011l3.073-3.789a.055.055 0 01.042-.02h1.859a.01.01 0 01.005.002.01.01 0 01.004.005.01.01 0 01-.001.01l-4.035 4.969c-.002.003-.004.007-.004.013 0 .006.002.01.004.014l4.033 4.97a.01.01 0 01.002.005v.005a.01.01 0 01-.004.004.01.01 0 01-.006.002H13.13a.054.054 0 01-.042-.02 4418.41 4418.41 0 01-3.073-3.79c-.006-.008-.01-.011-.015-.011-.004 0-.01.003-.016.01a3639.522 3639.522 0 01-3.073 3.79.055.055 0 01-.042.02H5.01a.01.01 0 01-.009-.007.01.01 0 01.001-.01l4.035-4.969c.003-.003.004-.007.004-.014 0-.005-.001-.01-.004-.013l-4.033-4.97a.01.01 0 01-.002-.005.01.01 0 01.005-.01.01.01 0 01.005-.001h1.859a.055.055 0 01.042.02l3.072 3.79c.006.007.011.011.016.011z"></path><path d="M15.002 4c.016 0 .026.018.03.054.042.388.098.748.17 1.08.088.41.228.848.523 1.142.294.295.731.437 1.141.525.332.071.692.128 1.08.17.036.005.054.015.054.031s-.018.026-.055.03c-.387.042-.747.099-1.08.17-.41.087-.846.228-1.141.523-.296.294-.437.731-.525 1.141-.071.332-.128.692-.17 1.08-.005.036-.015.054-.031.054s-.026-.018-.03-.055a10.61 10.61 0 00-.17-1.08c-.088-.41-.228-.847-.523-1.141-.294-.295-.731-.437-1.141-.525a10.528 10.528 0 00-1.08-.17c-.036-.005-.054-.015-.054-.031s.018-.026.055-.03c.388-.042.747-.099 1.08-.17.41-.087.847-.228 1.141-.523.296-.294.437-.731.525-1.141.072-.332.128-.692.17-1.08.005-.036.015-.054.031-.054z"></path></svg>