<svg fill="currentColor" fill-rule="evenodd" height="1em" style="flex:none;line-height:1" viewBox="0 0 95 24" xmlns="http://www.w3.org/2000/svg"><title>Yandex</title><path d="M15.322 10.493L19.928 0H16.1l-4.605 10.493h3.826zm-2.451 11.195v-3.68c0-2.782-.35-3.588-1.401-5.903L5.918 0H2l7.096 15.486v6.202h3.775zM54.68 22c1.737 0 3.177-.806 4.163-2.34l.195 2.028h3.424V0h-3.71v7.84c-.934-1.404-2.296-2.158-3.917-2.158-3.58 0-6.071 3.03-6.071 8.27 0 5.175 2.426 8.048 5.915 8.048zm22.752-1.365v-3.03c-1.154.78-3.074 1.47-4.89 1.47-2.698 0-3.736-1.288-3.892-3.901h8.938v-1.977c0-5.46-2.4-7.515-6.097-7.515-4.514 0-6.668 3.459-6.668 8.204 0 5.462 2.686 8.114 7.407 8.114 2.374 0 4.113-.624 5.202-1.365zM37.557 10.428c.687-.845 1.777-1.56 3.113-1.56 1.31 0 1.894.559 1.894 1.742v11.078h3.71V10.233c0-3.12-1.245-4.486-4.268-4.486-2.205 0-3.515.806-4.268 1.56h-.181l-.091-1.313h-3.62v15.694h3.71v-11.26zm-6.733.559c0-3.81-1.92-5.24-5.85-5.24-2.452 0-4.385.78-5.513 1.43v3.095c.998-.754 3.178-1.56 5.085-1.56 1.764 0 2.581.624 2.581 2.301v.884h-.597c-5.668 0-8.185 1.873-8.185 5.045 0 3.186 1.933 4.967 4.8 4.967 2.179 0 3.113-.715 3.826-1.47h.156c.026.404.156.937.273 1.249h3.619a37.98 37.98 0 01-.195-3.836v-6.865zm58.012 10.7H93l-5.098-8.074 4.41-7.619h-3.697L85.93 10.74l-2.984-4.746H78.77l4.735 7.515-4.916 8.179h3.762l3.152-5.305 3.334 5.305zM55.77 8.622c1.984 0 2.983 1.586 2.983 5.2 0 3.654-1.05 5.254-3.139 5.254-2.024 0-3.022-1.56-3.022-5.123 0-3.72 1.063-5.331 3.178-5.331zm15.657 0c1.842 0 2.4 1.52 2.4 3.484v.312h-5.176c.104-2.496.999-3.796 2.776-3.796zm-44.3 9.322c-.467.69-1.336 1.248-2.646 1.248-1.557 0-2.335-.87-2.335-2.21 0-1.781 1.271-2.431 4.45-2.431h.531v3.393z"></path></svg>