<svg height="1em" style="flex:none;line-height:1" viewBox="0 0 24 24" width="1em" xmlns="http://www.w3.org/2000/svg"><title>Yuanbao</title><path d="M11.988 23.968c6.612 0 11.972-5.361 11.972-11.974S18.6.021 11.988.021C5.376.02.016 5.38.016 11.994s5.36 11.974 11.972 11.974z" fill="#E5FFE7"></path><path d="M17.281 14.715s-3.273 9.93-15.24 3.982c0 0 3.26 5.434 10.249 5.275l9.48-8.489-4.489-.77v.002z" fill="#8FF793"></path><path d="M21.64 4.9c-1.93-2.377-5.41-2.94-8.006-1.208a5.991 5.991 0 00-1.65 8.311 5.995 5.995 0 01-2.785 8.909 5.93 5.93 0 01-6.457-1.356 6.123 6.123 0 01-.886-1.152C-1.606 12.932-.097 5.663 5.32 2.044a11.936 11.936 0 0116.318 2.855h.003z" fill="#38CF6F"></path><path d="M23.75 9.66a12.77 12.77 0 00-.733-2.356c-.77-1.64-2.841-2.378-4.57-1.452-1.156.622-1.847 1.884-1.691 3.187.017.127.045.274.072.394.25.732.43 1.51.525 2.328a10.718 10.718 0 01-5.548 10.658c-.998.538-2.025.91-3.055 1.121 3.19.898 6.76.538 9.92-1.586 4.013-2.698 6.072-7.563 5.086-12.296h-.003l-.002.003z" fill="#38CF6F"></path></svg>