<svg fill="currentColor" fill-rule="evenodd" height="1em" style="flex:none;line-height:1" viewBox="0 0 50 24" xmlns="http://www.w3.org/2000/svg"><title>Z.ai</title><path d="M43.794 21.722V7.02h4.078v14.702h-4.078zm2.048-16.597a2.215 2.215 0 01-1.56-.603c-.427-.408-.641-.896-.641-1.464 0-.562.214-1.043.641-1.445A2.196 2.196 0 0145.842 1c.607 0 1.123.204 1.55.613.435.402.652.883.652 1.445 0 .568-.217 1.056-.651 1.464a2.182 2.182 0 01-1.55.603zM32.351 22c-.938 0-1.773-.163-2.507-.488a4.037 4.037 0 01-1.742-1.465c-.422-.65-.632-1.46-.632-2.43 0-.818.15-1.504.45-2.059.3-.555.708-1.002 1.225-1.34a5.942 5.942 0 011.761-.765c.664-.173 1.36-.294 2.087-.364a52.88 52.88 0 002.067-.249c.523-.083.903-.204 1.14-.364.235-.16.353-.395.353-.708v-.057c0-.607-.191-1.076-.574-1.407-.376-.332-.912-.498-1.608-.498-.734 0-1.318.163-1.752.488a2.246 2.246 0 00-.861 1.206l-3.771-.306a5.124 5.124 0 011.13-2.317c.56-.657 1.285-1.16 2.172-1.512.893-.357 1.927-.536 3.101-.536.817 0 1.599.096 2.345.287.753.192 1.42.488 2 .89.588.402 1.05.92 1.389 1.551.338.625.507 1.375.507 2.25v9.915h-3.867v-2.038h-.115c-.236.46-.552.864-.947 1.215a4.387 4.387 0 01-1.427.814c-.555.191-1.196.287-1.924.287zm1.168-2.814c.6 0 1.13-.118 1.589-.354.46-.243.82-.568 1.082-.977.261-.408.392-.87.392-1.387v-1.56c-.128.082-.303.159-.526.23a9.587 9.587 0 01-.737.181 36.44 36.44 0 01-.824.144l-.746.105c-.479.07-.897.182-1.254.335-.357.153-.635.36-.833.622-.197.255-.296.574-.296.957 0 .555.2.98.603 1.273.408.287.925.43 1.55.43zM22.514 21.971a2.236 2.236 0 01-1.627-.67 2.236 2.236 0 01-.67-1.627c0-.625.223-1.161.67-1.608.453-.446.995-.67 1.627-.67.613 0 1.149.224 1.608.67.46.447.69.983.69 1.608 0 .421-.11.808-.326 1.158-.21.345-.489.623-.833.833a2.193 2.193 0 01-1.139.306zM2.02 21.722v-2.46L11.8 5.537H2V2.12h15.008v2.46L7.216 18.305h9.811v3.417H2.02z"></path></svg>