<svg fill="currentColor" fill-rule="evenodd" height="1em" style="flex:none;line-height:1" viewBox="0 0 24 24" width="1em" xmlns="http://www.w3.org/2000/svg"><title>01.AI</title><path clip-rule="evenodd" d="M18.62 13.927c.611 0 1.107.505 1.107 1.128v5.817c0 .623-.496 1.128-1.108 1.128a1.118 1.118 0 01-1.108-1.128v-5.817c0-.623.496-1.128 1.108-1.128h.001zM16.59 3.052a1.095 1.095 0 011.562-.13c.466.405.522 1.117.126 1.59l-5.938 7.112v9.147c0 .624-.496 1.129-1.108 1.129a1.119 1.119 0 01-1.108-1.13v-9.476l.003-.088.01-.087a1.14 1.14 0 01.261-.654l6.192-7.413zM2.906 2.256a1.094 1.094 0 011.559.157l4.387 5.45a1.142 1.142 0 01-.155 1.587 1.094 1.094 0 01-1.559-.157l-4.387-5.45a1.144 1.144 0 01.06-1.498l.095-.09z"></path><path d="M20.146 12.071c.748 0 1.354-.617 1.354-1.379s-.606-1.379-1.354-1.379c-.748 0-1.354.617-1.354 1.379s.606 1.379 1.354 1.379z"></path></svg>